<?xml version="1.0" encoding="UTF-8"?>
<svg xmlns="http://www.w3.org/2000/svg" viewBox="0 0 4778.56 3143.29">
  <defs>
    <style>
      .cls-1, .cls-2, .cls-3 {
        fill: none;
      }

      .cls-2, .cls-3, .cls-4, .cls-5 {
        stroke-miterlimit: 10;
        stroke-width: 3px;
      }

      .cls-2, .cls-5 {
        stroke: #003c56;
      }

      .cls-3, .cls-4 {
        stroke: #00273c;
      }

      .cls-6, .cls-5 {
        fill: #003c56;
      }

      .cls-7, .cls-4 {
        fill: #00273c;
      }

      .cls-8 {
        fill: #fff;
      }

      .cls-9 {
        fill: #ffc550;
      }
    </style>
  </defs>
  <g id="light">
    <g>
      <path class="cls-9" d="M2439.59,1944.57c.4-.34,.93-.61,1.16-1.05,.53-.99,.92-2.07,1.48-3.36-.07-.54-.17-1.4-.28-2.24,.78-1.25,1.09-1.38,4.75-2,.41-.65,.89-1.42,1.23-1.96,.22-1.79-1.57-3.36,.45-5,1.64-.43,3.6-.94,6.01-1.58,.56,.2,1.62,.59,2.85,1.04,.51,.69,1.11,1.51,1.88,2.56,.54-.52,.92-.89,1.55-1.49,2.43,1.14,5.1,2.39,8.05,3.77,.4,1.78,1.3,3.28,3.83,3.16,1.04-.05,2.13,.74,3.29,1.18-.06,.51-.11,.93-.2,1.64,2.02,.71,3.34,2.95,6.03,2.9,.76-.61,1.55-1.25,2.6-2.1v-5.55s.42-.26,.48-.3c1.4-2.05,2.59-3.77,3.64-5.31-.21-1.81-.42-3.68-.63-5.54,2.43-.56,4.11,.03,5.44,1.77,.62,.82,1.44,1.49,2.14,2.25q2.71,2.94,6.68,2.9c-.14,.9-.21,1.76-.41,2.58-.55,2.26-.57,2.26,1.16,4.23,.96,5.27-1.15,9.95-2.88,14.75-.64,1.76-.65,3.75-.62,5.66-1.12,2.38-2.21,4.78-3.38,7.13-.87,1.74-1.83,3.43-2.81,5.11-.28,.48-.71,.93-1.18,1.23-2.79,1.82-5.61,3.59-8.45,5.41-.2,.5-.4,1.04-.67,1.74,.4,.84,.84,1.76,1.3,2.71-.22,.27-.38,.6-.65,.77-1.83,1.16-3.66,1.49-5.85,.72-2.58-.9-5.3-1.39-7.98-1.96-.5-.11-1.09,.22-1.61,.34q-3.29-3.47-7.8-2.91c-2.58-.93-2.9-3.67-4.21-5.6-1.35-1.98-2.26-4.26-3.45-6.35-1.4-2.47-2.22-4.98-1.09-8.01-1.92-1.06-.48-3.12-1.29-4.74-.79-1.58-.99-3.45-1.38-4.92-1.06-1.03-2.19,.29-3.27-1.03-1.1-1.36-2.96-.28-4.26,.88-.61-.74-1.12-1.37-1.63-2v-1.39Z"/>
      <path class="cls-9" d="M3376.01,1985.38c4.39-2.37,9.32-3.73,10.8-9.05,.9-.23,1.64-.43,2.64-.68-.46-2.37-.88-4.58-1.34-6.94,.49-.29,.96-.58,1.42-.85,4.51,2.24,6.35,4.13,7.89,8.07,1.52,1.17,3.29,.67,5,.65,1.51-.02,3.06-.13,3.86,1.91-.88,.65-1.86,1.23-2.66,1.99-.79,.76-1.41,1.69-2.19,2.66,1.41,1.22,2.53,2.19,3.72,3.22-.47,1.48-.91,2.88-1.3,4.12-2.45,1.61-4.83,3.18-7.21,4.75,2.05,3.58-1.73,4.7-3.11,7.38-.16,.75-.42,1.99-.64,3.09-1.71,2.59-3.75,4.79-4.58,7.78-.29,1.06-1.15,2.01-1.9,2.87-3.17,3.62-6.21,7.35-10.1,10.28-.88,.66-1.62,1.59-2.23,2.53-.94,1.46-1.93,2.47-3.72,3.18-1.98,.79-3.49,2.76-4.96,4-.96,2.34,1.24,3.04,1.75,4.59-1.61,3.02-4.29,3.4-7.61,2.85-.57-.52-1.31-1.19-2.15-1.95-3.28,1.65-5.97,.54-8.41-1.84-1.36-1.33-3.37-1.99-4.05-4.01-.26-.76-.83-1.54-.76-2.26,.24-2.59-1.14-4.6-1.92-6.88-.87-2.54-2.74-3.9-4.51-5.48-1.17-1.05-2.49-1.91-3.56-3.11-1.06-.39-2.12-.76-3.16-1.18-.64-.26-1.23-.78-1.87-.85-4.51-.47-6.13-4.07-7.78-7.4-1.84-3.71-4.53-6.78-6.84-10.13-.32-.46-.67-.9-1.16-1.55,.67-.56,1.23-1.03,1.76-1.47,.46-1.45,.92-2.86,1.44-4.48-.75-3.57-4.49-5.87-5.15-10.05,1.44,.52,2.57,.93,3.94,1.42,1.41-2.58,3.93-.52,6.22-1.21,1.66-2.38,3.44-4.96,5.2-7.49,1.99,1.04,1.05,2.71,1.64,4.15,.63,.66,1.42,1.49,2.2,2.31,1,.13,1.99,.25,3.15,.4,1.73-1.81,3.54-3.72,5.37-5.6,.47-.48,.94-1.05,1.53-1.29,1.97-.8,2.76-2.35,3.04-4.29q3.31-1.66,2.75-5.62c1.09-1.95,2.89-2.03,5.07-1.8,.6,.54,1.36,1.23,2.32,2.1,1.11,.18,2.47,.61,3.83,.59,2.13-.04,3.83,.5,5.13,2.27,.47,.63,1.22,1.04,1.76,1.49,.35,.98,.66,1.84,.98,2.74,1.32,.83,2.67,1.49,4.24,.98,1.27-.42,2.24-.08,3.11,.82,.32,3-2.92,4.58-3.04,7.43,1.17,.79,2.32,1.48,3.37,2.3,.93,.73,1.75,1.6,2.76,2.54Z"/>
      <path class="cls-9" d="M2594.21,2117.23c2.75,1.32,3.43,1.2,6.13-1.37,.96,.92,1.93,1.84,3.46,3.3,1.36,.17,3.49,.43,6.16,.77,.23,.74,.62,2.01,1.12,3.66,2.75,1.74,6.62,1.68,9.26,4.42,.92-1.12,1.42-1.72,1.96-2.39,.74,.52,1.55,1.08,2.47,1.73,.89-.58,1.73-1.13,2.51-1.65,.99,1.13,1.96,2.22,2.92,3.32,.96,1.3,.38,2.49-.37,3.74-.71,1.17-1.43,2.4-1.79,3.7-.64,2.31-2,4.11-3.56,5.8-1.4,1.52-2.95,2.89-4.36,4.39-.22,.23-.03,.85-.03,1.3-2.99,.51-4.89,2.68-6.96,4.59-2.36,2.17-3.19,2.58-5.55,2.78-1.57,2.02-3.11,3.98-4.75,6.08-.61-.14-1.14-.27-1.71-.4-1.19,.66-2.44,1.36-3.85,2.15-.36-1.09-.6-1.83-.9-2.77-.79,.68-1.46,1.25-2.22,1.91-1.06-.58-2.06-1.13-3.19-1.75-.25-.63-.54-1.36-.98-2.45-1.2-.16-2.57-.66-3.81-.45-3.1,.54-6.01-.07-8.8-1.15-1.25-.48-2.39-.6-3.66-.58-2.52,.05-5.04,.01-7.72,.01v-3.41c-2.45-1.25-4.76-2.43-7.19-3.66-.08-.89-.16-1.78-.24-2.76-2.22-1.52-4.08-3.35-4.28-5.96-4.19-4.52-9.24-7.79-12.79-12.57,.93-1.15,1.56-1.94,2.33-2.89,2.3,.35,3.58-1.61,5.04-2.92,1.31-1.17,2.08-2.96,3.08-4.47,.61,.3,1.23,.61,1.91,.94,.79-.96,1.56-1.88,2.32-2.8,2.35,2.26,2.57,2.28,6.27,.31,.5,.4,1.09,.88,1.69,1.35,.61,.48,1.19,1.01,1.84,1.42,1.44,.91,3.11,1.56,4.36,2.68,2.77,2.48,6.14,3.58,9.63,5,3.33-5.03,8.35-7.24,14.26-8.94Z"/>
      <path class="cls-9" d="M3243.84,2293.7c-.66,.43-1.14,.74-1.51,.98-.47-.18-.88-.34-1.26-.48-.57,.98-1.06,1.83-1.59,2.75-1.91-.82-1.87-2.47-1.29-3.56,2.17-4.04,1.36-7.89-.22-11.79-.08-.19,.03-.45,.07-.84,.77-.25,1.6-.52,2.41-.78-.13-1.3-.25-2.49-.41-4.18,1.23,.45,1.91,.7,2.96,1.08,.48-1.59,.96-3.16,1.58-5.22,1.48,1.83-.15,4.13,1.92,5,.44-.73,.9-1.5,1.43-2.37,.81,.5,1.48,.91,2.4,1.48,2.54-1.09,5.23-2.24,8.06-3.45,.57,1.14,.11,2.29-.36,3.64,.25,.44,.58,1.03,.8,1.42,1.12,.1,2.05,.15,2.97,.26,1.02,.12,2.04,.43,3.04,.37,1.05-.06,2.31-.97,3.07-.62,1.48,.67,1.77-1.22,2.6-.93,1.42,.5,1.87-.25,2.34-1.37,1.87-.25,3.78-.5,5.89-.78,.57-1.26,1.21-2.7,2.03-4.51,1.06,1.64,2.29,2.29,4.01,2.49,1.17,.14,2.21,1.35,3.16,1.98,.63,3.5,1.3,7.09,1.92,10.68,.11,.66,.29,1.5,0,2.01-1.23,2.2-.67,4.2,.34,6.23,.15,.3,.19,.65,.32,1.16-1.34,.6-2.21,1.52-2.73,3.05-.84,2.47-2.08,4.81-3.28,7.15-.94,1.84-1.99,3.62-3.12,5.35-.68,1.04-1.58,1.93-2.41,2.91,.68,2.97,4.22,3.41,5.54,6.01-.96,.8-1.86,1.55-2.88,2.4-2.31-.22-4.77-.46-7.59-.74-2.34,1.16-3.57,3.72-4.9,6.76-.6-1-.96-1.58-1.45-2.38,.94-.29,1.58-.48,2.38-.73-1.66-2.75-4.58-2.82-6.78-4.05-2.19-1.23-4.65-1.96-6.97-2.9-.39-.84-.77-1.64-1.2-2.57,.29-.99,.64-2.17,.95-3.22-1.83-3.75-4.94-5.88-7.9-8.18-2.32-1.81-4.15-3.91-3.64-7.22,.09-.61-.38-1.31-.69-2.29Z"/>
      <path class="cls-9" d="M2639.75,2518.58c.09-1.28,.15-2.31,.21-3.17,2.2,1.18,4.37,2.35,6.71,3.61,.46-.7,.83-1.26,1.15-1.75,1.26-.34,2.47-.67,4.2-1.14,.07,.03,.76,.31,1.04,.42,2.07,2.75,3.95,5.25,6.12,8.14,.06,.51,.17,1.52,.32,2.77,1.99-.28,4-.2,5.67-.9,1.69-.72,3.05-2.22,4.31-3.8,1.52-.44,3.03-.87,5.27-1.52,.29-.31,1.07-1.14,2.08-2.21,.86,2.38,1.09,5.16,3.36,6.36-.89,2.7-1.77,5.36-2.66,8.05,1.56,.81,2.85,1.47,4.61,2.38-1.77,1.1-3.09,1.92-4.55,2.82,.4,1.33,.77,2.57,1.27,4.23-1.29-.1-2.14-.17-2.87-.23-4.25,2.05-9.14,3.03-11.97,7.95-.18,.52-.56,1.64-.99,2.9-2.5-.73-3.59,1.02-5.1,2.53v5.21q-2.21,1.11-4.29-2c-.74,.66-1.45,1.29-2.42,2.15-1.05-.8-2.11-1.61-3.46-2.63-.44-.03-1.27-.09-1.9-.13-2.58-3.42-1.81-7.07-1.18-10.74,.36-2.12,.54-4.26,.76-6-1.88-2.33-5.17-2.37-5.8-4.84-.59-2.31-2.85-4.44-1.18-7.22-1.12-1.58-2.55-3.04-3.26-4.79-.68-1.67-.62-3.65-.91-5.65,1.47-1.87,3.5-.62,5.45-.8Z"/>
    </g>
  </g>
  <g id="b2">
    <path class="cls-6" d="M3657.79,1641.41h1091.65v1501.88h-698.1c.07-.69,.2-1.38,.2-2.08,.01-28.97,.03-57.94,0-86.91,0-1.34-.37-2.67-.59-4.13-21.61-7.51-43.04-14.96-64.47-22.4-21.65-7.52-43.31-15.04-64.95-22.57-21.43-7.45-42.86-14.92-64.28-22.38-21.43-7.46-42.86-14.92-64.28-22.38-21.65-7.54-43.29-15.08-64.94-22.62-21.43-7.46-42.86-14.92-64.29-22.37-21.65-7.52-43.33-14.97-64.96-22.55-21.38-7.5-42.87-14.69-64.01-22.42-1.01-2.56-1.87-4.7-2.7-6.85-31.83-82.28-63.66-164.56-95.49-246.83-5.28-10.39-6.42-21.45-6.48-32.99-.22-43.57-.88-87.14-1.37-130.7-.47-41.25-.93-82.5-1.39-123.75-.44-38.93-.86-77.87-1.3-116.8-.49-43.8-1.02-87.6-1.47-131.4-.26-24.57-.41-49.13-.59-73.7-.05-6.22-.6-12.43,1.5-18.55,.87-2.52,.9-5.42-.88-8.02-.72-1.04-.87-2.59-.94-3.93-.22-4.16-.35-8.34-.4-12.51-.48-41.25-.95-82.5-1.39-123.75-.22-20.63-.36-41.25-.54-61.88-.09-10.66-.16-21.32-.28-31.98-.01-1.32,.3-2.8-1.46-4-3.72,.32-6.78,2.71-8.62,5.77-2.48,4.1-4.75,8.5-5.32,13.44-.45,3.87-1.65,7.71-.65,11.66-1.06,6.36-.79,12.84-1.61,19.2-.88,6.93-2.93,13.69-7.28,19.25-11.09,14.2-25.77,21.49-43.87,21.21-7.17-.11-14.27-1.31-21.14-3.54-8.82-2.86-16.38-7.77-22.16-14.95-4.63-5.75-6.14-12.49-2.82-19.49,1.97-4.15,4.6-7.99,6.82-12.03,2.54-4.63,6.39-6.48,11.55-5.68,.89,.14,1.76,.44,3.02,.77,.76,2.08,1.56,4.2,2.3,6.34,1.06,3.09,.24,5.91-1.34,8.61-2.02,3.46-5.17,5.16-8.99,5.77-1.36,.22-2.79,.11-3.82,1.79,.15,2.58,2,4.28,4.07,5.77,4.36,3.14,9.14,5.38,14.31,6.9,6.08,1.78,12.34,2.17,18.56,2.26,8.35,.12,15.78-2.63,22.48-7.85,6.75-5.26,10.04-11.89,9.99-20.34-.04-6.03,.12-12.05-.04-18.08-.24-8.99,2.02-17.39,5.51-25.56,2.61-6.11,6.49-11.08,11.82-15.09,4.35-3.27,9.34-5.01,14.27-7.01,1.23-.5,2.4-1.15,3.71-1.78,0-5.15,.02-9.99,0-14.83-.1-21.32-.22-42.64-.33-63.96h112.64c.06,8.33,.11,16.67,.18,25,.03,3.47,.02,6.95,.22,10.42,.3,5.08,.86,10.14,1.16,15.22,.19,3.22,.1,6.41,1.02,9.61,.82,2.84,1.07,5.91,1.14,8.89,.3,12.73,.59,25.47,.6,38.2,.07,54.22,.07,108.43,.05,162.65,0,8.8-.31,17.6-.41,26.39-.08,7.17-.15,14.28,1.66,21.37,3.61,14.18,4.74,28.7,5.18,43.3,.19,6.27-.58,12.47-.78,18.71-.35,11.34-.55,22.69-.41,34.03,.1,8.55,1.08,17.09,1.22,25.64,.22,13.66,.13,27.32,.03,40.98-.03,3.92-.69,7.84-.87,11.77-.48,10.87-1.01,21.73-1.24,32.61-.34,15.96-.53,31.91-1.5,47.86-.79,12.92-.09,25.93-.31,38.89-.37,22.46-.25,44.9,1.05,67.33,.64,11.08,.49,22.19,1.38,33.28,.68,8.52,.6,17.13,.48,25.69-.25,16.92,.37,33.8,1.41,50.67,.23,3.69,.79,7.36,.87,11.05,.19,8.33,2.07,16.55,1.6,24.93-.19,3.46-.09,6.95-.02,10.42,.2,10.42,.38,20.84,.7,31.25,.25,8.33,.81,16.65,1,24.98,.18,7.87-.04,15.75,.13,23.62,.12,5.53,.63,11.06,.92,16.59,.14,2.57-.04,5.02-1.85,7.18-.63,.75-.49,2.15-.68,3.12,6.81,5.28,29.91,19.25,34.75,20.97,.05-2.63,.16-5.14,.14-7.66-.37-33.82-.77-67.65-1.15-101.47-.44-40.08-.86-80.16-1.3-120.24-.46-42.63-.93-85.26-1.39-127.89-.46-42.63-.93-85.26-1.39-127.89-.46-42.63-.93-85.26-1.39-127.89-.49-45.18-.99-90.36-1.49-135.53-.44-40.08-.9-80.16-1.29-120.24-.29-29.66-.49-59.31-.71-88.97-.01-1.61,.15-3.23,.24-4.84h27.81c-.29,4.37-.81,8.74-.85,13.11-.52,53.06-.99,106.13-1.42,159.19-.29,35.92-.46,71.84-.74,107.75-.12,15.52-.44,31.05-.6,46.57-.08,7.64-.01,15.27-.01,23.24,1.33,1.89,2.76,3.99,4.25,6.04,14.57,20.06,29.07,40.16,43.8,60.1,2.78,3.76,3.94,7.55,4,12.15,.26,19,.76,37.99,1.18,56.99,.92,41.93,1.85,83.86,2.75,125.79,.03,1.56-.19,3.13-.31,4.98-2.12,.19-3.92,.45-5.72,.51-10.65,.35-21.31,.64-31.96,1.01-1.54,.05-3.08,.42-4.87,.68-.1,123.86,1.53,247.34,1.82,370.83,0,.61,.34,1.22,.74,2.6,5.55-3.87,11.52-6.37,16.45-10.84,0-2.37,.14-4.68-.03-6.96-.43-5.71,1.35-11.37,.42-17.08,1.91-6.48,1.54-13.24,2.35-19.86,.17-1.38,.26-2.77,.45-4.14,.86-6.16,1.82-12.31,2.6-18.48,1.24-9.82,2.44-19.64,3.53-29.48,1.38-12.42,2.5-24.86,2.37-37.38-.09-7.83-.34-15.66-.09-23.51,.37-11.53,.51-23.07-.31-34.61-.37-5.29-.09-10.62-.02-15.93,.11-8.31,.52-16.63,.4-24.93-.27-18.83,2.8-37.22,6.75-55.76-.43-.61-.96-1.35-1.44-2.02,.44-1.51,.88-3.02,1.12-3.85,1.86-2.2,3.3-3.95,4.8-5.64,.22-.25,.71-.27,1.18-.43,.35,.87,.68,1.7,1.13,2.83,3.02-.48,6.15-.08,9.26-1.15,14.87-5.15,29.97-9.58,45.18-13.61,3.57-.95,7.14-1.94,10.74-2.78,10.35-2.43,20.83-4.4,31.06-7.25,28.09-7.83,56.08-16.03,84.11-24.07,22.92-6.58,45.83-13.17,68.76-19.68,2.87-.81,5.87-1.55,8.82-1.59,3.15-.04,5.9-.88,8.65-2.16,9.24-4.3,18.75-7.89,28.52-10.78,.76-.23,1.37-.97,2.82-2.04-4.91,0-8.87-.44-12.7,.09-10.16,1.39-20.3,1.21-30.5,.85-6.46-.23-12.92-.22-19.38,.92-3.34,.59-6.9,0-10.35-.19-6.92-.39-13.73-2.01-20.71-1.83-6,.16-11.99,.62-18.01,.15-8.53-.67-17.08-1.2-25.62-1.8-3.23-.22-6.47-.29-9.67-.73-5.52-.75-11.04-1.23-16.62-.85-8.31,.57-16.62,1.13-24.94,1.64-3.47,.21-6.95,.21-10.41,.46-8.53,.62-17.06,1.23-25.58,2.05-7.83,.76-15.75-.19-23.55,1.34-1.51,.3-3.23-.11-4.79-.44-5.67-1.21-11.37-1.62-17.15-1.24-1.06,.07-2.14,.01-3.49,.01-.14-1.53-.35-2.65-.33-3.77,.12-7.87,.15-15.74-1.24-23.52-1.56-8.7-2.07-17.46-1.76-26.28,.48-13.67-.81-27.29-1.28-40.93-.19-5.54-.74-11.06-1.05-16.6-.34-6-.14-12.03-1.3-17.98-.29-1.51-.59-3.2,.81-5.07,1.7-.09,3.73-.28,5.76-.29,50.05-.3,100.1-.6,150.15-.85,29.43-.15,58.86-.2,88.29-.32,2.02,0,4.04-.23,6.85-.4-2.13-10.85-3.76-21.22-6.59-31.66-1.96,0-3.55-.07-5.14,.01-12.03,.58-24.06,1.18-36.1,1.8-9.02,.46-18.04,.98-27.06,1.45-16.42,.86-32.85,1.73-49.28,2.54-1.28,.06-2.59-.33-3.89-.52-1.84-8.71-1.78-17.32-3.84-25.86-2.59-.08-4.87-.22-7.15-.22-12.28-.02-24.56-.01-36.85-.01-24.56,0-49.13,.02-73.69-.03-2.22,0-4.63,.71-6.84-1.1-.3-6.15-.73-12.38-.9-18.62-.65-24.32-1.22-48.64-1.82-72.97-.21-8.57-.47-17.14-.64-25.71-.02-1.06,.37-2.13,.63-3.58h76.05c6.49,0,12.98,.05,19.47-.01,6.22-.06,12.46,.31,18.85-.26,.94-2.69,1.45-5.06,.58-7.99-2.06-.11-4.09-.32-6.12-.32-12.05-.03-24.1-.02-36.15-.02-22.71,0-45.42,.02-68.13-.03-2,0-4.19,.63-6.17-1.26-.24-10.21-.58-20.61-.7-31.02-.49-40.78-.94-81.56-1.35-122.34-.36-36.15-.62-72.3-1-108.45-.06-5.54-.57-11.07-.87-16.61Z"/>
    <path class="cls-6" d="M1797.12,3143.29h-565.92V1641.74s.07-.3,.15-.31c.46-.05,.92-.02,1.39-.02h935.68c.14,2.05,.04,4.16,.46,6.15,2.83,13.36,5.79,26.69,8.66,40.04,6.73,31.23,13.42,62.46,20.15,93.69,2.43,11.31,4.92,22.6,7.33,33.68,5.11,3.45,121.36,62.91,127.11,65.04,.62-2.55,.17-5.06-.07-7.55-1.12-11.74-2.45-23.46-3.43-35.21-.78-9.45-1.18-18.93-1.72-28.4-.16-2.77,0-5.58-.31-8.33-1.15-10.38-1.06-20.81-1.24-31.22-.22-12.97,2.76-25.19,8.47-36.83,1.54-3.13,3.12-6.09,5.43-8.78,8.25-9.61,18.68-15.97,30.52-19.7,8.46-2.66,17.23-2.5,26-.05,9.42,2.63,18.33,6.49,27.28,10.26,9.05,3.81,15.53,10.74,20.52,19.01,5.2,8.63,7.93,18.23,9.88,28.02,1.58,7.94,2.52,16,4.18,23.92,1.99,9.54,5.03,12.04,14.36,13.27,2.46,.32,5.1,.01,7.54-.52,7.06-1.54,13.63-4.33,19.75-8.24,5.55-3.55,10.26-7.84,13.58-13.72-.52-.55-.9-1.11-1.43-1.48-6.23-4.35-7.73-10.88-7.52-17.77,.28-9.53,9.32-18.06,19.93-12.51,3.71,1.94,7.29,3.85,10.09,6.9,.51,1.36,.93,2.69,1.49,3.95,1.97,4.4,2.24,9.03,1.37,13.62-.72,3.82-1.36,7.72-3.47,11.19-.93,1.52-1.25,3.41-1.93,5.38-.8,.94-2.26,2-2.78,3.4-.94,2.54-3.29,3.74-4.68,5.8-1.4,2.07-3.15,3.8-5.14,5.43-4.08,3.35-7.76,7.13-12.83,9.14-2.52,1-4.69,2.84-7.16,3.98-2.6,1.2-5.1,2.66-8.21,2.73-1.6,.04-3.45,.86-4.2,1.84,2.05,9.56,4.01,18.53,5.87,27.52,.37,1.77,.06,3.71,.61,5.39,.56,1.71,.04,3.52,1.1,5.26,.81,1.34,.4,3.39,.64,5.11,.63,4.51,1.54,8.99,1.9,13.52,.28,3.61,1.9,7.16,.74,10.87,2.49,2.14,1.48,5.12,1.87,7.77,.65,4.45,3.2,8.03,6.94,9.84,5.8,2.81,10.26,6.91,14.45,11.57,2.32,2.58,4.76,5.09,7.39,7.34,5.09,4.36,10.36,8.52,15.81,12.97-.22,1.72-.47,3.72-.72,5.64-1.6,.63-3.3,.88-4.44,1.82-2.8,2.3-5.78,2.49-9.12,1.8-2.22-.46-4.51-.51-6.29-.7-2.89,2.21-5.25,4.02-7.79,5.96-.99,3.3-3.38,6.24-4.02,9.89,4.16,.99,8.15,1.46,11.75,2.91,4.48,1.8,8.83,4.09,12.89,6.71,8.23,5.32,15.52,11.62,20.21,20.56,2.57,4.91,5.71,9.52,8.69,14.21,2.98,4.69,6.27,9.19,9.05,13.98,1.82,3.14,4.29,4.8,7.74,5.03,3.23,.21,6.49,.39,9.72,.21,5.84-.32,10.26-3.65,11.77-9.16,1.09-3.96,1.52-8.1,2.26-12.25-2.59-1.69-5.58-2.6-6.43-5.49-.84-2.84-2.02-5.92-1.67-8.72,.71-5.64,5.15-8.34,9.91-10.31,1.13,.31,2.01,.6,2.92,.78,5.15,1.01,8.74,3.96,11.08,8.62,.93,1.84,2.14,3.54,3.16,5.22,.06,.82,.27,1.54,.15,2.2-1.51,8.16-2.39,16.45-4.92,24.4-3,9.45-9.54,15.59-18.42,19.52-1.42,.63-2.77,1.42-4.26,2.19-.13,3.29-.36,6.28-.34,9.27,.02,4.17,.33,8.33,.35,12.5,.04,9.49,.06,18.98-.1,28.47-.07,4.2,1.11,7.64,4.24,10.54,7.65,7.09,15.19,14.3,23.66,20.4,3.95,2.85,8.02,5.49,10.72,9.71,.36,.56,.9,1.19,1.48,1.39,3.92,1.36,4.67,5.21,7.27,8.25-2.75,.93-4.91,1.65-7.47,2.52-1.17,1.25-2.74,2.64-3.98,4.3-2.66,3.56-5.86,6.53-9.24,9.39-5.17,4.38-10.91,7.81-16.92,10.86-.38,.19-.63,.63-1,1.02-.03,.62-.07,1.31-.11,2.07-2.68,3.1-6.17,4.49-9.93,4.02-1.22,1.06-2.06,1.78-3.02,2.62-2.34-1.01-4.43-1.92-6.19-2.67-3.09,0-5.88,.3-8.58-.07-3.83-.53-6.84-2.92-9.31-5.69-3.53-3.97-6.71-8.25-10.09-12.36-1.45-1.77-2.9-3.58-4.57-5.13-2.53-2.35-5.46-4.3-7.85-6.78-3.91-4.06-8.51-7.12-13.26-10.02-1.37-.84-2.73-1.67-4.04-2.47,.92-3.35,2.99-5.52,5.86-6.67,5.97-2.41,9.8-7.49,14.6-11.35,3.56-2.86,7.03-5.91,10.12-9.27,3.15-3.41,6.77-6.07,10.6-8.56,2.76-1.8,4.97-4.28,6.1-7.27,1.45-3.85,2.9-7.81,1.74-12.16-.41-1.53-.16-3.23-.3-4.84-.61-6.68-.93-13.42-1.99-20.03-.7-4.35-1.71-8.55-.11-12.94-1.06-.65-1.79-1.26-2.62-1.57-2.88-1.07-5.17-2.9-7.37-5-4.19-4.01-7.75-8.51-11.09-13.24-4.68-6.61-9.21-13.28-12.68-20.63-.78-1.66-1.91-3.16-2.97-4.68-6.3-9.01-14.89-14.98-25.07-18.88-3.8-1.45-7.57-1.91-12.18-.65-2.01,2.13-4.02,5.26-6.87,7.02-4.97,3.07-7.34,7.49-8.75,12.77-.6,2.23-1.36,4.44-1.76,6.71-1.35,7.75-2.65,15.51-3.79,23.29-.57,3.83-.76,7.71-1.15,11.81,3.31,.53,6.2,.99,8.88,1.42,1.22,2.89,.74,5.47,.74,7.98,.03,51.68,.02,103.37,.02,155.05,0,1.85-.08,3.71,.03,5.56,.08,1.32,.43,2.63,.67,4.07,6.28,.52,12.26,1.1,18.25,1.5,15.95,1.06,31.91,2.02,47.86,3.07,1.07,.07,2.12,.53,3.47,.89,0,2.81,.02,5.34,0,7.87-.22,20.16-.48,40.32-.67,60.48-.15,16.92-.2,33.84-.34,50.75-.01,1.76,.55,3.74-1.26,5.17-.64,.05-1.33,.18-2.02,.14-14.35-.7-28.7-1.42-43.04-2.14-.46-.02-.92-.13-1.38-.15-12.49-.69-24.98-1.41-37.48-2.04-1.28-.06-2.59,.37-3.79,.56-.72,8.71-.9,44.19-.2,48.69,13.02,5.81,26.3,11.74,39.63,17.69,6.21,20.42,12.33,40.57,18.44,60.71,.06,.21,.04,.48-.05,.68-.08,.18-.3,.3-.9,.85-14.27-1.14-28.82-3.72-43.97-4.71-.13,2.4-.35,4.42-.32,6.44,.18,12.98,.49,25.95,.63,38.93,.49,44.73,.95,89.45,1.37,134.18,.35,38.24,.63,76.48,.91,114.72,.01,1.82-.19,3.64-.3,5.45-102.46,87.73-204.73,175.29-307.01,262.86-.7,.6-1.45,1.14-2.2,1.69-.18,.14-.41,.22-.63,.29-.22,.06-.45,.07-.91,.14-124.78-27.49-249.78-55.03-374.79-82.56-.22-.05-.49-.05-.69,.04-.19,.09-.31,.32-.88,.93-.06,2.04-.2,4.54-.2,7.05-.01,62.11-.01,124.23,0,186.34,0,2.31,.14,4.63,.22,6.94Zm549.59-1255.45c2.41,1.32,4.59,2.59,6.83,3.73,16.48,8.44,32.98,16.85,49.47,25.28,3.26,1.67,6.68,3.1,8.87,6.62,6.21-2.7,12.07-5.43,17.53-8.83,11.38-7.08,22.6-14.42,32.44-20.73,4.07-4.15,2.24-8.47,4.39-11.64,.46-.67,.34-1.77,.4-2.68,.56-8.52,1.02-17.06,1.66-25.57,.65-8.52-.02-17.1,1.52-25.59,.6-3.3,1.42-6.84-.23-10.34-1.8-.44-3.64-.74-5.37-1.35-3.04-1.07-6.23-1.96-8.98-3.56-6.88-4-13.93-13.72-16.39-21.43-2.43-7.62-4.09-15.43-5.5-23.27-1.29-7.18-3.06-14.17-5.8-20.89-2.58-6.32-6.6-11.45-12.92-14.66-7.63-3.87-15.63-6.85-23.48-10.19-1.45-.62-3.13-.8-4.72-.97-9.18-.96-17.32,1.98-24.64,7.21-4.28,3.06-7.98,6.64-10.58,11.56-2.95,5.58-4.74,11.43-5.92,17.44-1.63,8.34-1.95,16.86-2,25.38-.11,20.27,1.59,40.46,2.19,60.7,.32,10.62,.68,21.23,1,31.85,.12,3.9,.14,7.8,.21,11.91Zm57.54,141.26c6.91,.63,14.02,1.24,21.12,1.93,7.13,.69,14.24,1.77,21.39,2.12,7.07,.34,14.07,2.09,21.62,1.41,1.39-14.99,3.12-29.6,5.65-44.1,.03-.17-.17-.39-.38-.84-1.35-.25-2.89-.53-4.51-.83-4.34-4.83-8.61-9.68-12.99-14.42-3.79-4.11-6.91-8.61-9.49-13.58-2.75-5.32-5.37-10.78-9.51-15.24-.28-.3-.79-.38-1.19-.56-.56,.69-1.11,1.38-1.83,2.28-2.08-.28-4.26-.57-6.46-.86-.45,1.55-.64,2.94-1.24,4.12-.62,1.22-1.6,2.26-2.47,3.34-7.38,9.2-14.78,18.39-22.15,27.6-1,1.25-1.89,2.58-2.65,3.62,.09,9.45,3.39,38.13,5.11,44.03Zm59.55,520.55c.32-1.06,.69-1.71,.68-2.35-.72-30.54-1.47-61.07-2.24-91.61-.02-.88-.33-1.76-.55-2.88-3.67-.74-7.18-1.26-10.94,.05,0,1.39-.05,2.53,0,3.66,.71,12.94,1.45,25.87,2.17,38.81,.18,3.23,.34,6.47,.5,9.71,.16,3.18-.89,5.84-3.5,8.17-1.34-3.4-2.6-6.57-3.87-9.81-3.03-.43-5.69-.2-8.69,.63,.25,3.44,.5,6.61,.72,9.78,.23,3.23,.4,6.47,.65,9.7,.27,3.46,.53,6.92,.91,10.37,.34,3.15-.33,6.5,1.71,9.65,7.42,1.89,14.66,4.88,22.46,6.12Zm165.29-410.67c-.57-.93-.71-1.47-1.06-1.69-4.88-3.18-9.93-5.8-16.01-5.73-4.39,.05-8.78-.29-13.16-.21-7.39,.13-14.77,.49-22.15,.7-6.23,.18-12.46,.38-18.7,.42-2.82,.02-5.46,.54-8.39,1.92,2.58,3.92,6.19,6.84,9.08,10.34,2.91,3.52,6.37,6.59,9.98,10.25,2.11-.25,4.56-.54,6.69-.79,1.07-1.74,1.86-3.02,2.62-4.25,2.72,.74,3.15,2.81,3.83,4.8,1.31,3.81,3.86,6.2,8.3,6.61,1.32-1.01,2.73-2.99,4.2-3.03,2.95-.09,4.42-2.17,6.43-3.47,3.1-2,5.99-4.31,8.99-6.46,.35-.25,.85-.32,1.08-.4,1.63,.54,3.1,1.04,4.28,1.43,2.87-1.29,5.57-2.15,7.87-3.63,2.5-1.6,4.48-3.9,6.14-6.79Zm-152.98-160.16c2.36-.55,5.41-.85,7.56-3.34,3.46-4.01,7.05-7.92,10.4-12.02,2.18-2.67,4.12-5.55,5.99-8.46,1.21-1.89,2.85-3.67,2.66-7.07-3.86-.36-7.9,.84-11.92,.06-4.26-.82-8.76-.39-13.16-.42-4.17-.02-8.36-.14-12.5,.2-4.3,.34-8.69-1.06-13.53,.6,1.4,5.25,1.54,10.63,4.88,15.09,2.22,2.96,4.3,6.04,6.68,8.87,3.04,3.62,6.62,6.52,12.95,6.49Zm101.49,187.66c.24-.31,.47-.61,.71-.92-.56-.38-1.12-.75-1.68-1.13-.17,.2-.34,.41-.51,.61,.49,.48,.99,.96,1.48,1.43Z"/>
    <path class="cls-6" d="M3365.95,2154.81c2.55-.44,4.99-.86,7.75-1.33,.2,1.54,.49,2.88,.52,4.22,.38,20.16,.79,40.31,1.06,60.47,.7,51.44,1.33,102.89,2.01,154.33,.38,28.73,.82,57.47,1.24,86.2,.51,35.45,1,70.91,1.55,106.36,.18,12.05,.52,24.09,.75,36.14,.04,2.04-.11,4.08-.18,6.47-6.52,.73-12.62,.62-19.13,.09-.12-2.42-.29-4.45-.3-6.48-.09-21.09-.15-42.18-.21-63.27-.3-114.95-.59-229.9-.86-344.84,0-3.27-.46-6.36-1.54-9.48-1.12-3.25-1.86-6.69-2.28-10.11-.8-6.52-2.53-12.66-5.81-18.37-.91-1.6-1.64-3.34-2.18-5.1-1.07-3.44-3.52-5.4-6.72-6.49-8.79-2.99-17-1.78-24.12,4.25-4.41,3.73-8.48,7.87-11.48,12.95-1.64,2.79-3.64,5.36-5.47,8.04-5.98,8.76-14.27,14.37-24.22,17.72-1.5,.51-2.97,1.13-4.83,1.84,.34,2.4,.69,4.62,.95,6.85,.23,2.07,.41,4.14,.51,6.22,.07,1.35,.05,2.72-.07,4.07-.21,2.49-1.04,5.06-.66,7.44,.44,2.69-1.04,5.12-.64,7.47,1.36,7.91-.24,16.14,2.86,24.6,.48,1.31,2.63,2.77,4.42,4.18,8.18,6.45,16.41,12.83,24.62,19.24,.73,.57,1.46,1.13,2.13,1.76,6.13,5.72,9.45,7.79,16.86,10.44,.19,.63,.39,1.29,.61,2.01-1.46,2.03-2.92,4.06-4.72,6.57-1.64,.19-3.67,.38-5.69,.67-2.03,.29-4.04,.68-6.39,1.08-.25,8.33-5.32,14.16-10.21,20.01-2.85,3.41-5.56,6.63-5.99,11.43-.33,3.62-2.87,6.14-6.22,7.79-4.51,2.21-9.38,2.37-14.21,2.57-2.4,.1-4.31-1.34-5.97-3.1-10.03-10.62-19.07-22.03-27.02-34.28-1.55-2.39-3.23-4.49-5.62-6.02-3.89-2.5-7.78-5.01-11.64-7.55-1.11-.73-2.13-1.57-3.59-2.65,7.26-5.77,13.75-11.65,21.34-16.21,5.33-3.2,10.34-6.96,15.45-10.52,.72-.5,1.26-1.27,1.95-1.99-.54-2.83-1.1-5.54-1.56-8.25-1.38-8.03-1.24-16.16-1.01-24.24,.12-4.35,1.11-8.7,1.91-13.01,.64-3.45,1.05-6.84-.08-10.05,.53-1.27,.96-2.32,1.48-3.57-.77-.56-1.43-1.32-2.24-1.56-3.99-1.2-7.94-2.42-11.67-4.38-4.44-2.34-7.74-5.86-10.71-9.72-1.56-2.03-2.56-4.42-2.62-7.06-.06-2.98-.01-5.97-.01-8.01,3.64-7.07,9.55-10.63,14.37-15.24,1.9-1.82,5.42-2.54,10.47-3.08,.83,1.79,1.72,3.55,2.48,5.37,2.45,5.86,.53,10.48-5.36,12.85-1.5,.6-3.07,1.01-5.04,1.64-.68-.15-1.82-.32-2.92-.66-1.1-.34-2.15-.83-3.38-1.32-2.25,1.53-2.63,3.64-1.52,5.97,2.15,4.53,5.01,8.36,10.33,9.49,2.47,.53,4.93,1.11,7.39,1.67,2.01-1.01,3.84-1.93,5.91-2.97,.97,.51,1.96,1.03,3.52,1.85,3.96-1.18,8.41-2.39,12.77-3.83,6.38-2.12,11.32-6.19,15.09-11.7,1.31-1.91,2.75-3.76,3.8-5.81,2.91-5.67,7.32-10.19,11.77-14.51,10.45-10.14,23.18-13.03,37.25-10.08,6.29,1.32,10.64,5.37,13.57,10.99,1.92,3.69,3.79,7.42,5.73,11.1,.41,.79,.99,1.49,1.64,2.46Zm-121.53,131.71c-.03,.48-.26,1.05-.06,1.33,1.04,1.47,2.44,2.74,3.21,4.33,.89,1.82,.96,4.05,1.91,5.82,2.84,5.3,5.78,10.61,10.29,14.7,3.75,3.4,7.84,6.44,11.81,9.6,.31,.25,.88,.17,1.74,.31,2.15-1.8,3.81-4.78,6.95-5.13,.61-1.66,.71-3.45,1.62-4.09,1.93-1.36,2.51-3.3,3.08-5.24,1.56-5.3,3.05-10.63,4.32-16,.47-1.97,.39-4.11,.28-6.16-.05-1-.76-1.97-1.18-2.96-1.64,.7-2.83,1.42-4.12,1.71-1.33,.3-2.76,.21-4.14,.23-10.17,.17-20.34,.3-30.51,.51-1.77,.04-3.72-.53-5.18,1.04Zm58.13,4.16c-1.11-.46-1.68,.23-1.94,1.1-.14,.47,.19,1.07,.33,1.72,1.16-.79,2.11-1.41,1.6-2.82Z"/>
    <path class="cls-6" d="M3349.05,1931.09c-.89-7.98,1.2-16.38,1.56-24.91,.45-10.6,1.89-21.15,2.8-31.73,.58-6.67,.93-13.36,1.46-20.04,.38-4.82,.87-9.62,1.34-14.43,.01-.13,.27-.23,.71-.58,1.95,2.09,2.63,4.74,3.35,7.38,2.13,7.84,2.87,15.91,3.92,23.93,1.4,10.82,.23,21.66,.31,32.48,.02,2.29,0,4.58,0,6.27,2.59,3.01,4.69,5.45,6.62,7.7,.27,1.46,.57,2.58,.68,3.73,.59,5.66,2.78,10.69,5.89,15.37,.51,.77,1.08,1.54,1.4,2.39,3.02,8.06,8.76,14.08,14.92,19.74,3.26,3,6.14,6.21,8.45,10.02,2.89,4.77,6.44,9.04,10.62,12.76,.85,.75,1.6,1.61,2.69,2.73-3.75,4.24-7.36,8.32-11.35,12.83-.97,.29-2.49,.73-4.08,1.2-2.95,6.6-5.8,13.17-8.84,19.66-1.86,3.97-3.88,7.89-6.08,11.69-5.21,9.01-13.73,13.6-23.3,16.25-3.91,1.08-8.22,1.37-11.95-1.57-1.21-.95-2.95-1.24-4.44-1.82-2.29-4.9-5.14-9.25-8.72-13.26-7.54-8.43-14.51-17.36-22.49-25.4-.97-.98-1.74-2.18-2.31-2.9-2.79-.33-4.84-.57-7.18-.84-1.81-1.77-3.77-3.69-5.78-5.65-.36-1.59-.72-3.15-1.14-4.98,1.66-3.31,3.4-6.79,4.96-9.91,9.08-4.83,16.84-10.72,23.91-17.35,4.85-4.55,9.17-9.76,12.61-15.59,2.8-4.76,5.83-9.37,9.45-15.15Zm7.91,106.79c1.69-.09,3.09-.03,4.44-.29,1.11-.21,2.15-.78,2.35-.86,2.01-2.4,3.38-4.18,4.9-5.84,3.91-4.26,7.9-8.45,11.82-12.7,5.16-5.59,7.77-12.43,9.83-19.46-.59-.47-.94-1-1.28-.99-21.05,.34-42.1,.71-63.15,1.11-.83,.02-1.66,.26-2.79,.45,1,2.86,3.02,4.49,4.65,6.39,4.53,5.27,9.08,10.51,13.66,15.73,3.81,4.35,7.61,8.71,11.52,12.97,1.22,1.33,2.76,2.38,4.06,3.47Z"/>
    <path class="cls-6" d="M2588.77,2152v-3.7c4.59-1.09,7.66-6.44,13.77-4.78-.22,.73-.22,1.56-.58,1.78-3.98,2.45-7.32,6.17-13.19,6.7Z"/>
    <polygon class="cls-6" points="1229.72 860.01 1972.65 1992.41 2049.32 1759.47 1611.5 860.01 1229.72 860.01"/>
    <path class="cls-6" d="M1271.7,860.01h-43.59c-.34,237.54-1.66,475.07-4.49,712.59-.75,63.02-1.61,126.03-2.58,189.05l527.63,509.8v-659.11l-476.98-752.33Z"/>
    <path class="cls-6" d="M4778.56,813.6v-107.76h-31.57c.16,35.76,.66,71.53,1.47,107.28,10.03,.15,20.07,.3,30.1,.49Z"/>
    <path class="cls-6" d="M4748.57,818.09c3.22,137.56,11.03,275.01,22.19,412.16,2.45,30.16,5.06,60.3,7.81,90.43v-502.11c-10-.18-20-.34-29.99-.48Z"/>
    <path class="cls-6" d="M4743.41,818.02c-81.68-1.09-163.37-.9-245.09-.39-126.18,.79-252.35,2.59-378.48,6.01-126.34,3.43-253.32,5.95-379.19,17.84-17.24,1.63-34.47,3.34-51.7,5.09,.37,35.56,.76,71.11,1.19,106.67,.13,10.41,.46,20.82,.7,31.02,1.99,1.89,4.18,1.26,6.17,1.26,22.71,.05,45.42,.03,68.13,.03,12.05,0,24.1-.02,36.15,.02,2.03,0,4.05,.21,6.12,.32,.87,2.93,.37,5.3-.58,7.99-6.39,.57-12.63,.2-18.85,.26-6.49,.07-12.98,.01-19.47,.01h-76.05c-.27,1.44-.66,2.51-.63,3.58,.17,8.57,.43,17.14,.64,25.71,.61,24.32,1.17,48.65,1.82,72.97,.17,6.24,.59,12.47,.9,18.62,2.21,1.8,4.61,1.09,6.84,1.1,24.56,.05,49.13,.03,73.69,.03,12.28,0,24.56-.01,36.85,.01,2.28,0,4.56,.14,7.15,.22,2.06,8.54,2,17.15,3.84,25.86,1.3,.18,2.61,.58,3.89,.52,16.43-.81,32.85-1.68,49.28-2.54,9.02-.47,18.04-.99,27.06-1.45,12.03-.62,24.06-1.22,36.1-1.8,1.59-.08,3.19-.01,5.14-.01,2.83,10.44,4.45,20.81,6.59,31.66-2.8,.17-4.83,.39-6.85,.4-29.43,.12-58.86,.17-88.29,.32-50.05,.25-100.1,.55-150.15,.85-2.03,.01-4.06,.2-5.76,.29-1.4,1.87-1.1,3.56-.81,5.07,1.16,5.95,.96,11.98,1.3,17.98,.31,5.53,.85,11.06,1.05,16.6,.48,13.64,1.76,27.26,1.28,40.93-.31,8.81,.2,17.58,1.76,26.28,1.4,7.79,1.37,15.65,1.24,23.52-.02,1.12,.19,2.24,.33,3.77,1.35,0,2.43,.06,3.49-.01,5.78-.38,11.48,.03,17.15,1.24,1.57,.33,3.28,.74,4.79,.44,7.8-1.52,15.72-.58,23.55-1.34,8.51-.83,17.05-1.43,25.58-2.05,3.46-.25,6.94-.25,10.41-.46,8.31-.51,16.63-1.07,24.94-1.64,5.58-.38,11.09,.1,16.62,.85,3.2,.43,6.45,.5,9.67,.73,8.54,.59,17.08,1.13,25.62,1.8,6.01,.47,12.01,0,18.01-.15,6.98-.18,13.79,1.44,20.71,1.83,3.45,.19,7.01,.77,10.35,.19,6.46-1.14,12.93-1.15,19.38-.92,10.2,.36,20.34,.54,30.5-.85,3.83-.52,7.79-.09,12.7-.09-1.45,1.07-2.06,1.81-2.82,2.04-9.77,2.89-19.28,6.48-28.52,10.78-2.74,1.28-5.5,2.12-8.65,2.16-2.95,.03-5.95,.77-8.82,1.59-22.94,6.51-45.85,13.1-68.76,19.68-28.03,8.04-56.02,16.24-84.11,24.07-10.23,2.85-20.71,4.82-31.06,7.25-3.6,.84-7.16,1.84-10.74,2.78-15.21,4.02-30.31,8.46-45.18,13.61-3.11,1.08-6.24,.67-9.26,1.15-.45-1.12-.79-1.96-1.13-2.83-.47,.16-.96,.17-1.18,.43-1.5,1.7-2.95,3.45-4.8,5.64-.24,.83-.68,2.34-1.12,3.85,.48,.68,1.01,1.41,1.44,2.02-3.94,18.53-7.02,36.93-6.75,55.76,.12,8.31-.29,16.62-.4,24.93-.07,5.31-.35,10.65,.02,15.93,.82,11.54,.68,23.08,.31,34.61-.25,7.85,0,15.68,.09,23.51,.14,12.53-.99,24.96-2.37,37.38-1.09,9.84-2.29,19.66-3.53,29.48-.78,6.17-1.74,12.32-2.6,18.48-.19,1.37-.28,2.76-.45,4.14-.81,6.62-.43,13.37-2.35,19.86l1121.13-21.98v-265.39c-6.64-68.37-12.58-136.81-17.65-205.31-8.67-117.1-14.76-234.41-17.5-351.8Z"/>
    <path class="cls-6" d="M3688.4,789.11c36.02-6.35,71.96-13.29,107.82-20.88,3.24-.69,4.61,4.28,1.37,4.97-36.27,7.68-72.66,14.71-109.14,21.14,.11,12.19,.22,24.37,.34,36.56,.04,3.51,.08,7.01,.11,10.52,32.4-3.28,64.8-6.45,97.24-9.14,63.7-5.29,127.89-6.82,191.75-9.21,62.64-2.35,125.29-4.24,187.96-5.75,126.03-3.04,252.1-4.53,378.16-5.08,66.47-.29,132.89-.11,199.29,.82-.81-35.73-1.3-71.47-1.46-107.21h-1054.92c.3,5.54,.81,11.07,.87,16.61,.24,22.22,.42,44.44,.62,66.66Z"/>
    <path class="cls-6" d="M3589.22,805.1c.03-3.51,.06-7.02,.1-10.54,.04-4.37,.55-8.74,.85-13.11h-27.81c-.08,1.61-.25,3.23-.24,4.84,.06,7.55,.11,15.1,.17,22.65,8.98-1.25,17.96-2.53,26.94-3.85Z"/>
    <path class="cls-6" d="M3588.79,851.51c.13-13.72,.25-27.43,.38-41.15-8.94,1.31-17.89,2.6-26.85,3.85,.1,13.25,.2,26.51,.32,39.76,8.72-.8,17.44-1.62,26.15-2.46Z"/>
    <path class="cls-6" d="M3599.67,1399.56c.26-.04,.52-.08,.77-.12-2.12-21.14-3.4-42.33-4.62-63.53-1.26-21.99-2.37-44-2.9-66.02-.54-22.12-.33-44.26-.61-66.38-.28-21.91-.75-43.82-1.21-65.73-.1-.14-.2-.28-.3-.42-1.49-2.05-2.92-4.15-4.25-6.04,0-7.96-.07-15.6,.01-23.24,.16-15.52,.48-31.05,.6-46.57,.28-35.92,.45-71.84,.74-107.75,.26-32.36,.55-64.72,.84-97.08-8.68,.84-17.37,1.65-26.06,2.45,.05,5.38,.09,10.77,.14,16.15,.39,40.08,.85,80.16,1.29,120.24,.49,45.18,.99,90.36,1.49,135.53,.47,42.63,.93,85.26,1.39,127.89,.46,42.63,.93,85.26,1.39,127.89,.46,42.63,.93,85.26,1.39,127.89,.43,40.08,.86,80.16,1.3,120.24,.37,33.82,.78,67.65,1.15,101.47l29.16,.32c-.46-112.28-1.81-224.58-1.71-337.19Z"/>
    <path class="cls-6" d="M3474.21,820.18h-63.78c.01,2.3,.02,4.61,.04,6.91,21.26-2.14,42.51-4.45,63.74-6.91Z"/>
    <path class="cls-6" d="M3523.6,857.33c-.04-.58-.09-1.16-.12-1.73-.21-3.46-.19-6.94-.22-10.42-.08-8.33-.12-16.67-.18-25h-5.5c-35.63,4.55-71.33,8.61-107.08,12.22,.05,10.48,.11,20.96,.16,31.45,37.71-1.12,75.35-3.48,112.94-6.51Z"/>
    <path class="cls-6" d="M3537.68,1758.73c1.81-2.17,1.99-4.61,1.85-7.18-.29-5.53-.8-11.06-.92-16.59-.17-7.87,.05-15.75-.13-23.62-.2-8.33-.75-16.65-1-24.98-.31-10.41-.5-20.83-.7-31.25-.07-3.47-.17-6.96,.02-10.42,.47-8.38-1.41-16.59-1.6-24.93-.09-3.69-.65-7.36-.87-11.05-1.03-16.88-1.66-33.76-1.41-50.67,.13-8.56,.21-17.17-.48-25.69-.89-11.09-.74-22.2-1.38-33.28-1.3-22.43-1.42-44.87-1.05-67.33,.22-12.96-.48-25.97,.31-38.89,.97-15.95,1.16-31.9,1.5-47.86,.23-10.87,.76-21.74,1.24-32.61,.17-3.93,.84-7.84,.87-11.77,.11-13.66,.19-27.32-.03-40.98-.14-8.55-1.12-17.09-1.22-25.64-.14-11.34,.06-22.69,.41-34.03,.19-6.23,.97-12.43,.78-18.71-.44-14.6-1.57-29.12-5.18-43.3-1.8-7.09-1.74-14.21-1.66-21.37,.1-8.8,.41-17.6,.41-26.39,.03-54.22,.03-108.43-.05-162.65-.02-12.73-.31-25.47-.6-38.2-.07-2.98-.32-6.05-1.14-8.89-.92-3.2-.83-6.39-1.02-9.61-.16-2.79-.4-5.58-.64-8.36-37.72,3.04-75.48,5.41-113.31,6.54,.03,5.05,.05,10.1,.08,15.15,.02,4.84,0,9.69,0,14.83-.92,.45-1.77,.9-2.62,1.3-.1,7.24-.17,14.49-.13,21.73,.65-.2,1.32-.33,2.01-.39,1.75,1.2,1.44,2.68,1.46,4,.11,10.66,.19,21.32,.28,31.98,.05,5.52,.09,11.03,.14,16.55,.29,1.69,.6,3.38,.93,5.07,.21,1.08-.2,1.96-.87,2.52,.1,12.58,.21,25.16,.34,37.74,.44,41.25,.91,82.5,1.39,123.75,.05,4.17,.17,8.34,.4,12.51,.07,1.34,.23,2.89,.94,3.93,1.78,2.59,1.75,5.5,.88,8.02-2.11,6.12-1.55,12.33-1.5,18.55,.18,24.57,.33,49.13,.59,73.7,.46,43.8,.98,87.6,1.47,131.4,.44,38.93,.86,77.87,1.3,116.8,.46,41.25,.92,82.5,1.39,123.75,.49,43.57,1.15,87.13,1.37,130.7l125.7,5.54c-3.88-2.49-7.24-4.76-9.22-6.29,.19-.97,.05-2.36,.68-3.12Z"/>
    <path class="cls-6" d="M3591.39,1733.42c1.57,5.23,1.98,10.38,.86,15.75-.49,2.38-1.12,4.7-1.44,7.11-.23,1.69,.08,4.87-1.07,6.25-4.89,5.84,3.49,14.3,8.42,8.42,4.43-5.29,4.2-12.13,5.58-18.62,1.58-7.43,1.32-14.8-.86-22.08s-13.69-4.2-11.48,3.17h0Z"/>
    <path class="cls-6" d="M3593.01,1139.19l-2.77-77.89c-.27-7.64-12.18-7.68-11.91,0l2.77,77.89c.27,7.64,12.18,7.68,11.91,0h0Z"/>
  </g>
  <g id="b1">
    <path class="cls-7" d="M1346.56,2972.24c.5-1.69-.24-3.15-.76-4.68-10.23-29.96-20.44-59.94-30.66-89.9-1.79-5.24-3.62-10.47-5.47-15.83-1.94-1.24-3.87-2.47-6.1-3.9-.12-1.14-.4-2.48-.39-3.82,.17-15.76-.08-31.54,.71-47.27,1.02-20.14,.35-40.31,1.39-60.43,1.02-19.68,.35-39.39,1.37-59.04,1.04-20.14,.37-40.31,1.41-60.43,1.01-19.68,.35-39.39,1.37-59.04,1.07-20.61,.37-41.24,1.43-61.82,1.02-19.68,.34-39.39,1.36-59.04,1.05-20.14,.36-40.31,1.41-60.43,1.03-19.91,.34-39.85,1.38-59.73,1.04-19.91,.35-39.85,1.39-59.73,1.04-19.91,.35-39.85,1.39-59.73,1.04-19.91,.35-39.85,1.39-59.73,1.04-19.91,.36-39.85,1.39-59.73,1.04-20.14,.74-40.29,1.3-60.43,.07-2.51-.12-5.08,1.19-7.31,1.19-.83,2.29-.36,3.39-.03,20.35,6.12,40.69,12.28,61.06,18.37,28.55,8.53,57.12,17,85.68,25.52,30.99,9.24,61.98,18.51,92.97,27.76,23.46,7,46.92,14.05,70.41,20.95,4.19,1.23,8.55,1.92,12.86,2.73,14.52,2.74,29.05,5.45,43.59,8.1,13.86,2.52,27.75,4.88,41.61,7.42,13.85,2.54,27.67,5.29,41.52,7.83,11.59,2.13,23.21,4.02,34.8,6.13,10.9,1.99,21.78,4.14,32.67,6.18,8.63,1.61,17.27,3.12,25.9,4.72,14.3,2.65,28.59,5.38,42.9,7.98,11.59,2.11,23.21,4.02,34.8,6.13,10.9,1.98,21.78,4.14,32.67,6.17,8.85,1.64,17.73,3.18,26.59,4.81,11.58,2.13,23.15,4.33,34.73,6.46,11.13,2.04,22.27,4.01,33.4,6.05,11.58,2.13,23.15,4.33,34.73,6.45,11.13,2.04,22.27,4.03,33.4,6.05,6.36,1.16,12.72,2.33,19.07,3.56,1.32,.26,2.6,.78,4.25,1.28-2.84,9.53-6.59,18.41-10.33,27.54-36.1,11.07-72.12,21.98-108.13,32.94-36,10.96-72.02,21.85-107.65,32.77-1.55,2.62-.97,4.99-.98,7.25-.16,34.53,.12,69.06-.45,103.59-1.39,84.8-.27,169.61-1.46,254.4-1.02,72.29-.55,144.58-1.13,216.87-.02,2.31,0,4.63,0,7.08-1.63-1.13-2.02-2.66-2.41-4.24-6.95-28.02-13.92-56.04-20.87-84.07-.22-.89-.26-1.83-.42-3,.48-.83,1.05-1.81,1.88-3.24,0-1.63,.01-3.7,0-5.77-.15-22.71,.12-45.43-.56-68.13-1.16-39.38-.39-78.77-1.49-118.14-1.03-36.83-.26-73.68-1.37-110.49-1.12-37.06-.31-74.14-1.41-111.19-.66-22.24-.56-44.47-.95-66.7-.02-1.12-.12-2.23-.17-3.07-1.97-1.35-3.45-.54-4.96-.08-12.81,3.93-25.62,7.86-38.44,11.77-25.86,7.88-51.72,15.74-77.58,23.6-15.25,4.64-30.5,9.27-45.75,13.91-2.19,.67-4.36,1.38-6.72,2.12-.12,1.58-.29,2.93-.31,4.28-.07,4.4,.03,8.81-.14,13.21-1.39,35.2-.51,70.43-1.59,105.62-.99,32.2-.24,64.41-1.35,96.59-1.13,32.66-.29,65.34-1.4,97.98-1.1,32.2-.28,64.41-1.38,96.59-1.12,32.66-.62,65.32-1.32,97.98-.17,8.09-.68,16.17-1.05,24.66-1.27,.5-2.68,1.33-4.19,1.6-9.09,1.64-18.21,3.12-27.31,4.71-8.19,1.43-16.37,2.91-24.55,4.41-9.31,1.7-18.61,3.46-27.93,5.17-14.53,2.67-29.07,5.36-43.61,7.97-11.59,2.08-23.21,4.03-34.81,6.08-10.92,1.92-21.83,3.88-32.74,5.86-9.31,1.69-18.62,3.44-27.93,5.15-14.53,2.67-29.06,5.37-43.61,7.98-11.59,2.08-23.21,4.01-34.81,6.07-8.41,1.49-16.81,3.07-25.22,4.61-9.09,1.66-18.17,3.33-27.26,4.96-6.36,1.14-12.74,2.2-19.1,3.34-.36,.07-.65,.58-.97,.88h-5.56Z"/>
    <path class="cls-7" d="M4749.43,2918.01c-15.27-.56-30.57-.75-45.81-1.79-11.34-.78-22.7-.46-34-1.34-11.8-.92-23.63-.51-35.39-1.42-11.8-.91-23.61-.77-35.4-1.32-6.92-.32-13.83-.89-21.12-1.37-.18-1.02-.56-2.11-.52-3.17,.18-4.39,.52-8.77,.74-13.16,.13-2.55,.19-5.09,.24-7.64,.11-5.33,.13-10.66,.29-15.99,.52-18.06,.69-36.13,1.75-54.16,.79-13.43,.41-26.87,1.32-40.26,.98-14.35,.48-28.73,1.44-43.04,.9-13.42,.44-26.87,1.33-40.27,.96-14.35,.49-28.73,1.44-43.04,.91-13.66,.42-27.34,1.35-40.96,.97-14.12,.46-28.27,1.42-42.35,.93-13.65,.43-27.34,1.36-40.96,.96-14.12,.47-28.26,1.42-42.35,.94-13.89,.43-27.8,1.38-41.65,.96-13.88,.44-27.8,1.39-41.65,.96-13.88,.44-27.8,1.39-41.65,.95-13.88,.44-27.8,1.39-41.65,.95-13.88,.51-27.8,1.39-41.65,.67-10.64,.83-21.28,1.13-31.93,.03-.88,.33-1.76,.56-2.95,17.28-4.23,34.67-7.71,51.87-11.87,1.6-4.63,1.27-9.03,1.29-13.37,.02-4.12,.27-8.26-.11-12.67-1.2-.13-2.08-.38-2.92-.29-7.58,.86-15.15,1.75-22.72,2.68-5.5,.68-10.99,1.46-16.49,2.15-3.16,.4-6.34,.85-9.14,.46-1.32-1.35-1.04-2.56-1-3.67,.22-6.47-.03-12.96,.86-19.42,.47-3.42,.21-6.94,.3-10.42,.61-22,1.21-43.99,1.85-65.98,.05-1.84,.43-3.68,.51-5.52,.09-2.05,.02-4.11,.02-6.46-.97-.24-1.83-.67-2.66-.62-3,.17-5.98,.59-8.98,.76-11.09,.63-22.19,1.17-33.28,1.82-4.61,.27-9.22,.74-13.83,1.06-.88,.06-1.77-.1-2.86-.18-.98-2.99,.1-5.58,.63-8.24,.59-2.94,.99-5.92,1.48-8.89,.45-2.73,.9-5.47,1.35-8.2,.49-2.96,1.01-5.92,1.44-8.89,.39-2.7,.68-5.42,1.06-8.49-2.54-.92-5.07-.32-7.46,.06-12.77,2.04-25.51,4.25-38.27,6.38-3.42,.57-6.84,1.13-10.28,1.55-1.58,.19-3.2,.03-5.12,.03-.28-1.15-.72-2.21-.77-3.28-.61-13.18-.87-26.39-1.84-39.54-.73-9.94-.61-19.92-1.48-29.82-.77-8.79-.78-17.58-1.26-26.36-.25-4.61-.8-9.21-1.2-13.7-.85-1.25-2.06-1.14-3.18-.94-9.09,1.64-18.16,3.42-27.27,4.94-5.01,.84-10.09,1.3-15.15,1.84-7.58,.81-15.17,1.56-22.76,2.29-2.31,.22-4.63,.2-6.94,.43-5.26,.51-10.52,1.11-16.03,1.7-.21,1.07-.54,1.93-.53,2.78,.14,12.75,.04,25.5,.63,38.23,.29,6.24,.74,12.48,.56,18.72-.32,11.8-.81,23.6-1.34,35.4-.23,5.08-.7,10.15-1.13,15.22-.07,.86-.5,1.68-.86,2.83-1.35-.28-2.45-.44-3.52-.74-9.13-2.55-18.36-1.68-27.58-.86-.92,.08-1.82,.37-2.74,.43-18.95,1.23-37.91,2.42-56.92,1.42-.46-.02-.94,.03-1.39-.06-9.84-2.14-19.28,.26-28.71,2.6-2.83,.7-5.61,1.61-8.4,2.42-.17-.56-.49-1.03-.41-1.42,3.07-14.88,2.96-29.95,2.15-44.97-.55-10.18-.6-20.37-1.23-30.53-.6-9.69-1.44-19.37-2.18-29.05-.02-.23-.02-.46-.04-.69-.61-11.56-.79-23.16-1.97-34.66-1.11-10.84-.42-21.77-2.12-32.54-.07-.46-.05-.92-.08-1.39-.61-11.33-.93-22.68-1.9-33.97-1.21-14.02-1.73-28.15-5.49-42.16,1.44-.66,2.59-1.36,3.84-1.71,1.09-.31,2.29-.27,3.45-.31,9.03-.3,17.97-1.43,26.9-2.68,5.72-.8,11.5-1.16,17.24-1.82,5.97-.68,11.92-1.51,17.88-2.21,2.07-.24,4.16-.29,6.24-.44,4.62-.32,9.23-.68,13.85-.96,1.85-.11,3.71-.12,5.56-.02,5.55,.29,11.1,.54,16.63,1.05,3.89,.36,7.74,1.1,11.5,1.66,2.65,3.59,2.94,7.62,3.45,11.43,1.67,12.37,2.89,24.79,4.58,37.16,1.44,10.52,3.37,20.98,4.93,31.49,.81,5.48,1.3,11.02,1.92,16.53,.23,2.02-.14,4.22,2.15,6.03,2.14,.32,4.69,.09,7.16-.4,21.33-4.2,42.34-9.61,62.92-16.66,6.78-2.32,13.54-4.69,20.3-7.06,1.06-.37,2.08-.86,3.34-1.4,0-2.04,.06-3.86-.01-5.68-.19-4.86-.42-9.71-.66-14.57-.05-.92-.35-1.83-.39-2.74-.63-14.57-1.25-29.15-1.84-43.72-.04-.9,.14-1.81,.25-2.99,11.68-2.94,23.48-5.03,35.16-7.59,11.96-2.62,24.01-4.8,35.96-7.44,11.69-2.58,23.47-4.73,35.06-7.51,1.02-3.35,.46-6.33,.26-9.3-.11-1.61-.52-3.2-.6-4.81-.64-13.88-1.21-27.76-1.84-41.63-.48-10.64-.7-21.3-1.66-31.9-.71-7.86-.53-15.74-1.25-23.57-.92-9.93-.68-19.91-1.53-29.82-.67-7.86-1.02-15.7-.99-23.57h175.22v1276.6Z"/>
    <path class="cls-7" d="M1756.79,1641.41c-.11,7.87,.16,15.78-.39,23.62-1.22,17.34-.41,34.74-1.43,52.06-.99,16.89-.38,33.81-1.36,50.67-1.03,17.82-.41,35.66-1.43,53.45-.99,17.12-.36,34.28-1.37,51.37-1.04,17.59-.39,35.2-1.41,52.76-1,17.12-.42,34.27-1.38,51.37-.77,13.65-.76,27.3-1.12,40.95-.02,.89-.17,1.78-.22,2.27-1,1.29-1.97,1.04-2.82,.82-40.05-10.17-80.1-20.34-120.13-30.57-42.5-10.86-84.97-21.8-127.46-32.66-26.39-6.74-52.82-13.35-79.22-20.07-27.74-7.07-55.46-14.24-83.19-21.33-19.23-4.92-38.48-9.78-57.72-14.68-13.65-3.48-27.28-6.99-40.93-10.45-1.33-.34-2.72-.45-4.08-.66v-248.92h216.94c-.36,4.15-.91,8.28-1.05,12.44-.48,14.35-.46,28.71-1.4,43.05-.85,12.93-.46,25.91-1.29,38.88-.95,14.78-.57,29.63-1.53,44.43-.78,12.01-.5,24.06-1.22,36.1-.97,16.17-.58,32.41-1.63,48.6-.48,7.39-.28,14.83-.48,22.24-.08,2.77-.48,5.53-.61,8.3-.18,3.7-.26,7.41-.34,11.11-.02,.88,.15,1.76,.27,3.03,3.78,.41,6.99-1.16,10.31-1.67,3.19-.49,6.3-1.42,9.47-2.06,3.4-.69,6.83-1.2,10.22-1.9,3.16-.65,6.29-1.52,9.45-2.16,3.36-.67,6.75-1.23,9.92-2.39,.16-.97,.35-1.64,.36-2.31,.25-13.43,.46-26.85,.82-40.28,.97-36.13,.36-72.28,1.39-108.42,.85-29.88,.59-59.79,.77-89.69,.04-5.79,.37-11.55,1.09-17.29h264.22Z"/>
    <path class="cls-7" d="M4330.85,1641.41c.99,9.45,1.08,18.95,1.79,28.4,.56,7.39,.77,14.79,1.24,22.17,.63,9.92,1.55,19.82,2.15,29.74,.43,7.16,.52,14.34,.77,21.79-1.84,.7-3.49,1.52-5.23,1.96-25.54,6.41-51.08,12.78-76.63,19.14-6.27,1.56-12.56,3.08-18.85,4.57-.62,.15-1.31,.02-2.19,.02-.98-2.36-.35-4.64-.02-6.85,1.72-11.42,3.5-22.82,5.31-34.22,1.63-10.26,3.53-20.48,4.9-30.78,.66-4.98,1.95-9.92,1.99-14.73-.74-.55-1.1-1.03-1.45-1.03-12.72-.04-25.43-.03-38.51-.03-.18,1.21-.55,2.31-.46,3.36,.55,5.99,1.16,11.97,1.85,17.94,.74,6.42,1.59,12.84,2.39,19.25,.72,5.73,1.44,11.46,2.16,17.19,.54,4.35,1.12,8.71,1.6,13.07,.66,5.97,1.27,11.96,1.85,17.94,.11,1.13,.02,2.29,.02,3.25-.37,.34-.53,.5-.7,.65-.17,.15-.34,.36-.54,.41-96.75,24.15-193.49,48.29-290.01,72.37-1.63-1.28-1.23-2.76-1.22-4.09,.08-12.05,.2-24.1,.3-36.15,.1-12.05-.1-24.11,.36-36.14,1.27-32.88,.84-65.78,1.44-98.66,.18-10.18,.66-20.35,1.01-30.53h404.67Z"/>
    <path class="cls-7" d="M2118.36,1641.41c9.42,27.53,18.81,55.07,28.26,82.59,10.57,30.8,21.17,61.59,31.78,92.38,2.41,6.99,4.89,13.95,7.28,20.94,.51,1.5,.78,3.08,1.21,4.84-6.28,2.5-12.76,3-19.01,4.38-6.53,1.45-13.16,2.46-19.72,3.75-6.33,1.25-12.64,2.63-18.99,3.95-14.62-4.4-29.2-8.78-43.95-13.22-2.95-3.79-4.91-8.26-7.22-12.48-12.8-23.31-25.46-46.71-38.21-70.05-17.3-31.66-34.65-63.29-51.97-94.94-3.11-5.68-6.23-11.36-9.27-17.08-.85-1.6-2.17-3.06-2.02-5.07h141.84Z"/>
    <path class="cls-7" d="M3831.62,1641.41c-.17,6.48-.27,12.95,.94,19.36,.17,.91,.16,1.84,.23,2.77,.59,8.07,1.08,16.16,1.81,24.22,.58,6.44,1.45,12.85,2.19,19.28,.05,.46,.1,.92,.13,1.38,.61,8.31,.98,16.64,1.89,24.91,1.17,10.61,.94,21.27,1.63,31.89,.43,6.72,.65,13.41,.52,20.12-.31,15.97-.48,31.96-1.4,47.91-.53,9.25-.68,18.5-1.26,27.74-.55,8.76-1.48,17.5-2.27,26.25-1.66,18.47-2.4,36.98-1.51,55.51,.26,5.5,1.41,10.95,2.21,16.88-.7,.45-1.54,1.25-2.55,1.59-4.81,1.65-9.66,3.17-14.81,4.84-.1-1.43-.3-2.99-.3-4.55-.12-22.71,.31-45.43-.45-68.12-.77-22.92-.37-45.87-1.33-68.77-1.41-33.35-.65-66.71-1.3-100.05-.25-12.73-.68-25.46-1.35-38.17-.43-8.07-1.67-16.1-2.15-24.17-.41-6.92-.24-13.88-.33-20.82h19.47Z"/>
    <path class="cls-7" d="M4242.21,2106.98c1.74,1.98,2.17,3.81,2.15,5.64-.05,6.01-.24,12.03-.43,18.04-.05,1.61-.4,3.22-.45,4.83-.74,22.45-2.04,44.88-1.48,67.36,.2,7.87-.03,15.75-.06,23.63,0,1.59,0,3.19,0,5.19,7.02-.93,13.21-3.41,19.62-4.93,6.29-1.49,12.46-3.44,18.7-5.13,6.46-1.75,12.96-3.39,19.43-5.12,6.25-1.67,12.48-3.39,18.72-5.1,6.46-1.77,12.91-3.57,19.37-5.34,6.24-1.71,12.47-3.42,18.72-5.09,6.47-1.73,12.96-3.38,19.43-5.12,6.24-1.68,12.47-3.43,18.7-5.14,6.46-1.78,12.88-3.68,19.38-5.29,6.23-1.54,12.29-3.84,19.04-4.59,.24,1.35,.56,2.44,.61,3.54,.59,13.64,.84,27.31,1.81,40.93,.73,10.4,.6,20.84,1.47,31.2,.78,9.25,.52,18.52,1.31,27.74,.87,10.17,.62,20.37,1.46,30.51,.77,9.25,.54,18.52,1.32,27.73,.88,10.4,.6,20.84,1.49,31.2,.75,8.79,.5,17.59,1.26,26.35,.92,10.63,.62,21.3,1.52,31.9,.76,9.02,.51,18.06,1.28,27.04,.9,10.4,.62,20.84,1.49,31.2,.78,9.25,.52,18.52,1.31,27.74,.87,10.17,.61,20.37,1.46,30.51,.77,9.25,.53,18.52,1.32,27.73,.89,10.4,.6,20.84,1.49,31.2,.75,8.79,.51,17.59,1.26,26.35,.91,10.63,.63,21.3,1.52,31.9,.76,9.02,.51,18.06,1.28,27.04,.89,10.4,.62,20.84,1.49,31.2,.78,9.25,.53,18.52,1.31,27.73,.87,10.17,.61,20.38,1.46,30.51,.8,9.48,.81,18.96,1.27,28.44,.26,5.31,.7,10.61,1.02,15.92,.08,1.38,.01,2.77,.01,4.15-1.53,1.82-3.77,1.88-5.7,2.31-23.21,5.16-46.45,10.21-69.68,15.28-21.2,4.63-42.41,9.24-63.61,13.86-21.43,4.67-42.86,9.34-64.3,13.98-2.46,.53-4.96,.89-7.34,1.31-1.7-.59-1.79-2.07-2.22-3.37-12.88-38.82-25.79-77.62-38.67-116.44-6.7-20.18-13.35-40.36-20.01-60.55-.34-1.04-.55-2.13-.89-3.43,1.83-.44,3.33-.81,5.05-1.22,.05-1.07,.18-1.96,.12-2.84-.32-4.38-.66-8.76-1.05-13.13-1.03-11.52-1.02-23.11-2.43-34.6-.06-.46-.05-.92-.08-1.39-.6-11.32-1.11-22.65-1.83-33.97-.63-9.92-1.48-19.82-2.24-29.74-.04-.46-.06-.92-.08-1.39-.6-11.09-1.11-22.19-1.81-33.27-.64-10.15-1.49-20.29-2.25-30.43-.03-.46-.07-.92-.1-1.39-.58-10.4-.97-20.81-1.77-31.19-.85-11.07-.95-22.18-2.34-33.21-.06-.46-.06-.92-.08-1.39-.6-11.32-1.12-22.65-1.84-33.97-.63-9.92-1.48-19.82-2.22-29.74-.03-.46-.07-.92-.09-1.39-.59-10.86-.94-21.74-1.84-32.57-.87-10.6-.84-21.27-2.28-31.82-.06-.46-.05-.92-.08-1.39-.61-11.55-1.2-23.11-1.85-34.66-.41-7.39-.94-14.77-1.38-22.16-.08-1.36-.01-2.74-.01-4.42,1.31-.57,2.48-1.27,3.76-1.61,7.58-2.04,15.19-3.98,22.77-6.01,1.31-.35,2.56-.93,4.06-1.48,.52-3.35,.06-6.55-.27-9.72-.71-6.66-1.51-13.31-2.31-19.96-.72-5.96-1.46-11.92-2.24-17.87-.54-4.12-1.22-8.22-1.7-12.35-1.4-12.23-4.51-24.04-8.48-35.65-.6-1.74-1.13-3.52-1.52-5.32-.48-2.26,.36-4.18,2.21-5.46,1.7-1.18,3.5-2.29,5.41-3.08,14.56-6.1,28.21-13.91,41.64-22.13,2.93-1.79,5.8-3.78,9.51-4.63Z"/>
    <path class="cls-7" d="M3978.22,2874.57c-2.88,1.01-4.86-.52-6.79-1.63-4-2.31-7.92-4.8-11.76-7.39-14.98-10.1-30.66-19.02-46.37-27.92-17.11-9.7-34.45-18.97-51.72-28.37-11.38-6.19-21.93-13.71-32.79-21.16,0-1.25,0-2.38,0-3.51-.06-15.75-.04-31.51-.21-47.26-.09-8.09-.59-16.18-.77-24.27-.24-10.65-.08-21.32-.57-31.96-1.62-35.18-.44-70.41-1.62-105.58-.83-24.77-.41-49.56-1.37-74.31-.5-12.96-.72-25.91-1.23-38.87-.31-7.86-.82-15.71-1.39-23.55-.34-4.6-.97-9.18-1.4-13.03,2.18-6.86,5.86-11.93,9.66-16.87,12.42-16.14,24.84-32.29,37.51-48.24,5.03-6.34,10.64-12.23,16.1-18.21,4.84-5.3,9.84-10.45,14.75-15.69,.47-.5,.82-1.11,1.22-1.67-2.46-1.37-3.35-3.59-3.66-6.57,.61-.35,1.31-.88,2.09-1.2,17.55-7.15,35.09-14.33,52.67-21.41,19.34-7.79,37.94-17.13,56.47-26.62,3.28-1.68,6.61-3.25,9.99-4.9,1.73,2.2,1.82,4.53,1.93,6.79,.14,2.77,.29,5.59-.02,8.33-1.16,10.38-.48,20.83-1.22,31.21-1.46,20.36-.91,40.73-.96,61.1,0,1.13-.14,2.26-.21,3.47-.97,.54-1.7,1.18-2.54,1.4-8.96,2.26-17.96,4.12-27.24,4.81-12.19,.91-24.41,1.94-36.3,5.18-2.47,.67-4.88,1.29-6.97,3.17,2.86,14.36,3.19,28.88,3.39,43.42,.06,4.63-.09,9.29,.31,13.89,.87,10.13,.92,20.32,2.27,30.42,.76,5.72,1.02,11.51,1.62,17.26,.82,7.81,1.76,15.61,2.62,23.41,.61,5.51,1.11,11.04,1.74,16.55,.71,6.19,1.55,12.37,2.28,18.56,.57,4.82,1.12,9.64,1.61,14.47,.63,6.21,1.1,12.43,1.78,18.64,.7,6.43,1.57,12.84,2.33,19.26,.49,4.13,.95,8.26,1.36,12.4,.62,6.21,1.15,12.43,1.79,18.64,.67,6.43,1.43,12.85,2.16,19.28,.08,.69,.21,1.37,.26,2.06,.61,7.84,1.15,15.68,1.81,23.52,.69,8.06,1.5,16.1,2.26,24.15,.04,.46,.08,.92,.1,1.39,.6,10.39,.94,20.81,1.88,31.17,1.11,12.24,.76,24.53,1.57,36.76,1.23,18.74,.57,37.5,1.1,56.24,.31,10.87,.96,21.73,1.41,32.59,.1,2.54,.1,5.1-.05,7.64-.06,1.08-.6,2.13-.87,3.01Z"/>
    <path class="cls-7" d="M2070.78,2055.84c-1.08,.52-1.88,1.23-2.69,1.23-1.82,0-3.7-.15-5.45-.61-2.22-.59-4.43-1.38-6.5-2.38-16.43-7.97-33.67-14.17-49.75-22.91-5.5-2.99-11.36-5.14-17.58-6.2-.66-.11-1.28-.5-2.15-.86-.44-.88-1.22-1.86-1.39-2.93-.7-4.33-1.91-8.6-1.72-13.05,0-.23-.02-.46-.02-.69-.62-31.48-1.23-62.95-1.86-94.43-.04-1.85-.03-3.71-.23-5.54-.51-4.62-.29-9.2,.03-13.84,.49-7.16,.41-14.35,.69-21.52,.31-7.86,.84-15.7,1.11-23.56,.15-4.39-.04-8.8-.03-13.2,0-.86,.22-1.73,.33-2.56,5.11,.14,6.71,.4,10.15,2.22,2.65,1.41,5.27,2.92,7.73,4.64,9.9,6.91,20.56,12.46,31.21,18.07,6.75,3.56,13.43,7.25,20.1,10.96,6.47,3.6,12.89,7.28,19.32,10.95,1.39,.79,2.73,1.68,4.25,2.63,.22,6.28,.19,12.5-.27,18.72-.12,1.61-.4,3.21-.51,4.82-.64,10.15-1.12,20.32-1.93,30.46-.54,6.9-1.64,13.76-2.28,20.65-.75,8.06-.94,16.17-1.97,24.19-1.43,11.08-1.05,22.18-1.29,33.27-.23,10.44,.87,20.77,2.47,31.07,.54,3.43,.48,6.88,.22,10.39Z"/>
    <path class="cls-7" d="M2144.84,2169.76c-2.5,.62-4.48-.87-6.57-1.75-8.53-3.58-16.98-7.34-25.53-10.86-13.47-5.54-27.04-10.84-40.47-16.44-10.03-4.18-19.93-8.67-29.87-13.06-23.06-10.18-46.12-20.34-69.14-30.6-11.62-5.18-23.11-10.63-34.73-15.82-14.15-6.31-28.36-12.46-42.55-18.69-4.45-1.95-8.92-3.84-13.31-5.92-16.1-7.62-32.2-15.24-48.23-23-4.36-2.11-8.52-4.66-12.67-7.18-1.53-.93-2.75-2.37-3.92-3.4,.65-4.53,1.31-8.61,1.81-12.71,.48-3.9,.85-7.81,1.2-11.72,.8-8.98,1.57-17.96,2.34-26.93,.04-.46,.06-.92,.09-1.39,.56-11.79,1.18-23.57,1.66-35.36,.62-15.26,.77-30.56,1.77-45.79,.75-11.33,.51-22.69,1.34-33.99,.75-10.17,.82-20.35,1.36-30.52,.3-5.68,.99-11.34,1.63-18.45,.8,6.26,1.51,11.05,2,15.86,1.11,10.81,2.01,21.63,3.19,32.43,1.23,11.26,2.16,22.54,2.86,33.85,.65,10.38,1.76,20.73,2.7,31.08,.9,9.9,1.85,19.79,2.78,29.68,.91,9.66,1.62,19.35,2.82,28.98,.97,7.78,2.51,15.49,3.86,23.22,.28,1.58,.92,3.09,1.29,4.66,.57,2.44,2.04,4.08,4.22,5.2,10.34,5.31,19.6,12.3,28.98,19.05,11.29,8.14,23.1,15.4,35.28,22.09,22.92,12.59,46.41,24.06,70.25,34.81,20.67,9.32,41.09,19.17,61.12,29.81,15.73,8.36,31.49,16.67,47.43,24.63,8.29,4.14,16.55,8.31,24.29,13.38,6.95,4.55,13.61,9.54,20.39,14.35,.14,.1,.11,.44,.15,.66l.16-.17Z"/>
    <path class="cls-7" d="M2294.99,2294.07c-.23,10.04,.6,19.52-1.01,28.95-.12,.68-.13,1.38-.16,2.08-.47,13.64-1.5,27.26-2.03,40.9-.83,21.53-.88,43.05-1.14,64.57-.02,1.56-.32,3.11-.48,4.49-2.42,1.11-4.57,.74-6.44,.04-11.29-4.23-23.02-6.79-34.72-9.5-.65-.15-1.23-.55-2.06-.93-.17-.83-.45-1.7-.5-2.59-.09-1.62-.09-3.24-.06-4.86,.35-17.15-1.29-34.23-1.72-51.35-1.79-11.51-.94-23.1-1.06-34.67-.13-11.81-.12-23.63-.3-35.44-.07-4.62-.58-9.23-.78-13.84-.14-3.21-.47-6.43,.03-10.12,17.56,7.34,34.77,14.52,52.43,22.27Z"/>
    <path class="cls-7" d="M4042.29,2223.52c-7.79,.64-14.77,2.48-22.36,1.99-.23-1-.68-2.06-.69-3.11-.02-9.5-.04-18.99,.1-28.49,.15-9.95,1.21-19.84,2.45-29.71,.09-.69,.12-1.38,.17-2.08,.61-8.54,.91-17.11,1.93-25.6,.86-7.16,.89-14.32,1.11-21.48,.05-1.59-.14-3.19-.23-5.01-1.15-.48-2.14-1.09-3.21-1.3-7.33-1.4-14.68-1.78-22.08-.49-1.36,.24-2.77,.18-4.16,.23-7.64,.24-15.15,1.62-22.72,2.51-8.49,1-16.97,2.32-25.58,1.95-5.55-.23-11.11-.28-16.61-.4-2.17-1.39-4.29-2.74-6.69-4.28v-5.4c1.22-.37,2.28-.9,3.37-.99,8.53-.7,17.03-1.79,25.62-1.68,5.56,.07,11.13-.24,16.68-.05,10.45,.37,20.81-.84,31.2-1.44,5.75-.33,11.44-1.57,17.19-2.07,6.22-.55,12.46-.75,18.7-1.01,1.11-.05,2.24,.38,3.34,.58,1.89,1.99,1.48,4.41,1.51,6.65,.16,12.05,.29,24.1,.34,36.15,.05,11.12-.07,22.25,.05,33.37,.04,3.92,.57,7.83,.87,11.75,.07,.92,.17,1.85,.17,2.77,.07,10.43,.14,20.85,.15,31.28,0,1.57-.35,3.15-.61,5.38Z"/>
    <path class="cls-7" d="M4521,2427.56c1-2.12,1.98-4.18,3.02-6.4-.15-.52-.19-1.26-.53-1.8-3.84-6.17-5.72-13.07-7.5-20-2.98-11.61-5.6-23.29-7.33-35.17-.26-1.81-.82-3.57-1.31-5.69,1.3-.62,2.43-1.36,3.67-1.7,1.32-.36,2.74-.46,4.11-.48,10.22-.14,20.13-2.38,30.04-4.53,2.92-.63,5.77-1.53,8.89-2.37,.52,.73,1.35,1.39,1.5,2.19,.76,4.07,1.86,8.07,2.01,12.26,.39,10.38,.81,20.77,1.47,31.13,.41,6.44,1.1,12.87,1.99,19.26,.68,4.83,.57,9.62,.85,14.66-1.53,.33-2.61,.77-3.69,.77-9.94,.02-19.88-.03-29.82-.06-2.54,0-5.05-.15-7.37-2.06Z"/>
    <path class="cls-7" d="M3685.06,1794.01c-15.71,2.57-30.84,3.93-46.44,2.91-.89-3.63-1.33-7-1.36-10.45-.04-4.17-.11-8.34-.23-12.51-.12-4.16-.22-8.33-1.24-12.41-.27-1.08-.04-2.28-.04-3.74,1.1-.26,2.17-.74,3.24-.74,9.79,.01,19.29-1.93,28.75-4.18,4.04-.96,8.11-1.84,12.2-2.58,1.53-.28,3.16-.04,5.03-.04,1.08,2.84,1.69,5.75,1.76,8.73,.1,3.94,.39,7.93-.12,11.81-.89,6.69-.83,13.4-1.15,20.1-.04,.89-.22,1.78-.39,3.11Z"/>
    <path class="cls-7" d="M2395.33,1945.63c-.33,3.88-1.55,7.03-4.01,9.79-.71-.14-1.53-.06-1.99-.42-6.75-5.31-14.15-9.58-21.52-13.94-7.36-4.35-14.41-9.23-21.57-13.9-8.53-5.57-17.53-10.32-26.45-15.21-7.51-4.1-15.04-8.18-22.39-12.55-10.53-6.26-20.94-12.73-31.35-19.2-14.14-8.79-28.13-17.82-42.74-25.84-2.2-1.21-4.45-2.39-6.05-4.22,.31-1.58,1.31-1.54,2.09-1.11,6.29,3.42,12.7,6.67,18.76,10.46,8.25,5.15,16.48,10.25,25.49,14.01,7.04,2.94,13.83,6.39,20.41,10.32,4.75,2.84,9.77,5.26,14.79,7.62,6.92,3.25,13.62,6.84,20.05,10.99,3.47,2.24,7.23,4.13,11.07,5.69,11.64,4.74,22.58,10.7,32.44,18.46,6.44,5.06,13.2,9.19,21.21,11.35,4.44,1.2,8.65,3.29,11.76,7.7Z"/>
    <path class="cls-7" d="M2144.69,2169.93c.65,.1,1.3,.2,2.19,.33-1.23,1.07-1.76,.68-2.04-.51l-.16,.17Z"/>
    <line class="cls-3" x1="2117.33" y1="1641.41" x2="1867.14" y2="870.27"/>
    <line class="cls-4" x1="1976.51" y1="1641.41" x2="1590.23" y2="870.27"/>
    <line class="cls-2" x1="2167.28" y1="1642.64" x2="1998.71" y2="871.96"/>
    <polygon class="cls-4" points="2116.94 1640.29 1867.14 870.27 1802.16 1190.96 2078.36 1830.71 2116.94 1640.29"/>
    <polygon class="cls-4" points="1634.19 860.01 1916.68 1497.25 2014.85 1321.28 1864.7 860.01 1634.19 860.01"/>
    <polygon class="cls-4" points="1586.29 860.01 1991.11 1668.18 2079.31 1663.87 1676.64 860.01 1586.29 860.01"/>
    <polygon class="cls-5" points="1954.56 860.01 2125.5 1641.53 2172.58 1667.72 1995.9 860.01 1954.56 860.01"/>
    <polygon class="cls-5" points="1865.47 860.01 2120.57 1646.28 2169.99 1667.72 1907.94 860.01 1865.47 860.01"/>
    <polygon class="cls-5" points="1888.02 860.01 2013.01 1310.68 2084.03 1306.77 1960.12 860.01 1888.02 860.01"/>
    <path class="cls-7" d="M1751.89,1391.73c-16.39-3.46-32.77-6.97-49.15-10.45-23.1-4.9-46.21-9.76-69.31-14.68-33.3-7.09-66.59-14.26-99.9-21.33-31.7-6.73-63.43-13.33-95.12-20.07-51.03-10.85-102.03-21.8-153.06-32.66-19.66-4.18-39.32-8.35-58.98-12.51-.69,97.53-1.59,195.06-2.75,292.58-.27,22.9-.56,45.81-.86,68.71h220.1c.87-5.74,1.26-11.5,1.31-17.29,.22-29.9-.09-59.81,.93-89.69,1.24-36.14,.51-72.29,1.67-108.42,.43-13.43,.68-26.85,.98-40.28,.02-.67,.25-1.34,.44-2.31,3.81-1.16,7.87-1.71,11.91-2.39,3.8-.64,7.55-1.5,11.35-2.16,4.08-.7,8.2-1.22,12.27-1.9,3.8-.64,7.55-1.57,11.37-2.06,3.99-.51,7.84-2.09,12.38-1.67,.14,1.28,.35,2.16,.32,3.03-.09,3.71-.2,7.41-.41,11.11-.16,2.77-.65,5.53-.74,8.3-.24,7.41,0,14.85-.58,22.24-1.27,16.19-.8,32.43-1.96,48.6-.86,12.04-.52,24.09-1.46,36.1-1.15,14.81-.7,29.65-1.84,44.43-1,12.96-.54,25.94-1.55,38.88-1.13,14.34-1.1,28.7-1.68,43.05-.17,4.15-.83,8.29-1.26,12.44h260.5v-248.92c-1.64-.22-3.3-.33-4.9-.66Z"/>
    <polygon class="cls-6" points="1435.42 1385.01 1502.68 1376.84 1489.76 1901.12 1422.3 1917.2 1435.42 1385.01"/>
    <path class="cls-7" d="M1505.03,1185.31c-1.08,.52-1.88,1.23-2.69,1.23-1.82,0-3.7-.15-5.45-.61-2.22-.59-4.43-1.38-6.5-2.38-16.43-7.97-33.67-14.17-49.75-22.91-5.5-2.99-11.36-5.14-17.58-6.2-.66-.11-1.28-.5-2.15-.86-.44-.88-1.22-1.86-1.39-2.93-.7-4.33-1.91-8.6-1.72-13.05,0-.23-.02-.46-.02-.69-.62-31.48-1.23-62.95-1.86-94.43-.04-1.85-.03-3.71-.23-5.54-.51-4.62-.29-9.2,.03-13.84,.49-7.16,.41-14.35,.69-21.52,.31-7.86,.84-15.7,1.11-23.56,.15-4.39-.04-8.8-.03-13.2,0-.86,.22-1.73,.33-2.56,5.11,.14,6.71,.4,10.15,2.22,2.65,1.41,5.27,2.92,7.73,4.64,9.9,6.91,20.56,12.46,31.21,18.07,6.75,3.56,13.43,7.25,20.1,10.96,6.47,3.6,12.89,7.28,19.32,10.95,1.39,.79,2.73,1.68,4.25,2.63,.22,6.28,.19,12.5-.27,18.72-.12,1.61-.4,3.21-.51,4.82-.64,10.15-1.12,20.32-1.93,30.46-.54,6.9-1.64,13.76-2.28,20.65-.75,8.06-.94,16.17-1.97,24.19-1.43,11.08-1.05,22.18-1.29,33.27-.23,10.44,.87,20.77,2.47,31.07,.54,3.43,.48,6.88,.22,10.39Z"/>
    <path class="cls-7" d="M1388.59,1135.97c-1.38,.56-2.41,1.32-3.44,1.32-2.33,0-4.74-.16-6.99-.66-2.85-.63-5.67-1.48-8.32-2.56-21.05-8.56-43.14-15.22-63.75-24.62-7.04-3.21-14.56-5.52-22.52-6.66-.85-.12-1.64-.54-2.76-.92-.56-.95-1.57-1.99-1.79-3.15-.89-4.65-2.44-9.24-2.2-14.02,.01-.25-.02-.5-.03-.75-.79-33.82-1.58-67.64-2.38-101.46-.05-1.99-.04-3.98-.29-5.95-.65-4.96-.37-9.89,.04-14.87,.63-7.69,.53-15.42,.89-23.12,.4-8.44,1.07-16.87,1.42-25.31,.2-4.72-.05-9.45-.04-14.18,0-.93,.28-1.86,.42-2.75,6.54,.15,8.59,.43,13,2.39,3.4,1.51,6.76,3.14,9.91,4.98,12.68,7.42,26.35,13.39,39.98,19.42,8.65,3.82,17.2,7.79,25.75,11.78,8.29,3.87,16.51,7.82,24.75,11.77,1.78,.85,3.49,1.81,5.45,2.82,.28,6.75,.24,13.43-.34,20.11-.15,1.73-.52,3.45-.65,5.18-.82,10.91-1.44,21.83-2.47,32.73-.7,7.42-2.1,14.78-2.92,22.19-.96,8.66-1.2,17.38-2.53,25.99-1.83,11.9-1.35,23.83-1.66,35.75-.29,11.22,1.11,22.32,3.17,33.38,.69,3.69,.62,7.39,.29,11.17Z"/>
    <path class="cls-7" d="M1278.7,899.23c-1.78-1.05-3.34-2.04-4.97-2.93-7.51-4.08-15-8.18-22.55-12.18-7.66-4.06-15.34-8.1-23.09-12-.11,68.83-.3,137.66-.59,206.49,9.26,3.82,18.55,7.58,27.64,11.77,2.42,1.12,4.99,2,7.59,2.65,2.05,.52,4.24,.68,6.37,.68,.94,0,1.88-.79,3.14-1.36,.3-3.91,.36-7.74-.26-11.56-1.88-11.46-3.15-22.95-2.89-34.57,.28-12.35-.16-24.7,1.51-37.02,1.21-8.92,1.43-17.95,2.3-26.91,.75-7.67,2.02-15.3,2.66-22.98,.94-11.28,1.5-22.6,2.25-33.89,.12-1.79,.45-3.57,.59-5.37,.54-6.92,.57-13.83,.31-20.82Z"/>
    <path class="cls-7" d="M3928.14,1671.11c-.99-17.57-1.08-35.24-1.8-52.82-.56-13.75-.77-27.5-1.24-41.24-.63-18.45-1.56-36.87-2.15-55.32-.43-13.31-.52-26.66-.77-40.53,1.85-1.3,3.49-2.83,5.24-3.64,25.59-11.92,51.19-23.76,76.79-35.59,6.29-2.9,12.59-5.72,18.89-8.51,.62-.28,1.32-.04,2.19-.04,.98,4.38,.35,8.64,.02,12.74-1.72,21.23-3.51,42.45-5.33,63.65-1.63,19.08-3.54,38.1-4.91,57.25-.66,9.25-1.96,18.45-2,27.39,.75,1.02,1.1,1.92,1.45,1.92,12.74,.07,25.49,.06,38.59,.06,.18-2.26,.55-4.29,.46-6.24-.55-11.13-1.16-22.26-1.86-33.36-.74-11.95-1.59-23.87-2.4-35.81-.72-10.66-1.45-21.31-2.16-31.97-.54-8.1-1.12-16.19-1.61-24.3-.66-11.11-1.27-22.24-1.85-33.36-.11-2.11-.02-4.26-.02-6.04,.37-.64,.53-.94,.7-1.22,.17-.28,.34-.68,.54-.77,96.94-44.91,193.88-89.81,290.6-134.59,1.64,2.38,1.24,5.13,1.23,7.61-.08,22.41-.2,44.82-.31,67.23-.1,22.41,.1,44.84-.36,67.22-1.27,61.15-.85,122.34-1.44,183.5-.18,18.93-.66,37.85-1.01,56.78h-405.49Z"/>
    <path class="cls-7" d="M4259.71,820.48c.54,13.25,.31,26.53-2.41,39.66-.08,.39,.24,.85,.41,1.42,2.8-.81,5.57-1.72,8.4-2.42,9.43-2.34,18.87-4.74,28.71-2.6,.45,.1,.92,.04,1.39,.06,19.01,1,37.97-.19,56.92-1.42,.92-.06,1.82-.35,2.74-.43,9.23-.82,18.46-1.69,27.58,.86,1.06,.3,2.16,.46,3.52,.74,.36-1.15,.78-1.97,.86-2.83,.43-5.07,.9-10.14,1.13-15.22,.29-6.57,.57-13.15,.82-19.72-43.36,.49-86.71,1.11-130.06,1.91Z"/>
    <path class="cls-7" d="M4251.85,686.3c.02,.46,0,.93,.08,1.39,1.7,10.78,1.01,21.71,2.12,32.54,1.18,11.5,1.35,23.1,1.97,34.66,.01,.23,.02,.46,.04,.69,.74,9.68,1.58,19.36,2.18,29.05,.63,10.16,.69,20.35,1.23,30.53,0,.05,0,.11,0,.16,43.5-.8,86.99-1.42,130.49-1.91,.12-3.51,.24-7.02,.33-10.53,.17-6.24-.28-12.48-.56-18.72-.59-12.73-.49-25.48-.63-38.23,0-.85,.32-1.71,.53-2.78,5.52-.59,10.77-1.18,16.03-1.7,2.3-.22,4.63-.21,6.94-.43,7.59-.73,15.18-1.48,22.76-2.29,5.06-.54,10.13-1,15.15-1.84,9.11-1.52,18.18-3.3,27.27-4.94,1.12-.2,2.32-.32,3.18,.94,.4,4.5,.95,9.09,1.2,13.7,.48,8.78,.49,17.57,1.26,26.36,.87,9.9,.74,19.88,1.48,29.82,.24,3.25,.44,6.51,.61,9.77,19.5-.13,39.01-.24,58.51-.33,66.47-.29,132.88-.11,199.29,.82-1.29-57.1-1.78-114.23-1.39-171.35,.02-3.32,5.17-3.31,5.15,0-.4,57.15,.1,114.3,1.39,171.43,.33,0,.65,0,.98,.01V422.99h-175.22c-.02,7.87,.32,15.71,.99,23.57,.85,9.91,.61,19.88,1.53,29.82,.72,7.82,.54,15.71,1.25,23.57,.96,10.59,1.17,21.26,1.66,31.9,.63,13.88,1.2,27.76,1.84,41.63,.07,1.61,.49,3.2,.6,4.81,.2,2.96,.76,5.95-.26,9.3-11.59,2.78-23.38,4.93-35.06,7.51-11.95,2.64-24,4.82-35.96,7.44-11.69,2.56-23.48,4.66-35.16,7.59-.1,1.18-.29,2.09-.25,2.99,.59,14.57,1.21,29.15,1.84,43.72,.04,.92,.34,1.83,.39,2.74,.25,4.85,.48,9.71,.66,14.57,.07,1.82,.01,3.64,.01,5.68-1.27,.53-2.29,1.03-3.34,1.4-6.76,2.37-13.52,4.74-20.3,7.06-20.58,7.05-41.59,12.46-62.92,16.66-2.46,.49-5.01,.72-7.16,.4-2.29-1.81-1.93-4.01-2.15-6.03-.62-5.51-1.11-11.05-1.92-16.53-1.56-10.51-3.49-20.96-4.93-31.49-1.69-12.36-2.9-24.79-4.58-37.16-.51-3.81-.8-7.83-3.45-11.43-3.76-.56-7.61-1.3-11.5-1.66-5.53-.51-11.08-.75-16.63-1.05-1.85-.1-3.71-.09-5.56,.02-4.62,.27-9.23,.64-13.85,.96-2.08,.15-4.17,.19-6.24,.44-5.96,.7-11.91,1.53-17.88,2.21-5.74,.66-11.52,1.02-17.24,1.82-8.94,1.25-17.87,2.38-26.9,2.68-1.16,.04-2.36,0-3.45,.31-1.25,.35-2.41,1.05-3.84,1.71,3.76,14.01,4.29,28.14,5.49,42.16,.97,11.29,1.29,22.65,1.9,33.97Z"/>
    <path class="cls-7" d="M4498.32,817.62c-4.19,.03-8.39,.06-12.58,.09,.36,8.2,.61,16.42,.99,24.62,.05,1.08,.49,2.14,.77,3.28,1.91,0,3.53,.16,5.12-.03,3.44-.42,6.86-.98,10.28-1.55,12.76-2.13,25.5-4.33,38.27-6.38,2.39-.38,4.92-.98,7.46-.06-.38,3.07-.66,5.79-1.06,8.49-.43,2.97-.96,5.93-1.44,8.89-.45,2.73-.9,5.47-1.35,8.2-.49,2.96-.89,5.94-1.48,8.89-.53,2.65-1.61,5.25-.63,8.24,1.09,.08,1.99,.24,2.86,.18,4.61-.33,9.22-.8,13.83-1.06,11.09-.64,22.19-1.18,33.28-1.82,3-.17,5.98-.59,8.98-.76,.83-.05,1.68,.38,2.66,.62,0,2.35,.07,4.41-.02,6.46-.08,1.84-.46,3.68-.51,5.52-.64,21.99-1.24,43.99-1.85,65.98-.1,3.47,.17,7-.3,10.42-.9,6.46-.64,12.95-.86,19.42-.04,1.11-.32,2.33,1,3.67,2.8,.39,5.97-.06,9.14-.46,5.5-.69,10.99-1.47,16.49-2.15,7.57-.93,15.14-1.82,22.72-2.68,.84-.1,1.73,.16,2.92,.29,.38,4.4,.13,8.54,.11,12.67-.02,4.35,.31,8.75-1.29,13.37-17.2,4.15-34.59,7.64-51.87,11.87-.23,1.19-.54,2.07-.56,2.95-.3,10.64-.46,21.28-1.13,31.93-.87,13.86-.44,27.77-1.39,41.65-.94,13.85-.43,27.77-1.39,41.65-.95,13.85-.43,27.77-1.39,41.65-.95,13.85-.43,27.77-1.39,41.65-.95,13.85-.45,27.77-1.38,41.65-.95,14.08-.46,28.23-1.42,42.35-.93,13.62-.43,27.31-1.36,40.96-.96,14.08-.45,28.23-1.42,42.35-.93,13.62-.44,27.3-1.35,40.96-.95,14.32-.48,28.7-1.45,43.04-.9,13.39-.43,26.84-1.33,40.27-.97,14.31-.46,28.7-1.44,43.04-.91,13.39-.53,26.84-1.32,40.26-1.06,18.02-1.23,36.1-1.75,54.16-.15,5.33-.18,10.66-.29,15.99-.05,2.55-.11,5.1-.24,7.64-.23,4.39-.56,8.77-.74,13.16-.04,1.07,.34,2.15,.52,3.17,7.29,.48,14.2,1.04,21.12,1.37,11.79,.55,23.6,.42,35.4,1.32,11.76,.91,23.6,.5,35.39,1.42,11.3,.88,22.66,.57,34,1.34,15.24,1.04,30.54,1.24,45.81,1.79V983.8c-2.7-55.23-4.73-110.5-6.02-165.78-81.68-1.09-163.37-.9-245.09-.39Z"/>
    <path class="cls-7" d="M4748.57,818.09c.26,11.07,.54,22.14,.86,33.21v-33.2c-.29,0-.58,0-.86-.01Z"/>
  </g>
  <g id="bub">
    <path class="cls-8" d="M3028.75,2124.78c2.43,.89,4.17,1.41,5.81,2.16,1.65,.76,3.41,1.5,4.72,2.69,2.11,1.91,4.97,2.79,6.69,5.25,2.15,3.08,5.41,5.26,7.2,8.66,.37,.7,.77,1.38,1.19,2.04,.88,1.41,1.79,2.8,3.03,4.73,1.03,2.89,2.49,6.37,3.46,9.99,.52,1.93,.27,4.1,.2,6.15-.19,5.66-2.51,10.75-5.28,15.44-3.01,5.1-7.41,9.17-12.68,12.03-2.72,1.47-5.58,2.72-8.47,3.82-2.98,1.13-6.06,1.8-9.35,1.44-1.28-.14-2.66,.56-3.99,.87-2.81-.6-5.69-1.08-8.5-1.85-2.66-.73-5.24-1.76-7.91-2.49-1.58-.58-3.3-.92-4.71-1.78-3.59-2.18-7.83-3.49-10.27-7.3-.31-.48-.66-1-1.12-1.3-4.17-2.64-5.79-6.99-7.53-11.23-1-2.43-1.94-4.9-2.57-7.44-.46-1.84-.58-3.83-.5-5.74,.19-4.7,.68-9.56,2.84-13.64,2.09-3.95,4.58-7.8,8.03-11.03,3.58-3.35,7.82-5.55,11.77-8.24,1.74-1.18,3.94-1.74,6-2.38,4.31-1.33,8.74-2.02,13.26-1.67,2.04,.16,4.07,.59,6.11,.81,1.02,.11,2.07,.02,2.6,.02Z"/>
    <path class="cls-8" d="M2782.4,2262.23c-.73,.31-1.24,.52-1.75,.74,0,.41,0,.83,0,1.34-.64-.05-1.21-.09-1.75-.13-1.41-2.09-2.83-4.11-4.16-6.19-1.44-2.24-2.52-4.58-2.95-7.3-.36-2.34-1.33-4.6-2.16-6.84-.6-1.61-1.24-3.12-1.14-4.94,.05-.87-.82-1.79-1.49-3.13,.42-2.3,.8-5.11,1.45-7.86,1.17-4.94,4.1-8.91,7.36-12.66,2.67-3.08,5.78-5.46,9.63-7.03,3.15-1.29,6.04-3.21,8.64-4.62,1.74-.46,3.05-.79,4.36-1.15,.44-.12,.86-.42,1.3-.45,6.48-.41,12.86-.31,18.95,2.5,5.29,2.43,9.74,5.86,14.11,9.68,2.59,2.26,3.29,5.84,6.34,7.51-.14,2.74,3.35,4.19,2.57,7.18-.05,.17,.13,.45,.27,.62,1.31,1.68,1.99,3.57,2.19,5.69,.05,.52,.53,.99,.87,1.6-.39,.8-.79,1.61-1.27,2.59,.26,.85,.57,1.83,.78,2.52-.81,2.49-1.49,4.79-2.3,7.04-1.65,4.62-5.03,8.16-7.74,12.11-.31,.46-.87,.75-1.32,1.1-1.04,.8-2.09,1.6-3.39,2.59-.97,.56-2.21,1.33-3.5,2.02-1.2,.64-2.4,1.34-3.69,1.75-3.69,1.16-7.2,3.14-11.23,2.94-3.05-.15-6.15,.37-9.14-.76-2.12-.8-4.63-.91-6.46-2.1-4.17-2.7-9.16-3.5-13.38-6.35Z"/>
    <path class="cls-8" d="M3122.05,2235.27c-.8-.87,.01-2.05,.66-3.31,.65-1.26,1.12-2.62,1.56-3.97,.73-1.37,1.46-2.75,2.26-4.23,.77-1.05,1.57-2.29,2.54-3.38,1.27-1.44,2.58-2.87,4.05-4.1,4.85-4.09,10.39-6.34,16.82-6.9,3.15-.28,6.22-.56,9.24,.21,2.96,.75,5.84,1.81,8.72,2.85,2.56,.92,5.07,1.99,6.94,2.73,2.02,1.24,3.41,2.22,4.9,2.98,1.93,.99,2.85,2.97,4.4,4.22,2.36,1.92,3.23,4.59,4.67,7.01,2.3,3.87,2.57,8.23,2.62,12.38,.05,4.51-.19,9.13-1.58,13.58-2.06,6.57-5.57,12.21-11.17,16.13-2.41,1.69-5.37,2.8-8.27,3.85-7.27,2.62-14.51,1.61-21.81,.65-.44-.06-.9,.09-1.33,.14-.12,.92-.22,1.74-.32,2.55-2.8,0-2.57-3.14-4.88-4.05,.22,.85,.37,1.4,.61,2.33-.91,.04-1.73,.05-2.54,.11-.77,.06-1.54,.16-2.38,.26-.12,1.19-.22,2.19-.31,3.09-.38,.18-.68,.42-.76,.36-3.13-2.32-7.01-3.63-9.42-6.94-3.14-4.32-5.76-8.85-6.05-14.38-.18-3.42-.39-6.84-.53-10.26-.02-.54,.32-1.09,.33-1.64,.01-1.42-.07-2.84-.46-4.28,.46-2.4,.92-4.79,1.54-7.99Z"/>
    <path class="cls-8" d="M2631.1,2513.71c.06,.46,.12,.92,.19,1.38-.18,.04-.37,.09-.55,.14-.15-.45-.29-.91-.44-1.36,.27-.05,.54-.1,.81-.15Z"/>
  </g>
  <g id="line">
    <path class="cls-6" d="M3519.42,1640.71c3.85,7.58,7.81,15.11,11.53,22.75,6.2,12.73,12.29,25.5,18.33,38.3,4.38,9.27,8.63,18.62,14.13,27.28,6.67,10.48,13.57,20.83,20.6,31.07,5.87,8.56,11.98,16.95,18.15,25.3,5.07,6.86,10.36,13.54,15.58,20.29,4.86,6.29,9.77,12.55,14.63,18.85,9.64,12.49,20.87,23.4,33.08,33.36,5.65,4.61,11.13,9.4,15.9,14.96,1.93,2.25,4.04,4.34,6.68,5.89,1.52,.89,2.36,2.58,3.33,4.18,3.35,5.51,7.09,10.79,10.88,16.02,2.02,2.78,4.51,5.22,6.69,7.89,4.74,5.8,9.39,11.67,14.12,17.48,2.84,3.49,5.67,6.98,8.65,10.34,5.98,6.75,11.95,13.5,18.11,20.08,8.94,9.53,18.08,18.86,28.47,26.85,6.85,5.27,13.75,10.48,20.71,15.61,3.21,2.37,6.62,4.46,9.89,6.74,.83,.58,1.52,1.36,2.46,2.22-1.7,.74-3,.42-4.18-.29-3.45-2.07-6.95-4.07-10.25-6.36-4.25-2.96-8.41-6.05-12.44-9.3-5.75-4.63-11.52-9.26-16.98-14.22-6.16-5.6-12.19-11.37-17.89-17.43-8.16-8.66-16.1-17.53-23.87-26.54-4.58-5.31-8.65-11.06-12.98-16.58-1.64-2.09-3.19-4.3-5.12-6.1-6.6-6.13-11.26-13.68-16-21.19-2.34-3.7-4.75-7.2-8.78-9.45-2.26-1.26-3.97-3.5-5.96-5.26-7.12-6.25-14.33-12.4-21.39-18.72-7.22-6.48-14.39-13.02-20.42-20.68-10.5-13.34-21.28-26.48-31.44-40.07-10.78-14.43-21.29-29.08-31.35-44.01-10.29-15.26-19.1-31.4-26.54-48.29-5.08-11.53-10.64-22.85-16.03-34.24-4.06-8.58-8.2-17.12-12.28-25.69-.14-.29-.07-.68-.1-1.03h2.09Z"/>
    <path class="cls-6" d="M2557.8,1640.71c5.88,3.53,11.69,7.21,17.67,10.57,10.79,6.06,21.72,11.85,32.52,17.89,8.11,4.54,16.49,8.49,25.06,12.07,3.27,1.37,6.5,2.93,9.52,4.79,2.22,1.37,4.06,3.37,6.08,5.07,1.71,1.44,3.68,2.22,5.93,2.47,7.54,.85,15.02,2.07,22.44,3.67,6.15,1.32,12.28,2.71,18.65,2.82,4.46,.08,8.91,.95,13.37,1.37,4.12,.39,7.43,2.9,11.2,4.17,.96,.32,1.83,.94,2.94,1.53-2.06,1.68-4.23,1.03-6.27,.73-2.03-.3-4-.95-6.02-1.31-6.31-1.13-12.66-2.1-18.95-3.3-7.31-1.39-14.58-3-21.88-4.44-3.49-.69-6.99-1.31-10.52-1.74-1.31-.16-2.77,.14-4.04,.59-4.79,1.68-9.4,.48-13.2-2-4.48-2.92-9.3-4.89-14.07-7.12-6.67-3.12-13.35-6.23-19.87-9.64-6.21-3.25-12.2-6.91-18.3-10.36-7-3.95-14.12-7.71-21.01-11.86-4.24-2.55-8.12-5.69-12.19-8.52-2.75-1.91-5.56-3.71-8.31-5.63-.71-.5-1.26-1.23-1.89-1.85h11.13Z"/>
    <path class="cls-6" d="M2349.9,2070.42c2.24,.47,4.46,1.08,6.73,1.39,8.79,1.2,17.61,2.21,26.39,3.48,8.76,1.27,17.52,2.63,26.23,4.19,10.19,1.83,20.32,4.01,30.5,5.86,11.57,2.11,23.17,4.06,34.76,6.03,10.79,1.83,21.59,3.63,32.4,5.38,7.85,1.27,15.72,2.38,23.57,3.62,6.8,1.08,13.58,2.36,20.39,3.34,6.26,.9,12.57,1.49,18.85,2.27,4.9,.61,9.79,1.4,14.7,1.92,5.72,.6,11.47,1,17.21,1.49,.53,.04,1.06,.1,1.62,.61-1.67,.25-3.34,.71-5.01,.73-7.07,.08-14.14,.14-21.2-.03-3.56-.09-7.12-.67-10.67-1.1-4.11-.49-8.21-1.02-12.3-1.61-6.85-.98-13.69-2-20.52-3.04-6.94-1.05-13.88-2.11-20.81-3.24-6.47-1.06-12.91-2.3-19.38-3.33-6.6-1.05-13.23-1.9-19.83-2.94-5.91-.93-11.81-1.95-17.69-3.02-6.79-1.23-13.58-2.53-20.35-3.86-9.79-1.93-19.57-3.95-29.36-5.88-5.64-1.11-11.3-2.16-16.96-3.16-6.76-1.2-13.53-2.38-20.32-3.45-5.2-.83-10.41-1.56-15.64-2.16-1.57-.18-2.47-.96-3.3-2.07v-1.39Z"/>
    <path class="cls-6" d="M3588.95,1640.71c2.01,1.64,3.9,3.47,6.07,4.87,7.82,5.06,15.61,10.18,23.65,14.87,6.54,3.82,13.37,7.13,20.14,10.54,8.31,4.19,16.7,8.23,25.05,12.35,10.62,5.25,21.27,10.46,31.85,15.78,9.57,4.81,19.09,9.73,28.62,14.64,5.64,2.91,11.59,4.98,17.68,6.72,6.39,1.83,12.75,3.74,19.15,5.53,5.27,1.48,10.63,5.24,13.62,9.8-2.16,.21-3.96-.71-5.6-1.66-7.84-4.54-16.45-6.98-25.12-9.16-10.2-2.56-19.71-6.66-28.96-11.6-9.03-4.82-18.29-9.22-27.44-13.83-9.24-4.65-18.46-9.33-27.71-13.96-8.12-4.07-16.35-7.93-24.39-12.16-13-6.84-25.72-14.18-37.66-22.8-3.91-2.82-7.83-5.64-11.72-8.49-.53-.39-.93-.97-1.39-1.46h4.17Z"/>
    <path class="cls-6" d="M3017.79,2106.78c.27-.78,.51-1.48,.79-2.31,1.12,.74,2.09,1.37,3.11,2.05,6.11-1.35,12.31-2.22,18.6-2.82,9.03-.86,17.99-2.5,26.98-3.77,5.79-.82,11.6-1.57,17.4-2.35,4-.54,8-1.09,12-1.65,3.98-.56,7.96-1.14,11.94-1.74,4.31-.65,8.61-1.34,12.92-1.99,4.88-.74,9.77-1.38,14.64-2.19,7.48-1.25,14.93-2.63,22.4-3.92,7.48-1.29,14.97-2.52,22.45-3.79,7.8-1.33,15.58-2.74,23.38-4.02,6.47-1.06,12.97-1.92,19.45-2.95,5.79-.92,11.57-1.94,17.36-2.94,7.7-1.33,15.4-2.66,23.1-4.03,5.67-1.01,11.31-2.14,16.99-3.1,5.21-.87,10.46-1.5,15.67-2.38,7.36-1.25,14.69-2.68,22.04-3.97,5.89-1.03,11.8-2,17.7-2.96,5.33-.86,10.66-1.7,16-2.47,7.75-1.11,15.52-2.1,23.27-3.24,6.81-1,13.57-2.39,20.41-3.14,10.63-1.17,21.05-4.16,31.86-3.8,.33,.01,.67-.13,1.06-.21,.14-.58,.27-1.15,.46-1.96,1.09,.57,1.97,1.04,2.92,1.54,9.18-3.58,18.82-5.72,28.28-8.49,13.33-3.91,26.66-7.85,40-11.75,15.57-4.55,31.15-9.1,46.73-13.61,10.04-2.9,20.11-5.73,30.17-8.59,5.76-1.64,11.53-3.28,17.29-4.93,.55-.16,1.1-.49,1.64-.49,3.29,0,6.59,.3,9.89-.03,.37-.04,.79,.32,1.47,.62-1.26,1.56-2.9,2.35-4.37,2.57-8.58,1.28-16.74,4.07-25.03,6.42-8.52,2.42-17.07,4.74-25.57,7.22-9.69,2.83-19.33,5.86-29.03,8.66-10.05,2.9-20.16,5.62-30.23,8.44-8.54,2.39-17.02,4.99-25.61,7.17-8.73,2.21-17.57,4.03-26.37,5.99-.88,.2-1.81,.15-2.63,.21-1.37,1.91,.08,2.76,1.25,3.71-2.12,.86,.1,2.28-.39,3.68-1.26,.61-2.51,1.22-3.77,1.83-1.67-1.2-3.01-2.17-4.35-3.14,.19-.3,.37-.6,.56-.9-2.16,.26-4.32,.53-6.49,.77-9.62,1.06-19.18,2.52-28.72,4.17-8.06,1.4-16.21,2.34-24.31,3.48-8.68,1.22-17.38,2.28-26.03,3.68-11.35,1.83-22.64,3.96-33.97,5.9-8.96,1.54-17.94,2.97-26.91,4.49-7.48,1.26-14.96,2.58-22.44,3.86-6.01,1.03-12.03,2.03-18.04,3.07-7.49,1.3-14.97,2.67-22.47,3.93-4.99,.84-10.02,1.5-15.01,2.33-7.37,1.23-14.74,2.52-22.1,3.81-5.89,1.03-11.78,2.1-17.67,3.11-8.28,1.42-16.56,2.82-24.85,4.2-9.67,1.6-19.32,3.26-29.01,4.73-7.29,1.11-14.61,1.94-21.92,2.93-7.53,1.03-15.04,2.15-22.58,3.14-6.51,.86-13.02,1.79-19.56,2.36-9.08,.79-18.19,1.27-27.69,1.91-.46,1.24-1.05,2.83-1.59,4.3-1.04-1.01-2.25-2.2-3.31-3.23-4.9,.2-9.5,.33-14.1,.6-5.3,.32-10.6,.77-15.9,1.16-.69,.05-1.39,.11-2.08,.12-18.05,.26-36.11,.46-54.16,.8-13.06,.24-26.12,.74-39.18,.96-14.1,.24-28.21,.24-42.31,.42-16.07,.21-32.13,.49-48.19,.77-10.4,.18-20.8,.41-31.2,.61-13.62,.26-27.25,.45-40.87,.79-7.15,.18-14.3,.84-21.45,.94-15.04,.2-30.08,.25-45.12,.2-9.47-.03-18.94-.33-28.41-.56-8.9-.21-17.8-.44-26.69-.72-4.27-.14-8.54-.37-12.8-.66-4.42-.3-8.69,.28-12.84,1.8-.29,.11-.63,.08-1.42,.16,3.71-3.1,7.64-4.58,11.93-4.58,6.91,0,13.81,.45,20.72,.6,9.83,.22,19.67,.43,29.5,.49,17,.11,34.01,.27,51.01,.1,11.2-.11,22.39-.78,33.59-1.12,5.67-.17,11.34-.14,17.01-.24,12.91-.22,25.83-.43,38.74-.69,9.46-.19,18.91-.47,28.37-.66,14.62-.28,29.24-.52,43.86-.75,16.5-.27,33.01-.51,49.51-.78,11.78-.2,23.56-.44,35.34-.65,12.45-.22,24.9-.25,37.33-.69,9.21-.33,18.39-1.26,27.59-1.78,3.87-.22,7.76-.04,12.07-.04Z"/>
    <path class="cls-6" d="M2846.57,2341.03c1.33-.64,2.66-1.28,4.07-1.96-6.72-1.64-13.54-2.14-20.4-2.45-5.64-.25-11.27-.78-16.91-1.13-5.19-.33-10.39-.48-15.57-.9-5.97-.48-11.93-1.17-17.89-1.78-5.51-.56-11.01-1.11-16.52-1.69-5.61-.6-11.21-1.23-16.81-1.85-.46-.05-.91-.16-1.37-.19-4.95-.29-9.91-.58-14.87-.85-8.74-.47-17.51-.65-26.22-1.49-6.49-.62-12.91-2.08-19.36-3.18-2.84-.48-5.67-1.04-8.52-1.43-1.45-.2-2.87-.07-4.35,.5-1.18,.46-2.7,.33-4.01,.11-7.81-1.33-15.63-2.65-23.39-4.21-6.06-1.22-12.07-2.7-18.07-4.22-15.25-3.86-30.48-7.83-45.73-11.69-10.45-2.64-21.03-4.83-31.39-7.8-12.96-3.71-25.77-7.95-38.6-12.08-6.41-2.06-12.86-4.11-19.07-6.69-6.44-2.67-12.63-5.98-19.58-9.33,3.93-.53,6.98,.39,10.02,.91,10,1.7,19.31,5.78,28.92,8.8,13.27,4.16,26.34,8.9,39.78,12.55,16.97,4.6,33.82,9.63,50.8,14.19,13.2,3.54,26.52,6.63,39.78,9.93,5,1.25,9.99,2.59,15,3.79,1.21,.29,2.56,.49,3.76,.26,4.61-.91,9.17-.47,13.79-.08,8.18,.69,16.1,2.76,24.13,4.21,3.85,.7,7.75,1.13,11.64,1.5,5.96,.56,11.94,.96,17.91,1.44,5.62,.45,11.25,.86,16.86,1.42,5.73,.57,11.43,1.35,17.16,1.96,5.16,.55,10.33,.96,15.49,1.48,5.97,.6,11.92,1.35,17.9,1.86,4.95,.43,9.93,.61,14.89,.9,6.89,.41,13.79,.82,20.68,1.23,3,.18,6,.35,8.99,.55,5.47,.36,10.46,2.44,15,4.26,5.74-.41,11.04-.75,16.33-1.16,5.06-.4,10.12-.78,15.16-1.32,6.07-.64,12.11-1.53,18.18-2.15,9.97-1.01,19.97-1.82,29.94-2.85,10.02-1.03,20.07-1.19,30.12-1.38,5.3-.1,10.61-.6,15.89-1.16,5.73-.6,11.46-1.3,17.13-2.27,9.4-1.61,18.78-3.32,28.12-5.26,8.31-1.73,16.51-4.01,24.84-5.68,2.61-.52,5.33-1.45,8.2-.49,1.01,.34,2.43-.36,3.61-.73,6.97-2.18,13.9-4.51,20.9-6.57,9.85-2.9,19.79-5.47,29.62-8.44,8.95-2.7,17.78-5.79,26.68-8.63,15.66-5,31.39-9.8,47-14.96,8.56-2.84,16.92-6.27,25.38-9.41,14.14-5.24,28.29-10.46,42.42-15.7,1.18-.44,2.3-1.02,3.63-1.61-.18-.56-.41-1.26-.76-2.33,2.38-1.33,4.74-2.84,7.25-4.03,14.57-6.88,29.28-13.48,43.73-20.58,10.11-4.97,19.9-10.6,29.84-15.93,4.67-2.5,9.36-4.98,14.04-7.46,6.91-3.66,13.76-7.47,20.77-10.95,9.7-4.82,19.48-9.51,29.32-14.05,8.42-3.88,16.95-7.51,25.47-11.17,1.97-.84,4.08-1.36,6.2-1.85-3.56,3.3-7.55,5.9-11.85,8.06-13.06,6.56-26.19,13.01-39.15,19.77-17.12,8.93-34.1,18.13-51.17,27.17-12.2,6.47-24.36,13.01-36.67,19.25-7.24,3.67-14.76,6.78-22.14,10.18-2.03,.94-3.78,2.54-6.28,2.34-.73-.06-1.58,.38-2.26,.78-6.57,3.87-13.81,6.2-20.83,9.01-10.42,4.17-21.07,7.79-31.59,11.71-6.87,2.56-13.61,5.45-20.55,7.79-13.9,4.68-27.88,9.11-41.84,13.6-8.28,2.66-16.64,5.11-24.88,7.9-11.83,4.01-23.81,7.53-35.86,10.8-8.51,2.31-16.95,4.8-25.01,8.45-.72,.33-1.55,.55-2.34,.57-6.28,.19-12.31,1.83-18.38,3.18-9.1,2.01-18.14,4.32-27.27,6.14-8.01,1.59-16.09,2.87-24.18,3.95-8.12,1.08-16.28,1.79-24.44,2.57-2.17,.21-4.37,.01-6.55,.08-8.19,.27-16.39,.34-24.55,.92-8.24,.59-16.43,1.7-24.65,2.56-2.99,.31-5.99,.5-8.97,.8-8.12,.81-16.24,1.71-24.37,2.45-4.82,.44-9.67,.6-14.49,.98-4.78,.38-9.55,.91-14.32,1.3-.73,.06-1.5-.25-2.25-.39-.05-.22-.09-.45-.14-.67Z"/>
    <path class="cls-6" d="M3538.36,1694.63c-1.91,2.34-3.79,3.24-5.92,3.81-6.66,1.79-13.32,3.6-19.95,5.51-3.08,.89-6.14,1.89-9.13,3.07-10.71,4.24-21.81,7.17-32.9,10.15-11.99,3.23-23.97,6.52-35.9,10-10.23,2.98-20.38,6.26-30.56,9.41-6.44,2-12.82,4.21-19.33,5.95-6.09,1.62-12.27,2.75-18.68,2.57-4.35-.12-8.72,.53-13.08,.89-3.8,.31-7.59,.72-11.39,1.04-6.1,.51-12.22,.81-18.29,1.52-7.77,.91-15.5,2.16-23.25,3.22-5.93,.81-11.87,1.52-17.81,2.3-3.65,.48-7.29,1.05-10.94,1.52-3.54,.46-7.09,.81-10.63,1.26-3.88,.49-7.74,1.06-11.62,1.53-3.78,.46-7.57,.83-11.36,1.25-5.5,.61-11,1.23-16.5,1.83-2.98,.32-5.96,.61-8.94,.92-6.65,.68-13.29,1.42-19.95,2.03-6.2,.57-12.41,.95-18.61,1.49-5.05,.44-10.1,1-15.14,1.5-4.13,.41-8.27,.84-12.4,1.22-5.05,.47-10.1,.96-15.16,1.32-7.82,.56-15.65,1.01-23.48,1.51-5.99,.39-11.98,.85-17.97,1.18-6.46,.36-12.94,.58-19.4,.91-8.06,.41-16.12,.9-24.19,1.27-2.76,.13-5.53,.02-8.37,.53,.85,.24,1.69,.48,2.86,.8-2.03,2.54-4.52,3.32-7.32,3-3.18-.36-6.34-.92-9.5-1.49-4.85-.88-9.69-1.84-14.54-2.75-6.89-1.3-13.78-2.59-20.67-3.89-5.3-1-10.61-1.98-15.89-3.06-6.53-1.34-13.07-2.68-19.56-4.21-7.83-1.84-15.6-3.9-23.41-5.82-7.16-1.76-14.32-3.48-21.5-5.19-5.03-1.2-10.07-2.37-15.11-3.51-14.11-3.21-28-7.21-41.62-12.1-4.5-1.62-8.95-3.42-13.32-5.37-2.28-1.01-4.57-1.56-6.99-1.36-4.69,.39-9.1-.51-13.46-2.45,1.89-.69,3.67-.5,5.59-.39,6.85,.4,13.32,2.09,19.83,4.21,8.4,2.73,17.03,4.8,25.6,6.96,10.14,2.56,20.34,4.93,30.51,7.36,12.74,3.03,25.48,6.1,38.25,9.02,5.37,1.23,10.81,2.11,16.21,3.2,6.17,1.24,12.31,2.63,18.49,3.77,4.06,.75,8.19,1.12,12.28,1.76,4.43,.69,8.84,1.5,13.26,2.26,3.83,.65,7.71,1.13,11.49,1.98,6.68,1.51,13.73,1.44,20.01,4.68,1.79,.92,3.68,.54,5.66,.23,4.66-.73,9.39-1.06,14.09-1.45,4-.33,8.02-.51,12.03-.79,2.65-.19,5.29-.47,7.94-.66,9.78-.68,19.55-1.38,29.33-2,5.19-.33,10.39-.45,15.57-.79,4.7-.31,9.39-.8,14.09-1.19,3.57-.3,7.14-.54,10.7-.85,7.35-.64,14.69-1.31,22.04-1.96,5.86-.52,11.72-1.01,17.58-1.56,6.05-.57,12.1-1.19,18.15-1.78,5.83-.57,11.66-1.09,17.49-1.69,5.51-.56,11.02-1.21,16.53-1.8,5.16-.56,10.32-1.07,15.48-1.66,7.54-.86,15.08-1.78,22.62-2.67,6.4-.75,12.81-1.45,19.21-2.25,3.65-.46,7.28-1.11,10.93-1.6,4.89-.66,9.8-1.25,14.7-1.85,5.25-.64,10.51-1.28,15.76-1.88,2.64-.3,5.28-.55,7.93-.75,7.03-.53,14.06-.93,21.08-1.55,4.59-.41,9.11,.08,13.66,.44,1.39,.11,2.84-.46,4.26-.75,8.04-1.63,15.67-4.53,23.26-7.53,10.29-4.08,20.85-7.32,31.52-10.25,8.2-2.25,16.28-4.95,24.45-7.32,11.81-3.42,23.67-6.64,35.47-10.08,4.08-1.19,8.02-2.84,12.06-4.17,6.46-2.12,12.94-4.15,19.41-6.22,2.47-.79,4.89-1.58,7.59-1.15,1.07,.17,2.27-.3,3.37-.6,1.59-.44,3.13-.38,5.37,.03Z"/>
    <path class="cls-6" d="M2620,2149.39c.8-1.35,1.72-.53,2.51-.31,5.86,1.62,11.77,3.09,17.53,5,6.11,2.04,12.4,3.26,18.66,4.64,4.71,1.04,9.41,2.17,14.12,3.24,6.5,1.48,12.94,3.17,19.61,3.87,4.57,.48,9.1,1.36,13.61,2.24,10.92,2.14,21.75,4.8,32.73,6.46,9.87,1.5,19.49,4.17,29.34,5.59,8.76,1.26,17.32,3.38,25.96,5.16,1.34,.28,2.58,.98,3.91,1.28,2.91,.65,5.85,1.13,8.76,1.76,4.03,.87,8.05,1.83,12.07,2.74,.56,.13,1.13,.2,1.69,.33,1.66,.41,3.33,.24,5.04,1.25,1.37,.81,3.62,.3,5.45,.11,7.78-.84,15.58-1.3,23.41-1.36,7.98-.06,15.96-.16,23.93-.41,12.76-.4,25.5-.99,38.26-1.38,7.03-.22,14.07-.16,21.1-.29,8.54-.16,17.08-.5,25.62-.57,6.07-.05,12.15,.18,18.11,1.62,1.44,.35,2.96,.39,4.66,.61-.66,1.26-1.69,1.64-2.8,1.8-1.94,.28-3.9,.68-5.85,.64-5.89-.1-11.77-.4-17.66-.56-1.94-.05-3.89,.08-5.83,.16-7.5,.31-14.99,.72-22.49,.93-6.58,.19-13.17,.04-19.74,.26-8.2,.28-16.39,.85-24.59,1.16-5.44,.2-10.88,.18-16.32,.2-9.62,.03-19.23-.08-28.85,.03-8.78,.11-17.55,.64-26.32,.6-7.01-.03-13.89-1.07-20.71-3.07-7.01-2.05-14.31-3.12-21.49-4.59-4.71-.96-9.45-1.79-14.15-2.81-6.72-1.46-13.43-3-20.13-4.57-8.17-1.91-16.31-3.95-24.5-5.81-5.05-1.15-10.18-1.91-15.22-3.11-7.69-1.84-15.33-3.89-22.99-5.87-9.84-2.54-19.7-5-29.51-7.67-8.69-2.36-17.38-4.8-25.49-8.88-.44-.22-.96-.3-1.46-.45Z"/>
    <path class="cls-6" d="M3433.8,2155.4c-2.31,2.79-5.12,3.44-7.89,3.94-5.12,.92-10.26,1.46-15.49,1.59-5.06,.13-10.1,.96-15.14,1.51-5.72,.62-11.44,1.19-17.15,1.9-4.1,.51-8.17,1.25-12.26,1.83-3.88,.55-7.77,1.04-11.65,1.55-4.79,.64-9.57,1.29-14.36,1.92-4.1,.54-8.21,1.04-12.32,1.58-4.56,.6-9.11,1.21-13.67,1.84-3.75,.52-7.49,1.06-11.23,1.65-4.87,.77-9.72,1.62-14.59,2.41-6.59,1.06-13.18,2.09-19.77,3.15-3.85,.62-7.68,1.33-11.54,1.91-3.86,.58-7.73,1.05-11.59,1.55-5.01,.66-10.02,1.33-15.04,1.94-4.55,.55-9.13,.98-13.68,1.56-4.44,.56-8.85,1.28-13.28,1.86-4.45,.58-8.9,1.07-13.36,1.6-3.42,.41-6.84,.84-10.27,1.23-2.41,.27-4.81,.54-7.22,.74-3.79,.31-7.61,.32-11.36,.87-4.72,.69-9.43,.68-14.16,.65-.56,0-1.29-.03-1.66,.28-2.34,1.95-5.13,1.71-7.88,1.8-8.43,.27-16.85,.81-25.27,.82-8.16,.01-16.32-.46-24.48-.79-4.14-.17-8.27-.51-12.41-.73-6.91-.37-13.82-.7-20.44-1.03,2.79-1.7,4.01-2.12,8.77-2.12,7.03,0,14.06,.26,21.1,.25,6.55,0,13.1-.23,19.65-.35,4.26-.07,8.52-.05,12.77-.18,4.14-.13,8.28-.35,12.42-.64,4.21-.3,8.18,1.08,12.27,1.6,1.25,.16,2.53,.5,3.75,.34,7.41-.95,14.79-2.07,22.2-3.03,5.13-.67,10.29-1.16,15.44-1.76,4.68-.54,9.37-1.07,14.05-1.68,6.15-.8,12.28-1.68,18.42-2.53,3.86-.53,7.72-1.08,11.58-1.6,4.78-.64,9.58-1.2,14.35-1.89,5.24-.75,10.46-1.59,15.69-2.4,6.83-1.05,13.67-2.08,20.49-3.16,4.44-.7,8.86-1.47,13.29-2.22,5.11-.86,10.2-1.82,15.32-2.58,11.02-1.64,22.05-3.23,33.08-4.76,6.05-.84,12.13-1.47,18.19-2.29,6.72-.91,13.42-2.01,20.14-2.9,7.19-.95,14.39-1.75,21.59-2.61,4.46-.54,8.93-1.09,13.39-1.61,3.32-.39,6.66-1.19,9.94-1,3.61,.21,7.22-.19,11.3-.02Z"/>
    <path class="cls-6" d="M2356.22,2084.44c4.61-.3,8.8,.65,12.89,1.69,8.69,2.21,17.36,4.58,25.91,7.27,8.33,2.62,16.52,5.68,24.75,8.62,9.85,3.52,19.69,7.08,29.88,9.53,9.26,2.23,18.47,4.71,27.79,6.68,6.39,1.36,12.93,2,19.4,3.04,10.65,1.72,21.38,3.04,31.7,6.46,2.7,.89,5.59,1.2,8.38,1.84,1.77,.41,3.57,.79,5.25,1.44,5.57,2.13,11.09,4.37,17.07,6.74-.93,.33-1.56,.69-2.23,.76-3.52,.35-6.95-.38-10.19-1.55-3.69-1.33-7.41-2.31-11.26-3.03-5.77-1.08-11.43-2.67-17.19-3.81-6.44-1.27-12.91-2.41-19.4-3.38-12.07-1.81-24.12-3.7-35.96-6.73-8.56-2.19-17.21-4.12-25.61-6.81-9.74-3.13-19.25-6.96-28.86-10.49-16.22-5.96-32.4-12.07-49.38-15.63-1.44-.3-1.43-.33-2.94-2.65Z"/>
    <path class="cls-6" d="M2822.45,2380.37c-3.03,1.05-6.01,1.29-8.64,0-4.81-2.35-10.04-3.16-15.09-4.64-3.97-1.16-8-1.93-12.17-2.28-5.8-.48-11.51-1.67-16.94-4.04-6.02-2.63-12.51-3.59-18.9-4.91-6.96-1.45-14.08-2.28-20.78-4.79-3.65-1.36-7.2-3.01-10.69-4.73-3.28-1.62-6.47-3.25-10.15-4.02-3.18-.66-6.16-2.3-9.43-3.58,.51-.96,.8-1.5,1.15-2.15,3.79-.42,7.42,.55,11.05,1.6-3.6,.24-7.01-1.81-10.74-.45,1.88,.35,3.77,.69,5.65,1.04,5.6,1.03,10.81,3.13,15.82,5.75,5.66,2.97,11.73,4.59,17.96,5.86,8.22,1.68,16.56,2.85,24.58,5.44,2.29,.74,4.58,1.51,6.78,2.47,4.06,1.76,8.34,2.72,12.68,3.06,5.9,.46,11.51,2.14,17.26,3.2,4.83,.89,9.28,2.46,13.59,4.75,1.8,.95,3.92,1.29,5.89,1.92,.38,.12,.74,.33,1.1,.5Z"/>
    <path class="cls-6" d="M2549.59,2442.35c3.57,2.67,7.18,5.27,10.69,8.02,8.18,6.4,16.99,11.75,26.21,16.54,6.53,3.39,12.73,7.41,19.01,11.26,8.81,5.4,17.55,10.91,26.36,16.32,1.4,.86,2.96,1.45,4.86,2.37-2.47,1.33-4.36,.7-6.04-.06-3.56-1.59-7.15-3.2-10.47-5.22-8.06-4.9-15.93-10.13-23.97-15.06-6.46-3.96-13.09-7.64-19.6-11.5-7.83-4.65-15.08-10.1-21.82-16.21-2.03-1.84-3.99-3.76-5.98-5.65,.26-.27,.51-.54,.77-.81Z"/>
    <path class="cls-6" d="M2659.71,2336.23c-4.24,2.01-7.97,1.06-11.58-.08-6.66-2.11-13.24-4.48-19.88-6.67-7.51-2.47-15.2-4.3-22.91-6.03-7.45-1.67-14.27-4.83-20.19-9.77-1.24-1.03-2.49-2.07-3.82-2.98-2.93-2-6.15-3.07-9.77-2.62,4.99-1.12,8.79-.9,12.08,1.78,8.51,6.92,18.51,10.04,28.97,12.12,8.13,1.61,15.97,4.16,23.77,6.86,5.97,2.06,11.92,4.16,17.91,6.16,1.61,.54,3.32,.76,5.44,1.23Z"/>
    <path class="cls-6" d="M2397.16,1518.94c.2-1.36,.42-2.71,.65-4.06-4.55-2.85-9.1-5.71-13.64-8.58-4.38-2.78-8.73-5.62-13.09-8.42-4.67-2.99-9.35-5.95-14-8.97-4.91-3.19-9.78-6.45-14.67-9.66-5.08-3.34-10.18-6.65-15.25-10.01-4.9-3.25-9.78-6.55-14.67-9.82-6.13-4.1-12.27-8.19-18.39-12.31-2.97-2-5.9-4.05-8.86-6.06-3.9-2.64-7.86-5.2-11.71-7.91-4.25-2.99-8.38-6.16-12.62-9.15-8.01-5.65-16.05-11.25-24.09-16.85-2.18-1.52-4.41-2.96-6.6-4.47-3.3-2.29-6.54-4.68-9.86-6.93-3.66-2.48-7.3-4.99-11.1-7.24-1.4,1.57-2.84,3.11-4.31,4.62,1.66,1.07,3.61,1.47,5.98,.94-.7-.98-1.21-1.7-1.72-2.42,2.53,1.39,4.62,3.21,6.85,4.84,6.52,4.77,13.1,9.45,19.63,14.19,5.24,3.8,10.42,7.69,15.68,11.47,4.88,3.5,9.83,6.9,14.73,10.36,6.41,4.52,12.79,9.08,19.23,13.56,4.16,2.89,8.41,5.68,12.63,8.49,3.46,2.3,6.95,4.56,10.42,6.83,4.24,2.78,8.52,5.51,12.73,8.34,5.17,3.47,10.24,7.07,15.42,10.52,5.56,3.7,11.2,7.3,16.8,10.94,2.51,1.63,5.02,3.28,7.54,4.9,4.66,2.99,9.33,5.95,13.99,8.93,3.21,2.05,6.39,4.14,9.62,6.16,3.31,2.07,6.68,4.05,10.01,6.1,.9,.55,1.78,1.12,2.67,1.68Z"/>
    <path class="cls-6" d="M2610.77,1675.78c-.95-.64-2.08-1.25-2.65-2.17-1.43-2.33-3.6-3.66-5.81-5.03-5.78-3.58-11.53-7.19-17.34-10.72-3.63-2.21-7.45-4.14-11-6.46-10.28-6.73-20.44-13.66-30.71-20.41-7.1-4.68-14.4-9.06-21.44-13.83-9.16-6.21-18.49-12.13-28.27-17.31-7.22-3.82-14.38-7.74-20.84-12.79-1.14-.89-2.52-1.62-3.34-2.75-2.69-3.69-5.25-7.44-8.54-10.67-5.03-4.93-9.91-10.02-14.87-15.02-1.87-1.88-3.78-3.74-5.72-5.55-3.87-3.61-7.77-7.18-11.67-10.76-3.64-3.34-7.28-6.68-10.96-9.97-2.74-2.46-5.6-4.79-8.32-7.27-4.76-4.34-9.46-8.76-14.19-13.14-.27-.25-.53-.49-.8-.74-.46,1.3-.9,2.61-1.33,3.93,.47,.43,.93,.86,1.4,1.29,2.73,2.47,5.53,4.87,8.27,7.33,4.45,4,8.85,8.06,13.32,12.04,5.84,5.21,11.81,10.27,17.55,15.58,4.48,4.16,8.68,8.62,13.03,12.92,2.71,2.68,5.48,5.3,8.19,7.98,3.1,3.08,6.44,5.98,9.17,9.36,4.03,4.99,8.9,8.96,14.08,12.53,5.55,3.82,11.38,7.23,17.08,10.83,9.01,5.69,18.09,11.28,27.01,17.12,10.39,6.81,20.68,13.77,30.92,20.79,9.48,6.5,18.91,13.04,29.09,18.42,2.83,1.5,5.59,3.17,8.26,4.94,5.76,3.8,11.46,7.69,17.15,11.59,1.83,1.25,3.73,2.09,6.75,2.03-1.14-1.97-2.09-3.18-3.46-4.1Z"/>
    <path class="cls-6" d="M2234.76,1411.44c1.73,1.32,3.47,2.63,5.25,3.89,.98-1.56,1.94-3.13,2.86-4.73-.38-.29-.73-.64-1.03-1.06-4.13-5.74-10.44-8.88-15.71-13.25-2.99-2.48-6.22-4.66-9.34-6.98-3.6-2.68-7.16-5.4-10.79-8.02-3.35-2.42-6.86-4.63-10.14-7.14-4.99-3.82-9.84-7.85-14.77-11.75-4.32-3.42-8.77-6.68-12.99-10.2-10.05-8.4-20.01-16.91-29.99-25.39-7.97-6.78-15.98-13.52-23.86-20.4-6.66-5.82-13.41-11.57-19.66-17.82-4.84-4.84-9.84-9.28-15.76-12.74-1.66-.97-3.16-1.95-5.16-2.19,3,3.7,6.53,6.51,10.88,8.29,2.25,.92,4.04,2.44,5.61,4.38,3.01,3.72,6.15,7.34,9.43,10.83,9.92,10.54,20.49,20.4,31.61,29.66,3.97,3.31,7.93,6.64,11.88,9.99,5.61,4.78,11.22,9.56,16.8,14.38,6.09,5.25,12.08,10.62,18.22,15.81,5.09,4.31,10.31,8.47,15.52,12.62,4.22,3.36,8.51,6.64,12.77,9.94,5.55,4.29,11.11,8.56,16.65,12.84,3.9,3.01,7.78,6.07,11.71,9.05Z"/>
  </g>
  <g id="hair-2" data-name="hair">
    <path class="cls-7" d="M2238.01,2629.56c.05-.15,.09-.31,.14-.46-.1,.1-.19,.2-.29,.3l.16,.16Z"/>
  </g>
  <g id="extra">
    <rect class="cls-1" y="0" width="888.15" height="368.55"/>
  </g>
</svg>