<?xml version="1.0" encoding="utf-8"?>
<!-- Generator: Adobe Illustrator 27.0.0, SVG Export Plug-In . SVG Version: 6.00 Build 0)  -->
<svg version="1.1" id="Layer_1" xmlns="http://www.w3.org/2000/svg" xmlns:xlink="http://www.w3.org/1999/xlink" x="0px" y="0px"
	 viewBox="0 0 7000 2076" style="enable-background:new 0 0 7000 2076;" xml:space="preserve">
<style type="text/css">
	.st0{fill:#44A7E1;}
	.st1{fill:#00273C;}
	.st2{fill:#FFFFFF;}
	.st3{fill:#F98C28;}
	.st4{fill:#4F7F39;}
</style>
<g id="extra">
	<path class="st0" d="M3468.1,1190.3c-0.3,0.3-0.6,0.6-1,0.9c-0.3-0.5-0.6-1-0.9-1.5c0.4-0.2,0.9-0.6,1.3-0.5
		C3467.7,1189.3,3467.9,1190,3468.1,1190.3L3468.1,1190.3z"/>
	<path class="st0" d="M3459.7,1193.1c0.1,0.1,0.2,0.1,0.4,0.2c-0.2,0.1-0.3,0.2-0.5,0.4C3459.7,1193.5,3459.7,1193.3,3459.7,1193.1
		L3459.7,1193.1L3459.7,1193.1z"/>
	<path class="st0" d="M4099.5,1447.4c0.3-0.2,0.6-0.4,0.8-0.6c0.1,0.4,0.2,0.8,0.2,1.2c0,0.1-0.3,0.3-0.5,0.4
		C4099.9,1448.1,4099.7,1447.7,4099.5,1447.4L4099.5,1447.4z"/>
	<polygon class="st0" points="2616,1272.5 2615.6,1272.6 2615.7,1272.2 	"/>
	<path class="st1" d="M2786.6,1278.2c0.1-0.2,0.1-0.3,0.1-0.5l-0.3,0.3L2786.6,1278.2L2786.6,1278.2z"/>
</g>
<path class="st2" d="M3425,3.1c2.1,6.2,2.2,6.2,1.3,11.5c-0.5,2.8-1.6,5.6-2.4,8.4c-0.5,1.8-0.9,3.7-1.3,5.6
	c-0.9,3.5-1.6,7-2.9,10.4c-3.2,8.4-6.3,16.8-10.1,25c-1.7,3.7-3.2,7.6-5.3,11c-2.2,3.6-3.1,7.5-5.1,11.1c-2,3.7-4.1,7.3-6,10.7
	c-2.9,2.3-5.5,4.3-8.1,6.4c-3.7,2.9-8.2,4.2-12.7,5.2c-1.4,0.3-2.7,0.7-4.1,1.1c-4.1,1.1-8.1,2.2-12.2,3.2c-1.6,0.4-3.3,0.6-4.9,1.1
	c-6.1,2-12.3,2.2-18.6,1.3c-7.5-1.1-14.7-3.1-21.2-7.4c-2.2-1.5-4.8-2.4-6.5-4.6c-0.3-0.4-0.9-0.5-1.3-0.7c-1.8-0.9-3.7-1.8-5.4-2.9
	c-1.6-1.1-3-2.5-4.2-4c-2-0.4-3.5-1.6-4.9-3.2c-1.4-1.6-3.4-2.7-4.7-4.4c-2.1-2.7-3.9-5.7-5.8-8.6c-0.3-0.4-0.2-1.1-0.6-1.4
	c-3.1-2.8-4.5-6.6-5.7-10.5c-2.5-7.9-2.8-16.1-3.4-24.3c-0.4-5.9,0.2-11.7,0.5-17.5c0.2-3.3-0.1-6.8,1.5-10.1c1-2.1,0.8-4.8,1.1-7.2
	c0.2-1.6,0.5-3.3,0.7-4.9L3425,3.1L3425,3.1z"/>
<path class="st2" d="M3043.4,3.1c-1.6,5.2-3,10.3-4.8,15.4c-1.4,4.1-3.1,8.1-4.7,12.1c-0.5,1.3-1,2.6-1.6,3.9
	c-0.4,0.8-0.7,1.6-1.2,2.4c-1.7,2.5-3.4,5-5.2,7.5c-2,2.8-4,5.6-6,8.4c-1.7,2.4-3.4,4.7-5.2,7.1c-1.3,1.7-2.6,3.5-4.2,4.9
	c-1.7,1.6-1.1,3.6-1.4,5.4c-2.3,1.3-4.6,2.6-4.8,5.6c-2.3,1.6-5.1,2.7-5.6,5.2c-4,3.3-7.6,6.2-11.8,9.6c-2.2,0-5.4,0.2-8.6-0.1
	c-3.3-0.2-6.6-0.7-9.8-1.4c-3.2-0.8-6.5-1.7-9.5-3.1c-5.4-2.6-10.9-3-16.8-2.7c-5.4,0.2-10.9-1-16.3-2c-6.2-1.2-11.1-5.7-17.3-7
	c-2.7-2.4-5.5-4.7-9-6.2c-1.5-0.6-2.1-2.5-2.1-4.3c0-0.9-0.1-1.7-0.2-3c-1.5,0.4-2.6,0.7-4,1.1c-2.2-2.8-4.8-5.6-6.7-8.7
	c-1.9-3.1-2.8-6.8-5.3-9.2c-0.8-2.2-1.4-4.1-2.1-6c-1.7-4.8-2.2-9.9-3-14.9c-0.4-2.6-0.5-5.3-0.9-8c-0.1-0.6-0.6-1.2-0.9-1.9V7.8
	c1.3-1.4,0.8-3.1,0.8-4.7L3043.4,3.1L3043.4,3.1z"/>
<path class="st2" d="M3838.5,3.1c-2.9,2.9-5.8,5.8-8.8,8.6c-0.9,0.8-2.2,1.2-3.7,1.9c-1.1,3.1-4.8,3.9-7.3,6
	c-1.1,0.9-2.3,1.6-3.4,2.4c-0.5,0.4-1.1,1-1.6,1c-3.7,0.4-6,3.3-9,4.9c-3.5,1.9-6.8,4.2-10.8,4.8c-1,0.2-1.8,1-2.7,1.4
	c-1.8,0.7-3.6,1.3-5.4,1.9c-0.5,0.2-1.2-0.1-1.5,0.2c-2.6,2.5-6.4,1.6-9.3,3.1c-2.9,1.5-6.2,1.3-9.4,0.4c-4.3,2.5-8.4,0.3-12.7-0.4
	c-4.2,1.6-3,1.4-7.6-0.8c-0.8,0.2-1.7,0.6-2.9,0.9c-0.9-0.7-2-1.4-3.2-2.2c-1.5,1.2-3.2,0.8-4.9-0.2c-1-0.6-2.1-1.1-3.2-1.3
	c-4.6-1.1-9.1-2.5-13.2-4.8c-1.8-1-3.9-1.2-5.8-2c-2.6-1-5.4-1.9-7.7-3.4c-4.1-2.6-8-5.4-11.3-9c-1.2-1.3-2.4-2.6-3.5-4
	c-1.2-1.9-2.4-3.7-3.6-5.7c-0.7-1.2-1.3-2.5-1.9-3.7L3838.5,3.1L3838.5,3.1z"/>
<path class="st2" d="M3237.3,1050.3c-0.8-0.3-1.6-0.8-2.4-0.8c-9.4-0.7-17.5-4.4-23.9-11.3c-3.6-3.8-5.4-8.6-5.5-13.9
	c-0.1-2.5,0-5.1,0-7.8c0.4-0.5,1.3-1.2,1.5-2c1.6-5.1,4.6-9.2,8.5-13c4.2-4.1,9.1-6,14.6-6.6c1-0.1,2,0,3,0.1c2,0.3,4,0.1,5.5-1.2
	c2.9-2.6,6.4-2,9.3-1c2.2,0.8,4.2,0.7,6.5,1.2c1.3,1.8,4.4,2.7,3.5,6.5c0.9-0.3,1.3-0.5,2.3-0.9c0.4,1.1,0.9,2.3,1.7,4.2
	c-1.5-0.6-2.1-0.8-2.8-1.1c0.1,2.2,1.6,2.4,3.3,2c0.4,2.3,0.8,4.2,1.1,6.4c-0.4,0.4-0.9,1-1,1.1c0.2,5.3,0.2,10.2,0.5,15
	c0.2,4.2-0.9,8.2-2.6,11.9c-0.8,1.7-2.2,3.2-3.7,4.3c-2.1,1.6-4.7,2.6-6.9,4.1c-1.7,1.2-3.7,1.7-5.5,2.7L3237.3,1050.3
	L3237.3,1050.3z"/>
<path class="st2" d="M3153.9,226c-1.4,0.5-2.7,0.9-4.1,1.4c-1.4-0.8-2.8-2.1-4.4-2.4c-2-0.4-3.2-1.4-4.1-2.9c-3.7,0.7-5.8-1.8-7.8-4
	c-1.1-1.1-2.1-2.1-3.5-2.8c-1.5-0.8-2.8-2.2-4-3.5c-1.1-1.1-2.1-2.3-2.9-3.6c-0.9-1.5-1.4-3.2-2.3-5.2c-2.9-0.5-4-3.4-5.1-6.1
	c-0.6-1.7-1.7-3.1-2.3-4.7c-1.5-3.7-3.5-7.4-3.9-11.5c-0.1-0.9,0.2-1.8,0.3-2.9c-2.4-1.4-3-3.7-3.6-6.6c-0.9-4.5-0.8-9-0.6-13.4
	c0.2-5,1.5-10,2.4-15c0.3-1.5,0.7-3,1.3-4.4c0.6-1.3,1.4-2.4,2.2-3.7c-0.2-4.3,2-7.4,4.8-9.5c2.4-6.4,5.3-11.6,10.8-15.5
	c1.7-3.4,3-4.6,6.9-6.2c1.3-4.1,4.5-6.2,8.1-7.7c2.3-1,4.3-1.9,6.1-3.8c1.4-1.5,3.6-2.3,5.7-3.5c2.5,0.1,5.3,0.3,8.1,0.4
	c0.2-1.2,0.5-2.3,0.8-3.8c1.2,0.7,2,1.1,3.1,1.7c0.4-0.1,1.4-0.2,2-0.7c1.4-1.3,2.9-1.1,4.3-0.5c3.1,1.2,6.1,1.2,9.4,0.7
	c3.1-0.6,6.4-0.3,9.6-0.4c2.3,0,4.5,0,6.8,0c1.8,0,3.4,0.5,5.2,1.2c1.4,0.6,3.2,0.1,4.8,0.4c2,0.5,4.2,0.6,5.8,1.7
	c2.8,1.8,6.3,2,8.9,4.3c2.8,2.5,5.9,4.5,8.7,7c4.1,3.6,7.4,7.7,9.8,12.6c1.2,2.4,2.6,4.6,3.5,7.1c3.3,9,4.9,18.2,4,27.6
	c-0.5,4.9-0.4,9.9-1.7,14.9c-0.6,2.5-0.1,5.3-0.1,8.6c-2.1,5.3-5,11.1-4.2,17.8c-2.7,1.5-5.5,2.8-5.4,6.8c-1.6,1.6-3.4,3.3-5.4,5.3
	c-0.1,0.6-0.1,1.6-0.2,3c-0.8,0.6-1.8,1.4-2.7,2.3c-2.7,2.8-7,3.9-8.6,8c-0.3,0.8-1.5,1.3-2.4,1.9c-2.3,1.5-4.5,3.1-6.9,4.3
	c-3.1,1.5-6.4,2.6-9.6,3.8c-7.2,2.5-14.6,3.9-22.5,3.5c-1.9,1.8-4.1,2.4-6.2,0.2c-1.5,1.6-2.9,2-4.9,1.4c-2.9-0.8-6-0.9-9-1.2
	C3155.9,228.1,3155.9,228.1,3153.9,226L3153.9,226z"/>
<path class="st2" d="M3660.2,202.7c2.2,0.7,4,1.3,5.8,1.9c0.2,1.5,0.4,2.6,0.5,3.4c1.5,1.5,2.9,2.8,4.2,4.2c0.4,0.4,0.9,1,0.9,1.5
	c0.3,2.1,1.1,3.8,2.8,5.3c0.8,0.7,1.2,2.4,1,3.5c-0.4,1.9,0.3,3.5,0.5,5.2c0.9,6.1,1.2,12.3-0.6,18.4c-1.2,4.3-2.6,8.6-3.5,12.9
	c-1.1,5.2-3.6,9.9-5.6,14.7c-2.4,5.9-5.2,11.6-7.8,17.4c-0.3,0.7-0.8,1.3-1.2,1.9c-0.9,1.7-1.8,3.4-2.8,5c-0.6,1-1,2.3-1.9,2.7
	c-2.4,1.1-4.5,2.9-7.3,3.2c-1,0.1-2.1,1.3-2.8,2.3c-1.4,2.1-2.6,4.3-4,6.7c-1.9,0.6-3.9,0.5-5.8-0.5c-3.1-1.6-6.2-1.9-9.6-0.3
	c-3.6,1.6-7.4,2.6-11.6,4c-0.3,0.3-1,1.1-1.7,1.9c-4.6,0.1-9.5-1.9-13,1.9c-2.8-0.5-5.1-0.7-7.4-1.3c-1.6-0.4-3.1-1.2-4.6-2
	c-4.5-2.5-9.2-4.4-14.1-5.8c-1.6-0.4-2.8-2-4.1-3.2c-2.4-1.1-5-1.9-6.5-4.5c-0.3-0.5-1-0.7-1.5-1c-0.8-0.6-1.8-1-2.5-1.8
	c-2.6-2.8-5.1-5.7-7.6-8.7c-0.6-0.8-1-1.8-1.5-2.6c-2.3-4.4-4.8-8.6-6.9-13.1c-1.2-2.5-3-4.9-2.1-7.9c0.1-0.5,0.2-1.1,0-1.5
	c-2.3-4.7-0.7-9.5,0.2-14c1.2-5.8,3.6-11.3,3.4-17.3c-0.1-5,1.2-9.6,1.8-14.4c0.3-2.9,1.7-5.6,2.4-8.4c1.4-5,5.4-8.3,7.6-12.8
	c0.6-1.3,2.9-2,4.5-2.7c1.4-0.6,2.7-1.3,3.7-2.6c1.1-1.4,2.6-2.4,3.9-3.6c1.1-1,2.1-2.1,3.6-3.6c1.2,0,3.2-0.4,5,0.1
	c4.1,1.3,7.9,0.4,11.8-0.3c4.3-0.7,8.5-2.2,12.9-1.8c0.3,0,0.7-0.3,1.1-0.4c5.3-2,10.6-1.1,16.1,0.7c2.2-1.1,4.6-0.2,7.1,0.6
	c4.7,1.6,8.9,4,13.1,6.3c0.9,0.5,1.9,1.1,2.8,1.1c5.2,0.3,10.1,2,14.9,3.9C3656.5,198.4,3659.4,199.6,3660.2,202.7L3660.2,202.7z"/>
<path class="st2" d="M4370.2,297.4c2.3,1.5,4.5,3,5.2,5.9c0.2,0.7,1.2,1.3,1.9,1.9c1,0.8,2,1.5,3,2.3c-0.3,1.8-0.6,3.3-0.9,4.8
	c-0.1,0.5-0.5,1.1-0.4,1.5c1.8,4.4-1.1,8.2-1.6,12.3c-0.5,4.2-1.2,8.5-1.9,12.7c-0.1,0.9-0.4,1.8-0.7,2.6c-0.1,0.4-0.5,0.6-0.5,1
	c-0.6,2.3-0.8,4.8-1.9,6.9c-1.1,2.1-2.9,3.9-2.9,6.6c0,0.8-0.6,1.7-1.1,2.4c-0.8,0.9-1.5,1.8-1.1,3.1c0.1,0.2,0,0.5-0.1,0.8
	c-3.1,4.8-4.6,10.7-9.4,14.6c-2.3,1.8-3.8,4.6-6,6.5c-3.3,3-6.9,5.6-10.4,8.4c-0.4,0.3-0.9,0.6-1.4,0.6c-3.3,0.3-5.3,2.8-7.7,4.6
	c-0.7,0.5-1.4,1.2-2.2,1.5c-3.3,1.4-6.6,2.6-10,3.6c-2.1,0.4-4.1,1.1-6.2,1.2c-4.6,0.2-9.2,0.9-13.8,0c-2.8-0.5-5.6-1-8.1-2.1
	c-4.4-2-9.2-3.1-13-6.2c-2.4-2-4.9-4-7-6.3c-1-1.1-2-2.2-3.1-3.2c-1.4-1.3-2.2-3.4-3.6-5.9c-2.4-1.1-4.1-3.8-5.2-7.1
	c-0.5-1.4-1.5-2.6-2.4-3.9c0.5-1.5,0.9-3,1.7-5.4c-2.1,1.5-3.8,1.5-4.4-0.1c-0.9-2.4-1.6-4.9-1.9-7.4c-0.2-1.5,0.6-3.2,1-5.2
	c-1.3-3.9-0.1-8,0.9-12.1c0.4-1.7,0.6-3.5,0.9-5.2c0.1-0.4-0.1-0.8,0-1.2c2-6.1,1.5-12.5,2.5-18.7c0.3-2.1,1-4.2,1.6-6.3
	c2.3-7.5,6.9-13.8,12.1-19.4c1.8-1.9,4.1-3.8,7.1-4.4c1.6-0.4,2.9-2,4.5-2.6c2.7-1.1,5.5-2.1,8.4-2.6c5.5-1.1,11.1-1.9,16.7-2.2
	c4.5-0.2,9-0.3,13.5-2c5.6-2.1,11.4-2.3,17.2,0.5c4.2,2,9,2.9,13.5,4.3c0.9,0.3,1.8,0.5,2.5,1c2.6,2.2,5.1,4.6,7.7,6.8
	C4366.6,289.2,4368.8,293,4370.2,297.4L4370.2,297.4z"/>
<path class="st2" d="M4001.4,279.8c-0.9-0.7-1.9-1.3-2.6-1.8c-0.8,0.9-1.6,2.5-2.2,2.5c-2.1-0.1-4.6,1.7-6.4-1
	c-0.9,0.6-1.7,1.2-2.5,1.8c-7.2-1.3-13.6-4.8-20.1-7.8c-2.5-1.1-5.5-1.6-7.2-4.2c-3.1-0.1-4.8-2.7-7.2-4c-1.8-1-3.8-1.6-4.7-3.7
	c-0.2-0.4-0.8-0.7-1.3-0.8c-2.7-0.8-4.6-2.7-6.3-5.2c0.1-1,0.2-2.2,0.4-3.7h-2.7c-1.8-1.9-0.4-3.2,0.6-5.1c-1.5-0.6-2.8-1.1-4.4-1.6
	c-0.9-3.8-3-7.6-1.8-11.9c-1.6-3.6,0.4-7.3,0.1-11c-0.4-3.9,0.5-7.9,0.8-11.9c0.2-2.5,0.4-5.1,0.3-7.6c-0.3-7.6,2.1-14.5,5.6-20.9
	c2.2-3.9,5.5-7.3,9.1-10.4c5-4.4,10.7-7.2,16.9-9.4c2.4-0.9,4.8-1.8,7-3.1c6.1-3.7,12.9-5.6,19.7-7.5c6.1-1.8,12.4-2.3,18.6-0.9
	c2.6,0.6,5.3,1.1,7.8,1.9c3.1,0.9,5.8,2.5,8.3,4.6c1.6,1.4,3.4,2.6,5.1,4c6.2,5.4,10.7,12,13.4,19.8c0.4,1.2,1.4,2.1,1.8,3.3
	c0.8,2,1.7,4.1,1.9,6.2c0.2,3.4,1.2,6.5,1.9,9.7c0.6,2.9,0.8,5.9,0.7,9.1c-0.2,5.9-1.4,11.4-3.9,16.7c-0.6,1.2-0.7,2.7-1.1,4.1
	c-1.4,6.1-4.1,11.5-7.7,16.5c-2.8,3.8-5.3,7.8-8,11.6c-0.7,1-1.8,1.9-2.6,2.8c-1,1.2-1.7,2.6-2.8,3.6c-1.7,1.6-3.7,3-6,4.8
	c-0.1,1.2-0.2,3.1-2.9,2.9c-0.4,0-0.9,0.3-1.2,0.6c-0.9,1.1-1.9,2.1-3.4,2.2c-0.4,0-1,0.4-1.2,0.8c-1.3,2.5-3.5,2.6-5.9,2.7
	C4004.1,278.4,4003,279.2,4001.4,279.8L4001.4,279.8z"/>
<path class="st2" d="M4284,470.8c0.1-0.6,0.2-0.9,0.4-1.3c0.5,0.1,0.9,0.1,1.2,0.3c1.7,1.1,3.5,1.6,5.5,0.9c0.4-0.1,1,0,1.5,0
	c3.6,0.2,7.1,0.3,10.7,0.7c4.2,0.5,8.5,0.4,12.2,3.4c1.9,1.5,4.4,2.2,6.6,3.4c0.9,0.5,1.7,1.1,2.5,1.8c1.4,1.1,2.7,2.3,4,3.5
	c0.3,0.2,0.6,0.5,0.8,0.8c1.6,2.4,3.1,5,4.9,7.2c1.2,1.6,1.8,3.2,2.4,5.1c1,3.2,2.5,6.3,4.2,10.3c0.3,1.9,0,4.5-2.1,6.7
	c1.3,0.9,2.5,1.7,3.7,2.5c-1,3.1-1,6.4-3.4,8.7c1.1,0.8,2.2,1.5,3.2,2.3c-1.2,1.8-1.9,2.8-2.6,4c1.3,3.1-0.4,5.3-2.5,7.4
	c-0.3,2.8-1.6,5-3.9,6.7c0.5,1.9,0.1,3.6-1.9,4.8c-0.6,0.4-0.8,1.5-1.2,2.3c-0.4,0.7-0.6,1.5-1.2,2c-4.9,4-9.5,8.5-15.3,11
	c-3.3,1.4-6.2,3.5-9.6,4.5c-1.5,0.4-3.1,1.4-4.8,0.4c-0.4-0.2-1-0.1-1.5,0.1c-3.1,1.4-5.6,1.2-7.3-3.1c-0.6,1.5-0.8,2.2-1.1,3
	c0.1,0,0,0.1-0.1,0.1c-5.6,0-11.1-0.3-15.1-5.2c-0.3-0.4-0.6-0.8-1.1-1.1c-2.5-1.7-5.5-2.8-7.6-5c-2.7-2.8-6.7-4.4-8.5-8.3
	c-0.5-1-1.5-1.7-2.3-2.6c-0.7-0.9-1.5-1.8-1.9-2.8c-0.6-1.6-1.7-2.8-2.6-4.2c-2.1-3.3-3.7-7-3.7-11.2c-1-0.9-2.1-1.8-3.4-2.9
	c-0.6-3.6-1.2-7.5-1.8-11.3c-0.1-0.6,0.1-1.3,0.1-1.9c0.2-2.1,0.3-4.3,0.5-6.9c0.4-0.3,1.4-1,2.2-1.6c-1-1.3-1.6-2.2-2.4-3.3
	c1.3-2.1,2.5-4.2,4.2-6.9c0-0.3,0.1-1.5,0.2-2.6c2.6-3,4.9-6.2,7.8-8.8c2.9-2.6,6.5-4.4,11.1-7.5
	C4270.1,474.6,4276.5,470.9,4284,470.8L4284,470.8z"/>
<path class="st2" d="M4475.3,522.7c-1.2-0.4-2.4-0.9-3.8-1.4c-1.8,1.1-3.6,0.5-5.6-0.3c-2.5-1-5.4-1.2-8-1.8
	c-2.5-1.2-4.8-2.5-7.3-3.4c-3.2-1.3-6.1-2.8-7.7-6.1c-4.4,0-6.8-2.7-8.6-6.2c-0.5-0.9-1.1-1.8-1.8-2.5c-1.4-1.4-2.8-2.7-3.1-4.7
	c0-0.1-0.1-0.3-0.2-0.4c-4.3-4.6-4.1-10.9-6.2-16.3c-2.6-6.8-1.5-14.1-2.4-21.2c2.3-3.1,0.6-7.8,4-10.5c0.1-3.6,3.9-5.4,4.5-8.8
	c0.2-0.9,1.6-1.5,2.5-2.2c1-0.8,2.1-1.7,3.2-2.6c-0.9-0.9-1.5-1.4-2-1.9c0.3-0.4,0.3-0.5,0.4-0.5c4.2,0.3,7-2,9.5-4.9
	c0.5-0.6,1-1.2,1.7-1.6c5.8-3,11.4-6.6,17.7-8.4c3.5-1,6.9-0.8,10.1,1.3c1.4,0.9,3.4,0.9,5.2,1.3c0,1.1-0.1,2.1-0.1,3.2
	c1-0.1,1.8,0,2.5-0.2c4.7-1.3,8.6,0.5,12.3,3.2c1.1,0.8,2.6,1,3.9,1.5c2.9,0.9,5.3,2.3,7.2,4.9c1,1.4,2.6,2.3,4.2,3.6
	c0.6,2,1.6,4.2,2,6.6c0.8,4.1,1.2,8.4,1.8,12.5c0.1,0.5,0,1.1-0.2,1.5c-2.6,6.3-2.2,12.8-0.8,19.3c0.5,2.4,0.4,4.8,0.7,7.2
	c0.1,1.1,0.4,2.2,0.6,3.5c-1,1.9-1.4,3.9-1.3,6.2c0.1,1.9-0.7,4.1-1.6,5.9c-3.4,7.2-7.9,13.5-15.3,17.1c-2.7,1.3-5.2,3-8,4.4
	c-1.1,0.5-2.4,0.7-3.6,1c-2,0.4-4,0.7-6,1C4475.6,522.4,4475.5,522.5,4475.3,522.7L4475.3,522.7z"/>
<path class="st2" d="M3620,543.1c2.7,1,4.7,1.6,6.5,2.4c1.8,0.8,3.8,1.7,5.3,3c2.4,2.1,5.5,3.1,7.5,5.9c2.4,3.4,6,5.9,8,9.7
	c0.4,0.8,0.9,1.5,1.3,2.3c1,1.6,2,3.1,3.4,5.3c1.1,3.2,2.8,7.1,3.9,11.1c0.6,2.2,0.3,4.6,0.2,6.9c-0.2,6.3-2.8,12-5.9,17.2
	c-3.4,5.7-8.3,10.2-14.1,13.4c-3,1.6-6.2,3-9.4,4.3c-3.3,1.3-6.8,2-10.4,1.6c-1.4-0.2-3,0.6-4.4,1c-3.1-0.7-6.4-1.2-9.5-2.1
	c-3-0.8-5.8-2-8.8-2.8c-1.8-0.6-3.7-1-5.2-2c-4-2.4-8.7-3.9-11.5-8.2c-0.3-0.5-0.7-1.1-1.2-1.5c-4.6-2.9-6.5-7.8-8.4-12.5
	c-1.1-2.7-2.2-5.5-2.9-8.3c-0.5-2.1-0.6-4.3-0.6-6.4c0.2-5.2,0.8-10.7,3.2-15.2c2.3-4.4,5.1-8.7,9-12.3c4-3.7,8.7-6.2,13.1-9.2
	c1.9-1.3,4.4-2,6.7-2.7c4.8-1.5,9.8-2.2,14.8-1.9c2.3,0.2,4.5,0.7,6.8,0.9C3618.2,543.2,3619.4,543.1,3620,543.1L3620,543.1z"/>
<path class="st2" d="M3087.5,578.2c1.6-1.1,2.6-3,2.4-5.6c-0.1-0.8,0.4-1.7,0.8-2.5c1.3-2.1,2.6-4,3.8-5.9c-0.2-1.5-0.3-2.6-0.4-3.7
	c1.9-0.8,3.6-1.6,5.4-2.4c0.5-1.1,0.9-2.1,1-2.4c2.1-1.7,3.4-3.4,5.1-4c3.8-1.3,7-4.2,11.4-4.1c4.5,0.1,8.9-0.4,13.4-0.1
	c5.8,0.4,10.5,3,15.1,6c2.7,1.7,5.6,3.5,7.5,6c3.1,4.2,7.5,7.3,9.6,12.3c1.2,2.8,3.1,5.2,4.5,7.9c1.4,2.7,3.5,5.4,3.9,8.2
	c0.8,5.8,1.2,11.7-0.3,17.5c-2.1,8-6.7,14.2-13.4,19.1c-7,5.2-14.8,8.1-23.4,9.2c-2.5,0.3-5,1.3-7.5,1.4
	c-10.1,0.6-19.1-2.1-27.4-8.1c-6.9-5-10.8-11.8-13.6-19.5c-2-5.6-1.9-11.4-1.6-17.2c0.1-2.3,1.3-4.6,2-6.9
	C3086.4,581.8,3086.9,580.2,3087.5,578.2L3087.5,578.2z"/>
<path class="st2" d="M2960.8,546.5c3.9,1,8,1.7,11.9,3c3.9,1.3,7.5,3.2,11,4.7c1,1.3,1.7,2.3,2.5,3.3c1.1,0.3,2,0.6,2.6,0.7
	c2.5,3.8,4.8,7.2,7.5,11.3c0.5,2.9,1.1,6.7,1.8,10.4c0.7,3.7,0.3,7.3-0.2,11c-1.1,7.8-5.8,13.6-9.7,19.8c-1,1.5-2.8,2.6-4.2,3.9
	c-5.7,5.2-12.4,8.4-20.1,9.6c-2.1,0.3-4.3,0.8-6.4,1.2c-0.8,0.1-1.5,0.2-2.3,0.2c-2.8-0.1-5.6-0.5-8.4-0.5c-3.5,0-6.4-1.7-9.4-2.9
	c-6.2-2.4-11.2-6.5-14.9-12.2c-1.3-2-3.2-3.7-4.6-5.7c-2.8-4.1-5.2-8.4-6.3-13.3c-0.4-1.7-1.2-3.3-2-5.5c0.2-1.2,0.9-2.9,0-5
	c-0.5-1.2,0.3-3,0.7-4.4c1.4-5.4,2.4-11.2,6.8-15.2c2.8-2.6,5.1-5.6,8.7-7.4c4.9-2.4,9.9-4.1,15.2-5.1c4.3-0.8,8.6-1.2,13-1.8
	C2956.1,546.7,2958.3,546.7,2960.8,546.5L2960.8,546.5z"/>
<path class="st2" d="M3345.2,696.4c-0.8,0.3-1.4,0.6-2,0.8c0,0.5,0,0.9,0,1.5c-0.7,0-1.4-0.1-2-0.1c-1.6-2.3-3.2-4.6-4.6-6.9
	c-1.6-2.5-2.8-5.1-3.3-8.2c-0.4-2.6-1.5-5.1-2.4-7.6c-0.7-1.8-1.4-3.5-1.3-5.5c0.1-1-0.9-2-1.7-3.5c0.5-2.6,0.9-5.7,1.6-8.8
	c1.3-5.5,4.6-9.9,8.2-14.1c3-3.4,6.4-6.1,10.7-7.8c3.5-1.4,6.7-3.6,9.6-5.2c1.9-0.5,3.4-0.9,4.9-1.3c0.5-0.1,1-0.5,1.4-0.5
	c7.2-0.5,14.4-0.3,21.1,2.8c5.9,2.7,10.9,6.5,15.7,10.8c2.9,2.5,3.7,6.5,7.1,8.4c-0.1,3.1,3.7,4.7,2.9,8c-0.1,0.2,0.1,0.5,0.3,0.7
	c1.5,1.9,2.2,4,2.4,6.3c0.1,0.6,0.6,1.1,1,1.8c-0.4,0.9-0.9,1.8-1.4,2.9c0.3,1,0.6,2,0.9,2.8c-0.9,2.8-1.7,5.3-2.6,7.9
	c-1.8,5.2-5.6,9.1-8.6,13.5c-0.4,0.5-1,0.8-1.5,1.2c-1.2,0.9-2.3,1.8-3.8,2.9c-1.1,0.6-2.5,1.5-3.9,2.2c-1.3,0.7-2.7,1.5-4.1,2
	c-4.1,1.3-8,3.5-12.5,3.3c-3.4-0.2-6.9,0.4-10.2-0.8c-2.4-0.9-5.2-1-7.2-2.3C3355.4,700.5,3349.9,699.6,3345.2,696.4L3345.2,696.4z"
	/>
<path class="st2" d="M3011.4,790.4c-1.8-2.1-3.1-3.7-4.4-5.2c-0.1,0.1-0.2,0.2-0.3,0.2c-1.5-3.4-3.2-6.7-4.3-10.2
	c-1.2-3.8-1.6-7.7-1.3-11.9c0.5-6,4-10.7,5.5-16.2c0.4-1.6,1.8-3.1,3-4.3c3.6-3.4,6.1-7.9,10.6-10.3c1.4-0.8,2.8-1.9,4.3-2.3
	c2.9-0.7,5.3-1.9,6.8-4.8c2.8,1.1,5.3,1.1,7-1.2c6.8,1,13.2,2,19.9,3.1c0.4,2.2,1.9,3.5,4,4.2c0.5,0.2,1,0.7,1.4,1.1
	c1.9,1.7,4.3,3.1,5.6,5.2c1.4,2.4,3.8,3.5,5.3,5.3c3.1,3.7,5.9,7.8,8.2,12c1.1,2,0.9,4.7,1.3,7c0.4,2.9,0.8,5.7,0.5,8.7
	c-0.5,5.5-2.9,10.1-5.5,14.7c-4,7-10.5,11.1-17.3,14.6c-3.6,1.8-7.8,2.2-11.9,2.7c-3.8,0.5-7.6,0.3-11.4,0.2c-1.5-0.1-3-0.7-4.5-1
	c-6.9-1.5-13.5-3.6-18.8-8.8C3014,791.7,3012.3,791,3011.4,790.4L3011.4,790.4z"/>
<path class="st2" d="M3724.1,666.4c-0.9-1,0-2.3,0.7-3.7s1.2-2.9,1.7-4.4c0.8-1.5,1.6-3.1,2.5-4.7c0.9-1.2,1.8-2.5,2.8-3.8
	c1.4-1.6,2.9-3.2,4.5-4.6c5.4-4.6,11.6-7.1,18.8-7.7c3.5-0.3,6.9-0.6,10.3,0.2c3.3,0.8,6.5,2,9.7,3.2c2.9,1,5.7,2.2,7.7,3
	c2.2,1.4,3.8,2.5,5.5,3.3c2.1,1.1,3.2,3.3,4.9,4.7c2.6,2.1,3.6,5.1,5.2,7.8c2.6,4.3,2.9,9.2,2.9,13.8c0.1,5-0.2,10.2-1.8,15.2
	c-2.3,7.3-6.2,13.6-12.5,18c-2.7,1.9-6,3.1-9.2,4.3c-8.1,2.9-16.2,1.8-24.3,0.7c-0.5-0.1-1,0.1-1.5,0.2c-0.1,1-0.2,1.9-0.4,2.8
	c-3.1,0-2.9-3.5-5.4-4.5c0.2,1,0.4,1.6,0.7,2.6c-1,0-1.9,0-2.8,0.1c-0.9,0.1-1.7,0.2-2.7,0.3c-0.1,1.3-0.2,2.5-0.4,3.4
	c-0.4,0.2-0.8,0.5-0.9,0.4c-3.5-2.6-7.8-4-10.5-7.7c-3.5-4.8-6.4-9.9-6.8-16c-0.2-3.8-0.4-7.6-0.6-11.5c0-0.6,0.4-1.2,0.4-1.8
	c0-1.6-0.1-3.2-0.5-4.8C3722.9,672.6,3723.4,669.9,3724.1,666.4L3724.1,666.4z"/>
<path class="st2" d="M3624.1,798c-0.6-1.1-1-2.1-1.4-2.7c-0.1-0.4-0.2-0.6-0.2-0.7c1.5-1.6,1.1-3.8,1.8-5.6c1.4-3.3,3.5-6.4,5.3-9.5
	c0.4-0.6,1.2-1,1.7-1.5c1.3-1.1,2.6-2.3,3.7-3.7c5.4-2.4,11-4.9,17.2-4.8c2.6,0,5.1,0.3,7.7,0.6c3.4,0.4,6.8,0.9,10.2,1.5
	c6.7,1.2,13.2,2.9,18.5,7.5c1,0.8,2.5,1,3.9,1.5c2,2.5,4.2,5.1,6.4,7.8c0.7,0.9,1.4,1.8,2.1,2.7c1.2,1.8,2.5,3.5,2.8,5.7
	c0.1,1,1.2,1.9,1.5,2.4c0.1,2.8,0.3,5,0.3,7.3c0.2,6.1-2.4,11.5-5,16.8c-3,6.1-7.9,11-11.6,15.9c-2.2,1.5-4,2.8-6.1,4.2
	c-3.6,1.3-7.7,2.7-11.9,4.2c-5.1-0.9-10.6-0.8-15.6-3c-2.6-1.1-5.1-2.1-7.1-4.3c-2.6-2.8-5.9-5-8.6-7.7c-3.3-3.4-6.4-7-9.4-10.7
	c-0.7-0.8-1-2-1.4-3.1c-0.4-1.2-0.5-2.7-1.2-3.6c-2.4-2.9-2.5-6.6-3.7-9.8C3623.2,802.9,3623.5,800.7,3624.1,798L3624.1,798z"/>
<path class="st2" d="M4097.6,545.1c-0.3-0.6-0.6-1.1-1.1-2c-3.1,0.3-6.3,1.1-9.5,0.8c-3.3-0.3-5.7,2.8-9,2v-1.3
	c-0.6,0-1.2-0.1-1.8-0.1c-3.7,0.3-7.4,0.4-11-0.8c-1.9-0.6-3.7-1.8-5.4-2.8c-0.6-0.3-0.9-1-1.5-1.2c-6.1-2.8-7.9-8.5-9.6-14.3
	c-0.6-2.1-1.3-4.1-2-6.1c-1.1-2.9-1.7-5.8-1.9-9c-0.3-3.8-0.3-7.5,0.1-12c0,0,1.1-0.7,1-1.2c-0.6-3.1,1.6-5.1,2.6-7.6
	c1.7-4.3,4.5-7.8,6.7-11.8c0.2-0.3,0.9-0.3,1.3-0.6c2-1.5,4-3.1,5.9-4.6c5.2-3.7,11.4-3.2,18-3.9c3.1,1.1,6.9,2.4,10.9,2.4
	c2,0,4.2-0.6,5.8,1.3c0.2,0.2,0.7,0.3,1.1,0.3c6.1,0.2,9.2,4.3,11.9,9c1.1,1.9,2.7,3.5,3.5,5.5c1.9,4.6,4.2,8.9,5.1,13.9
	c0.5,3,2,5.8,1.3,9c-0.9,4.2-1.9,8.2-4.4,11.8c-1.3,1.8-1.6,4.3-2.6,6.3c-1.6,3.2-3.1,6.5-5.2,9.3
	C4105.2,540.7,4102.3,543.8,4097.6,545.1L4097.6,545.1z"/>
<path class="st2" d="M3904.2,685.3c4-0.5,7.3-0.8,11.6-1.3c5.1,1.7,10.5,4.9,15.5,8.9c2.6,2.1,5.2,4.1,7.6,6.4
	c1.2,1.2,1.8,3.1,2.8,4.9c3.4,1,4.4,3.7,3.8,7.2c0.9,0.6,1.7,1.2,2.6,1.9c0,0.5-0.1,1,0,1.5c2,4.8,0,9.3-1.2,13.8
	c-1.2,4.7-3.7,8.6-6.8,12.4c-3.5,4.3-7.6,7.9-11.5,11.7c-0.7,0.7-1.8,0.9-2.7,1.4c-1.2,0.8-2.4,1.6-4.3,2.8
	c-2.9,0.6-6.5,1.4-10.8,2.4c-0.8-0.1-2.4-0.4-3.9-0.3c-5.4,0.1-10.1-2.4-15.1-4.1c-2.7-3.2-7.7-3.6-9.8-7.7
	c-0.5-0.9-1.9-1.2-2.3-1.4c-1.4-2.2-2.5-3.9-3.2-5c-1.2-2.7-2.2-4.9-3.2-7.1c-0.4-0.9-0.8-1.9-1.1-2.8c-0.4-1.6-0.5-3.3-1.1-4.9
	c-1-2.5-1.1-4.7,0.7-6.7c-0.3-1.3-0.6-2.4-0.7-3c1-2.6,2-4.7,2.5-6.9c0.5-2.2,1.4-4.1,2.9-5.7c3.1-3.3,5.8-7.2,10.8-7.9
	c1.1-1.6,2.2-3,3.1-4.4c2.7-1,6.4,0.4,7.3-3.9C3900.5,687.6,3903,687.5,3904.2,685.3L3904.2,685.3z"/>
<path class="st2" d="M3979.3,909.8c-1,0-1.7,0.1-2.6,0.1c-0.2,0.7-0.4,1.5-0.6,2.3c-5.1,2.2-10.3,4.5-15.3,6.7
	c-1.1-0.2-2-0.6-2.8-0.5c-5.1,0.7-9.9-0.2-14.7-1.8c-1.3-0.5-2.7-1-3.8-1.8c-3.7-2.7-8.1-4.6-11-8.2c-1.8-2.2-3.4-4.7-5-7.1
	c-0.7-1-1.4-2.1-1.9-3.2c-1.4-2.4-1.3-5.3-1.8-7.9c-0.7-3.5-0.8-7-1.1-9.9c1-2.5,1.8-4.4,2.9-7.2c-1.1-0.6-2.1-1.1-3.1-1.6
	c0.1-0.2,0.3-0.4,0.4-0.6c0.7,0.1,1.4,0.1,2.4,0.2v-4.6c2.1-2.2,4.1-4.2,7.2-4.8c1.4-0.3,2.6-1.9,3.9-2.9c1.1-0.8,2.3-1.6,3.7-2.5
	c0.2-0.7,0.5-1.5,0.7-2.3c0.6-0.2,1.1-0.3,1.6-0.5c0.8-0.2,2-0.2,2.4-0.7c1.8-2.2,4.5-2.3,6.7-2.3c4.6,0,9.2-0.2,13.7,1.2
	c3.5,1.2,7,2.3,9.7,5.1c0.5,0.5,1.2,1.2,1.9,1.3c1.9,0.3,3.1,1.3,4.2,2.9c0.7,1,2.3,1.4,3.5,2.1c0.9,0.5,1.7,1.2,2.7,1.9
	c0.4,2,1.4,3.7,2.9,5.4c1.8,1.9,3.7,4.4,2.6,7.7c-0.2,0.6,0.2,1.5,0.4,2.2c0.2,0.9,0.6,1.7,0.6,2.5c-0.2,4.2-0.4,8.4-2.2,12.4
	c-0.5,1.1-0.7,2.5-0.7,3.7c-0.1,2.1-0.4,3.9-2,5.6C3982.7,904.8,3981.2,907.3,3979.3,909.8L3979.3,909.8z"/>
<path class="st2" d="M4063.4,588.2c14.8-4.7,20.6-5.9,25.5-5.4c0.1,0.8,0.2,1.6,0.3,2.6c2.3,1.6,4.8,1.2,7.7,0.5
	c1.9,0.8,4,2,6.3,2.7c3.5,1.1,6,3.1,7.6,6.4c0.5,1.1,1.5,2.4,2.5,2.8c1.8,0.7,2.6,2.1,3.5,3.7v9.6c-1.9,1-1.5,3.1-1.8,4.7
	c-0.7,4-1,8.1-1.5,12.2c0.2,0,0.6,0,1.3-0.1c-0.4,2.8-5.1,2-4.1,5.9c0.1,0.1,0.4,0.7,1,1.8c-1-0.1-1.6-0.2-2.4-0.3
	c-3,4-6,8.1-9.1,12.2c0.2,0.2,0.5,0.5,0.9,0.8c-0.2,0.2-0.4,0.4-0.6,0.4c-1.1,0.2-2.3,0-3.2,0.5c-2.9,1.6-5.7,3.4-8.4,5.2
	c-2.2,1.5-4.5,2.7-7.3,2.2c-0.9-0.1-1.9-0.3-2.6,0.1c-1.2,0.7-2.1,0.4-3.2-0.1c-0.6-0.3-1.6,0-2.6,0.1c-1.5-0.6-3.2-1.4-5.6-2.4
	c-0.9-0.7-1.5-3.2-3.7-2.7c-1.6-1.5-3.1-2.6-4.4-4c-1.5-1.6-3-3.3-4.2-5.2c-1.1-1.8-1.9-3.8-2.9-5.8c-0.2-0.5-0.6-0.9-0.6-1.4
	c-0.1-5.3-2.1-10.4-1.6-15.7c0.2-2,0.4-3.9,0.7-6c0.8-3.2,1.9-6.5,2.4-9.8c0.6-4.2,3.3-7.2,4.9-10.8c0.4-0.9,1.8-1.4,2.7-2.1
	C4061.6,590.2,4062.2,589.5,4063.4,588.2L4063.4,588.2z"/>
<path class="st2" d="M3789.6,881.1c1.4,0.6,3.3,1,4.6,2.1c2.6,2.4,6,4.1,8.1,7.1c2.3,3.3,4.3,6.5,5.4,10.5c0.6,2.2,1.5,4.4,1.5,6.6
	c-0.1,4.5,0.7,9-1.5,13.3c-1.2,2.4-1.2,5.2-3.1,7.4c-1,1.1-1.7,2.5-2.5,3.7c-0.6,0.8-1.3,1.6-1.7,2.5c-0.7,1.6-1.6,2.8-3.1,3.7
	c-3.9,2.5-7.8,5.2-11.7,7.7c-0.6,0.4-1.5,0.4-2.2,0.5c-1.5,0.3-2.9,0.7-4.4,0.7c-1.8,0.1-3.7,0.1-5.5-0.3c-2.9-0.6-5.7-1.5-8.5-2.2
	c-1.1-0.3-2.4-0.2-4.1-0.4c-0.6-0.8-1.6-1.8-3.2-2.5c-2.3-1.1-4.4-3.2-6.1-5.2c-2-2.5-3.6-5.3-5.2-8.1c-1.5-2.6-2.8-5.3-4-8.1
	c-0.7-1.6-1.1-3.3-1.2-5c-0.4-7.1-0.4-14.2,4.5-20.2c2.3-2.8,4.3-6,6.5-8.8c0.6-0.8,1.8-1,2.6-1.7c0.8-0.6,1.6-1.4,2.9-2.6
	c1.5-0.5,4.3,0,5.3-3.1h4.8c0.9-0.9,1.7-1.6,2.3-2.2C3776.8,877,3782.8,879.4,3789.6,881.1L3789.6,881.1z"/>
<path class="st2" d="M3601.7,877.1c0.7,0.8,1.4,1.7,2.2,2.6c1,0.1,2,0.3,3,0.4c0.9,0.9,1.6,2,2.6,2.7c1,0.7,2.4,0.9,3.7,1.3
	c0.7,2.2,1.7,4,4,5.2c2.7,1.5,2.4,4.9,3.4,7.4c0.5,1.4,0.4,3,0.6,4.5c0.8,5.2-1,9.9-2.6,14.7c-2,5.8-5.8,10.5-10.1,14.8
	c-2.1,2.1-4.4,4.2-7.6,5c-1.1,0.2-2,1.1-2.9,1.7c-0.4,0.3-0.8,0.9-1.2,0.9c-3.4,0.6-6.3,3.3-10,2.7c-0.3,0-0.8,0-1.1,0.2
	c-2.8,1.7-5.6,1.6-8.3-0.3c-0.5-0.3-1.4-0.7-1.8-0.5c-2.7,1.2-4.4-0.7-6.3-1.8c-6.1-3.6-11.1-8.4-14.1-14.8
	c-2.7-5.7-4.5-11.6-2.9-18.1c0.9-3.9,1.7-7.8,4.2-11.1c2.1-2.8,4-5.7,6.6-8.2c2.9-2.7,5.6-5.5,9.1-7.3c7.4-4,15.2-5.7,23.5-2.9
	C3597.3,876.7,3599.3,876.7,3601.7,877.1L3601.7,877.1z"/>
<path class="st2" d="M3882.2,959.5V971c-0.6,0.7-1.1,1.3-1.6,1.9c0.1,0.8,0.2,1.5,0.3,1.7c-0.9,1.8-1.7,3.2-2.8,5.3
	c-0.3,0.2-1.2,1-2.1,1.8c0.1,1,0.1,2,0.1,2.5c-3.2,2.1-6.1,4.1-9.1,5.9c-2.7,1.6-5.2,3.6-8.7,3.2c-1.8-0.2-3.6,0.2-5.4,0.2
	c-4.2,0.2-7.9-1.1-11.7-2.7c-4.1-1.6-6.2-5.2-9.6-7.3c-3.5-2.1-5.7-5.6-7.1-9c-1.5-3.7-1.5-8.1-2.1-12.2c-0.1-0.6,0.4-1.2,0.6-2
	c-0.4-0.9-0.8-2-1.3-3.6c0.4-1.5,1-3.4,1.5-5.3c0.4-1.3,0.8-2.5,0.8-3.9c0.7-1.4,3-2.2,1.4-4.6c2.4-0.8,4.1-2,3.9-4.7
	c2.5-0.4,4.2-1.6,5.2-3.7c0.7-1.6,1.9-2.4,3.4-2.9c4.9-1.5,9.7-2.4,15-1.8c9,1,15.7,5.6,21.6,11.8c3.8,4,6,8.8,6.7,14.3
	C3881.3,957.2,3881.9,958.5,3882.2,959.5L3882.2,959.5z"/>
<path class="st2" d="M3170.3,958.3c-0.1,0.3-0.2,0.9-0.4,1.5c1.4,1.7,2.7,3.5,4.1,5.3c0,0,0,0.3,0.1,0.5c1.6,4.6,0.2,9.3,0.3,13.9
	c0.2,4.8-0.7,9.4-2.2,14c-2.2,6.5-6.7,10.5-13.1,12.4c-2.6,0.8-5.2,1.2-7.9,1.6c-1.3,0.2-2.6,0.7-3.9-0.5c-0.3-0.3-1.6,0.4-2.4,0.9
	c-1.4-0.2-1.9-2.8-4.1-1.6c-0.2,0.1-1-0.3-1.3-0.7c-1-1.5-2.7-1.8-4-2.4c-7-3.3-11.8-8.8-15.5-15.3c-4.4-7.8-2.8-20.8,5.8-27
	c4-3,8.1-5.1,12.9-6.1c1-0.2,2-0.3,3-0.7c8.1-2.9,16-1.9,23.8,1.1C3167,955.8,3168.3,957,3170.3,958.3L3170.3,958.3z"/>
<path class="st2" d="M3176.4,977c0.1,0.5,0.1,1,0.2,1.5c-0.2,0-0.4,0.1-0.6,0.2c-0.2-0.5-0.3-1-0.5-1.5
	C3175.8,977.1,3176.1,977,3176.4,977L3176.4,977z"/>
<path class="st3" d="M3117.9,138.1c0.3-0.5,0.8-1.1,0.8-1.6c-0.1-5.5,1.7-10.5,4.6-15.1c1.1-1.7,1.9-3.6,2.9-5.3
	c2.9-5.1,7.8-7.9,12.7-10.5c2.1-1.1,4.5-1.6,6.4-2.3c2.4-0.3,4.5-0.7,6.6-0.7c4.9-0.1,9.8-0.5,14.6,0.2c3.1,0.4,6.3,1.6,9.2,3.5
	c7.5,5.1,13.3,11.3,15.2,20.4c1.4,6.8,1.8,13.6-0.2,20.3c-1.9,6.4-3.8,12.7-6.3,18.9c-2.7,6.8-6.9,12.9-12,18.2
	c-3.1,3.2-6.8,5.9-11,7.1c-7.5,2.2-14.7,1.2-21.4-3.4c-4-2.8-6.3-6.8-8.7-10.6c-2.1-3.4-3.7-7.3-5.5-11c-0.9-1.9-1.7-4-2.7-5.9
	c-2.4-4.4-3.2-9.4-4.5-14.2c-0.2-0.6-0.5-1.1-0.8-1.7L3117.9,138.1L3117.9,138.1z"/>
<path class="st3" d="M3238.9,1040.2c-0.7-0.5-1.3-1.1-2-1.5c-2.3-1.5-4.3-3-5.1-5.9c-0.6-2.2-1.7-4.2-2.7-6.3
	c-2.6-5.5-2.4-7.8,0.2-13.5c1-2.1,2.3-3.5,4.3-4.6c1.1-0.6,1.9-1.5,3.1-2.5c0.5,0.2,1.3,0.5,2.2,0.9c0.4-0.5,0.9-1,1.6-1.8
	c1.5,0.3,3.4,0.3,4.7,1.2c2.1,1.5,4.4,2.9,5.5,5.6c2,5,3.1,10,1.4,15.3c-0.1,0.5,0,1-0.1,1.5c0,0.4-0.2,0.7-0.3,1.1
	c-0.8,0.2-1.5,0.4-2.2,0.6c0.6,0.6,1.2,1,2.4,2.1c-1.8-0.2-2.8-0.3-3.6-0.3c-1.4,2.3-2.7,4.4-4,6.4c-0.9-0.6-1.4-0.9-2-1.3
	c-0.4,1.1-0.8,2.1-1.1,3H3238.9L3238.9,1040.2z"/>
<path class="st3" d="M3560.9,264c-1-2.8-1.7-4.7-2.4-6.5c-0.2-0.6-0.6-1.2-0.7-1.8c-1.2-6.6-0.5-13,1.8-19.1
	c1.1-2.9,3.4-5.4,5.1-8.1c1.9-3.1,4.8-5.2,7.6-7.3c1.9-1.5,4.1-2.7,6.2-3.8c4.4-2.5,8.8-5.2,13.4-7.3c4.2-1.9,8.5-4,13.1-4.1
	c4.6-0.2,9.4,0.6,13.7,3c4.5,2.5,7.8,6.1,10.9,10.1c2,2.6,4.5,5,6.1,7.8c1.6,2.9,3.1,6,3.5,9.6c0.8,6.8-2,12.8-3.5,19.1
	c-1.1,4.6-2.4,9.2-4.5,13.4c-2.4,4.8-5.2,9.6-10.3,12.4c-2.1,1.1-4,2.7-6.1,4c-4.1,2.4-8.7,3-13.3,3.4c-4.8,0.4-9.1-1.2-13.3-3
	c-3.9-1.7-7.8-3.6-11.2-6.1c-3.4-2.5-7.2-4.5-10.2-7.9C3564.5,268.9,3562.9,265.6,3560.9,264L3560.9,264z"/>
<path class="st3" d="M4319,377.2c-3.4,0-6.9,0-10.3,0c-2.1,0-4.4,0.6-6.4,0.2c-3.6-0.7-7.3-1.4-10.4-3.6c-6-4.2-9.6-10.1-12.6-16.6
	c-2.8-6.1-4.7-12.6-5.1-19.2c-0.5-9.2,1.2-17.9,7.3-25.4c3-3.6,6.3-6.7,10.4-8.8c0.3-0.2,0.7-0.4,1-0.5c5.6-1.7,11.2-3.4,17.1-3.8
	c5-0.3,9.9,0.8,14.5,2.9c0.9,0.4,1.6,1.3,2.4,1.9c1.3,1,2.7,2,4,2.9c0.5,0.4,1.2,0.6,1.5,1.1c2.3,2.9,5.3,4.9,7.3,8.2
	c3,5,6,9.9,7.1,15.6c0.1,0.8,0.3,1.5,0.4,2.3c0.5,4.4,1.3,8.8,1.4,13.2c0,4.9-0.4,9.9-3.1,14.3c-2.2,3.5-4.1,7.1-7.7,9.5
	c-4,2.6-8.1,5.2-13.1,5.5c-1.9,0.1-3.8,0.5-5.7,0.7C4319.1,377.6,4319,377.4,4319,377.2L4319,377.2z"/>
<path class="st3" d="M4458.9,444.4c2.4-0.1,4.5-0.5,5-2.9c1.1,0.1,2.1,0.4,3.1,0.4c2.4-0.2,4.6-0.8,7.1-0.6c4,0.4,7.4,1.8,10.5,4.3
	c1.7,1.4,3.7,2.3,5.2,3.9c1.6,1.6,3.2,3.5,3.9,5.6c0.6,1.7,1.5,2.9,2.5,4.2c2.8,3.5,5.8,6.8,7.4,11.1c3.7,10.3,1.9,19.4-4.9,27.7
	c-0.7,0.9-1.4,1.8-2,2.7c0.3,0.4,0.6,0.8,1.1,1.6c-1.1-0.2-1.8-0.3-2.3-0.3c-2.8,2.3-5.3,4.7-8.2,6.6c-3.2,2-6.7,3.9-10.3,5.1
	c-6.4,2.1-12.9,1.6-19.2-0.7c-3-1.1-5.8-2.3-8.6-4c-4.4-2.8-6.9-6.9-8.6-11.4c-1.4-3.6-3.5-7-2.9-11.3c0.3-1.9-0.7-3.9-1.1-6.1
	c0.2,0.1,0,0,0,0c-0.2,0.1-0.5,0.2-0.7,0.3c0-0.4-0.1-0.9,0-1.1c1.1-2,1.9-4,0.4-6.1c-0.1-0.2-0.1-0.5-0.1-0.8
	c0.8-2.3,1.1-4.9,2.5-6.7c1.2-1.5,1.9-2.9,1.7-4.9c2.2-0.3,3.4-1.6,4.2-3.5c1.3-3.2,4.1-5.1,6.8-7c1.5-1.1,3.2-2.1,4.8-3.2
	C4457.3,446.2,4458,445.3,4458.9,444.4L4458.9,444.4z"/>
<path class="st3" d="M3998.2,178.9c1.6,1.2,3.1,2.3,4.6,3.6c4.7,4.1,7.9,9.3,10.2,15c2.1,5,2.9,10.3,3.7,15.6
	c0.3,2.5-0.1,5.2-0.8,7.6c-1.9,7.1-4.6,13.9-8.9,19.9c-3.7,5.1-8.3,9-15.1,10.1c-4.2,0.6-8,0.9-11.9-0.9c-2.4-1.1-5.1-1.8-7.5-2.9
	c-3.7-1.7-6.6-4.4-9.1-7.6c-3.1-3.9-6.1-7.9-8.9-12.1c-1.9-2.9-2.6-6.4-2.7-9.9c-0.4-8.9,0.4-17.7,4.6-25.8
	c2.8-5.4,6.8-9.9,12.7-12.3c2.1-0.9,4.3-1.5,6.4-2.4c5.2-2.2,10.6-1.5,15.9-0.7C3993.6,176.4,3995.8,177.9,3998.2,178.9
	L3998.2,178.9z"/>
<path class="st3" d="M4323.1,524.7c-2.1,2-4.6,3.9-6.6,6.1c-3.5,3.7-7.8,6.5-11.7,9.7c-2.7,2.3-6.1,3.2-9.3,4.3
	c-1.2,0.4-2.4,0.7-3.5,1c-3.4-1.1-6.8-2.1-10.6-3.3c-0.9-0.7-2.3-1.7-3.6-2.7c0,0,0,0,0,0c-1.4-1.1-2.9-2.3-4.3-3.4
	c-4.5-3.6-7.9-7.8-9.3-13.5c-0.5-1.9-0.9-3.7-0.6-5.7c0.8-4.9,0.8-9.9,2.1-14.8c1.9-6.9,6-11.7,11.7-15.6c3.1,0.1,5.8-3.3,9.1-0.8
	c3.6-0.6,7.2,1.2,10.9,0.4c2.9-0.6,5.9-0.2,8.7,1.1c0.8,0.4,1.6,0.9,2.5,1c4,0.5,6.4,3.1,8.6,6.2c0.4,0.6,1,1.3,1.2,2
	c1.2,4,2.1,8,3.5,12C4323.5,513.8,4323.3,518.8,4323.1,524.7L4323.1,524.7z"/>
<path class="st3" d="M4093.8,605.5c-0.5-0.3-1-0.6-1.4-0.8c-1.1,2.1,0.6,3.6,1.4,4.9c1.3,1.9,1.6,4,1.8,6c0.5,4.2,0.4,8.4,0.4,12.6
	c-0.1,5.2-1.3,9.9-6.4,12.7c-2,1.1-3.6,2.8-5.1,4c-1.4,0.2-2.4,0.3-3.4,0.4l-6,0c-3.5-0.3-7-0.7-10.4-1c-0.7-0.1-1.5-0.2-2.2-0.5
	c-2.3-1-4.6-2.1-6.9-3.2c-2.8-1.4-4.1-4.6-3.9-7c0.3-3.3-1-5.9-1.7-8.2c0.2-2.4,0.4-4.3,0.6-6.9c0.5-0.8,1.8-2,1-4
	c-0.1-0.4,0-1.1,0.3-1.4c2.5-2.3,3.2-5.5,4.2-8.6c1.2-3.6,3.6-6.3,7-8.2c2.5,0.6,4.7-0.4,6.8-1.6c1.6-1,3.3-1.4,5.3-0.9
	c-0.1,0.5-0.1,1-0.2,1.8c2,0,3.9,0.9,5.7-1c0.5-0.6,1.9-0.3,3.2-0.5c3.5,3.6,7,7.2,10.5,10.7C4094.2,605,4094,605.2,4093.8,605.5
	L4093.8,605.5z"/>
<path class="st3" d="M4083.4,529.6c-0.8,3-1.4,5.7-2.2,8.7c-1.2-1.4-0.4-3.7-3-3.6c0-3-0.2-6,0.1-8.9c0.2-2.7-0.5-5-1.4-7.5
	c-1.4-3.7-2.7-7.6-2.4-11.7c0.3-4.5,1.5-8.8,3.8-12.7c2.4-4.3,5.6-8.1,9.3-11.4c0.3-0.2,0.5-0.6,0.8-0.6c3-0.4,3.1-2.5,2.9-5.2
	c0.8,0.3,1.3,0.5,2.1,0.8c0.2-0.9,0.4-1.9,0.6-2.8c4.7-1.7,8-0.5,10.7,3.5c0.7,1,1.4,2.7,3.3,1.7c1.4,3.8,2.9,7.6,5.7,10.7
	c2.6,3,3.6,6.3,2.7,10.3c-0.3,1.2,0.1,2.5,0,3.8c-0.2,1.7-0.2,3.6-1,5c-1.8,3.3-3.5,6.5-2.6,10.4c0.1,0.5-0.4,1.1-0.5,1.7
	c-0.2,0.8-0.2,1.6-0.4,2.9c-1.3,1.5-2.8,3.4-4.6,5.2c-4.1,4-9.1,6.3-15,5.3c-1.9-0.3-3.7-1.6-5.4-2.6
	C4085.6,531.8,4084.7,530.7,4083.4,529.6L4083.4,529.6z"/>
<path class="st3" d="M3584.8,921.5c-0.8-0.2-1.8-0.5-3.3-0.9c0.3,1.5,0.5,2.8,0.7,4.1c-2.2,2-2.1-1.4-3.3-1.5
	c-1.5,0.8-1.4,2-0.8,3.4c-0.8,0.4-1.6,0.7-3,1.4c-0.2-0.8-0.5-1.6-0.8-2.4c-0.3,0.2-0.7,0.5-1,0.7c0.1,0.5,0.1,1.1,0.2,1.6
	c-0.2,0.2-0.4,0.5-0.5,0.5c-5-0.5-9.3-2.2-11.5-7.2c-0.1-0.2-0.1-0.5-0.2-0.7c-3.3-3.8-4.2-8.6-5.3-13.2c-0.5-2.2-0.6-4.6-0.9-7
	c1.3-0.2,2.3-0.4,3.9-0.7c-1.3-0.9-2-1.5-2.7-2c1.1-5.8,4.2-9.3,10.5-10c8.9-1,16.8,4.2,20.4,12.5c2.3,5.3,1.9,10.5,0.5,15.8
	C3587.2,917.5,3586,919.2,3584.8,921.5L3584.8,921.5z M3558.6,896.5c1.1-0.4,1.7-0.9,0.8-1.9c-0.1-0.2-0.6,0-1.2,0
	C3558.3,895.3,3558.5,895.9,3558.6,896.5z"/>
<path class="st3" d="M3946.9,868.5c-0.4-0.3-0.6-0.6-1.1-1.1c0.8-0.6,1.4-1.3,2.2-1.7c2.8-1.3,10.9-2.5,14.9-2.2
	c0.6,1.8,2.1,2.5,4.3,2.2c-0.2,0.7-0.4,1.2-0.6,1.9c0.3,0.2,0.9,0.5,1.2,0.9c0.4,0.5,0.6,1.1,0.9,1.8c0.9-0.2,1.7-0.5,2.8-0.7
	c0.3,0.6,0.6,1.3,0.9,1.9c-1,1.4-2.1,2.5-2.8,3.8c-0.7,1.5-1.7,2.8,0,4.8c1.1,1.2,0.4,3.9,0.7,5.8c0.7,4.1-1.1,7.8-2,11.6
	c-0.2,0.8-1.3,1.6-2.1,2c-1.8,1-3.8,1.6-5.5,2.6c-4.4,2.5-8.4,1.1-12.3-0.9c-4.6-2.4-7.2-6.6-9.1-11.3c-0.4-1-1.4-2.5,0.2-3.7
	c0.2-0.2,0.4-0.7,0.3-1c-1.3-5.3,1.6-9.2,4.2-13.3C3944.9,870.8,3946,869.7,3946.9,868.5L3946.9,868.5z"/>
<path class="st3" d="M3847.8,949.6c0.5-0.2,1.2-0.4,1.8-0.6c0.5,0.5,1,0.9,2,1.7c-0.4-1.8-0.6-2.8-0.8-3.8c2.2-2,2.1,1.6,3.9,1.2
	c-0.2-1-0.4-1.9-0.6-2.8c4.4-2,8.8-1.6,13.3-0.1c5.8,1.8,9.4,6.1,9.7,12.2c0.2,3,0.9,5.9,0.1,8.9c-0.8,3.1-0.7,3.1-3.7,4.8
	c0.8,0.3,1.3,0.5,2.4,0.9c-1.1,0.7-1.8,1.2-2.6,1.8c0.2,0.4,0.4,0.9,0.6,1.4c-1.3,0.1-2.6,0.2-3.8,0.3c-0.6,2-1.1,3.7-1.6,5.6
	c-0.9-0.5-1.5-0.8-2.2-1.2c-1.1,1.2-2.2,2.4-3,3.3c-1.2-0.4-2.2-0.9-3.1-0.9c-5.4,0.3-8.1-3-10-7.3c-0.7-1.5-1.2-3-1.9-4.7
	c-1.7-0.5-3.4-1.1-5.4-1.8c-0.3-2.8-0.7-5.6-1-8.7C3843.6,956.6,3845.6,953.3,3847.8,949.6L3847.8,949.6z"/>
<path class="st3" d="M3763.4,924c-0.1,0.8-0.3,1.5-0.4,2.3c-2.4,1.7-5.1,1.2-7.7,0.6c-3-0.8-5.2-2.7-6.8-5.4
	c-1.4-2.3-2.7-4.6-2.4-7.5c0.1-0.8-0.3-1.8-0.7-2.6c-1-2.4-2.1-4.7-0.9-7.4c0.2-0.6-0.2-1.5-0.3-2.2c0.7-1,1.3-2,1.9-2.9
	c-0.2-0.8-0.4-1.5-0.4-1.7c4.5-7,9.6-12.1,18.7-10.8c0.1,0.1,0.3,0.7,0.4,1.3c0.1,0.5,0.1,1,0.1,1.6c4.3,2.2,5.4,6.4,6.9,10.5
	c0.3,0.9,0.5,1.9,0.9,2.8c1.9,4.5,1.9,9.2,0.9,13.7c-0.5,2.3-2.9,4.1-4.4,6.1c-0.5,0.6-1.4,0.8-1.8,1.4
	C3766,925.9,3764.8,925,3763.4,924L3763.4,924z"/>
<path class="st3" d="M3147.3,966.5c0.1-1.2,0.5-2.3,2.1-2.5c0.6,0.5,1.2,1,2,1.6c0.2-0.5,0.5-0.9,0.4-1.1c-0.3-1.2-1.1-2.4,0.6-3.5
	c0.8,0.6,1.7,1.2,2.9,2c0.3-1.4,0.5-2.5,0.7-3.5c0.2-0.2,0.4-0.4,0.6-0.5c4.1-0.6,7.4,1.2,10.6,3.4c3.4,2.2,5.1,5.4,5,9.5
	c0,0.2,0,0.5,0,0.7c0.4,1.8,1,3.7,1.3,5.5c0.2,1.8,0.1,3.8,0.1,5.9c-0.7-0.3-1.2-0.5-2.1-0.8c-0.3,0.5-0.9,1.5-0.8,1.7
	c2.1,1.9-0.1,2.1-1.2,3c0.2,0.5,0.5,1,0.9,1.7c-0.9,0.4-1.8,0.8-2.7,1.2c0,0.2-0.2,0.5-0.1,0.6c0.8,1.8,0.8,1.9-0.8,2.6
	c-1.5,0.7-2.1,1.6-1.3,3.2c-2.2,1.2-4.8,1.4-7.6,0.8c-0.4,0.5-0.9,1.1-1.5,1.9c-1.7-1.2-3.9-2-5.2-3.6c-4.9-6.1-7.9-13.1-7.2-21.2
	c0.1-0.6-0.3-1.2-0.5-2.1C3145.2,971.1,3144.6,967.9,3147.3,966.5c0.2,1.3,0.5,2.4,2.4,2.1C3149.3,967.2,3148.9,966.2,3147.3,966.5
	L3147.3,966.5z"/>
<path class="st4" d="M3400.2,3.1c0.5,5.1,1.3,10.2,1.5,15.3c0.4,6.8-1.1,13.5-2.7,20.1c-0.6,2.6-0.9,5.2-1.7,7.8
	c-1.6,5.4-4.3,10.2-8.8,13.8c0.2,0.9,0.3,1.6,0.5,2.4c-0.3,0.2-0.7,0.3-1,0.5c-2.4,1.3-4.4,2.9-5.9,5.2c-2.2,3.1-4.9,5.8-8.2,7.9
	c-2.2,1.4-4.3,2.5-6.8,3.3c-1.6,0.5-3.1,1-4.8,0.7c-1.1-0.2-2.2,0.4-3.4,0.6c-4.1-1.3-8.3-2.5-12.4-3.8c-1-0.3-2.2-0.5-2.8-1.2
	c-2.2-2.6-5.6-2.7-8.2-4.4c-6.1-4-12.7-7.4-17.4-13.2c-2.3-2.9-4.5-5.8-6.9-8.9c-0.3,0.2-0.8,0.5-2,1.4c0.7-1.5,1.1-2.2,1.5-3
	c-0.9-2-1.9-4-2.7-6.2c-0.8-2.1-1.3-4.4-1.9-6.6c-0.4,0.2-0.8,0.3-1.3,0.5c0.3-1.9,0.6-3.6,0.8-5.3c-0.9-0.1-1.4-0.2-2.2-0.3
	c0.4-1.2,0.8-2.2,1.2-3.2c-0.5-0.2-0.9-0.4-1.3-0.5c1.8-3.7,1.1-7.2-0.1-11.3c0.5-1.8,3.1-3.9,0.7-6.4c0.6-1.7,1.1-3.3,1.6-4.9
	L3400.2,3.1L3400.2,3.1z"/>
<path class="st4" d="M3034.1,3.1c0.8,2-0.7,3-1.9,4.2c-0.8,0.8-1.6,1.7-2.5,2.7c0.9,0.7,1.3,1,2,1.6c-1.7,2-2.1,5-5.2,5.9
	c0.3,0.9,0.5,1.7,0.8,2.7c-0.8,0.4-1.5,0.8-2.3,1.2c0.1,0.5,0.2,1,0.2,1.4c-1.2,1.1-2.4,2.1-3.5,3.1c0.3,0.5,0.4,0.7,0.6,0.8
	c0.2,0.1,0.4,0.1,1.2,0.3c-0.8,1-1.3,2.1-2.1,2.7c-0.8,0.6-1.9,0.8-3.1,1.2c0.8,1,1.2,1.5,1.9,2.5c-1.6,0.5-2.8,1-4.2,1.5
	c-1.6,2.2-3,4.6-4.9,6.7c-2,2.2-4.4,4.2-6.7,6c-4.1,3.2-8.5,5.9-13.8,6.1c-3.3,0.2-6.6-0.1-10-0.2c0.3,0.5,0.7,1.1,1.1,1.8
	c-0.2,0.1-0.4,0.2-0.6,0.3c-0.5-0.8-1-1.5-1.7-2.7c-2.2-0.9-4.9-2-7.7-3.1c-0.4,0.3-0.8,0.8-1.2,1.1c-3.4-2.2-6.5-4.6-10.2-6.2
	c-2.9-1.3-5.3-3.9-7.8-6c-1.3-1.2-2.3-2.7-3.6-4c-0.5-0.5-1.3-0.7-2.1-1c0.3-1.9-0.6-2.9-2-2.9c-1.9-3.2-3.5-6.1-5.3-8.9
	c-1.5-2.4-2-5.1-2.9-7.7c-0.7-2-0.4-3.9-0.9-5.7c-0.5-1.9-1.8-3.6-2.7-5.4L3034.1,3.1L3034.1,3.1z"/>
<path class="st4" d="M2920.1,581.8c1.3-2.8,2.5-5.7,3.9-8.5c0.9-1.8,1.8-3.7,3-5.3c2.1-2.8,6.7-5,10.3-5.5c2.3-0.3,4.8-0.7,7.1-0.5
	c2.2,0.2,4.5,0.7,6.5,1.7c9,4.7,14.4,12.1,15.7,22.2c0.6,4.5-0.8,8.9-3.3,12.7c-3.3,5-7.7,8.9-13.6,10.7c-7.6,2.3-14.7,1.3-21.1-3.8
	c-4.2-3.4-6.4-7.8-7.7-12.8c-0.1-0.3-0.5-0.5-0.7-0.7V581.8L2920.1,581.8z"/>
<path class="st4" d="M3937.7,729.9c-0.3,0.7-0.7,1.3-0.8,2c-0.7,3.7-2.7,6.8-4.8,10c-0.9,0.2-1.9,0.4-2.9,0.6
	c-0.5,0.9-1.1,1.8-1.7,2.8c-1.1-0.2-2.2-0.4-3.6-0.7c-0.6,0.5-1.3,1.2-2.1,1.9c-2.5-1.8-6.1-0.7-8.2-3.2c-3.2,0.8-4.4-3.3-7.6-2.8
	c0.1-0.9,0.3-1.5,0.4-2.3c-6.4-6.1-7.5-14.4-8.6-23c1.2-2.6,1.4-6,3.2-8.7c0.3-0.4,0.2-1.1,0.6-1.4c2.6-2.1,4.6-5,8-5.8
	c2.9-0.7,5.8-0.9,8.7,0.1c5.7,2.1,11.2,4.4,15,9.5c1.9,2.7,3.7,5.5,3.5,9.1c0,0.8,0.5,1.6,0.8,2.4L3937.7,729.9L3937.7,729.9z"/>
<path class="st4" d="M3149.1,563.9c0.9,0.5,1.5,1.1,2.2,1.3c2.1,0.7,3.9,1.5,3.9,4.1c0,0.6,0.3,1.3,0.7,1.8
	c3.5,4.6,4.3,10.2,4.9,15.5c0.6,4.8,0.4,9.9-1.3,14.8c-1,3-3.3,5-4.6,7.7c-0.4,0.8-1.4,1.5-2.3,1.9c-2.6,1.3-5.2,2.5-8,3.9
	c-3.2-0.6-6.7-1.4-10.2-2c-5.1-0.9-8.4-4.2-10.7-8.6c-0.6-1.2-0.5-2.7-0.7-4.1c-0.7-4.4-1.7-8.8-2.1-13.2c-0.6-6,0.4-11.7,4.6-16.4
	c3.8-4.4,8.4-6.9,14.3-6.8C3142.9,563.9,3146,563.9,3149.1,563.9L3149.1,563.9z"/>
<path class="st4" d="M3615.2,562c1.3-1.1,3.3-0.8,3.1-2.8c3.1-2.3,6.5-4.2,10.4-3.6c7.7,1,12.6,5.6,16,12.5
	c2.1,4.2,2.6,8.4,2.9,12.9c0.4,4.9,0.2,9.7-0.6,14.5c-0.4,2.2-1.1,4.3-1.7,6.6c-1.3-0.3-2.3-0.6-3.4-0.9c-0.2,0.4-0.6,1-0.5,1.3
	c0.5,0.8,1.1,1.5,1.7,2.2c-1.6,1.5-3.1,2.8-4.9,4.5c-2.3-0.3-4.7,2.4-7.7,1.3c-2.8-1-5.5-2-7.4-2.7c-1.7-2-2.9-3.3-4-4.7
	c-0.6-0.8-1.3-1.6-1.7-2.5c-1.8-4.9-4.2-9.7-5.1-14.8c-0.9-4.9-1.1-9.9,0-15.1C3613,567.6,3615.3,565.2,3615.2,562L3615.2,562z"/>
<path class="st4" d="M3733.4,653.8c1.6-0.7,3.6-1.7,5.7-2.4c4.5-1.6,8.8-0.8,12.7,1.7c3.4,2.2,6.2,5.3,8.5,8.7
	c5.2,7.4,4.9,18.2-0.6,25.5c-1.6,2.1-3.1,4.4-5.1,6.1c-1.4,1.2-3.7,1.5-5.4,2.4c-3.2,1.8-6.4,1.2-9.6,0.3c-3.5-1.1-6.2-3.2-8.5-6.2
	c-3.1-3.9-3.7-8.6-5-13.1c-1.2-4.3-1-8.7,0.2-12.9c0.7-2.5,2.1-4.9,4.1-6.8C3731.2,656.4,3732,655.4,3733.4,653.8L3733.4,653.8z"/>
<path class="st4" d="M3333.6,657.8c1.9-4.1,3.5-7.3,5-10.6c0.9-0.1,1.8-0.3,2.8-0.4c1.4-3,3.9-4,7.1-3.7c3.5,0.2,6.8,0.6,9.7,3
	c3.3,2.8,6.1,6,6.8,10.4c0.8,4.4,1.2,8.8,1.8,13.2c0.2,1.5,0.7,2.9,0.9,4.4c0.3,1.8-0.4,3.1-2.5,3.9c0.9,0.9,1.5,1.6,2.3,2.4
	c-0.5,0.5-0.9,1-1.4,1.2c-3.2,1.3-3.9,3.2-2.6,6.5c-0.1,0.2-0.2,0.5-0.4,0.6c-0.6,0.5-1.3,0.9-1.9,1.3c-0.5-0.4-0.8-0.7-1.1-0.9
	c-0.6,1.1-1.2,2.1-1.7,3.1c-3.9,0.5-7.4,0.9-10.8-0.6c-3.9-1.7-8.1-3.1-10.4-7.3c-0.8-1.5-2.1-5.6-2.6-7.8c-0.5-2.9-1.7-5.7-1.8-8.5
	C3332.9,664.2,3333.4,660.5,3333.6,657.8L3333.6,657.8z"/>
<path class="st4" d="M3688.4,821.6c-1.7,1.4-3,2.5-4.3,3.5c-2,0.8-3.7,2.3-6.2,2.5c-6.3,0.6-14.9-4.7-16.5-12.2
	c-0.7-3.5-1.9-6.8-2.4-10.4c-0.3-1.8-0.4-3.7-0.6-6.5c0.9-2.1,2-5,3.3-7.9c1.2-2.8,3-5.1,6-6.2c1.4-0.5,2.7-1.5,4.1-1.8
	c6.6-1.7,11.9,0.7,16.8,5c3.6,3.2,4.4,7.6,5.5,11.8c1.8,6.5,0.2,12.7-3,18.4C3690.3,819.4,3689.1,820.7,3688.4,821.6L3688.4,821.6z"
	/>
<path class="st4" d="M3064,772.7c-1.1,2.3-2.2,4.4-3.4,6.8c-0.8-0.1-1.7-0.3-3-0.5c-0.2,1.7-0.4,3.3-0.6,5.8
	c-0.6-1.3-0.9-1.7-1.2-2.5c-0.4,0.1-1.1,0.3-1.8,0.4c-0.3,1.2-0.6,2.4-1,3.8c-3.3-1.3-6.6-1.5-9.4-3.6c-3.7-2.8-5.7-6.5-6.8-10.7
	c-0.8-3-1.4-6.1-1.7-9.2c-0.2-2.5-1-5,0.5-7.5c0.8-1.2-0.5-2.6,0.4-4.2c1.2-2,2.2-4.5,4.5-6.4c2.2-1.7,4.3-3.3,7.5-2.9
	c1.7,0.2,3.5-0.7,5.5-0.1c4.7,1.4,7.9,3.9,10.2,8.3c1.9,3.8,2.6,7.7,2.8,11.7c0.1,2.3-0.8,4.7-1.4,7
	C3064.8,770.2,3064.4,771.6,3064,772.7L3064,772.7z"/>
</svg>
