<?xml version="1.0" encoding="UTF-8"?>
<svg id="Layer_1" data-name="Layer 1" xmlns="http://www.w3.org/2000/svg" viewBox="0 0 7619.27 2482.99">
  <defs>
    <style>
      .cls-1 {
        fill: #00273c;
      }

      .cls-2 {
        fill: #fff;
      }

      .cls-3 {
        fill: #aeecff;
      }

      .cls-4 {
        fill: #3c85aa;
      }

      .cls-5 {
        fill: #44a7e1;
      }

      .cls-6 {
        fill: #73d4ff;
      }
    </style>
  </defs>
  <g id="bub">
    <path class="cls-2" d="M3331.35,234.79c-1.88-.68-3.72-1.82-5.64-1.97-22.6-1.75-42-10.61-57.44-27.06-8.57-9.13-12.85-20.68-13.23-33.37-.18-6.11-.03-12.22-.03-18.82,.91-1.14,3.04-2.76,3.7-4.85,3.93-12.29,10.92-22.06,20.34-31.09,10.17-9.74,21.72-14.28,35.06-15.81,2.36-.27,4.83,0,7.21,.31,4.76,.61,9.59,.19,13.1-2.93,7.04-6.25,15.38-4.69,22.27-2.3,5.18,1.8,10.16,1.57,15.58,2.8,3.17,4.39,10.51,6.51,8.3,15.5,2.04-.78,3.19-1.22,5.52-2.11,1.09,2.73,2.18,5.48,4.01,10.08-3.52-1.35-4.92-1.89-6.62-2.55,.37,5.33,3.84,5.72,7.98,4.89,.97,5.42,1.83,10.18,2.76,15.37-.94,1.04-2.14,2.35-2.43,2.66,.38,12.72,.56,24.38,1.14,36.01,.51,10.14-2.11,19.62-6.24,28.56-1.85,4.01-5.35,7.69-8.95,10.37-5.14,3.82-11.38,6.14-16.54,9.92-4.08,2.99-8.82,4.08-13.1,6.35h-16.75v.04Z"/>
    <path class="cls-2" d="M3170.63,14.12c-.19,.68-.59,2.09-.98,3.49,3.23,4.16,6.45,8.31,9.96,12.84,0,.04-.06,.67,.14,1.22,3.94,11.04,.38,22.27,.78,33.41,.41,11.48-1.61,22.63-5.39,33.61-5.37,15.6-16.12,25.12-31.45,29.78-6.14,1.87-12.57,2.91-18.94,3.86-3.05,.45-6.35,1.63-9.42-1.2-.78-.72-3.73,.92-5.63,2.16-3.3-.59-4.69-6.71-9.94-3.76-.55,.31-2.46-.84-3.07-1.76-2.31-3.53-6.41-4.27-9.68-5.82-16.74-7.93-28.41-21.23-37.1-36.68-10.59-18.82-6.79-49.83,13.79-64.88,9.7-7.09,19.56-12.18,31.07-14.61,2.41-.51,4.9-.82,7.2-1.63,19.41-6.88,38.43-4.65,57.13,2.61,3.65,1.42,6.75,4.26,11.52,7.36h0Z"/>
    <path class="cls-2" d="M3185.12,58.99c.17,1.23,.33,2.46,.5,3.69-.49,.12-.98,.24-1.48,.36-.39-1.22-.79-2.43-1.18-3.65,.72-.13,1.44-.27,2.16-.4h0Z"/>
  </g>
  <path class="cls-1" d="M3783.59,2482.97c.68-6.12,1.85-12.23,1.95-18.36,.83-50.64,.95-101.3,2.36-151.92,.77-27.68,3.56-55.3,5.56-82.95,1.42-19.72,3.22-39.41,4.45-59.15,.34-5.43-.76-10.96-1.37-18.5,.85-2.04,2.48-6,3.97-9.58-1.27-7.79-2.52-15.41-3.94-24.14,3.36-6.21,5.89-14.67,13.3-19.81,6.59-4.57,13.29-8.98,19.95-13.47,1.73-3.35,3.42-6.62,5.51-10.66-.44-1.71-1.11-4.02-1.63-6.37-.51-2.3-.86-4.64-1.36-7.41,9.03-1.68,17.39-3.24,26.91-5.01,3.07,4.52,6.44,9.47,10.2,15.01,5.68,1.13,11.63,2.32,16.54,3.3,8.72,6.6,9.76,16.86,16.26,24.62h16.07c9.05,7.47,21.41,7.3,33.51,3.38,10.72-3.47,21.86-4.41,32.62-4.79,20.28-.73,36.91,8.48,48.78,25.17,3.57,5.01,6.07,10.78,9.67,17.31,.22,1.23,.29,3.78,1.15,6.02,5.2,13.45,1.88,25.83-6.02,36.67-4.38,6-5.76,13.16-10.27,19.17-3.79,5.05-4.96,12.55-5.92,19.16-5.67,39.2-8.77,78.59-8.18,118.24,.26,17.29-.95,34.52-2.08,51.79-1.54,23.42-1.18,46.98-1.2,70.48,0,7.55-.9,14.77-3.47,21.82h-223.33v-.02Zm213.04-374.14l1.06,.7,.11-1.2-1.17,.5h0Z"/>
  <path class="cls-5" d="M6816.86,1768.13c2.85,5.26,6.99,3.5,10.98,.62,4.09,5.23,7.45,9.53,10.87,13.9-.54,3.95-1.03,7.59-1.53,11.24,2.42,7.61,4.83,15.21,7.64,24.05,1.66,.79,4.38,2.09,7.1,3.38,6.23,9.23,2.8,23.68-8.69,36.62,1.19,6.52,2.89,12.99,3.44,19.56,.6,7.17-5.26,12.5-6.78,19.01-1.65,7.08-6.54,11.58-10.64,15.86,.13,2.23,.04,3.5,.31,4.69,1.25,5.37,2.61,10.72,3.91,16.02,6.32,0,12.33-.58,18.18,.16,6,.76,11.86,2.73,17.73,4.34,5.25,1.44,10.43,3.14,15.65,4.69,17.46,5.17,29.62,16.73,39.28,32.41-.6,14.58-1.42,29.86,14.68,38.58,4.63-.74,4.14-5.53,6.41-8.39-1.7-3.16-3.44-6.38-5.18-9.59l-.47,.46c9.56,1.32,19.54,5.71,29.93,13.18,3.12,4.39,6.34,8.93,10.52,14.83,3.81,20.89,12.14,40.97,32.15,53.68,9.24-.57,8.34-10.52,14.2-13.98,3.21-1.5,5.88,.12,8.52,1.75,2.63,1.62,5.21,3.32,8.17,5.22,4.65-.25,9.46-.5,13.45-.71,7.25,4.59,6.28,10.96,5.87,17.58,2.37,3.2,4.92,6.64,7.56,10.2v37.62c10.61,6.29,20.59,13.55,27.67,23.81,1.9,2.76,1.75,6.93,2.51,10.33-6.02,7.77-11.62,15-17.43,22.5-7.76,.45-15.76,.9-24.28,1.39-13.04,11.86-29.64,12.86-46.21,14.04-3.34-2.11-6.38-4.03-9.42-5.95-.97,1.01-2.15,1.69-2.49,2.67-3.83,11.06-4.75,23.16-14.62,36.29-14.44,9.93-32.25,22.16-50.05,34.41-2.04,1.4-4.11,2.78-6.02,4.35-18.08,14.92-36.12,29.87-57.59,47.64-4.59,2.44-15.14,3.7-21.8,13.24,3.15,5.69,5.83,11.78,9.64,17.06,3.57,4.96,8.33,9.05,12.91,13.89-.67,4.24-1.33,8.42-2.05,12.95-4.72,3.18-9.3,6.27-14.7,9.91-1.69,3.7-3.73,8.16-6.06,13.26-11.98,8.22-19.6,22.19-34.3,31.51-.94,.14-3.95,.58-7.32,1.07-1.3,2.37-2.71,4.93-4.23,7.7-3.07-2.28-6.02-4.46-8.67-6.43-4.59-.5-9.07-.15-12.89-1.57-11.74-4.37-23.92-6.39-36.24-7.67-5.13-.53-9.73-1.63-13.94-6.26-.53-5.75-1.14-12.28-1.73-18.66-10.19-.76-19.03-.26-27.99,2.8-8.73,2.98-18.12,3.93-26.89,2.14-7.25-4.49-1.79-11.4-3.34-17.71-3.26,2.58-5.48,4.33-7.66,6.06-1.04-.78-1.95-1.45-3.78-2.82,4.29-5.11,8.55-10.18,13.54-16.12-2.69-1.16-5.17-2.22-8.41-3.62-.37-3.84-1.38-8.13-1.06-12.31,.73-9.37-1.9-17.01-9.23-23.11-1.79-1.49-2.71-4.02-4.5-6.79-4.36,3.05-8.7,6.13-13.08,9.14-3.05,2.09-5.9,4.8-9.28,6.02-19.22,6.95-31.18,21.44-41.37,39.27-12.59,8.12-24.31,20.01-42.52,19.15-6.35-4.56-12.98-9.05-19.28-13.97-2.83-2.21-5.9-4.89-7.24-8.05-3.24-7.62-9.35-11.77-16.46-14.02-15.36-4.84-27.22-14.41-38-25.78-11.14-11.76-24.19-21.22-37.07-30.92-20.76-15.63-41.44-31.37-61.81-47.49-6.25-4.95-11.48-11.21-17.01-17.02-17.52-18.39-36.41-35.31-55.17-52.38-9.14-8.31-17.06-17.95-26.18-26.29-13.71-12.54-28.08-24.35-41.97-36.7-10.19-9.06-20.05-18.48-31.25-28.86-4.37-1.43-10.17-3.58-16.11-5.22-15-4.15-26.61-13.33-35.62-25.44-12.19-16.39-22.36-34.04-32-52.15-16.05-30.18-26.95-62.45-40.41-93.67-3.18-7.37-5.45-15.13-8.02-22.75-3.94-11.72-7.7-23.5-11.68-35.21-5.78-17.01-11.55-34.01-17.63-50.91-1.16-3.24-3.73-5.97-5.55-8.8-5.59,2.35-10.03,6.49-13.33,12.44,1.24,8.28,2.5,16.77,3.53,23.63-5.95,13.36-14.8,19.83-27.09,23.06-7.04,1.85-13.49,6.09-20.06,9.52-8.21,4.29-16.45,8.57-24.32,13.42-5.18,3.19-9.74,7.38-14.93,11.39,.57,6.02,1.08,11.43,1.51,15.93,2.7,3.72,4.8,6.63,7.42,10.25-4.29,5.26-8.1,9.94-11.91,14.62-4.78,6.75,.79,13.12,1.02,19.53-3.24,6.22-6.36,12.21-9.68,18.6-2.86,.89-5.72,2.35-8.68,2.57-7.33,.54-12.88,4.37-17.88,9.06-9.48,8.88-18.68,18.07-28.01,27.12-3.54,3.43-7.16,6.79-10.69,10.24-7.52,7.34-18.42,9.32-25.68,17.87-6.23,7.34-15.6,12.02-25.08,15.34-16.72,13.8-38.43,20.11-53.84,35.9-1.7,1.74-3.81,3.25-5.99,4.35-23.17,11.74-44.54,26.54-66.83,39.76-12.07,7.16-23.39,15.59-36.11,21.78-3.18,1.55-5.5,4.87-9.01,8.11-10.38-.64-18.64,6.85-27.93,11.25-19.52,9.25-38.9,18.73-58.94,26.85-3.84,1.56-7.12,4.52-9.82,6.29-1.79,8.49-3.31,15.67-4.73,22.4-3.87,2.48-6.94,4.45-10.09,6.48-.68,1.75-1.79,3.43-1.9,5.17-.28,4.19-.09,8.41-.09,12.89-5.49,3.14-12.22,2.48-16.74,7.45-1.6,1.76-5.85,1.04-8.85,1.63-4.78,.93-9.53,2.01-14.47,3.06-2.62,5.63-4.95,10.63-7.35,15.77-.34,7.33-.68,14.73-1.05,22.51-8.06,4.61-16.83,3.18-24.47,4.49-11.76-7.91-11.38-24.68-26.29-30.36-16.85,.77-31.91,13.74-51.06,13.36-1.46-1.41-3.19-3.03-4.87-4.71-1.29-1.29-2.5-2.65-3.51-3.72-1.62-.33-2.82-.74-4.03-.78-3.06-.1-6.13-.03-9.3-.03-.88,.99-2.07,1.75-2.38,2.78-1.6,5.28-2.98,10.63-4.57,16.47-3.32,1.89-7.01,3.99-10.81,6.15-2.56-.89-4.83-1.68-7.3-2.54-3.68-8.6-7.29-17.04-11.07-25.89-11.78-3.35-24.02-2.68-36.44-3.18,0-3.02-.73-5.36,.12-6.36,5.57-6.58,6.51-14.49,7.3-23.68,2.17-1.81,5.5-3.74,7.62-6.56,2.51-3.33,5.24-7.31,5.63-11.23,.73-7.29,4.73-12.54,8.28-18.31,2.57-4.17,5.34-8.5,6.61-13.15,8.04-29.39,20.36-57.09,33.83-84.21,12.1-24.36,25.57-48.05,38.71-71.88,1.71-3.11,5.08-5.3,7.94-8.17,2.62,2.95,4.86,5.48,7.35,8.29,9.39-4.06,10.4-11.79,10.47-20.63,1.13-1.59,2.62-3.55,3.95-5.61,5.55-8.53,13.5-11.81,23.54-12.5,14.88-1.02,29.27-4.38,41.39-13.42,4.02-7.35,7.86-14.36,11.58-21.15,7.59-.54,13.57,2.23,20.73,6.26,7.28-1.69,15.64-3.63,22.6-5.24,8.67-9.22,16.23-17.25,23.61-25.09,7.05,.92,12.62,5.28,18.91,3.18,4.64-1.55,9.05-3.77,13.56-5.7,22.84-9.79,42.72-24.85,64.7-36.16,4.93-2.54,10.17-4.48,15.1-7.01,3.79-1.95,7.38-4.31,10.94-6.67,2.01-1.33,3.56-3.75,5.71-4.44,9-2.88,16.3-8.42,24.13-13.4,6.21-3.95,12.42-7.93,18.57-12.01,4.63-3.08,9.35-6.64,14.56-8.11,9.8-2.76,17-9.74,25.77-14.09,8.86-4.39,17.43-9.37,26.03-14.27,2.64-1.5,4.79-3.87,7.43-5.36,9.68-5.43,19.06-11.75,29.34-15.69,13.34-5.11,26.91-9.33,37.97-19.47,13.59,1.5,26.89,.26,40.33-3.61,3.05,1.26,6.46,2.67,10.98,4.53,12.17-3.39,25.17-7.01,37.67-10.49,6.2-4.89,11.65-10.11,17.97-13.89,5.98-3.58,5.78-12.93,14.52-13.97,6.74,6.05,10.69,16.43,22.4,17.51,3.37-6.48,2.73-13.3-1.85-17.27-14.42-12.49-11.16-28.8-11.7-44.61-.57-16.44,4.12-31.96,8.33-47.36,4.5-16.45,14.98-30.02,27.96-40.84,21.49-17.92,44.47-33.15,72.43-40.09,19.78-4.91,38.68-13.37,58.45-18.39,25.72-6.52,51.01-14.57,77.34-19.16,21.88-3.81,44.12-5.45,65.74-10.69,13.03,1.25,25.4-4.29,38.52-3.52,7.26,.43,14.64-2.3,22.01-2.6,21.66-.89,43.34-1.66,65.02-1.78,32.18-.19,64.37-.05,96.55,.53,11.1,.2,22.16,2.24,33.24,3.29,7.97,.76,15.96,1.27,26.59,2.11,5.51,2.1,13.61,5.15,21.69,8.26,8.08,3.12,16.01,6.43,25.07,6.01,2.72-.13,5.56,2.25,8.9,3.73-2.27,3.64-4.39,6.52-5.94,9.69-1.6,3.25-2.63,6.78-4.37,11.41,1.6,1.93,3.78,4.83,6.26,7.44,2.12,2.23,4.59,4.13,6.79,6.07,7.39,1.66,14.51,3.27,22.11,4.98,2.02-3.02,4.33-6.46,7.21-10.75,3.18,4.87,5.77,8.83,8.39,12.85-2.96,2.53-5.68,4.86-8.36,7.15,3.03,6.44,7.98,10,14.32,13.44,13.3-4.01,25.58,4.5,39.04,4.78,2.52,3.25,4.38,6.57,7.1,8.85,2.22,1.86,5.47,2.48,8.27,3.65,1.4,3.78,2.78,7.23,3.95,10.74,.78,2.33,.51,5.57,2.03,6.99,8.12,7.56,8.16,19.2,14.46,27.54,4.34,5.75,5.4,12.34,6.06,19.21,.93,9.82,2.14,19.61,3.23,29.45,4.37,3.4,8.2,6.38,12.33,9.59,1.08,3.16,2.27,6.63,3.67,10.75,2.63,.83,5.5,1.73,8.99,2.82,1.92,3.24,4.1,6.92,6.67,11.27,2.97,1.05,6.43,2.26,9.89,3.48l-.44-.45-.02-.02Z"/>
  <path class="cls-5" d="M641.09,882.49c1.11,8.14,2.08,16.28,2.88,24.44,2.14-7.17,1.44-14.59-2.26-23.02-.21-.47-.41-.95-.62-1.42Z"/>
  <path class="cls-5" d="M617.19,808.85c-.12,.83-.23,1.67-.35,2.5,.36,.28,.69,.58,1.04,.86-.23-1.12-.46-2.24-.69-3.36Z"/>
  <path class="cls-5" d="M1300.33,706.57c-3.6-3.11-6.23-5.74-9.2-7.89-16.1-11.7-30.64-25.19-44.67-39.22-6.17-6.17-12.59-11.61-20.31-15.86-8.93-4.92-15.38-12.53-17.94-22.71-3.44-13.62-11.85-24.46-19.86-35.41-3.18-4.34-7.78-8.31-12.61-10.65-13.26-6.41-26.65-12.95-42-12.85-3.05,.02-6.1-.5-8.18-.68-8.65-6.23-17.53-8.76-26.62-7.6-1.93,1.73-4.47,3.58-6.48,5.89-2.37,2.73-4.29,5.86-5.64,7.74,2.56,19.07,4.94,36.74,7.21,53.64-4.97,9.84-15.19,10.91-22.35,15.4,1.2,10.7,11.18,13.48,15.76,20.62,0,3.73,.59,7.48-.12,10.97-1.69,8.4-5.41,16.63-5.68,25.02-.35,10.68-4.62,18.78-10.56,24.73-.92,7.11-1.78,12.53-2.27,17.98-.48,5.33-.58,10.69-.88,16.79-8.35,2.63-16.78-1.53-25.23-.58-3.33,.38-6.94-1.73-10.43-2.71-1.52-3.94-2.79-7.25-4.33-11.24-13.65-2.73-27.54-5.24-41.3-8.39-5.22-1.2-11.16-2.3-13.23-8.63,.27-1.34,.36-2.59,.77-3.73,7.11-19.9,23.67-34.78,29.49-55.41,.44-1.57,2.57-2.62,3.79-4.02,5.24-6.01,6.44-13.05,5.17-20.73,1.96-3.8,3.93-7.62,5.68-11.01-.77-2.7-1.36-4.75-1.96-6.83,4.01-1.1,7.47-2.05,11.03-3.02-.51-3.52-.94-6.5-1.4-9.7,1.63-1.77,3.27-3.56,4.79-5.22-.18-1.93-.35-3.75-.49-5.35,4.64-7.57,9.14-14.91,11.81-19.26,1.49-17.39,2.69-31.37,4.04-47.12-4.11-4.82-9.18-10.76-13.77-16.14-11.75-.5-13.86,9.98-20.42,15.86-7.47-12.21-17.81-19.69-30.02-25.04-7.4-3.24-13.68-7.97-19.25-14.18-5.28-5.89-11.59-12.01-18.71-14.83-9.67-3.83-19.06-8.13-28.54-13.71-3.76,4-7.02,7.47-10.09,10.74-6.31-1.75-2.78-7.76-5.91-11.09-5.35-3.42-11.08-7.08-16.73-10.69-1.34-2.94-2.6-5.72-3.65-8.02-3.79-2.91-7.57-5.16-10.49-8.23-2.83-2.97-4.78-6.78-7.04-10.12-15.43,3.53-29.88,6.58-44.17,10.24-4.59,1.17-9.74,1.93-12.81,6.72-1.33,2.08-3.77,3.13-7.46,1.31-3.72-8.73-7.77-18.24-12.18-28.59-2.44-1.01-5.76-2.4-8.72-3.63-12.32,10.49-12.38,10.47-15.53,22.87-4.12,16.24-6.99,32.49-2.76,49.31,1.17,4.66,.48,9.84,.29,14.77-.52,13.61-1.3,27.21-1.79,40.82-.17,4.71,1.49,8.5,8.06,9.8,2.04-1.81,5.69-3.66,7.05-6.58,2.33-4.97,3.42-10.57,4.66-15.99,1.3-5.69,2.69-11.28,6.49-18.66,.43,4.93,1.03,7.4,.76,9.77-.42,3.64-1.43,7.21-2.2,10.81-3.36,15.77-6.25,31.63-4.78,47.82,.83,9.19,2.5,18.15,1.76,27.6-.77,9.68,.72,19.57,1.52,29.34,.66,7.96,1.8,15.89,2.67,23.83,.53,4.83,2.35,9.78-1.43,14.79-6.53,.52-9.26-4.31-11.98-9.14,.26-2.9,.51-5.75,.83-9.45-5.64-.32-10.43-.6-13.81-.79-13.26,6.74-20.73,20.4-36.77,20.53-.54-2.41-1.59-4.74-1.48-7.02,.26-5.51,1.33-10.98,1.57-16.49,.63-14.17,.5-28.38,1.56-42.51,1.44-19.3,.72-38.3-5.14-56.86-1.93-6.11-2.27-12.13-.43-18.25,1.6-5.32,3.15-10.66,4.92-15.93,.3-.89,1.61-1.44,2.77-2.41,3.07,3.67,6.14,7.34,9.83,11.76,3.48-1.98,6.44-3.66,8.97-5.1,.3-2.87,.77-4.73,.64-6.55-1.59-22.05-6.53-44.1,.28-66.13,.34-1.11-.17-2.46-.14-3.69,.35-16.37-3.45-31.91-9.29-47.42-3.46-3.19-7.07-6.53-10.74-9.91-3.74,1.48-7.1,2.8-8.94,3.53-3.12,7-5.69,12.44-7.97,17.99-5.49,13.38-6.78,26.41,3.59,38.37,1.18,1.36,1.85,3.17,2.93,5.08-.06,13.22,5.9,25.83,6.07,40.86-3.99-4.21-7.38-7.05-9.85-10.53-11.53-16.3-27.79-23.93-47.06-25.62-7.03-.61-13.08-3.51-19.48-5.72-.63-.22-1.32-.27-2.06-.26-21.63,33.42-35.63,70.87-40.87,110.45-9.45,71.42,6.65,143.34,21.5,212.92,.59,.19,1.18,.41,1.78,.66-.22,1.56-.43,3.09-.65,4.64,3.47,16.3,6.93,32.68,10.12,49.13,8.38,11.02,14.17,23.49,20.02,35.7,6.07,12.68,12.46,25.53,14.82,39.87,2.1,12.75,5.54,25.27,8.31,37.9,1.18,5.39,1.07,11.35,3.42,16.13,5.79,11.81,9.23,24.11,9.93,35.6,3.83,3.58,6.52,6.06,9.17,8.57,2.17,2.06,3.96,4.81,6.5,6.11,10.13,5.2,17.48,13.8,26.15,20.76,1.77,1.42,2.7,3.89,4.33,6.35-3.53,2.96-6.6,5.54-9.78,8.2,1.37,2.34,2.21,3.94,3.23,5.41,.3,.43,1.1,.5,1.68,.74,28.26-13.34,36.55-15.09,53-11.05,7.6,15.27,15.71,30.58,22.88,46.3,5.73,12.56,12.26,23.99,29.41,30.24-3.9,2-5.47,2.9-7.11,3.62-3.35,1.47-6.74,2.83-10.23,4.29-7.7-3.23-15.06-6.31-23.18-9.72-.95-3.95-1.99-8.05-2.93-12.17-.87-3.85-2.49-6.95-7.54-7.72-18.23,10.51-31.9,27.72-50.12,40.22-4.9-6.58-10.67-10.99-18.06-13.99,5.82,4.35,11.05,9.43,14.58,15.59,4.02,7.01,6.28,18.74-.07,25.17-5.56,5.63-13.88,9.25-20.79,12.84-19.8,10.29-40.33,19.08-60.19,29.23-11.41,5.83-21.78,13.94-32.46,20.98-14.96,9.86-30.07,19.51-45.53,28.58-12.53,7.35-25.41,14.48-38.63,20.89,6.98-.81,13.95-1.78,20.94-2.65,1.18-.15,2.44,.3,3.77,.49,4,3.57,8.06,7.21,11.77,10.52,12.39-1.6,23.9-3.08,35.34-4.56,3.67,4.02,7.09,7.6,10.31,11.35,3.14,3.65,7.95,6.15,8.44,12.74-4.77,8.32-9.94,17.34-14.26,24.88,1.39,6.05,2.41,10.53,3.55,15.5,2.3,.49,5.19,1.11,7.82,1.67,5.12,4.65,2.6,10.65,2.79,11.9,4.92,11.61,8.25,19.49,12.25,28.91,4.2,4.78,9.5,10.8,14.02,15.94,8.56,3.27,15.98,6.1,24.69,9.42,11.79-1.44,24.35,2.05,35.64,4.92,9.49-4.1,17.9-7.72,26.45-11.41,4.55-7.68,9.19-15.54,13.89-23.47,6.75-1.57,13.07-4.53,19.95-2.14,.02,7.32-7.67,4.98-10.7,9.46,3.25,3.97,6.57,8.04,9.95,12.17-3.14,5.74-5.79,10.58-8.92,16.32,.65,4.03,1.41,8.69,2.18,13.52,5.06,1.36,9.39,2.05,13.33,3.7,4.45,1.86,8.54,4.59,12.04,6.52,7.09-1.29,13.12-2.68,19.23-3.44,6.72-.84,13.51-1.1,16.37-1.32,10.39-3.73,17.21-6.19,25.29-9.09,4.84-5.52,10.54-12.03,16.24-18.53-.38-.22-.76-.44-1.15-.66,3.73-7.64,7.46-15.29,11.7-23.96-.29-4.49,.84-9.11,3.41-13.85,2.48-1.65,6.36,1.19,8.11-2.62-.29-2.35-.58-4.7-.87-7.04,.79-.94,1.72-1.8,2.35-2.84,.9-1.47,1.59-3.07,1.95-3.78-7.6-12.89-14.76-25.03-22.17-37.59-3.79,1.79-7.02,3.32-10.9,5.15-5.24-1.65-10.97-3.46-17.23-5.43,1.15-2.37,1.62-4.23,2.74-5.51,4.06-4.6,8.35-9.01,12.95-13.91,7.28,2.49,14.13,4.24,21.82,2.5,5.09-1.15,11.65-.41,16.29,1.97,11.96,6.13,24.44,6.08,37.04,6.49,3.8-3.97,7.14-7.47,10.13-10.59,2.71,0,4.59-.28,6.37,.04,15.15,2.74,30.06,7.46,45.83,3.61,3.38-.83,7.39,.35,10.99,1.14,11.47,2.52,22.87,5.35,34.33,7.9,1,.22,2.26-.72,4.1-1.36-.27-2.17-.67-4.48-.82-6.81-.14-2.33-.03-4.67-.03-6.36-7.11-4.74-12.72-10.25-19.45-12.63-19.24-6.79-38.92-12.37-58.47-18.27-6.59-1.99-13.33-2.4-20.24-1.37-6.73,1.01-13.55,1.49-20.24-.59-3.6-2.51-7.31-4.79-10.66-7.52-3.24-2.64-8.41-2.78-10.2-8.38,5.19-7.01,10.64-14.4,16.12-21.77,2.22-2.98,4.46-5.95,6.79-8.84,21-26.1,41.13-53,58.23-81.69,17.55-29.44,40.33-54.92,58.89-83.49,.89-1.37,3.09-1.9,4.83-2.91,4.18,.8,8.38,1.61,12.11,2.32,4.27-2.3,7.97-4.3,11.12-6,4.15,2.01,7.44,3.61,10.09,4.9,5.72-1.66,10.46-3.03,15.04-4.36,3.89-3.28,7.62-6.42,10.02-8.45,5.91-.59,10.02-1,14.22-1.43,1.28-4.9,2.31-8.86,3.4-13.02,4.93-.54,9.15-1,13.21-1.45,7.61-9.96,19.19-15.36,26.56-25.33,1.58-2.14,5.39-2.64,8.1-3.87,5.42,2.69,10.17,5.69,15.33,7.45,5.77,1.96,11.93,2.78,17.41,3.99,7.71-4.44,16.29-5.08,22.64-12.05v-25.48c17.73-25.54,30.3-53.46,38.2-85.2,1.3-1.52,3.68-4.3,4.77-5.57,4.24-10.29,4.76-19.85,9.8-27.18,2.5-.38,4.19-.63,5.75-.87,4.78-22.82,10.99-44.74,12.86-67.75,1.85-22.74,4.63-45.29,2.34-67.65Zm-600.82,25.81c2.85-1.07,3.76,.72,3.9,3.21-1.89,1.65-3.84,2.43-5.14-.4-.3-.65,.54-2.55,1.24-2.81Zm2.61,70.87h-.01c-1.95-1.1-4.57-1.75-5.83-3.41-8.03-10.67-15.77-21.56-24.87-34.13,5.15-1.9,8.55-3.15,13-4.78,4.6-6.91,10.23-14.22,20.49-15.35,3.53,.88,5.05,3.83,4.74,6.86-.82,8.01,1.26,15.63,2.98,23.56-3.15,2.46-5.92,4.63-8.8,6.88-.06,6.56,2.91,13.29-1.7,20.37Zm35.91,499.28h0c-15.8-1.34-21.11-15.24-32.07-22.74-2.69-12.32-12.85-21.62-16.61-34.44,2.52-1.92,4.43-4.65,6.3-4.62,11.73,.19,20.88-6.22,30.68-11.06,.52-.26,1.21-.15,3.06-.34,14.68,14,36.08,18.38,54.27,32.42-13.67,16.93-29.85,28.92-45.63,40.78Zm80.78-99.77h0c-14.65-7.98-14.96-8.26-21.24-19.42,8.59-11.55,17.35-23.34,26.24-35.3,9.71-3.65,18.66-4.13,25.68-9.32-.03-4.47-1.2-8.35-3.52-11.65-.54-3.25,3.1-7.04,13.23-13.73,7.04,.24,10.92,4.57,13.45,10.57-6.32,13.13-43.31,67.27-53.84,78.85Zm98.97-145.15c-3.5-4.83-4.6-11.73-3.31-20.69,4.46-6.15,10.91-6.26,17.64-5.48-1.73,10.34-7.62,18.24-14.33,26.17Zm14.8-26.49c.3-2.02,1.17-3.4,3.44-3.24-.43,1.86-1.32,3.21-3.44,3.24Zm12.07-9.97h-.01c-2.1,2.63-5.51,4.23-8.38,6.26-2.12-4.7-4.25-9.43-6.81-15.12,.44-2.17,1.12-5.55,1.83-9.03,6.71,.72,11.9,3.43,16.92,9.06-.99,2.64-1.55,6.31-3.55,8.83Z"/>
  <path class="cls-5" d="M6090.49,798.97c2.1-8.85,7.46-15.53,12.78-22.34-.09-9.38,5.47-18.07,2.03-27.89-1.23-.89-2.7-1.95-3.99-2.89-4.37,.82-8.45,1.58-13.3,2.48-1.55-3.38-3.55-5.97-3.86-8.75-1.76-15.44-9.01-28.35-19.08-39.46-6.42-7.08-11.75-14.18-12.16-22.87-2.74-2.54-4.5-4.18-6.71-6.23,3.46-6.6,6.64-13.36,3.62-20,4.05-8.3,7.91-15.39,11.05-22.78,5.8-13.65,11.13-27.51,16.8-41.22,1.16-2.81,2.47-5.93,4.63-7.91,7.02-6.45,6.6-13.72,4.44-22.12-1.83-7.11-2.98-14.67-2.75-21.98,.38-11.95-1.44-23.4-4.33-34.87-2.39-9.5-2.32-20.1-6.64-28.52-1.09-2.12-2.05-4.24-2.9-6.38-.69-.27-1.38-.52-2.07-.8-27.08-10.95-51.62-26.69-77-40.93-16.28-9.13-33.06-17.26-50.61-23.16-3.56,2.17-6.96,4.7-10.21,7.66-7.72,7.04-16.78,12.59-25.01,19.11-3.78,2.99-6.98,6.7-9.62,9.28,.57,3.82,.93,6.17,1.27,8.45-1.95,1.39-3.3,2.92-4.96,3.45-17.85,5.67-34.77,12.79-48.65,26.09-4.3,4.12-10.18,7.14-17.05,5.24-2.33-3.54-4.65-7.05-7.55-11.44-4.51,2.84-8.54,5.39-10.91,6.89-8.55,14.33-19.43,25.16-21.56,40.01-4.2,1.35-7.55,2.43-10.54,3.4-.65,4.42-1.17,7.95-1.86,12.67-9.85-4.3-18.74-8.18-27.31-11.91-1.1-2.6-2.05-4.84-3-7.07-16.66,6.48-34.21,6.65-51.24,10.58-4.58,2.66-9.37,5.43-13.66,7.92-20.56-2.11-16.48-3.54-40.13,12.14,.63,12.86-2.98,24.75-11.04,35.73-7.24,9.87-12.96,20.85-20.37,33.02,4.73,7.96-5.57,17.02-.85,26.53-3.04,5.19-5.84,9.96-8.37,14.29,.57,3.08,1.01,5.48,1.56,8.47-3.5,3.14-7.09,6.36-11.13,9.98,3.11,7.82,1.74,15.48-.54,23.25-4.34,14.82-8.73,29.65-12.28,44.68-1.68,7.11-1.93,14.67-1.98,22.03-.1,14.8-.92,29.53-2.45,44.24-.84,8.06-2.31,15.93-6.78,21.83,.92,9.68,2.06,18.23,7.4,25.68,2.48,1.57,5.06,3.22,7.97,5.06,1.53,4.44,3.14,9.1,4.74,13.76,3.4,9.92,7.34,19.5,12.27,28.88,5.08,9.67,8.88,20.11,12.21,30.78,3.98,12.74,9.98,25.21,17.36,36.73,2.96,4.62,5.14,9.72,7.75,14.75-2.41,3.46-4.46,6.39-6.78,9.71,5.18,10.48,11.39,20.33,18.54,29.66,2.97,3.88,6.14,7.96,7.73,12.47,7.44,21.08,21.9,37.07,37.47,53.05,1.34,3.51,2.2,7.98,4.54,11.45,6.15,9.13,12.95,17.83,20.1,27.53-4.89,4.3-9.37,8.45-14.08,12.32-10.05,8.24-20.82,15.72-30.17,24.68-8.53,8.17-18.01,14.54-27.5,20.26-13.07-2.66-24.55-11.87-37.92-4.84-4.26-1.46-8.27-3.28-12.48-4.1-1.93-.38-4.24,1.19-5.89,1.72,1.99,6.17,3.28,11.42,5.38,16.32,2.11,4.92,5.03,9.48,7.44,13.92-6.06,13.03-17.9,22.25-21.35,35.03,2.76,8.92,10.81,3.73,14.58,7.95,2.58,10.15,6.88,18.41,12.91,24.78,9.67-3.5,19.3-6.99,29.03-10.52,1.15,5.71,2.12,10.52,2.86,14.2,9.76,12.03,18.25,23.5,27.85,33.98,6.29,6.87,12.56,13.67,17.64,21.45,2.98,4.56,4.62,10.27,8.32,14.03,5.05,5.14,7.57,11.14,9.19,17.98,4.61,3.35,9.31,6.35,13.51,9.93,4.18,3.57,8.22,7.43,11.69,11.68,9.35,11.45,18.35,23.19,27.52,34.78,3.44,4.34,6.2,9.85,10.65,12.61,7.68,4.77,12.44,11.89,18.23,18.23,2.08,2.28,4.08,4.77,6.56,6.51,13.78,9.64,24.83,22.33,37.34,33.37,7.82,6.9,11.55,15.56,11.89,26.24,.29,9.2,2.22,18.36,3.62,27.51,.13,.82,1.68,1.43,2.61,2.17,4.08-1.2,8.19-2.41,12.57-3.71,6.8,4.39,13.44,8.77,20.2,12.96,.83,.52,2.26,.07,3.46,.07,1.61-3.09,3.24-6.21,4.6-8.8,7.01-1.47,11.54,1.63,16.11,4.92,.67,.48,2.24-.27,3.49-.46,1.95-2.83,3.93-5.72,6.29-9.16,8.61,2.88,16.97,5.39,26.78,2.14,1.11-4.11,8.6-2.41,9.83-9.37-8.82-10.47-17.94-21.3-27.04-32.1,.7-4.5,1.34-8.62,1.82-11.69,1.27-1.39,1.6-2.09,2.11-2.28,22.7-8.12,40.96-22.24,56.51-40.5,10-11.74,20.95-22.66,31.43-33.99,2.1-2.27,4.12-4.65,5.95-7.14,14.76-20.09,32.44-37.46,52.06-52.55,10.58-8.14,16.89-17.53,18.58-30.32-2.26-4.45-4.44-8.76-6.38-12.57,4.1-6.03,7.57-11.12,11.31-16.62-3.6-2.97-6.87-5.67-9.94-8.21-1.96-5.53-3.82-10.76-4.94-13.91-3-5.76-9.78-3.67-10.36-9.58,4.64-8.16,14.85-13.45,13.75-25.23-7.41-1.92-14.46-3.74-20.92-5.41-7.85-9.94-15-19-21.68-27.47,.57-2.78,.94-4.57,1.27-6.18-4.21-6.45-8.69-12.44-12.22-18.95-3.53-6.51-5.95-13.61-9.11-20.33-11.86-25.23-23.64-50.49-40.14-73.21-4.29-5.91-7.44-12.66-11.15-19.09,4.93-9.24,9.6-17.9,14.19-26.59,13.53-25.62,27.23-51.15,40.44-76.93,4.7-9.18,11.19-16.09,19.65-20.08,2.09-4.02,3.76-7.22,4.44-8.53,7.15-5.38,12.48-1.98,18.74-1.22,2.86-1.74,6.27-3.82,9.71-5.92,.05,.07,.1,.14,.14,.22,3.81-.36,5.28-2.93,5.35-6.27,.06-2.96-.46-5.92-.69-8.48,11.03-6.39,15.11-16.89,20.81-25.81-.77-3.06-1.36-5.43-1.95-7.79,1.39-5.35,2.77-10.7,4.08-15.72-2.39-3.2-4.55-6.09-6.54-8.77,1.27-4.2,2.31-7.64,3.61-11.93-6.21-3.82-12.42-7.65-17.67-10.89-3.69-5.3-6.8-9.76-10.15-14.58,3.34-3.61,6.89-7.07,10-10.9,2.72-3.35,6.2-6.81,7.13-10.75v.08Zm-14.17,131.55c-3.17,1.15-6.26,1.49-9.25-1.32,4.14-4.63,6.82-2.35,9.25,1.32Z"/>
  <path class="cls-5" d="M5591.36,1241.52c.91,.13,1.82,.26,2.72,.38-.91-.13-1.82-.26-2.72-.38Z"/>
  <path class="cls-5" d="M4538.68,1120.29c1.16,4.76,1.44,9.98,3.64,14.19,5.5,10.52,8.63,21.74,11.56,33.09,.77,3,1.33,6.08,2.4,8.96,7.94,21.28,8.21,42.16-2.92,62.54-.59,1.07-.92,2.29-1.38,3.44-.63,5.37,2.66,10.57-.69,16.34-1.95,3.36-1.11,8.46-1.13,12.78-.05,12.35-.25,24.72,.25,37.06,.67,16.66,1.49,33.33,3.07,49.92,2.33,24.46-2.35,48.13-7.42,71.71-4.42,20.56-11.99,40.23-19.12,59.97-2.72,7.53-6.05,14.85-9.37,22.15-3.85,8.45-8.29,16.63-11.96,25.15-6.42,14.93-13.61,29.23-29.77,39.94-1.59,.55-6.34,1.03-9.48,3.52-10.64,8.43-20.76,17.52-30.92,26.53-1.27,1.12-1.6,3.3-1.88,3.91,4.24,9.62,8.13,18.44,12.16,27.58,2.92,1.91,6,3.92,9.81,6.41,1.21,2.69,3.58,5.93,4.05,9.43,1.31,9.72,6.5,17.18,12.34,24.54,5.76,7.26,11.1,14.85,16.76,22.47-1.91,2.09-3.42,3.74-5.48,5.99,1.68,13.09,7.57,25.02,14.36,36.19-1.29,2.72-2.34,4.94-3.66,7.72,6.18,10.48,6.95,23.13,13.69,33.92,4.06,6.5,4.7,15.16,6.7,22.89,1.7,6.55,3.15,13.17,4.92,20.66-1.82,2.32-4,5.09-6.19,7.88-5.55-.6-10.41-1.12-15.89-1.71-7.6,3.1-15.6,6.36-22.96,9.37-6.18,7.96-11.85,15.25-18.13,23.34-6.02,1.22-12.65,2.57-20.89,4.24-2.4,2.24-5.96,5.58-9.13,8.53-5.81,1.52-11.05,2.77-16.21,4.27-4.16,1.2-8.17,3.64-12.35,3.88-8.85,.51-16.88,3.56-24.96,6.53-6.56,2.42-13.07,3.68-19.85,1.87-7.79-4-3.26-10.85-3.99-17.57-12.79-7.4-26.28-14.27-44.19-16.75-2.15-2.9-5.48-7.4-7.11-9.59-7.35-3.06-11.99-4.73-16.39-6.88-7.19-3.52-14.02-7.87-22.49-7.84-1.76,0-3.84-.67-5.23-1.73-8.56-6.55-19.14-8.31-28.68-12.5-17.13-7.52-31.95-18.43-45.94-32.14,.49-3.72,1.04-7.86,1.8-13.59-3.39-6.12-7.57-13.68-12.04-21.75-3.38-1.82-7.14-3.85-11.19-6.03-.68-3.57-1.35-7.12-2.21-11.62-3.51-2.42-7.5-5.16-11.31-7.79-6.65,.73-12.7,1.4-19.37,2.14-3.47-8.46-7.57-15.55-1.57-24.72,2.62-4.01,1.59-10.4,2.38-17.04-.93-1.55-2.5-4.14-4.14-6.86,.4-3.49,.81-7.09,1.25-10.94,6.25-2.62,13.62-2.69,17.92-8.7,1.13-27.34-1.44-51.12-7.73-71.35,.96-18.22,1.94-36.74,2.95-56.04-4.16-12.64-9.35-25.79-10.17-40.2-.72-12.61-3.67-24.25-15.01-32.52-4.22-3.08-6.4-8.95-8.8-12.51-2.21-8.27-4.1-15.36-6.11-22.9-6.36-1.95-12.19-3.73-18.24-5.59-4.71-5.19-.57-11.95-2.17-17.99-4.49-7.37-9.19-14.63-13.41-22.15-3.61-6.43-7.46-12.89-5.16-20.97,.62-2.17-.02-4.8-.5-7.14-.63-3.02-1.99-5.91-2.5-8.94-1.9-11.39-5.79-22.51-2.41-34.5,1.25-4.44-.58-9.75-1.07-15.36,3.55-6.18,7.5-13.07,11.89-20.72,3.75,1.11,7.14,2.13,10.72,3.19,.7-3.58,1.4-7.13,2.06-10.54,3.34-1.98,6.45-3.82,10.25-6.07-.71-2.51-1.51-4.71-1.93-6.98-.42-2.25-.46-4.58-.63-6.46,7.06-5.22,12.36,.22,17.44,1.71,1.39-1.57,2.94-2.6,2.8-3.28-1.56-7.65,2.6-13.33,7.1-18.21,9.2-9.96,19.11-19.26,28.99-29.09v-5.44c15.11-7.83,25.78-20.12,32.85-35.85,4.39-9.76,9.77-18.91,21.87-20.74,.66,3.67-1.04,8.62,5.92,9.4,.22-2.08,.43-4.12,.68-6.55-2.83-.92-4.99-1.63-7.14-2.33,1.53-13.38,9.29-24.13,15.34-35.53,4.33-8.16,9.64-15.8,14.49-23.69,10.25-16.69,23.47-30.51,41.41-38.58,10.04-4.52,21.07-6.93,31.77-9.9,6.5-1.8,13.23-2.8,19.83-4.26,9.64-2.13,19.12-4.33,29.22-4.45,9.62-.12,19.18-2.96,28.82-4.31,2.43-.34,4.83-1.09,7.27-1.27,6.7-.51,12.92,2.59,20.15,1.17,6.16-1.21,13.13,1.78,19.75,2.87,15.57,2.56,29.77,8.85,42.5,17.75,17.2,12.03,34.62,23.98,48.15,40.45,2.33,2.83,5.43,5.75,6.12,9.06,2.48,11.92,12.69,19.5,14.82,30.54,3.22,.71,5.01,1.1,6.79,1.5l-.46-.51,.02-.02Z"/>
  <path class="cls-5" d="M3861.63,808.89c2.34-3.31,4.36-6.96,5.96-11.07-7.32-5.56-4.17-16.83-11.49-21.51-2.22-.92-4.35-1.26-6.4-1.27,4.02,11.27,7.99,22.55,11.93,33.85Z"/>
  <path class="cls-5" d="M3898.83,976.14c-8.63-10.5-12.12-23.23-10.45-37.5,.34-2.89-1.16-6.01-1.79-9.02-.89-4.23-2.06-8.43-2.59-12.7-1.37-11.07-3.46-21.9-7.6-32.35-4.08-10.32-7.57-20.88-11.96-33.13-5.3-8.42-16.29-16.47-13.38-31.16,1.03-.89,2.04-1.8,3.02-2.74-4.72-13.6-9.49-27.19-14.33-40.75-2.61,.65-5.12,1.16-7.6,.88-5.07-2.17-7.98-5.02-7.47-11.72,1.94-3.7,4.28-8.19,6.58-12.6-13.39-36.46-27.61-72.62-43.38-108.09-5.28-5.27-9.44-9.43-11.42-11.41-8.85-3.66-14.49-6-20.11-8.33-7.4,7.21-14.82,14.44-22.52,21.94,.28,2.52,.68,6,1.16,10.21-6.44,2.37-12.06,4.43-17.27,6.34-3.96-3.65-7.02-6.48-10.36-9.56-2.63,1.37-5.23,2.04-6.83,3.68-7.68,7.87-17.25,11.61-27.67,14.24-7.74,1.95-15.06,5.56-22.8,7.53-16.51,4.2-30.33,12.67-43.65,23.19-14.85,11.72-25.92,26.17-36.25,41.58-8.91,13.29-17.19,27.4-34.13,32.22-1.14,.32-2.4,.25-3.77,.37-2.56-1.46-5.23-2.99-7.9-4.51-13.49,5.06-27.59,6.26-41.63,6.32-2.19,1.88-4.05,3.47-5.65,4.85h-.06c-3.72,8.51,1.34,17.39-6.51,21.92-6.83,1.07-6.42-5.18-10.09-8.37-2.27-.14-5.33-.13-8.31-.59-3.56-.55-7.06-1.5-11.21-2.42-2.95,4.24-5.53,8.42-8.6,12.2-3.08,3.79-6.07,8.23-10.14,10.56-10.97,6.29-19.69,14.93-28.12,24.06-2.09,2.26-4.21,4.8-6.86,6.2-15.37,8.16-25.05,21.89-33.67,35.99-5.64,9.23-11.86,17.1-22.51,23.37,1.94,8.66-7.14,10.93-10.13,14.78-2.63,9.25-4.61,16.22-6.8,23.94,1.47,2.19,2.66,5.37,4.95,7.12,11.5,8.79,16.63,21.61,20.44,34.48,2.46,8.31,5.63,16.29,8.43,24.43,.37,1.08,1.4,1.94,2.12,2.9,2.79,1.3,5.71,2.38,8.3,3.99,1.5,.93,2.47,2.71,4.26,4.79,2.89,14.95,5.91,30.6,8.94,46.25,4.83,6.35,9.67,12.71,13.31,17.51,1.5,8.92-3.48,13.33-6.91,18.61,2.25,3.42,4.24,6.45,6.04,9.18,5.4,1.21,10.09,2.26,14.57,3.27-.29,3.88-.76,6.96-.7,10.03,.34,17.82,4.75,33.69,19.66,45.51,4.66,3.69,7.67,9.63,10.94,14.84,7.02,11.19,10.38,23.72,12.54,36.54-.96,4.88-1.91,9.67-2.81,14.26,8.42,15.6,17,30.53,24.57,46.29-8.85,5.01-19.13,3.25-26.37,8.92-1.37,5.95,.7,10.52,3.81,14.41,5.41,6.74,11.11,13.28,17,19.6,5.04,5.4,11.03,10.01,13.66,17.6-2.47,14.31-10.51,27.49-10.19,42.27,1.57,1,2.52,1.85,3.62,2.28,8.45,3.3,14.5-6.89,23.03-4.21,1.01,.31,2.85-2.02,5.03-3.68,4.74,3.16,9.38,8.32,14.8,9.34,6.57,1.24,11.08,5.3,16.5,7.95,3.68,1.81,6.43,5.52,9.8,8.56v12.58c4.97,.8,9.18,1.49,12.78,2.07,11.28,11.63,22.31,22.46,32.68,33.88,8.69,9.57,17.84,19.16,21.6,31.97,2.37,8.1,7.05,14.32,13.11,20.85,7.84,1.54,16.58,1.99,24.2,6.89,6.72,4.33,14.01,7.77,20.79,11.47,4.66-1.4,9.53-1.65,12.74-4.08,7.85-5.96,15.54-7.82,25.59-6.02,11.48,2.05,18.75-8.13,14.78-19.18-2.29-6.36-5.01-12.84-8.9-18.29-5.45-7.65-9.68-15.77-13.48-24.28-6.52-14.59-13.39-29.03-20.29-43.91,.07-11.95,4.3-23.12,9.81-34.43,5.58-11.45,9.84-23.86,10.01-37.07,.19-14.77,5.83-27.59,14.14-39.47,2.83-4.05,5.47-8.23,8.32-12.27,9.67-13.71,21.02-25.96,33.11-37.53,3.22-3.08,7.05-4.99,11.68-2.97,1.71,3,3.38,5.94,5.32,9.35,16.42-8.11,32.73-13.44,49.9-16.34,6.27-1.06,12.08-1.88,18.14,.61,5.35,2.2,10.81,2.79,17.22-2.25,2.29-6.06,5.73-13.37,7.79-21.05,2.69-10.06,9.12-18.92,9.28-29.73,6.36-13.36,12.74-26.71,19.02-40.11,.48-1.01,.23-2.37,.32-3.57-4.42-4.6-5.65-8.97-3.68-13.11,6.02,.13,6.78-.11,6.71-2.12-2.07-2.78-7.94-.78-7.85-7.15,2.3-1.68,5.01-3.65,7.45-5.42-1.66-10.66-3.35-20.9-4.79-31.19-.42-3-1.17-6.66,.07-9.07,4.54-8.81,2.36-18.25,3.57-27.34,.24-1.82,.67-3.62,.94-5.06,3.08-4.35,5.93-8.36,8.81-12.42-.83-1.98-1.27-3.82-2.26-5.29-6.7-10.01-6.15-19.78,.76-29.37,4.55-6.32,5.83-13.51,6.04-22.04Zm-408.13-181.54c.11-5.58,3.55-8.15,7.08-10.64,3.97-.76,5.46,1.44,5.99,5.28-3.46,3.61-6.38,8.81-13.07,5.36Zm39.9-6.15c-.17-.73-.34-1.47-.51-2.2,.57,.05,1.24-.06,1.69,.2,.29,.17,.27,.88,.39,1.34h0c-.53,.22-1.05,.44-1.57,.66Z"/>
  <path class="cls-5" d="M3814.16,681.39c8.88,21.7,17.27,43.58,25.36,65.57,.2-.09,.4-.18,.6-.27-.74-1.51-1.48-3.02-2.38-4.86,4.26-2.78,9.26-4.8,9.15-11.32-7.39-14.61-13.42-30.07-12.58-47.22-11.57-9.92-20.71-22.32-32.23-30.54,4.12,9.5,8.15,19.05,12.07,28.63Z"/>
  <path class="cls-5" d="M3636.56,552.84c-24.6-4.05-49.34-5.77-74.09-5.76,1,8.24,.81,16.46-2.27,24.74-1.17,3.14-.18,7.08-.18,9.24,5.62,4.11,9.94,7.28,14.53,10.64-1.8,14.31,10.02,25.56,7.4,40.76-9.85-4.22-16.02-14.81-28.62-12.97-.9,6.56,.01,12.45,1.49,17.86,5.15,6.13,9.89,11.77,13.48,16.04,11.99,8.4,22.56,15.94,33.28,23.25,3.55,2.42,7.33,4.64,11.29,6.23,1.87,.75,4.43-.21,7.56-.47-1.04-4.59-1.9-8.04-2.61-11.53-.72-3.57-1.29-7.16-1.7-9.49-4.49-5.9-8.21-10.81-11.87-15.62,1.02-4.74,2.4-8.89,2.69-13.12,.29-4.09-.55-8.26-.84-11.78,6.21-6.03,12.72-2.49,18.46-3.31h0c2.79-2.47,5.23-5.29,8.25-7.14,3.04-1.87,6.67-2.79,7.15-2.98,10.97-8.89,6.35-19.1,8.55-27.71,1.8-7.04,1.48-14.63,2.03-24.35-4.64-.91-9.29-1.77-13.96-2.53Z"/>
  <path class="cls-5" d="M3722.58,164.03c-.76,.73-1.52,1.45-2.28,2.18-.68-1.19-1.36-2.38-2.04-3.57,.99-.45,2.04-1.33,2.94-1.2,.57,.08,.93,1.67,1.38,2.59h0Z"/>
  <path class="cls-5" d="M3703.12,170.49c.29,.16,.57,.32,.86,.48-.37,.29-.74,.58-1.11,.88,.08-.45,.17-.9,.25-1.36h0Z"/>
  <path class="cls-5" d="M5481.35,428.77c.78-.51,1.55-1.02,2.32-1.52,.21,1.07,.57,2.13,.55,3.2,0,.39-.89,.78-1.37,1.17-.5-.94-1-1.89-1.5-2.84h0Z"/>
  <path class="cls-5" d="M4539.14,1120.8c1.29-.87,2.58-1.75,5.68-3.85-2.44,3.87-4.59,2.81-6.14,3.34l.46,.51Z"/>
  <path class="cls-5" d="M5450,2005.45c-1.24-.09-2.49-.18-3.73-.27l.03-.91h3.74c0,.39-.03,.78-.04,1.17h0Z"/>
  <path class="cls-5" d="M5900.28,1569.76c.06,1.3,.12,2.6,.19,3.89-.4,.01-.8,.02-1.19,.04v-3.91c.34,0,.67-.01,1.01-.02h0Z"/>
  <path class="cls-5" d="M1394.32,539.74c-.74-.38-1.49-.76-1.57-.8,.05,.06,.59,.67,1.12,1.28l.45-.48Z"/>
  <polygon class="cls-5" points="4802.82 772.65 4801.53 773.18 4801.61 771.97 4802.82 772.65"/>
  <path class="cls-5" d="M2589.02,729.7c-.57-.42-1.13-.84-1.27-.94,.09,.16,.43,.79,.78,1.41l.49-.47Z"/>
  <path class="cls-5" d="M437.55,1023.74l-1.72-1.39c.38,.08,.95,.04,1.09,.27,.24,.4,.22,.96,.31,1.45l.33-.33h0Z"/>
  <path class="cls-5" d="M6817.3,1768.58c.45-.59,.9-1.19,.99-1.31-.14,.08-.78,.47-1.43,.86l.44,.45Z"/>
  <path class="cls-5" d="M6940.24,1995.28c-.46-.24-.92-.48-1.39-.72,.31,.39,.61,.78,.92,1.18l.47-.46Z"/>
  <polygon class="cls-5" points="1734.99 355.58 1734.06 355.94 1734.2 354.97 1734.99 355.58"/>
  <polygon class="cls-5" points="4042.25 1331.86 4041.75 1330.56 4043 1330.68 4042.25 1331.86"/>
  <path class="cls-1" d="M2169.12,2278.89c.97,2.08,2,4.12,3.11,6.12,.32-1.72,.67-3.54,1.05-5.58-1.39,.5-2.94,.41-4.16-.53Z"/>
  <path class="cls-1" d="M2149.92,2249.98c-.46-2.71,1.05-4.74,3.01-5.69-9.36-23.22-16.69-47.55-20.3-72.24-8.73,7.29-7,18.94-13.05,26.91,3.31,7.45-2.81,12.57-4.82,18.65-1.34,4.03-4.81,7.39-5.91,11.43-3.87,14.25-7.13,28.66-10.83,43.89,1.71,4.21,3.8,9.33,5.87,14.43,2.15,.6,3.93,.94,5.6,1.58,2.13,.81,4.17,1.85,6.55,2.93-1.14,6.67-2.14,12.52-3.36,19.69,5.98,0,11.05-.83,15.68,.24,4.56,1.06,8.68,4.04,12.81,6.09,4.14-.42,8.08-.82,12.83-1.31-1.28-6.26-2.35-11.5-3.38-16.56,4.48-3.8,9.1-6.57,13.85-8.36-7.41-12.78-12.08-27.27-14.55-41.69Z"/>
  <path class="cls-1" d="M2935.32,1796.36c.28,3.91,.53,7.51,.79,11.3-3.01,3.19-5.05,7.45-8.5,10.33,5.75-.94,11.45-2.11,17.08-3.52,.19-1.6,.39-3.19,.58-4.79,.47-4.05,.92-8.11,1.37-12.16-2.03-.78-4.03-1.63-5.97-2.62-1.14-.58-3.31,.85-5.35,1.46Z"/>
  <path class="cls-1" d="M2253,2331.05c-.43,.22-.94,.39-1.52,.48-12.83,2.05-25.65,1.75-37.72-1.34,2.5,4.09,5.65,7.76,10.31,10.41,.76,5.33,1.5,10.53,2.28,16.05,4.24,.51,8.06,.42,11.5,1.53,4.06,1.32,7.65,4.02,11.68,5.48,4.04,1.47,8.45,2.64,12.59-2.63-.33-3.28-.75-7.38-1.19-11.62,.62-1.07,1.24-2.14,1.9-3.18-3.8-4.71-7.07-9.81-9.82-15.18Z"/>
  <path class="cls-1" d="M2968,1807.14c-3.61-2.7-7.63-4.53-11.75-6.1-.4,3.52-.8,7.03-1.22,10.55,4.37-1.34,8.7-2.81,12.97-4.45Z"/>
  <path class="cls-1" d="M3236.03,2183.43c-4.08-6.9-8.65-11.73-9.93-17.31-3.95-17.17-16.78-26.49-27.9-36.25-7.11,.09-7.76,10.42-15.22,6.63-3.41-1.98,2.4-7.77-3.87-8.71-3.6,4.59-7.11,9.45-11.05,13.94-2.49,2.84-5.38,2.28-6.94,.44,.23-9.6,.64-18.12,.61-26.63-.03-11.74,.8-22.82,6.11-34.06,4.84-10.22,10.36-21.35,7.15-34.66-11.27-9.79-17.97-25.33-32.19-33.25-4.87,3.5-9.04,6.12-12.74,9.28-3.47,2.96-6.44,6.5-9.65,9.8-3.32-2.32-6.25-4.37-9.29-6.49-.64,1.53-1.13,2.47-1.44,3.47-.52,1.67-.91,3.37-1.25,4.64-4.95,3.15-8.58,.48-12.65-1.03-3.73-1.4-7.93-1.55-12.94-2.43,.32-6.49,1.84-12.26,.6-17.37-2.37-9.75,.32-18.04,3.87-26.79,6.22-15.32,11.67-30.95,17.16-45.71-5.83-14.92-5.53-29.72-6.17-44.89,.7-.64,2.65-1.64,3.29-3.19,2.8-6.77,5.65-13.57,7.67-20.6,3.11-10.83,7.54-20.89,14.27-29.98,7-9.46,14.1-18.86,20.52-28.7,4-6.13,9.23-12.89,9.62-19.62,.68-11.56,5.48-20.22,12.8-27.97,6.08-6.44,7.28-14.03,7.53-22.25,.45-14.47-6.39-27.16-9.82-40.68-.56-2.24-2.67-4.09-2.87-4.38-10.76-2.18-17.39,2.28-22.48,7.28-16.64,16.34-39.91,21.64-57.71,35.84-12.28,.59-17.86,9.79-23.93,18.48-7.8,11.18-15.71,22.29-23.77,33.28-1.7,2.32-4.26,4-6.43,5.99-3.8-2.4-7.12-4.48-10.78-6.78-3.77,2.67-7.62,5.21-11.57,7.63-3.36,3.6-6.64,7.11-9.94,10.63-1.51-.78-3.11-1.61-4.76-2.47-.34,.17-.68,.35-1.02,.52-11.39,5.62-23.17,10.05-35.21,13.4-1.09,8.91-2.23,17.81-3.44,26.71-6.96,51.44-15.81,102.64-27.02,153.32-11.13,50.38-24.56,100.33-41.59,149.05-15.52,44.41-33.98,88.14-57.81,128.78-5.76,9.82-12.13,19.26-17.85,29.1-6.15,10.59-12.69,20.97-19.82,30.94-11.29,15.78-24.03,30.75-39.37,42.75-25.35,19.83-55.4,27.75-87.23,28.16-38.98,.5-77.9-6.11-116.69-9.13-18.43-1.43-36.59-4.61-55.07-5.78-19.38-1.23-38.8-1.55-58.21-2.14-38.42-1.17-78.51-2.31-115.26-14.73-5.01-1.69-9.95-3.62-14.76-5.83,.49,.65,1.03,1.28,1.64,1.91,1.15,.49,2.87,1.15,4.54,1.93,2.12,.99,4.19,2.08,6.34,3.16-1.26,6.69-2.38,12.64-3.58,19.02,7.03,1.37,14.62,1.03,19.89,4.36,5.83,3.68,12.96,2.86,17.91,6.33,1.17,7.01-5.11,12.37-1.38,19.07,4.63,1.08,9.46,1.91,14.09,3.38,4.5,1.44,8.79,3.54,13.47,5.47,2.73-4.61,4.85-8.99,7.73-12.81,3.23-4.28,3.58-10.46,9.89-12.86,4.3-1.63,7.85-5.24,13.74-9.38,1,1.45,1.97,2.86,2.88,4.19-5.6,11.77-10.6,22.29-15.03,31.61-1.4,13.21,2.86,23.31,10.28,32.06,3.06,3.61,4.17,7.43,4.38,11.84l-.03,.02h40.94c-1.47-7.37,5.06-8.33,8.78-11.72,7.91,2.89,3.04,7.69,2.38,11.72h595.55v-7.98c15.51-16.94,30.26-33.06,45.29-49.47v-6.23c4.35-2.83,9.99-3.5,10.81-9.55,12.33-13.32,24-27.42,39.27-37.58,12.16-8.08,16.2-20.44,16.47-33.42,.14-7.06,1.52-13.23,3.68-19.4-1.2-3.09-2.3-5.93-3.63-9.39,21.51-29.95,48.98-55.02,73.33-82.86v-18.92c-2.35-3.54-4.71-7.11-7.11-10.72,1.53-5.49,3-10.76,3.91-14.04Z"/>
  <path class="cls-3" d="M5744.57,1030.94c-7.32-1.72-5.87-4.77-4.79-7.79,1.24,2.02,2.48,4.03,4.79,7.79Z"/>
  <path class="cls-3" d="M3114.42,2015.57l-.52,.78c-.29-.37-.59-.74-.88-1.11,.47,.11,.93,.22,1.4,.34h0Z"/>
  <path class="cls-1" d="M3655.16,570.94c12.95,3.88,26.89,4.85,36,10.96,5.54,1.73,8.3-2.4,12.01,2.28-.51,3.17-.79,7.39-1.91,11.38-2.08,7.42-1.88,14.77,.41,21.94,.59,1.82,3.33,2.95,5.03,4.35,3.51-3.03,6.22-5.38,8.36-7.24,2.13-.23,3.37-.54,4.58-.47,9.56,.51,17.03,3.4,17.59,14.84,.11,2.21,1.31,4.98,2.96,6.39,4.32,3.69,3.43,9.09,5.52,14.16,14.6,10.93,28.13,23.89,41.02,37.26,2.56-.39,4.82-.73,6.63-1.01,3.78,6.59,5.85,14.16,10.81,17.82,5.62,4.16,8.62,9.97,12.27,13.92,.53,.17,1.02,.32,1.5,.47-16.91-43.74-35.36-86.85-56.62-128.67-40.44-16.05-81.84-29.42-124.76-36.48-76.85-12.65-155.03-2.67-230.94,12.46-11.37,10.63-22.75,21.26-33.75,32.25-17.49,17.47-34.08,35.95-47.85,56.54-14.84,22.2-25.63,46.52-33.98,71.82,0,.02-.01,.05-.02,.07,17.44-15.59,35.03-31.02,52.82-46.2,13.17-11.24,26.96-21.77,40.69-32.33,8.32-6.4,17.39-11.85,25.57-18.42,24.14-19.39,49.28-37.34,75.49-53.81,1.41-.88,3.42-.8,5.89-1.33,.55,3.33,1.4,6.29,1.43,9.26,.05,4.93-.62,9.87-.57,14.8,.02,1.66,1.31,3.31,2.05,5.02,5.59,.82,10.95,1.61,15.8,2.32,8.68-2.53,17.79-3.45,24.89-7.7,8.72-5.22,17.94-2.93,26.64-5.24,2.92-.78,5.6-2.42,8.43-3.56,5.16-2.07,10.2-4.65,15.55-5.98,16.71-4.16,33.47-8.21,50.36-11.53,6.52-1.28,13.95-2.18,20.1-.34Z"/>
  <path class="cls-1" d="M3865.26,1895.49c-12.06-39.62-31.38-76.27-48.77-113.73-.46,1.54-1,3.07-1.66,4.56,1.38,3.78,2.39,6.55,3.24,8.89-2.44,3.38-4.18,5.91-8.51,5.11-2.46-2.57-5.15-5.4-7.82-8.21-2.45,2.2-4.26,3.83-6.48,5.83-3.44-2.6-6.44-5.74-10.11-7.41-3.77-1.71-8.19-1.99-12.68-2.98-1.98-6.12-3.81-11.77-5.68-17.57-5.12,.72-9.3,1.71-13.51,1.79-4.1,.08-8.23-.76-13.31-1.3v17.02c-4.11,12.66-10.5,26.26-19.97,40.88-1.21-10.78-6.09-16.96-12.36-22.26-4.1-.81-8.19-1.62-11-2.17-5.54-6.61-.79-14.88-5.93-19.4-8.7,1.39-16.49,2.64-24.9,3.98-2.78,9.11-5.65,18.51-8.47,27.76-4.19,3.29-8.06,6.33-11.96,9.4,.52,1.67,1.05,3.34,1.64,5.24-1.93,4.27-5.07,8.56-5.65,13.17-.82,6.5-7.65,8.3-9.08,13.34-3.69,12.98-11.46,24.98-10.48,39.09,.74,10.68-2.44,20.53-5.16,30.54-.47,1.74-.95,3.47-1.36,4.98,1.86,2.14,3.44,3.97,5.5,6.34-3.75,11.15-6.92,22.87-8.23,34.43,1.99,2.46,3.47,4.29,4.93,6.09-1.85,2.87-3.49,5.41-5.17,8.01,1.31,3.53,2.59,6.98,3.86,10.39-1.97,3.11-3.88,6.11-5.49,8.65,1.44,4.27,2.6,7.71,3.71,11.02-2.83,5.25-8.83,8.46-6.71,16.15,1.46,1.29,3.68,3.24,6.41,5.65-2.28,4.21-4.59,8.46-5.53,10.19-1.25,9.97-2.34,17.23-3.01,24.53-.67,7.22-1.23,14.48-1.2,21.72,.02,2.9,1.71,5.8,2.87,9.4-4.53,8.4-6.39,17.83-5.28,27.31,1.44,2.47,2.67,4.56,3.88,6.64-6.71,6.57-3.8,14.92-5.75,21.83,1.88,1.71,3.21,2.93,4.54,4.15-2.41,4.89-3.42,11.14-3.05,18.73-4.21,4.03,2.5,8.21-.02,12.02-3.8,5.74-2.48,11.89-2.23,18.04,.27,6.78-4.49,12.79-3.08,19.83,.84,4.16,.86,8.52,2,12.57,.74,2.6,.16,4.48-.46,6.9-3.18,12.39-5.49,24.94-4.82,36.82,2.34,2.72,3.79,4.39,5.11,5.92-2.25,3.17-4.01,5.66-5.94,8.38,.95,4.33,1.87,8.47,2.76,12.52-1.58,6.66-3.15,13.24-4.66,19.62,4.87,10.04,4.71,22.55-.28,33.91,3.66,14.15,2.97,28.02-2.53,41.28,5.84,6.73,3.95,14.13,2.33,20.54-1.77,7.04-2.42,13.16,1.97,19.64-3.34,5.22-5.31,11.44-2.97,17.3,2.11,5.3-1.02,9.62-.53,14.4h215.89c.8-12.31-.97-24.76,2.58-36.92,.85-2.88,.44-6.16,.42-9.26-.26-32.23,1.26-64.38,3.18-96.56,2.09-35.12,4.13-70.22,7.45-105.26,2.68-28.34,3.86-56.82,5.69-85.24,.12-1.85-.07-3.75,.29-5.55,3.61-18.21,4.15-36.74,5.44-55.16,1.64-23.47,2.9-47,2.97-70.51,.03-9.32,2.33-18.27,2.04-27.52-.31-9.92-.05-19.85-.05-29.77v-20c4.26,6.86,6.69,10.76,9.1,14.63,8.07-3.99,16.05-7.12,22.67-12.96,2.66-2.35,5.72-4.26,8.78-6.16-2.08-13.96-5.29-27.73-9.41-41.24Z"/>
  <path class="cls-1" d="M3426.69,1245.07c-7.43-4.09-13.29-7.37-20.6-3.66-1.76,.9-4.7-.86-7.07-.76-9.18,.38-15.98-6.15-25-8.56-2.16,3.69-4.27,7.29-7.04,12.01-9.83-1.66-9.08,11.15-16.12,13.83-8.33-.59-6.44-10.57-13.64-12.24-5.12-1.19-6.43-8.39-12.5-10.39-5.64-1.85-10.44-6.27-16.71-10.26-.55,0-2.41,.18-4.22-.04-2.32-.28-4.6-.87-7.64-1.47-.81-27.88-10.09-49.74-39.67-57.69-4.37,2.64-4.93,10.19-12.7,10.37-1.29-2.11-2.47-4.94-4.43-7.06-5.73-6.21-7.33-13.62-9.16-21.69-.74-3.29-1.22-6.65-1.67-10.01-11.38,95.74-23.61,191.44-43.08,285.91-12.18,59.06-27.2,117.6-46.71,174.69-1.07,3.14-2.15,6.27-3.25,9.4,3.57-6.43,7.26-13.08,11.23-20.25,.61-.42,5.06-1.94,5.27-3.92,.82-7.64,8.76-8.12,11.68-12.43,1.88-13.56,3.15-26.51,12.77-37.21,4.85-1.73,10.05-3.57,15.07-5.36-.15-2.49-.29-4.86-.45-7.46,3.26-1.15,6.11-2.16,10.46-3.7,2.71-4.04,6.12-9.14,9.52-14.24,2.03-3.05,3.37-7.3,6.21-8.96,8.72-5.11,10.72-14.21,14.91-22-1.6-1.85-4.09-3.28-.84-7.32,5.24-2.56,11.78-5.76,17.58-8.6,11.72,2.53,18.28,15.32,32.04,11.28,3.9-6.37,2.6-16.75,12.75-21.58,2.87,.16,6.85,.39,10.63,.6,.95-3.06,1.67-5.37,2.47-7.96,2.77,1.95,5.24,3.67,7.76,5.44,1.75-3.17,3.47-6.28,4.97-8.99,9.75-2.87,16.95-7.38,20.73-17.02,1.31-3.32,6.27-5.21,9.03-7.35,4.6,1.68,7.96,3.12,11.44,4.12,3.36,.97,6.85,1.49,11.05,2.37,2.19-8.16,1.4-16.83,8.09-23.51,2.89-.63,6.44-1.4,11.07-2.41,.31-8.32,7.48-11.25,13.53-15.26,6.05,2,8.56-3.61,12.62-5.89l.02,.03-.4,.47c3.49-2.17,6.99-4.33,10.81-6.7-1.72-2.64-3.22-4.96-4.96-7.65,2.72-2.37,5.37-4.66,7.87-6.83,.06-1.44,.12-2.61,.17-3.78,2.73-1.34,5.47-2.69,7.02-3.46,2.72-4.97,4.9-8.71,6.84-12.56,1.95-3.85,4.13-7.67,5.36-11.76,1.76-5.85,2.3-12.09,4.2-17.89,1.81-5.5,4.69-10.66,7.29-16.37-6.86-4.89-13.38-9.53-19.11-13.62-5.74-9.14-10.99-17.48-15.49-24.64Z"/>
  <path class="cls-1" d="M3329.13,704.46c-13.35,7.4-21.83,19.26-32.64,28.29-3.91,3.26-7.76,6.59-11.62,9.91-14.17,49.08-20.59,100.18-26.37,150.81-.12,1.09-.26,2.17-.38,3.26,1.99-1.77,3.96-3.52,5.85-5.2,.33-4.2,.61-7.78,.88-11.3,3.27-2.22,6.26-4.24,8.98-6.08,.73-2.89,1.32-5.26,1.92-7.63,2.3-1.86,4.59-3.72,6.61-5.35-.83-3.07-1.42-5.28-2-7.44,3.22-2.52,6.48-4.44,8.88-7.13,2.43-2.72,4.71-5.98,5.82-9.41,2.51-7.76,7.12-13.98,13.1-19.25-2.06-2.1-3.53-3.61-5.36-5.48,3.7-2.47,6.68-4.47,9.68-6.47-.44-2.54-.85-4.9-1.26-7.26,2.61-1.39,5.21-2.79,7.52-4.02,.14-2.73,.23-4.56,.32-6.34-1.63-.48-3.08-.91-4.53-1.34-.95-6.29,4.38-7.88,8.35-10.99v-14.58c.54-.53,2.18-1.4,2.15-2.21-.49-12.42,5.42-23.8,5.73-36.01,.15-5.91,1.31-12.06-1.63-18.79Z"/>
  <path class="cls-1" d="M3119.14,1650.95c2.56-2.68,3.38-5.82,3.65-9.1-1.2,3.04-2.41,6.08-3.65,9.1Z"/>
  <path class="cls-1" d="M6327.52,2252.56c1.21-.24,2.41-.48,4.88-.97,2.2-3.98,4.81-8.69,7.47-13.49,14.64-2.92,28.05,2.68,42.53,5.6,7.9,9.38,12.59,21.09,15.34,33.78,3.68,17.02,12.23,30.8,27.29,40.16,4.19,2.6,8.2,5.5,13.55,9.12,13.4,1.48,28.18,2.66,42.81,4.83,23.16,3.44,46.24,7.45,69.32,11.44,8.5,1.47,16.94,3.41,25.34,5.39,7.91,1.87,14.68,0,20.55-5.46,4.05-3.77,8.03-7.62,10.91-10.36,9.96-2.06,18.29-4.49,26.79-5.36,8.51-.87,17.18-.19,25.96-.19,2.62-2.13,5.37-4.37,8.05-6.56,7.36,5.29,12.52,12.83,20.65,14.65,5.58,8.93,10.76,17.24,16.36,26.2-.29,1.4-.75,3.65-1.27,6.2,1.01,1.29,1.87,3.11,3.3,4.11,11.15,7.78,22.29,15.6,33.69,23.01,6.69,4.34,13.86,7.94,21.44,12.23,3.84-2.51,7.63-4.47,10.8-7.16,13.67-11.6,27.11-23.47,40.73-35.13,20.18-17.28,39.93-35.13,60.83-51.49,21.48-16.82,40.85-35.93,61.56-53.56,14.59-12.42,29.41-24.57,44.05-36.93,3.3-2.79,6.5-5.75,9.42-8.93,9.81-10.69,21.82-18.26,34.83-24.19,6.68-3.05,13.83-5.3,20.98-7.06,15.7-3.86,30.5-9.97,44.95-17.01,2.13-1.03,3.9-2.79,5.87-4.24-11.45-12.58-24.13-23.52-33.41-37.5-1.01-1.52-2.46-2.78-3.85-3.99-12.58-10.92-25.22-21.78-37.79-32.71-4.2-3.65-8.18-7.55-12.38-11.21-4.64-4.06-9.21-8.24-14.16-11.89-14.57-10.74-27.62-22.9-37.58-38.74-.28-2.59-.61-5.64-1.03-9.44-4.02-6.67-10.04-11.55-18.47-13.24l.52,.48c-.5-4.95-.15-9.75,2.23-14.84,3.33,.74,6.38,1.1,9.21,2.11,32.09,11.44,65.41,18.37,98.27,26.99,8.36,2.19,16.66,4.6,24.94,7.06,17.11,5.09,34.19,10.29,50.72,15.28,6.22-2.14,11.46-3.95,14.69-5.06,9.9,.71,17.81,1.27,26.72,1.91,15.58,6.48,31.17,15.56,48.56,20.28,37.18,19.43,76.33,35.09,111.02,59.29,10.59,7.39,22.1,13.6,33.62,19.5,10.43,5.34,20.77,10.07,29.27,18.88,6.23,6.45,15.14,10.31,23.51,15.75,5.22,.85,11.37,1.56,17.38,2.9,7.73,1.73,13.34,6.07,15.34,14.22,2.04,8.28,7.78,12.67,15.94,13.09,7.8,.41,14.4,3.1,21.28,8.36,6.26,9.53,11.83,20.34,15.94,32.18,4.66,13.41,11.12,26.2,20.08,37.42,5.28,6.61,7.85,14.18,7.27,22.29-.33,4.62,.43,8.56,2.17,12.51,7.71,17.53,14.95,35.3,23.5,52.41,6.3,12.61,14.71,24.15,21.56,36.51,14.35,25.93,31.57,50.08,46.52,75.63,.88,1.5,.81,3.56,1.18,5.35h-1444.2c7.03-13.91,17.49-25.37,27.31-37.19,15.82-19.03,29.55-39.52,43.61-59.81,11.58-16.71,23.45-33.21,35.99-50.93,1.45-7.71,.55-17.35,6.19-26.73,3.31-2.73,7.56-6.25,11.71-9.68,3.02-.28,5.84-.54,8.72-.8-.72-2.67-1.33-4.93-1.88-6.95,3.08-6.76,9.61-7.55,15.45-9.19,1.86-7.27,5.69-13.43,3.08-21.12-.77-2.27,1.75-5.65,2.76-8.52l-.5,.49v.02Z"/>
  <path class="cls-1" d="M5603.05,2350.35c-6.06-7.24-15.39-3.63-23.74-7.56-1.11-2.34-4.04-5.62-3.88-8.73,.63-12.62-3.13-24.44-4.76-35.98-7.6-10.5-17.78-16.35-26.48-20.85-3.31-4.36-5.45-7.19-7.71-10.17-6.08,1.16-11.58,1.89-16.88,3.35-3.4,.93-6.49,2.95-9.39,4.32-2.28,8.52-2.1,16.88-7.09,23.72-6.01-.86-12.05-.92-17.65-4.35-5.1-3.12-10.94-5.06-16.21-7.41-3.53-5.38,.48-12.91-6.19-17.7-3.53-.16-7.73-.09-11.86-.59-4.08-.5-8.09-1.56-12.72-2.5-3.28,17.25-9.31,32.53-21.63,45.95-8.55,1.38-17.74-.55-26.8-.54-5.99-3.71-11.72-7.27-17.58-10.9-4.39,1.31-8.36,2.49-13.04,3.89-4.15-6.15-8.21-12.18-12.41-18.42-7.01-2.52-13.94-5-20.7-7.43-5.51,4.58-10.81,2.41-15.47,.93-13.79,2.91-21.51,14.68-33.43,20.27-1.51-.53-3.21-1.12-5.63-1.96-1.98,1.43-4.43,3.19-6.71,4.84,.5,2.47,1.05,4.26,1.21,6.09,1.04,12.18-.64,23.24-11.22,31.48-4.59,3.58-5.5,9.18-4.7,14.89-8.12,4.87-9.26,5.99-11.72,13.17-4.01,11.71-7.9,23.45-11.76,35.21-2.3,7.03-4.79,13.95-9.26,19.48-8.59,4.68-11.84-5.8-19.24-5.91-4.42,3.43-9.17,7.12-13.2,10.24-7.37-1.02-9.18-5.68-10.5-10.54-3.07-11.32-5.95-22.68-8.9-34.03-.62-2.4-1.49-4.78-1.76-7.22-1.73-15.98-4.92-31.67-7.99-47.44-6.14-31.5-10.59-63.33-16.93-94.78-5.59-27.77-4.06-55.12,1.25-82.55,1.53-7.89,3.55-15.68,5.26-23.54,2.38-10.95,5.08-21.6,14.34-29.32,2.72-2.27,4.26-5.96,6.29-8.93-1.96-5.57-.59-11.8-5.49-16.7-2.15-2.15-2.37-7.02-2.14-10.57,.12-1.8,.36-3.58,.65-5.3-26.86,27.81-58.55,51.4-90.39,72.74-44.73,29.98-91.31,57.06-136.59,86.13-5.15,19.98-10.23,39.71-15.35,59.42-1.08,4.14-3.26,8.12-3.68,12.3-1.02,9.95-3.9,19.29-7.35,28.57-2.54,6.85-4.97,13.65-5.37,21.23-.28,5.37-2.96,10.6-4.42,15.93-2.93,10.72-5.95,21.42-8.54,32.22-1.42,5.91-1.32,12.1-5.48,17.31-1.03,1.28,.45,4.57,.82,7.23-3.49,6.92-7.47,13.95-6.61,22.45,.17,1.73-.21,3.7-.9,5.31-6.3,14.66-9.07,30.11-10.52,45.87h684.88c5.25-6.19,2.02-14.63,6.3-20.87,4.28-7.42,8.55-14.84,12.48-21.65-.05-12.71,.11-24.46,5.22-36.08,3.55-3.16,7.54-6.7,11.14-9.9-.9-3.95-1.7-7.46-2.35-10.31,6.64-7.04,12.53-13.27,17.92-18.99,.96-5.53,1.78-10.23,2.58-14.83h-.02Z"/>
  <path class="cls-1" d="M4815.86,2419.11c-2.72-27.65-5.5-55.27-7.16-83.02-1.69-28.26-3.66-56.52-4.29-84.8-.96-42.64-3.17-85.17-5.74-127.73-1.28-21.16-3.16-42.31-3.93-63.5-6.97-29.55-13.63-59.19-20.89-88.65-2.32-4.01-4.1-8.35-5.43-12.97-1.35-4.72-3.62-9.18-5.37-13.79-3.28-8.63-9.8-14.29-17.72-18.16-3.75-1.83-8.25-2.37-12.48-2.92-4.05-.52-5.9-6.96-12.08-3.46,0,5.64-.6,11.82,.14,17.83,1.12,9.15,3.37,18.16,4.76,27.28,1.76,11.56,3.15,23.17,4.69,34.64-3.23,4.47-6.1,8.45-9.03,12.5-1.97,12.81-3.1,25.86-10.8,36.98-1.01,1.45-1.41,3.45-1.68,5.26-1.74,11.83-7.37,22.12-12.64,32.57-2.5,4.95-4.93,9.93-5.76,11.6,0,11.01-.04,18.42,0,25.82,.07,9.91-1.21,20.11,.77,29.63,1.65,7.92,.51,15.71,1.9,23.54,1.49,8.42,.37,17.29,.5,25.96,.18,11.76-.59,23.67,1.06,35.23,1.41,9.86,1.64,19.66,2.3,29.51,.7,10.47,1.97,20.9,3.05,31.34,.38,3.68,1.28,7.34,1.39,11.02,.87,30.25,6.05,60.02,9.76,89.96,2.74,22.06,7.31,43.78,11.56,65.57,1.05,5.38,.5,11.08,.69,16.63h100.5c-1.2-4.09-3.07-8.12-3.49-12.29-1.75-17.17-2.89-34.4-4.58-51.58h0Z"/>
  <path class="cls-6" d="M6966.11,1935.76c-4.87-1.52-9.74-3.05-14.79-4.62,3.36-5.15,7.79-3.4,12.81-2.77,1.06,1.27,2.51,3.03,3.96,4.78-.66,.87-1.32,1.74-1.98,2.61h0Z"/>
  <path class="cls-6" d="M3293.04,1452.88c1.71-.27,3.35-.53,5.48-.86,.27,3.2,.5,6,.73,8.76-2.42-.25-4.49-2.88-6.22-7.9h.01Z"/>
  <path class="cls-6" d="M6972.87,1937.2c5.51-2.69,9.25-.46,12.66,3.97-5.56,2.75-8.77-1.26-12.66-3.97Z"/>
  <path class="cls-6" d="M2523.8,1102.25c.79-2.13,1.58-4.26,2.78-7.52,1.88,2.28,2.85,3.46,4.71,5.71-3.38,.6-5.63,1-7.88,1.41l.39,.41h0Z"/>
  <path class="cls-6" d="M2937.97,1298.15c-1.98,.3-3.95,.59-5.93,.89-.09-.61-.18-1.22-.27-1.83,1.98-.29,3.95-.58,5.93-.87,.09,.6,.18,1.21,.27,1.81h0Z"/>
  <path class="cls-6" d="M3416.67,1370.3c1.88,.33,4.36-1.25,5.47,1.72-2.79,1.68-4.19,.34-5.07-2.19l-.4,.47Z"/>
  <path class="cls-6" d="M6937.83,2002.44c-.25,1.69-.5,3.38-1.21,8.12-.75-3.88-1.41-5.15-1.02-5.87,.45-.84,1.8-1.2,2.76-1.77l-.52-.48h0Z"/>
  <path class="cls-6" d="M6303.62,2280.43c.37,.95,.84,1.87,1.03,2.86,.05,.24-1.04,1.03-1.14,.95-1.72-1.27-1.51-2.58,.11-3.8h0Z"/>
  <path class="cls-6" d="M2650.45,1381.61c.43-.76,.87-1.52,1.01-1.76-.21,.17-.88,.7-1.55,1.24l.55,.52h-.01Z"/>
  <path class="cls-6" d="M2903.13,1879.65c-.44,.68-.88,1.36-1.07,1.65,.28-.2,.93-.67,1.58-1.14l-.52-.51h.01Z"/>
  <polygon class="cls-6" points="3534.41 453.58 3533.96 452.54 3535 452.62 3534.41 453.58"/>
  <path class="cls-6" d="M6328.02,2252.07c-.39-.39-.78-.79-1.18-1.18l.68,1.67,.5-.49h0Z"/>
  <path class="cls-1" d="M6003.38,1688.07c-2.31,.75-4.6,1.42-6.85,2.22-23.34,8.33-46.73,16.52-68.87,27.83-3.62,1.85-6.05,.28-6.07-4.15,4.21-1.84,8.67-3.79,13.08-5.72,3.26-5.41,6.4-10.62,8.94-14.83,12.03-6.19,24.84,1.61,35.47-5.5,2.74-6.64,.16-12.17-2.7-17.76-1.94-3.79-3.79-7.68-5.07-11.73-3.13-9.91-5.91-19.93-9.22-31.27,.06-.18,.41-2.07,1.28-3.68,6.17-11.42,6.37-22.76,3.96-35.74-2.54-13.68-9.16-25.25-12.6-37.12-7.1-5.98-14.22-8.7-22.34-8.79-.62-6.09-2.92-10.86-8.08-14.14-4.18-2.66-8.36-5.42-12.07-8.68-5.08-4.47-11.29-8.68-14.14-14.43-3.38-6.82-7.83-12.49-12.23-18.43-2.56-3.46-6.01-7.45-6.13-11.3-.34-11.29-11.05-17.32-12.78-27.73-.34-2.06-2.98-3.81-4.72-5.54-6.82-6.79-15.21-10.28-24.54-12.26-5.37-1.14-11.13-2.39-15.65-5.27-16.71-10.65-33.79-20.97-49.22-33.31-25.62-20.49-49.95-42.57-75.04-63.73-11.31-9.53-16.59-22.3-21.11-36.4-3.62-2.44-7.67-5.17-12.75-8.6-1.38-6.63-3.69-13.72-4.19-20.94-1.4-20.03-11.55-33.27-29.68-40.94-2.25-.95-4.53-1.82-6.27-2.52-5.28,1.56-9.88,2.93-15.25,4.52-6.38-8.19-12.39-15.91-18.37-23.59-13.9-.14-25.51,6.03-36.69,9.6-10.03,11.71-18.32,23.54-28.72,33.05-16.87,15.41-35.13,29.31-52.82,43.84-11.96,9.83-24.09,19.45-35.87,29.5-23.56,20.09-46.6,40.81-70.5,60.46-14.76,12.13-30.83,22.65-46.1,34.18-6.85,5.18-13.17,11.07-17.93,15.11-3.32,15.91-5.75,29.31-8.93,42.53-11.9,49.58-18.17,99.87-20.32,150.76-1.2,28.45-2.95,56.87-4.39,85.31-1.1,21.66-2.26,43.32-3.11,64.99-1.04,26.62-1.82,53.25-2.65,79.88-1.38,44.46-2.68,88.93-4.07,133.39-.15,4.94,.25,10.17-1.23,14.74-4.16,12.84-8.45,25.73-14.04,37.98-6.52,14.28-5.95,28.35,1.73,40.91,7.24,11.83,16.52,22.1,8.97,37.09,1.32,14.09,2.72,28.18,3.94,42.28,.62,7.13,.45,14.25-1.21,23.06-9.65-8.15-19.87-9.38-30.09-8.86-6.98-10.16-6.81-20.52-6.01-31.13,.79-10.47,1.54-20.98,1.58-31.47,.05-12.33-.84-24.67-1.04-37.01-.42-26-.54-52-1.05-78-.12-6.13-1.71-12.23-1.93-18.36-.06-1.57-.21-3.11-.43-4.63-1.72,4.53-3.57,9.02-5.59,13.46-11.33,24.97-26.87,47.11-44.98,67.12-1,15.13-2.02,30.26-3.1,45.38-.57,7.97-1.05,16.1-3.01,23.79-2.64,10.37-8.96,18.79-18.71,25.11,6.63,6.97,8.12,14.53,7.18,22.97-1.1,9.83-1.8,19.71-2.31,29.59-.47,9.24-1.48,18.62-.46,27.74,2.66,23.91,7.13,47.65,4.61,71.87-.13,1.22-.54,2.87,.06,3.64,6.53,8.48,2.24,17.82,2.41,26.81,.1,5.41-.07,11.07,1.47,16.13,2.08,6.87,1.44,13.24,.4,20.09-1.47,9.74-2.14,19.66-2.33,29.52-.13,6.58,2.66,12.17,9.94,13.84,2.81,.65,5.74,.78,8.84,1.18,.52,5.91,.95,10.72,1.4,15.71h26.25c6.49-8.45,1.66-19.82,7.35-29.65,5.72-9.87,14.16-14.88,22.05-20.43,3.03-9.5,4.61-18.68,13.46-24.43,3.03-1.97,3.89-7.1,6.11-10.54,3.27-5.07,6.59-10.16,10.41-14.82,5.95-7.27,13.08-25.61,14.58-36.54,1.23-8.98,1.43-18.89,11.26-23.42,6.36,1.96,12.13,3.74,18.21,5.61,2.76-3.53,4.93-6.31,6.52-8.34-4-9.73-6.68-18.8-11.26-26.78-6.23-10.86-3.75-19.72,2.59-29.32,11.26-17.05,21.5-34.78,32.74-51.84,20.81-31.58,42.97-62.2,66.94-91.46,20.84-25.44,43.88-48.79,67.24-71.92,11.42-11.31,23.43-15.47,38.52-12.06,7.84,1.77,15.59,3.97,23.32,6.22,5.29,1.54,10.45,3.51,14.76,4.98,6.58-3.35,12.12-5.98,17.47-8.94,12.94-7.17,25.81-14.47,38.68-21.76,24.8-14.04,50.37-26.9,74.22-42.4,56.61-36.81,112.09-75.35,170.28-109.71,4.6-2.72,9.25-5.33,12.95-7.45,9,10.78,17.21,20.62,25.21,30.2h17.69c6.97-24.21,18.71-45.85,31.35-67.09,2.42-4.07,4.01-8.65,5.85-12.7,5.08-3.11,9.89-5.95,14.6-8.94,18.45-11.68,35.11-25.48,49.15-42.29,1.66-1.98,5.28-4.03,1.8-7.75v-.05Zm-712.47,468.85c-.13,.1-2.05-1.29-1.98-1.85,.12-.99,.95-2.32,1.82-2.68,.8-.33,2.05,.44,3.76,.92-1.33,1.4-2.37,2.63-3.6,3.61h0Zm253.42-207.14c.18-3.74,3.18-2.36,5-2.38,1.61-.02,3.24,.93,4.94,1.47-2.17,3.44-5.49,3.74-9.94,.91h0Z"/>
  <path class="cls-1" d="M4865.18,2261.24c-2.14,1.6-6.24,.52-7.33-1.92-20.44-45.57-35.89-93.08-48.71-141.3-2.86-10.74-5.58-21.52-8.24-32.32,.15,4.04,.35,8.08,.62,12.13,.28,4.21-.96,8.5-1.07,12.76-.51,19.7,2.76,39.19,3.45,58.83,.21,6.1,1.2,12.19,1.06,18.27-.31,13.38,2.61,26.43,3.6,39.67,.59,7.95,2.39,15.66,1.61,23.86-.48,5.1,2.1,10.49,3.7,17.49-.73,2.95-1.91,7.69-3.2,12.89,2.32,3.51,4.64,6.99,7.37,11.12-1.85,4.23-3.78,8.62-6.14,14,1.74,2.55,3.74,5.47,6.38,9.32,1.66,18.59,1,38.1-2.02,57.77-2.33,15.19-2.99,30.64,.7,46.1,1.83,7.67,.91,16.02,1.03,24.07,.2,13,.24,26.01,.34,39.01h55.83c4.27-24.16,10.15-47.98,15.32-71.93,3.45-15.94,6.85-31.95,10.39-47.9,1.31-5.9,3.7-11.94,3.31-17.76-.51-7.71,6.26-13.22,4.77-21-.36-1.9,1.85-4.41,3.13-6.48,1.71-2.76,2.47-5.37,1.29-8.7-.78-2.22-1.4-5.49-.34-7.19,7.12-11.38,5.66-24.98,10.09-37.06,3.36-9.17,6.28-18.71,7.72-28.34,1.12-7.49,2.43-14.94,3.81-22.38-23.31,14.94-46.3,30.37-68.52,47h.05Z"/>
  <path class="cls-1" d="M4737.41,2229.1c-1.33-22.11-2.51-44.25-.7-66.41,.2-2.45,.32-5.09-.35-7.39-4.76-16.28-3.34-33-3.89-49.58-.14-4.33,0-8.8-1.05-12.94-4.49-17.67-1.72-35.79-3.63-53.62-.63-5.87,1.23-12.02,2.09-19.17,4.13,.23,7.54,.41,12.57,.69,11.93-8.25,23.84-17.56,36.94-26.3-9.93-41.88-20.61-83.55-34.68-124.28-13.98-40.48-31.54-79.74-54.17-116.16-4.3-6.92-8.79-13.71-13.44-20.38-2.39,3.66-4.74,7.24-6.93,10.59,2.25,4.33,4.09,7.88,6.44,12.39-6.76,1.07-11.95,1.89-17.66,2.79-1.57-21.45-7.68-39.53-28.28-47.66-4.74-10.97-6.45-21.53-5.12-31.69-2.36-1.15-4.95-3.32-7.67-3.5-3.56-.23-7.42,.61-10.82,1.88-15.76,5.89-29.96,3.99-43.13-6.87-4.28-3.53-9.8-5.61-15.6-3.18-11.97,5.01-21.07,.2-30.61-7.04-13.27-10.07-27.36-19.13-41.55-27.89-7.25-4.48-15.03-8.53-24-10.02-2.41,2.03-4.65,3.91-6.65,5.59,.68,2.69,.87,4.61,1.63,6.27,17.67,38.84,31.64,79.32,51.68,117.1,5.12,9.65,6.42,18.52-1.27,27.49-3.16,3.69-5.55,8.04-7.77,11.31-4.03,1.22-6.9,2.09-9.93,3.01-4.27,9.58-10.73,17.23-20.37,20.87-12.12,4.59-23.04,11.98-36.13,14.41-6.6,1.22-13.06,4.09-19.11,7.13-17.81,8.94-37.02,13.82-55.86,19.73-3.96,1.24-8.4,.97-12.97,1.43-6.78-6.92-13.64-13.21-19.68-20.22-11.95-13.87-27.81-22.14-43.02-31.42-5.22-3.19-11-5.93-15.25-10.15-7.2-7.15-15.03-12.51-24.94-14.98-5.39-1.34-10.54-3.62-15.89-5.13-10.02-2.83-19.22-7.41-27.92-12.87-8.59,7.53-16.94,6.12-26.13-.35-19.61-46.59-54.76-77.31-103.91-93.9-.87,2-2.73,4.21-2.53,6.19,.78,7.36,1.08,15.1,3.68,21.88,7.4,19.3,9.14,39.75,13.04,59.71,2.34,11.99,6.58,24.26,3.93,36.64-2.91,13.57-2,26.79,.23,40.21,1.1,6.66,2.46,13.54,1.87,20.15-.58,6.48,.73,12.19,2.38,18.19,1.3,4.72,1.96,9.64,2.54,14.52,3.24,27.19,2.06,54.38,.09,81.59-.76,10.45-2.37,20.85,.21,31.43,.94,3.87-.37,8.51-1.41,12.61-4.68,18.55-8.85,37.18-9.93,56.34-.5,8.91-3.48,16.56-9.74,23.73-5.41-5.26-9.69-10.49-15-14.3-5.99-4.3-12.89-7.34-19.41-10.91-5.43-2.98-10.95-5.84-13.97-11.56,3.63-11.19,4.17-11.36,.46-22.97-3-9.36-3.97-18.9,.55-27.12,5.45-9.9,6.35-20.02,5.47-30.48-.94-11.17,4.48-21.96,1.32-33.13,3.1-15.08,6.34-30.14,9.25-45.25,3.26-16.98,7.41-33.71,12.99-50.09,2.49-7.3,2.48-14.44-.66-21.73-2.92-6.78-5.05-13.9-7.72-21.44,2.84-8.61,5.73-17.42,8.64-26.23,6.26-18.94,7.03-27.32,4.31-49.24-17.1,8.82-26.36,26.25-41.36,36.09-4.74-.54-8.84-1.01-12.72-1.46-3.29,6.34-5.2,12.57-9.11,17.05-9.33,10.68-16.86,22.73-27.16,32.77-12.83,12.51-24.01,26.68-36.04,40.02-8.68,9.62-17.95,18.73-26.26,28.65-13.43,16.01-29.29,29.92-38.18,49.81-5.44,12.17-13.27,23.66-24,33.75-4.84-2.65-9.4-5.14-14.19-7.76-2.25,1.7-4.14,3.12-5.65,4.27,.14,16.83-.53,33.03,5.88,48.24,4.43,10.51,4.38,20.19-3.13,29.38-.97,1.18-.45,3.57-.61,5.23,3.26,5.45,6.4,10.68,9.27,15.47-2.78,17.48-4.79,34.01,13.6,44.82,6.02-5.3,12.03-6.6,17.59,.82v7.05c9.99,4.11,19.87,8.17,30.15,12.39,4.53-3.2,9.55-6.77,14.61-10.29,6.3-4.37,12.96-4.58,19.06-.19,5.49,3.95,11.35,8.06,15.24,13.4,13.51,18.55,31.2,29.28,53.86,32.73,6.36,.97,13.73,.8,19.52,7.41-8.69,17.2-24.54,28.8-34.64,43.75-.62,12.53-2.48,24.3-1.43,35.79,1.11,12.13,2.55,24.63,8.8,35.69-2.74,12.75,10.19,20.83,8.86,32.69,4.94,4,9.21,7.45,14.27,11.55-.52,7.85-1.06,15.82-1.58,23.8-.28,4.32-1.37,8.8-.58,12.92,1.68,8.71,1.17,17.16-.17,25.81-.75,4.85-.16,9.9-.24,14.86-.37,24.67-.71,49.34-1.23,74.01-.04,1.69-1.45,3.35-2.23,5.02h487.6c.94-12.13,7.29-22.09,12.91-32.35,3.25-5.93,6.24-12.01,9.51-17.92,2.09-3.77,3.77-8.21,6.88-10.9,10.74-9.26,15.9-22.02,21.36-34.23,5.2-11.63,13.31-20.51,20.15-29.69,5.58,.29,5.92,3.5,6.36,6.49,.27,1.83,.27,3.72,.18,5.57-.68,14.56,2.12,28.27,10.74,41.25,4.28,3.03,9.83,6.04,14.2,10.27,7.52,7.27,15.59,9.51,25.38,5.7,.98-.38,2.37,.29,3.91,.52,11.78,8.73,7.3,27.64,22.26,36.04,3.26-1.47,7.11-3.18,10.93-4.95,9.05-4.2,18.01-7.88,28.54-5.69,5.68,1.18,5.85,.33,15.53-6.06,.44-4.82,.93-10.2,1.43-15.68-6.84-2.95-8.08-8.22-6.95-15.07,.8-4.84,1.01-9.91,.61-14.8-.64-7.83,1.25-14.96,5.7-21.09,6.51-8.97,8.32-19.28,9.42-29.74,.65-6.2,1.49-11.9,4.34-17.73,2.91-5.95,3.55-13.01,5.51-20.93,2.61,1.03,5.07,1.99,8.5,3.34,1.96-7.52,4.05-15.57,6.6-25.38,2.78-1.42,7.01-3.58,12.1-6.17-.24-2.96-.21-5.94-.77-8.79-2.99-15.16-4.1-30.53-5.03-45.88h.04Zm-728.22-205.22c-.37-.96-.85-1.89-1.05-2.89-.05-.27,.77-.7,1.19-1.06,.38,.95,.87,1.88,1.07,2.87,.05,.27-.78,.71-1.21,1.07h0Zm682.35-176.4c-7.86-9.93-10.25-20.56-13.52-31.85,9.78,5.12,15.14,13.18,20.11,22.14-1.98,2.91-3.95,5.82-6.59,9.71Z"/>
  <path class="cls-1" d="M2767.22,2364.06c-6.29,6.88-13.04,13.32-20.39,19.07-20.03,15.67-43,23.9-67.46,26.86-.28,16.87-4.83,32.57-13.83,46.32,.5,9.49,.95,18.07,1.4,26.65l-.03,.02h100.5c-1.76-39.65-2.22-79.29-.19-118.93Z"/>
  <path class="cls-1" d="M3886.38,1776.82c-3.37-26.84-17.28-48.91-36.44-66.51-13.74-12.62-28.59-23.51-36.56-41.06-.96-2.12-3.41-3.51-4.85-5.48-2.16-2.96-4.86-5.87-5.86-9.24-2.57-8.69-8.4-15.19-13.89-21.78-11.82-14.18-24.84-27.01-39.16-38.95-17.01-14.18-31.95-30.9-47.32-46.96-15.83-16.54-31.92-32.77-50.12-46.69-7.34-5.61-15.97-9.51-23.37-15.05-14.3-10.71-29.28-20.89-41.87-33.42-12.69-12.63-26.87-23.46-39.88-35.66-13.62-12.78-25.63-26.82-37.95-40.6-8.45-9.46-17.12-17.59-29.03-22.22-9.38-3.65-16.62-10.58-23.65-17.48-8.34-8.19-16.23-16.85-24.08-25.06-4.23,.64-7.22,1.1-10.22,1.55-27.86-16.71-59.49-15.1-78.76,5.57,11.86,5.24,19.7,14.28,25.16,25.64-.7,2.18-1.44,4.51-2.11,6.6-24.01,10.72-47.16,22.3-68.02,37.8-9.4,6.98-20.96,10.41-29.13,19.48-12.83,14.25-31.13,22.06-43.92,36.69-6.84,7.82-15.06,14.71-23.56,20.76-12.79,9.12-23.28,20.35-33.22,32.24-8.64,34.05-18.48,67.8-29.85,101.05-15.43,45.14-32.78,90.26-59.94,129.82-23.09,33.64-53.01,63.04-89.86,81.22-4.88,2.41-9.83,4.59-14.84,6.57-7.88,10.99-15.77,21.98-23.73,32.92-.03,.21-.05,.42-.08,.62-5.1,37.67-11.22,75.21-18.53,112.51,6.17-11.76,12.5-23.43,19.22-34.9,20-34.18,41.77-67.17,64.88-99.3,9.02-12.54,17.72-25.32,26.45-38.07,10.69-15.61,23.49-28.47,41.82-35.22,7.75-2.86,15.04-5.77,22.86-1.88,5.86-3.38,11.17-6.44,16.09-9.27,4.08,.82,7.56,1.52,11.25,2.26,12.11-14.65,23.84-28.86,38.5-46.61-.89,7.07-.54,9.92-1.62,12.04-14.01,27.51-28.34,54.85-46.26,80.11-2.13,3.01-4.93,6-5.77,9.41-3.09,12.44-11.87,21.58-17.96,32.24-8.87,15.54-18.55,30.63-28.19,45.72-12.76,19.97-20.89,41.88-26.82,64.59-2.59,9.93-7.78,16.34-17.15,20.18-6.69,2.74-13,6.44-19.86,9.9,2.67,7.21,5.5,13.32,7.13,19.73s2.06,13.13,3.24,21.19c-2.11,3.56-4.92,8.28-7.73,13,2.75,14.64,3.64,15.07-4.29,31.73-4.68,9.83-5.26,18.65-2.15,28.5,1.3,4.12,1.66,8.54,2.99,12.65,1.51,4.69,2.59,10.09,5.66,13.62,16.78,19.3,30.81,41.8,57.51,50.94,3.87-2.81,8.25-5.98,12.33-8.94,4.48,1.64,4.46,5.02,4.21,7.92-.77,8.92,.93,17.23,5.07,25.13,1.14,2.18,2.58,4.47,2.83,6.82,2.1,19.56,11.54,36.36,19.77,53.63,1.05,2.22,2.23,4.54,2.52,6.92,2.98,24.19,14.93,45.79,20.02,69.39,1.15,5.31,4.44,10.16,6.86,15.49,.02,10.61-6.64,18.26-13.19,25.54-14.03,15.59-27.92,31.42-43.15,45.8-21.63,20.42-38.28,45.19-59.44,65.95-1.08,1.07-.97,3.34-1.42,5.05h602.99c.71-17.95,1.84-35.89,2.02-53.84,.29-30.27-.27-60.56-.02-90.83,.44-52.59,1.63-105.14,4.54-157.68,2.02-36.43,4.01-72.84,6.52-109.25,2.35-34.08,9.42-67.36,14.67-100.93,3.74-23.9,13.67-46.2,21.08-69.14,3.82-11.83,8.06-23.25,16.28-32.14,8.54-2.94,16.58-2.64,24.26,.33,9.5,3.67,20.69,1.94,29.01,10.12,2.34,2.3,8.17,1.28,12.4,1.35,7.93,.14,15.88,.16,23.81-.16,4.26-.17,8.71-.53,12.69-1.9,11.59-4.01,22.86-4.44,33.68,2.01,8.8-5.72,16.97-11.03,25.43-16.54,1.58-10.34,1.9-21.47,9.34-29.48,10.11-10.87,13.71-24.71,18.56-37.86,2.24-6.08,1.99-13.57,1.16-20.2Z"/>
  <path class="cls-1" d="M5555.34,2482.97c-.36-6.15-1.22-12.32-1.01-18.45,1.14-32.77,2.66-65.52,3.83-98.29,.91-25.36,1.03-50.76,4.84-75.94,.54-3.57,.94-7.92-.59-10.89-3.52-6.84-.82-11.76,3.21-16.71,4.67-5.75,9.45-11.42,15-18.12,3.59-2.04,9.02-4.01,13.05-7.58,38.17-33.81,80.91-61.39,122.52-90.52,46.71-32.71,91.74-67.6,134.17-105.77,9.2-8.28,18.9-16.01,28.02-24.39,17.78-16.33,35.31-32.94,51.99-48.54,8.54-32.17,10.35-64.46,22.32-95.65,8.23,6.72,16.99,9.77,19.23,18.79,1.91,7.7,2.52,15.72,3.82,24.38h16.62c1.07,1.9,2.6,3.42,2.71,5.04,.34,4.88,.12,9.8,.12,14.53,7,8.48,15.18,10.14,25.08,6.16,3.25-1.3,7.15-1.02,10.76-1.33,.43-.04,.93,.73,1.69,1.37-3.9,5.42-7.81,10.86-11.3,15.7,.49,7.14,7.91,3.42,10.41,9.58,.96,8.69-.65,18.95-3.91,29.25,11.08,23.9,26.6,44.75,42.91,64.94,26.2,32.42,58.09,59.16,88.88,86.96,1.15,1.04,2.84,1.46,4.62,2.34-2.61-13.33-5.19-21.66-11.14-26.98-14.05-12.54-20.65-28.9-25.88-46.27,8.5-1.04,18.34,1.5,24.88,6.37,27.39,20.37,53.04,42.72,77.23,66.82,22.46,22.37,47.16,42.04,74.51,58.16,9.68,5.7,18.61,12.11,26.23,20.42,3.32,3.62,7.36,6.58,11.26,10.01,2.46,14.68-5.36,24.87-14.69,35.53-25.68,29.34-50.83,59.17-75.3,89.52-27.95,34.66-55.02,70.04-82.3,105.24-3.25,4.19-8.62,7.64-7.08,14.33h-606.71Zm731.07-208.66c2.73-4.41,5.17-8.34,8.28-13.36-7.42-1.56-13.07-2.56-18.31,.97-.65,6.53,2.29,9.84,10.04,12.39h0Zm-269.28-221.69c0,5.12-.53,7.02,.13,8.34,.93,1.89,2.09,4.53,6.4,2.54-1.68-2.8-3.25-5.42-6.52-10.89h0Z"/>
  <path class="cls-1" d="M2348.59,2377.69c3.2,.56,6.41,1.06,9.63,1.53-14.48-7.46-29.07-14.72-44.05-21-14.11-5.92-28.33-11.55-42.6-17.07,18.86,22.11,48.96,31.61,77.02,36.55Z"/>
  <path class="cls-1" d="M2219.81,2321.44c-3.06-1.16-6.12-2.32-9.18-3.49-3.89-1.49-7.78-2.96-11.68-4.44,6.49,3.83,13.54,6.43,20.86,7.92Z"/>
  <path class="cls-1" d="M2145.84,2482.97h327.55c-1.97-10.88-3.9-21.77-5.92-32.64-1.51-8.13-5.45-14.71-11.25-20.83-8.48-8.96-19.09-13.87-30.21-17.49-15.18-4.93-28.95-12.54-42.93-19.88-23.39-1.77-46.65-5.16-68.72-12.61-15.98-5.4-31.34-13.21-43.72-24.83-6.23-5.85-11.43-12.57-15.62-19.88-2.42-.92-4.84-1.83-7.25-2.75-23.12,2.87-46.01-2.01-64.24-17.32-3.94-3.31-7.48-6.98-10.7-10.92-5.38-1.96-10.77-3.92-16.17-5.84-26.25-9.34-50.44-5.23-73.52,12.27,5.22,5.04,9.86,9.92,14.91,14.31,14.3,12.44,32.53,20.39,42.56,37.79,1.3,2.27,4.95,3.19,6.99,4.41,2.02,15.67,.6,29.8-4.46,43.92-3,8.36-5.78,18.03-4.37,26.38,1.26,7.43,.21,14.32,.49,21.67,2.06,1.89,4.25,3.89,6.57,6.02v18.22h0Z"/>
  <path class="cls-4" d="M3781.83,1889.06c-1,.13-2,.26-2.99,.38,.19-.83,.25-1.73,.62-2.47,.18-.35,.97-.38,1.48-.56,.3,.88,.6,1.77,.89,2.65h0Z"/>
  <path class="cls-4" d="M2785.87,1187.75c1.6,.5,3.19,1,5.32,1.67-3.67,2.22-4.98,1.26-4.84-2.16l-.48,.49Z"/>
  <path class="cls-1" d="M2160.69,2454.53c-1.53-14.05-3.35-28.08-5.08-42.11-.83-6.71-1.75-13.41-2.62-20.11-.55-4.27-1.05-8.55-1.62-12.82-.41-3.06-1.06-6.09-1.33-9.16-1.01-11.35-1.91-22.71-2.86-34.06-.05-.61-.11-1.25-.3-1.83-3.82-11.44-4.01-23.39-4.92-35.24-.17-2.15,.31-4.68-.65-6.39-3.79-6.71-2.76-14.35-4.45-21.45-2.76-11.6-3.68-23.64-5.46-35.48-1.04-6.92-2.31-13.81-3.35-20.74-2.14-14.32-4.18-28.65-6.29-42.97-.57-3.91-1.1-7.84-1.91-11.7-.8-3.82-2.05-7.54-2.9-11.35-1.21-5.4-2.67-10.8-3.19-16.28-.52-5.43-2.26-10.16-4.72-14.95-1.91-3.72-1.77-8.61-4.02-12.01-4.95-7.48-5.55-16.07-8.06-24.13-2.05-2.96-3.92-6-5.59-9.14-8.02-15.05-11.1-31.74-15.68-47.92-3.41-12.03-6.36-24.18-9.66-36.24-2.17-7.96-4.57-15.86-6.92-23.77-5.4-18.16-8.93-36.83-15.96-54.57-4.61-11.62-7.54-23.9-11.48-35.79-2.52-7.59-5.81-14.92-8.24-22.53-4.72-14.81-9.02-29.76-13.6-44.62-2.7-8.75-6-17.34-8.32-26.18-2.64-10.03-4.29-20.31-6.71-30.4-4.35-18.12-11.44-35.4-16.03-53.51-3.51-13.82-7.36-27.68-12.9-41.01-5.13-12.37-8.89-25.3-13.19-38.01-3.6-10.65-7.06-21.36-10.69-32-2.27-6.66-4.66-13.27-7.15-19.84-3.8-10.01-7.46-20.09-11.66-29.93-4.71-11.03-10.86-21.53-14.75-32.82-5.04-14.65-12.53-27.98-19.54-41.61-1.54-2.99-3.79-5.61-5.28-8.62-4.07-8.24-7.89-16.6-11.84-24.89-9.09-19.09-18.06-38.24-27.39-57.21-3.23-6.56-7.48-12.62-11.11-18.99-3.01-5.28-5.28-11.08-8.84-15.93-3.33-4.55-5.18-9.67-7.84-14.44-3.1-5.57-6.52-11.6-11.39-15.43-9.69-7.61-19.59-14.76-25.12-25.11-6.64-1.88-12.65-2.68-17.8-5.23-12.37-6.13-24.67-12.55-36.34-19.9-6.45-4.05-13.21-7.35-20.3-8.39-15.71-2.31-29.8-9.22-44.66-13.9-8.44-2.65-16.72-5.83-25.05-8.84-8.57-3.1-17.36-5.73-25.6-9.56-11.46-5.32-23.53-8.73-35.4-12.8-9.51-3.26-18.99-6.6-28.42-10.05-11.5-4.21-22.85-8.84-34.43-12.82-15.33-5.27-30.77-10.26-46.27-15.01-7.59-2.33-15.53-3.53-23.13-5.82-7.56-2.28-14.71-6.58-22.37-7.69-11.82-1.71-22.07-7.35-33.18-10.73-9.9-3.01-20-5.51-29.6-9.27-11.43-4.48-24.76-5.41-33.45-17.56,.06-7.63-8.97-10.53-12.43-16.92,.68-2.43,1.25-4.45,1.89-6.74-3.74-3.08-7.28-5.99-10.88-8.94-1.12-6.18-3.13-12.23-3.09-18.27,.05-8.58-1.88-16.35-5.67-23.87-3.74-7.41-7.69-14.73-11.03-22.31-8.54-19.38-16.83-38.86-25.13-58.35-2.82-6.62-6.29-12.14-14.37-10.95-2.47-2.16-4.54-3.97-6.11-5.34h-7.85c-1.29,2.36-2.4,4.4-3.22,5.9-3.48,0-6.68-.93-8.78,.19-5.11,2.74-10.27,1.49-15.45,1.59-10.25,.2-20.11-2.69-30.85-.87-10.49,1.78-21.77,.9-32.7,1.08-17.23,.3-34.43,1.72-51.63,2.62-17.63,.92-35.03,3.37-52.49,5.25-20.86,2.25-41.56,5.92-62.3,9.21-7.58,1.2-15.05,3.11-22.58,4.65-9.97,2.04-19.95,4.02-29.92,6.07-11.14,2.3-22.3,4.49-33.38,7.02-16.81,3.83-33.59,7.82-50.34,11.93-13.76,3.38-27.37,7.37-41.19,10.45-12.84,2.87-24.88,9.01-38.39,9.22-2.29,.04-4.71,1.49-6.8,2.74-8.56,5.1-17.01,10.37-26.23,16.03-1.98-5.44-3.92-10.77-5.77-15.87-7.08,.17-8.82,1.4-9.92,6.42-.59,2.68-.98,5.42-1.86,8-2.52,7.36-4.27,14.78-3.21,22.62,1.11,8.21,1.58,16.57,3.46,24.6,2.92,12.49,5.94,25.03,9.85,37.23,5.75,4.32,10.91,9.36,14.41,15.46,3.36,5.86,5.47,15.01,2.37,21.62,.83,1.08,1.68,2.15,2.6,3.19-2.22,.58-4.32,.73-5.87,1.17-5.54,5.18-13.39,8.63-19.96,12.05-1.76,.92-3.54,1.81-5.31,2.7,.06,.12,.12,.24,.18,.37-.52,.11-1.04,.22-1.54,.33-11.57,5.8-23.33,11.21-35.02,16.77,.09,.41,.17,.77,.24,1.09-1.92,2.51-4.08,2.35-6.25,1.8-2.5,1.21-4.99,2.43-7.48,3.67,.09,.8,.2,1.66,.32,2.67h-5.62c-2.49,1.28-4.93,2.68-7.33,4.14-.76,1.23-1.53,2.47-2.34,3.78-.86-.27-1.66-.53-2.43-.77-6.78,4.43-13.36,9.26-20.05,13.68-14.96,9.86-30.07,19.51-45.53,28.58-18.02,10.57-36.74,20.7-56.2,28.83,.02,.5,.04,1.01,.07,1.56-.67-.29-1.28-.56-1.87-.81-2.72,1.12-5.44,2.2-8.19,3.23,.44,.46,.88,.92,1.34,1.4-1.82,1.99-3.77,1.18-5.68,.18-2.15,.77-4.31,1.5-6.47,2.21,.75,1.08,1.6,2.32,2.97,4.29-5.64,.58-10.07,1.03-14.53,1.48-.44,2.62-.83,4.9-1.24,7.33-3.48,0-6.53-.54-9.28,.14-3.08,.76-5.9,2.61-8.82,3.98,.59,2.02,1.07,3.67,1.78,6.11-3.42,.61-6.28,1.13-9.51,1.71-.71,1.44-1.51,3.07-2.2,4.48-1.46-.81-2.93-1.63-4.71-2.61-1.26,2.45-2.2,4.26-3.21,6.22-4.06-.12-8.29-1.13-10.56,2.8v3.88c-1.61-1.02-2.81-1.79-5.28-3.36v7.37c-1.73-.12-4.13-.29-6.3-.44-3.99,2.59-7.54,6.31-11.72,7.29-6.46,1.52-9.54,4.94-10,11.41-2.32-.31-4.03-.54-5.77-.77-.78,1.41-1.51,2.73-2.16,3.9h-9.11c-2.77,2.46-5.26,4.68-7.66,6.81,.83,1.53,1.6,2.96,2.99,5.56-4.13-.26-6.93-.43-9.72-.63-3.57-.26-6.53,.88-9.07,3.73,1.29,1.76,2.43,3.31,4.33,5.89-7.12,1.71-13.28,3.19-19.86,4.77-.54,1.06-1.32,2.58-2.43,4.77-2.79-3.61-5.23-6.76-8.08-10.45-6.87,10.79-8.91,23.33-19.44,30.39-1.78-.28-3.55-.55-5.56-.86-2.65,3.35-5.26,6.63-8.11,10.23-1.57-.5-3.53-1.12-5.83-1.84-2.84,2.59-5.6,5.1-8.78,8,3.93,1.93,6.49-4.36,9.85-.2-3.11,3.65-6.8,7.02-9.25,11.14-2.62,4.42-4.24,9.48-5.97,14.38-.81,2.29-.88,4.86-1.27,7.3-.67,4.18-1.33,8.35-2.28,14.34,.66,1.73,1.53,5.42,3.38,8.54,2.16,3.65,1.82,7.09,.69,10.7-1.26,4.03-1.63,9.04-4.3,11.76-3.72,3.78-3.55,8.38-5.36,12.49-.69,1.55-2.27,2.71-3.46,4.06,.48,1.69,.96,3.4,1.42,5.01-6.05,3.5-8.13,7.93-7.35,14.14-3.02,5.26-5.72,9.93-8.45,14.68,3.77,6.11-3.4,8.1-5.13,12.4,.27,1.64,.57,3.43,.81,4.86-3.23,5.77-6.28,11.2-9.53,16.98,.39,.5,1.12,1.42,2.25,2.86-2.43,2.94-4.95,5.98-7.75,9.36,.32,1.47,.75,3.48,1.22,5.64-1.89,1.02-3.44,1.86-5.56,3.01,4.05,5.54-1.68,7.37-4.43,10.5,1.26,1.94,2.32,3.57,3.52,5.43-2.54,1.98-4.67,3.64-7.1,5.53,.41,1.47,.81,2.92,1.22,4.38-3.51,1.4-6.42,3.31-6.34,7.78,1.69,.07,3.05,.13,4.09,.18,1.73,8.62-10.5,7.92-9.57,15.65,1.4,.54,2.51,.97,3.63,1.4,.49,.83,.97,1.67,1.46,2.5-2.37,1.36-4.73,2.73-6.93,3.99-.32,2.7-.6,5.11-.84,7.21-1.99,1.65-3.62,3-5.35,4.43,.21,3.18,.4,6.19,.61,9.36-1.05-.09-1.94-.17-2.66-.23-1.48,5.79-2.97,11.63-4.46,17.46-.31-.18-.63-.37-.94-.55-2.74,4.65-5.48,9.3-8.15,13.84,2.01,2.34,3.34,3.87,4.26,4.94-.1,5.43-5.33,4.34-7.16,7.12-2.02,6.88-5.62,13.53-3,19.99-3.91,4.15-7.18,7.62-10.28,10.91,1.79,2.61,2.92,4.26,4.37,6.38-5.58,3.2-11.61,6.07-5.33,12.94-2.15,1.26-4.18,2.45-6.1,3.57,.58,2.22,1.02,3.9,1.35,5.14-2.85,2.62-5.2,4.78-7.7,7.08,2.51,1.88,4.08,3.06,5.98,4.49-2.09,1.91-3.87,3.19-5.22,4.83-1.89,2.3-4.25,4.63-5.04,7.35-2.35,8.07-4.72,16.02-10.4,22.52-.31,.36-.19,1.1-.31,1.97,.78,.69,1.73,1.46,2.59,2.31,.77,.76,1.45,1.63,1.93,2.17-9.77,11.74-16.6,23.94-16.41,39.54-7.71,2.58-4.76,12.28-11,16.12,2.06,1.91,3.54,3.28,5.24,4.86-5.27,1.97-8.28,4.72-9.03,8.23,1.48,.84,2.96,1.67,3.79,2.14-1,3.64-1.81,6.6-2.63,9.56-1.91,.75-3.8,1.49-5.97,2.34,.63,2.36,1.09,4.12,1.59,5.99-1.54,1.17-3.16,2.4-4.87,3.7,.43,2.4,.79,4.41,1.14,6.35-2.18,1.28-4.18,2.47-6.82,4.03,1.88,1.99,3.27,3.45,4.83,5.1-2.2,.85-4.31,1.67-7.25,2.82,5.12,5.7-1.19,11.25,1.56,16.44-3.44,2.96-6.58,5.65-9.87,8.48,2.27,2.49,3.87,4.23,6.22,6.8-8.6,5.81-12.88,13.93-15.35,23.94,2.46,.32,4.29,.55,5.58,.71,.32,7.01-10.22,4.59-9.35,12.02,1.12,1.51,2.25,3.03,3.69,4.97-4.42,1.59-8.74,2.44-8.42,8.24,2.75,2.01,6.1,4.27,2.86,9.13-4.89,.48-7.51,3.97-8.87,7.67,.21,4.08,6.59,3.13,4.16,8.42-2.09,.58-4.61,1.29-6.6,1.85-3.2,5.17,2.28,5.76,3.84,8.87-2.36,1.97-4.62,3.86-6.88,5.76,.37,1.44,.74,2.87,1.08,4.21-2.44,2.91-4.79,5.71-6.57,7.83v15.1c-2.37,2.58-3.99,4.35-5.55,6.05,1.1,2.22,2.01,4.06,3.04,6.14-2.12,1.76-3.98,3.29-5.86,4.85v8.33l-.87-.26c-3.32,9.68-6.65,19.36-10.04,29.2,1.52,1.26,3.08,2.55,4.8,3.97-4.57,3.72-9.2,6.81-11.09,12.7,2.24,1.35,4.16,2.52,7.24,4.37-3.27,2.25-5.59,3.84-8.55,5.88-.4,3.84-.85,8.17-1.39,13.3-1.29,1.35-3.38,3.54-5.49,5.75,1.91,2.54,3.48,4.63,5,6.64-4.03,7.65-12.82,12.56-10.85,22.73,1.33,.07,2.23,0,3.07,.19,.65,.15,1.21,.63,2.5,1.35-2.88,1.94-5.12,3.46-7.51,5.07-1.26,3.32-2.57,6.76-3.94,10.37,1.11,2.19,2.19,4.35,3.28,6.5-1.7,1.19-3.94,1.91-4.49,3.3-3,7.62-7.5,14.78-7.88,23.28-.13,2.94-.6,5.59-3.96,6.52h-.01v7.44c2.68,.71,5.37,1.43,8.57,2.28-.27,.41-.96,1.27-1.41,2.24-.36,.79-.44,1.72-.78,3.15,2.1,1.08,4.17,2.15,6.2,3.19,1.5,5.62,2.99,11.21,4.41,16.51-1.85,3.7-3.48,6.97-5.16,10.35,2.13,6.51,4.21,12.9,6.72,20.59-1.14,5.26-4.05,12.07,.52,19.2,1.58-.76,2.89-1.39,4.3-2.07,2.4,4.7-3.26,6.11-3.77,9.92,2.02,2.71,4.29,5.75,6.5,8.72-2.75,3.7-5.81,6.73-2.25,11.51,1.54-.65,3.15-1.34,4.97-2.12,.32,.71,1.08,1.58,.91,2.21-.54,2.01-1.33,3.96-2.18,5.87-2.14,4.82-1.12,11.77,2.71,15.4,.87,.83,2.7,.65,4.52,1.03-1.67,4.31-3.35,8.65-5.09,13.13,2.84,2,4.81,3.38,7.4,5.21-3.93,4.64-5.9,9.58,.05,13.33-1.6,7.57-2.95,14.01,1.58,20.4,1.79,2.52,1.55,6.48,2.23,9.79H2162.65c-.64-8.24-1.06-16.51-1.96-24.73Z"/>
  <path class="cls-1" d="M4427.52,2479.25c2.85-4.18,5.55-8.47,8.59-12.5,3.48-4.61,7.54-8.8,10.83-13.53,4.92-7.09,10.47-13.45,17.87-18.27-.39-1.43-.78-2.85-1.32-4.84,3.58-2.59,7.3-5.28,10.39-7.52,2.67-4.02,4.96-7.46,7.39-11.13-.23-.75-.57-1.91-.77-2.56,9.43-6.15,16.17-14.24,22.66-24.99,2.94-1.27,5.61-4.93,8.54-9.16,4.37-6.31,8.25-13.54,15.48-17.58,1.28-.71,2.62-1.95,3.15-3.26,5.4-13.28,16.04-22.31,26.24-31.4,9.6-8.56,20.28-15.91,30.59-23.66,5.87-4.41,11.78-8.83,18-12.71,4.37-2.72,9.32-4.53,14.16-6.82,.27-6.78,5.98-10.42,7.45-16.73,1.36-5.84,1.62-11.55,1.94-17.33,.39-7.09,.23-14.22,.18-21.33-.02-3.64,.4-7.48-.61-10.86-2.3-7.67,2.46-15.12-.94-23.29,2.36-1.93,4.48-3.68,6.33-5.19,1.03-.12,1.7-.41,2.16-.21,3.09,1.34,6.1,2.85,9.21,4.16,2.24,.94,4.67,2.53,6.85,2.3,7.46-.8,13.74,2.34,20.47,4.56,7.13,2.35,12.75,6.22,16.89,12.18,3.8,5.48,9.12,9.46,13.18,14.79,5.01,6.57,8.29,13.59,10.89,21.18,1.58,4.62,3.22,9.22,4.94,14.15-.67,3.22-1.96,7.04-2.19,10.92-.95,16.13,2.75,31.65,6.54,47.16,1.65,6.79,3.37,13.6,4.36,20.5,1.44,10.03,1.23,20.41,3.64,30.17,2.27,9.22,2.12,18.3,2.33,27.51,.02,.93-.13,1.94,.19,2.77,4.14,10.77,2.21,22.02,2.79,33.08,.57,10.79,1.9,21.54,2.8,32.32,.23,2.7-.09,5.45,.14,8.15,.26,3.01,.87,5.98,1.33,8.97h-312.67Z"/>
  <path class="cls-1" d="M6994.38,1388.51c4.98,.54,5.49,2.74,4.57,5.91-4.08,.62-3.94-2.21-4.57-5.91Z"/>
  <path class="cls-1" d="M5095.65,2482.97c4.11-3.66,8.01-7.59,12.38-10.9,4.88-3.69,10.19-6.82,14.96-9.96-.49-34-.81-67.1-1.52-100.19-.39-18.39-1.09-36.76-.71-55.16,.16-7.4-.15-14.86-.88-22.22-2.03-20.35-1.73-40.54-.25-61.01,2.27-31.45,8.25-62.16,14.3-92.93,.45-2.29,1.61-4.43,2.48-6.74,10.02,4.1,14.13,11.67,15.48,21,3.35,23.2,7.55,46.34,9.49,69.66,2.61,31.34,4.3,62.7,10.43,93.67,2.26,11.44,2.55,23.31,3.17,35.01,1.19,22.83,1.97,45.69,2.95,68.53,.08,1.84,.33,3.67,.55,6.07,5.59,2.99,11.93,5.39,16.99,9.4,4.74,3.76,8.13,9.23,12.55,14.46,3.13,.34,6.71,.73,10.92,1.19,1.16,1.69,3.24,3.51,3.77,5.71,1.44,5.93,2.36,12,3.23,18.06,.89,6.22,8.54,9.3,7.42,16.37h-137.72v-.02Z"/>
  <path class="cls-1" d="M1738.26,2482.97c-.02-3.69,0-7.38-.07-11.07-.25-12.78,4.76-25.6-.37-38.33,1.94-10.97,.83-21.94,.34-32.95-.13-2.81,2.49-5.63,3.09-8.59,1.29-6.45,2.09-13,3.45-21.86,7.4-6,7.32-17.69,10.98-27.96,3.67-10.3,3.67-20.38,1.87-31.1,2.5-2.64,5-5.29,8.06-8.53,1.01-6.59,2.11-13.82,3.22-21.05,.53,0,1.07,0,1.6-.02,.83,4.69,1.58,9.4,2.52,14.08,.38,1.89,1.06,2.08,7.8,3.4,4.28-8.14,2.24-16.91,1.68-25.32-1.15-17.26-2.99-34.48-4.63-51.71-.76-7.98-1.87-15.93-2.5-23.92-.23-2.94,.47-5.95,1.16-13.44,4.75,12.63,8.49,21.01,11.07,29.74,9.29,31.44,19.37,62.64,25.83,94.88,2.9,14.49,8.38,28.44,11.86,42.83,3.19,13.18,5.15,26.66,7.87,39.97,5.21,25.43,10.67,50.8,15.78,76.24,.96,4.78,.74,9.79,1.07,14.7h-111.68Z"/>
  <path class="cls-1" d="M353.61,2482.97c7.51-35.61,15-71.23,22.52-106.84,7.26-34.36,14.68-68.68,21.79-103.07,5.87-28.37,11.39-56.81,17.07-85.22,1.93-9.64,3.73-19.31,5.89-28.9,.46-2.06,2.22-3.83,3.26-5.53,4.34,1.32,3.49,4.17,3.53,6.23,.74,35.84,1.61,71.63-1.94,107.45-2.8,28.24-3.53,56.68-5.55,85-1.49,20.9-3.66,41.75-5.38,62.63-1.88,22.74-3.58,45.5-5.36,68.25h-55.83Z"/>
  <path class="cls-1" d="M7030.86,1920.93c-1.58,6.08-9.33,2.8-11.71,7.83-.36,2.73-.74,5.58-1.17,8.81-9.64,2.81-19.8,4.15-25.99,13.01-21.04,10.71-42.35,20.34-66.84,19.32-9.87-.41-19.79-.29-29.67,.08-10.44,.39-20.85,1.91-31.28,2-23.35,.2-44.58-8.36-65.65-17.14-2.05-.86-3.3-3.5-5.16-5.01-1.41-1.15-3.21-1.82-4.71-2.63-2.49,.63-4.79,1.21-7.07,1.78-.56-1.08-1.48-2.06-1.54-3.09-.56-8.86-1.72-9.87-12.07-10-1.57-6.03-5.82-8.88-12.75-8.57-.14-2.86-.27-5.73-.46-9.81-2.15-2.35-5.01-5.48-7.77-8.5-2.01,.7-3.67,1.27-5.26,1.82-6.12-2.43-1.47-7.67-2.93-11.52-2.25-5.89-8.79,.2-10.96-5.55-.17-2.16-.41-5.09-.65-8.2-1.94-.39-3.7-.75-6.49-1.31-3.15-8.21-7.57-16.56-17.03-20.68-1.03-.45-2.36-1.71-2.4-2.65-.42-8.57-7.91-12.91-11.28-19.52-3.56-6.98-9.3-11.95-13.39-18.29-.61-.95-1.98-1.45-3.04-2.09-4.8-2.91,1.12-11.21-7.41-13.25-3.7-.89-6.6-6.93-8.94-11.15-1.71-3.09-1.9-7.01-3.1-11.89-2.91-2.09-8.59-4.13-10.39-7.98-2.23-4.77-4.49-9.94-7.75-13.5-3.39-3.69-7.03-7.39-8.1-11.84-2.28-9.49-11.71-15.45-11.96-25.87-.03-1.24-3.88-2.38-6.35-3.8-1.15-3.92-2.26-8.53-3.87-12.95-1.63-4.49-6.68-4.15-10.61-6.75v-9.75c-6.66-5.98-13-11.68-20.27-18.21-2.02,.89-4.67,2.05-7.86,3.46-1.79-1.06-4.68-1.79-5.84-3.61-4.42-6.92-13.53-2.35-18.56-7.91-.58-.65-4.27,1.52-8.96,3.31-1.65-2.15-3.83-4.98-6.31-8.21-1.59,.39-5.14,2.15-5.91,1.32-4.77-5.14-11.23-3.62-16.87-5.01-12.23-3.04-12.26-2.92-24.55-12.42-1.85,.95-3.97,2.03-6.09,3.12-1.16-.28-2.47-.31-3.45-.89-4.71-2.82-9.39-5.72-13.98-8.74-4.55-2.99-11.35,.12-14.85-5.58-7.34,3.08-9.13-6.05-15.51-6.99-5.86-.86-13.2-2.24-17.6-8.03-7.07,.82-10.5-5.98-15.87-7.82-16.24-5.56-29.05-18.68-46.75-20.73-4.84-.56-9.97-2.84-14.39-1.82-12.57,2.9-25.79,3.7-38.48,10.7-1.17,2.41-2.33,5.97-4.4,8.88-5.37,7.55-10.93,14.55-21.01,16.94-5.77,1.36-10.86,5.59-17.26,9.08-5.46,.04-11.38-.65-18.04-3.62-10.21-4.56-22.6-3.38-32.75,.62-32.48,12.79-67.06,17.06-100.32,26.54-4.07,1.16-7.92,3.05-11.9,4.61-1.15,22.27-2.2,43.89-3.42,65.5-.77,13.57-.79,27.24-8.38,39.51-3.84,6.21-2.37,13.17-.45,19.87,7.65,26.79,15.33,53.57,22.89,80.38,5.7,20.23,11.92,40.34,16.64,60.8,6.29,27.25,7.31,55.16,8.3,83.04,.39,11.08,1.37,22.22,3.26,33.12,.78,4.46,4.68,8.38,7.16,12.55,10.79,2.05,13.34,11.82,17.6,19.54,6.67,12.1,14.82,22.85,25.07,32.05,12.58,11.29,26.91,19.75,42.17,26.89,10.56,4.94,21.57,9.18,30.43,16.23,1.12,5.6-2.31,7.77-5.78,8.56-4.75,1.08-9.78,1.2-14.69,1.21-3.69,0-7.38-1.18-11.08-1.22-7.6-.09-14.61-1.08-20.77-6.38-2.62-2.25-6.75-2.73-10.01-3.94-10.61,7.99-12.3,8.5-23.4,4.07-27.21-10.87-53.01-24.12-73.72-45.51-9.64-9.96-20.89-17.72-33.7-22.61-18.39-7.01-30-21.06-39.68-34.08-1.37-15.75-2.54-29.12-3.84-44.1,.45-.51,1.95-2.43,3.67-4.14,9.15-9.15,14.8-19.31,13.42-33.11-1.51-15.17-3.99-29.58-15.8-40.49-8.65-7.99-17.54-15.73-26.28-23.63-5.52-4.99-11.26-9.78-16.33-15.19-4.16-4.43-7.48-9.64-11.51-14.96,2.19-3.18,3.84-5.59,6.52-9.48,1.41-10.08,.12-21.43-3.99-32.8-4.62-12.79-8.36-25.92-12.23-38.97-6.34-21.41-6.46-42.77,1.65-63.79,3.71-9.61,4.76-19.23,1.22-28.95-1.87-5.14-4.15-10.28-7.14-14.82-5.8-8.79-12.41-17.03-18.37-25.72-7.01-10.22-15.1-20.04-13.2-32.16-24.9-22.22-24.88-48.87-20.05-76.61,.74-4.23,2.34-8.38,4.03-12.36,14.02-33.07,27.7-66.3,44.58-98.07,19.81-37.27,43.03-72.3,69.95-104.82,10.25-12.38,20-25.42,31.72-36.28,21.23-19.67,43.49-37.72,70.57-50.03,24.13-10.96,49.48-14.9,73.98-21.02,7.25,4.51,19.42,7.04,36.5,7.59,2.15-3.8,4.78-7.91,6.9-12.27,17.83-36.44,44.41-65.28,76.73-89.29,7.33-5.45,14.06-11.72,24.37-20.39,15.24-4.4,34.48-11.55,54.35-15.31,28.56-5.4,57.57-8.21,86.63-2.17,9.06,1.88,18.31,2.88,27.37,4.76,10.36,2.15,19.75,6.77,29.3,11.36,20.05,9.64,39.95,19.52,59.38,30.35,8.66,4.82,17.22,9.85,25.69,15,1.9,1.15,3.26,3.18,6.71,6.65h-36.42c-.46,3.05-.77,5.11-1.04,6.96,1.95,.79,3.14,1.75,4.11,1.58,6.64-1.2,13.24-2.65,19.85-4.01,1.81-.37,3.68-1.23,5.42-1.04,15,1.69,29.43-2.97,44.21-3.81,37.93-2.14,72.04,8.3,103.01,30,16.82,11.79,32.2,24.98,43.84,42.12,6.61,9.73,11.83,19.98,14.83,31.53,7.78,29.91,7.28,59.99,3.56,90.33-1.12,9.16-1.02,18.5-1.11,27.76-.02,2.2,1.43,4.42,2.34,7,2.39-.21,4.17-.11,5.79-.57,1.75-.5,3.36-1.51,4.87-2.22,2.1,1.53,4.05,2.94,6.18,4.49,3.46-1.84,6.62-3.52,9.66-5.14,1.37,.42,2.77,.47,3.62,1.19,4.21,3.56,8.48,7.08,12.33,11.02,7.3,7.46,15.87,11.17,26.41,11.64,12.32,.56,24.88,.94,36.82,3.67,16.79,3.84,34.21,8.12,47.99,18.68,13.45,10.31,27,21.33,33.91,38.07,3.24,7.87,7.19,15.19,9.63,23.64,6.08,21.01,4.98,41.46-.59,61.9-6.51,23.88-15.68,46.83-26.13,69.29-3.33,7.15-7.49,14.12-8.71,23.17,2.62,1.66,5.07,3.26,7.56,4.79,2.57,1.57,5.18,3.06,8.76,5.17-3.54,5.02-6.61,9.39-9.74,13.83,5.97,6.38,11.64,12.44,19.21,20.55,11,6.16,26.48,3.17,40.8,6.54,2.61,.61,5.79-1.65,8.78-2.17,6.7-1.16,10.01,2.08,9.1,9.53-.31,2.55-1.05,4.69,1.01,6.64,.42,.39,1.09,.52,2.73,1.26,2.88-3.13,6.01-6.55,9.03-9.84,10.04-.85,15.4,5.21,19.79,12.1,3.95,6.19,7.7,12.65,10.47,19.43,4.96,12.17,6.44,23.95,1.87,37.61-4.09,12.2-11.56,21.44-18.28,31.42-17.27,25.61-35.43,50.61-52.86,76.11-5.19,7.59-9.38,15.98-4.68,25.27-3.55,2.4-8.5,.91-9.28,5.95l.5-.29c-3.57,1.42-2.13,2.96-.11,4.51l-.48-.35,.03-.02Zm-502.34-345.98c-.3-.9-.61-1.81-.91-2.71l-1.5,1.53c.92,.28,1.84,.55,2.77,.83,.91,1,1.82,1.99,2.73,2.99,.49-.62,.99-1.24,1.48-1.87-.99-.4-1.95-.9-2.97-1.16-.47-.12-1.06,.25-1.59,.39h0Zm376.33,342.16l.35,.22c-1.55-.73-3.51-2.46-4.59-2.02-7.29,2.94-14.8,5.63-21.5,12.06,9.45,1.93,17.24-1.1,24.38-3.83,10.78-4.12,20.98-9.92,31.08-15.62,4.38-2.47,4.06-5.23,.1-12.58-3.09,6.38-6.68,12.79-13.7,13.53-6.83,.72-10.52,6.03-16.12,8.24Zm-128.03-100.24c.81-12.07-.14-13.11-9.78-10.9,2.18,4.26,2.62,9.24,9.78,10.9Zm-726.03-131.84v-14.96c-7.28,3.7-7.32,4.55,0,14.96Zm-54.65-7.47c-.97,.21-1.94,.41-2.92,.62,.3,4.45,.61,8.9,.91,13.35,.67-.02,1.33-.05,2-.07v-13.9h0Zm132.57,410.94c-.61-.7-1.15-1.49-1.87-2.05-.23-.18-.93,.26-1.41,.41,.73,.75,1.42,1.54,2.22,2.21,.12,.1,.7-.36,1.07-.56h0Zm-129.74-335.47c-.2-.45-.41-.91-.61-1.36-.3,.39-.9,.85-.83,1.16,.14,.58,.66,1.07,1.03,1.6,.14-.46,.27-.93,.41-1.39h0Zm286.82-154.15c-1.04-.4-2.05-.92-3.12-1.11-.41-.07-.95,.61-1.43,.94,.69,.61,1.39,1.7,2.07,1.69,.83-.02,1.64-.97,2.48-1.52h0Zm-286.48,167.66c-.3-.4-.6-.81-.9-1.21-.37,.34-1,.66-1.03,1.04-.03,.37,.53,.8,.83,1.2,.37-.34,.73-.68,1.1-1.03h0Z"/>
  <path class="cls-1" d="M1234.5,510.24c.41-2.24-.64-4.81-1.25-7.17-4.03-15.63-8.9-30.89-18.99-43.93-6.77-8.74-13.28-17.69-20.09-26.41-19.27-24.71-38.84-49.18-57.9-74.06-15.7-20.5-37.22-30.33-61.76-34.17-21.94-3.43-44.21-4.82-66.07-8.64-13.5-2.36-26.88-2.8-40.43-3.2-12.99-.38-25.95-1.92-38.95-2.46-20.41-.85-40.85-1.82-61.27-1.7-9.78,.06-19.67,1.93-29.3,3.97-44.77,9.5-83.02,31.49-116.88,61.74-11.99,10.71-24.04,21.33-37.87,29.78-11.13,6.81-19.62,16.13-25.56,28.02-12.79,25.6-21.73,52.65-29.98,79.87-3.27,10.79-8.15,19.1-18.48,24.9,2.64,10.44,.76,18.73-2.42,26.92-7.04,18.13-7.59,37.3-7.06,56.23,.2,6.98,0,13.31-2.35,19.65-.06,.18-.14,.35-.21,.52,2.94,34.89,9.56,69.64,16.75,103.92,10.41,1.58,18.3,7.84,24.86,16.6,1.07,1.44,2.69,2.53,4.2,3.57,14.3,9.8,28.28,20.13,43.04,29.19,26.8,16.45,54.08,32.11,81.13,48.16,4.74,2.81,10.61,4.96,13.65,9.11,5.41,7.38,12.56,11.24,20.44,14.28,1.87,8.87,11.85,11.31,14.52,19.31,11.87,5.04,17.89,16.8,27.71,24.67,8.01-.7,16.2-2.99,23.8-1.71,11.99,2.02,21.71-.81,30.2-7.93,6.74-13.48-8.21-21.44-7.75-34.01,2.9-1.77,5.8-4.79,9.11-5.34,12.25-2.06,20.7-10.07,30.01-17.12,10.29-7.79,20.65-15.74,34.17-19.93,11.36,8.49,24.73,13.19,38.48,17.16,10.91,3.15,19.87,9.43,27.83,17.75,11.11,11.61,23.39,22.11,34.6,33.63,7.02,7.21,15.12,9.87,24.84,10.19,12.16,.4,22.43-5.65,33.38-7.92,3.27-6.68,6.17-12.61,8.79-17.97h9.88c2.47-5.38,4.74-10.32,6.71-14.61,8.22-1.97,14.99-5.11,20.31-9.44,2.61,2.47,5.07,5.26,7.99,7.43,3.34,2.48,7.09,4.41,10.17,6.29,5.37-2.73,9.6-4.88,13.26-6.74,2.15-4.95,4.08-9.38,6.08-13.98-4.18-11.85-4.3-23.52,.75-35.57,3.07-7.31,5.08-15.39,5.82-23.28,1.96-20.91,5.13-41.84,3.17-62.93-.59-6.34,.37-12.12,2.1-18.19,3.55-12.48,7.15-25.07,9.04-37.86,6.13-41.49,11.5-83.08,17.32-125.78-4.88-8.7-11.88-18.17-9.57-30.81h.03Zm-431.9-148.76c9.97-6.51,15.94-10.4,23.63-9.08,.73,.13,1.18,1.86,1.92,3.11-6.26,5.62-13.82,5.66-25.55,5.97Zm61.55,441.2c-.08,.08-.88-.6-1.34-.93,.78-.84,1.55-1.68,2.33-2.53,.34,.39,1.03,1,.95,1.12-.54,.85-1.2,1.65-1.94,2.34h0Zm23.45-450.99c6.59-3.27,12.06-3.04,18.33,.63-6.5,2.81-11.99,3.02-18.33-.63Zm83.47,10.57c11.39-2.04,20.61-.13,29.51,4.23-8.25,1.39-18.08-.02-29.51-4.23Zm66.41,12.98c-.25-.12-.28-.68-.4-1.04,.53-.14,1.06-.29,1.6-.43,.15,.6,.3,1.21,.45,1.81-.55-.1-1.16-.1-1.64-.35h0Zm49.37,428.34c-6.39-3.01-12.27-5.88-15.33-12.4,3.66-2.87,11.23-1.98,22.7,2.67-2.86,3.77-4.97,6.57-7.37,9.73Zm13.19-403.54c-.35,.36-1.13,.77-1.45,.61-16.47-8.2-34.68-12.57-52.44-23.23,13.55-1.77,23.56,3.23,33.75,6.61,8.19,2.72,15.78,6.88,20.79,14.17-.3,.91-.33,1.52-.66,1.86v-.02Z"/>
  <path class="cls-1" d="M3208.22,1220.78c-3.1,1.79-6.19,3.72-8.9,6.22v15.28c1.78,1.63,3.64,2.77,5.57,3.57,1.14-8.35,2.24-16.71,3.33-25.07Z"/>
  <path class="cls-1" d="M3814.16,681.39c13.14,32.09,25.2,64.58,36.82,97.23-5.87-21.51-11.11-43.2-17.6-64.53-5.03-16.52-11.47-32.64-17.64-48.8-2.85-7.47-7.56-14.35-9.63-21.99-3-11.06-9.82-18.29-19.07-23.99-.01,0-.02-.01-.03-.02,9.57,20.46,18.59,41.18,27.15,62.09Z"/>
  <path class="cls-1" d="M3838.56,773.48c-19.81-55.26-41.24-109.99-66.72-162.87-23.26-12.41-47.93-21.58-73.15-29.28-17.12-5.23-34.77-8.73-52.19-13-30.03-7.36-59.94-15.46-91.36-13.37-1.22,.09-2.47-.2-3.7-.37-17.82-2.44-34.47,1.16-50.24,9.57-4.92,2.62-10.06,4.82-15.01,7.38-20.35,10.53-40.4,21.69-61.06,31.57-38.22,18.29-69.17,45.33-96.02,77.54-16.2,19.43-30.64,40.04-44.04,61.34-14.3,49.28-20.75,100.63-26.56,151.49-6.48,56.71-14.51,113.17-21.24,169.83-4.67,39.3-9.2,78.64-14.04,117.94,.63,7.75,1.27,15.58,1.88,23.52-1.08,3.87-3.24,6.69-5.97,9.03-1.45,11.3-2.94,22.59-4.47,33.88,5.89,.22,12.03-.41,17.98,1.39,1.73,8.58,11.18,10.81,16.25,18.49,1.49-2.29,3.42-4.11,3.89-6.26,.88-3.99,2.37-6.55,6.67-7.74,4.91-1.37,4.98,5.22,9.09,5.16,6.62-1.13,13.24-2.26,20.17-3.44,2.44,1.87,4.76,3.96,7.37,5.57,9.21,5.68,19.56,9.25,29.99,6.84,9.55-2.21,18.23-1.11,27.41,.63,7.85,1.5,15.93,1.77,23.91,2.62,11.05,1.17,22.11,2.24,33.12,3.67,2.96,.38,6.53,1.15,8.49,3.09,4.7,4.65,10.18,3.82,15.67,3.64,10.37-.33,20.77-1.33,31.74,1.62,9.61-5.64,19.7-11.55,28.78-16.88,14.03,.04,25.92,14.1,39.23,2.83-2.45-5.41-5.8-10.08-6.6-15.15-1.52-9.57-1.85-19.26-5.64-28.44-1.09-2.63,.02-6.1-.21-9.16-.23-3.01-.58-6.08-1.38-8.98-2.45-8.93-5.28-17.74-7.68-26.68-.95-3.55-2.46-7.72-1.46-10.91,5.29-16.95-.43-32.99-3.56-49.12-2.94-15.16-7.66-29.97-11.02-45.06-2.06-9.26-6.04-17.3-11.43-24.58-2.35-.24-4.19-.43-5.98-.61-2.09,2.2-4.11,4.32-6.94,7.28-9.35-4.46-19.09-8.42-28.14-13.61-9.55-5.48-14.47-16.5-24.36-21.01-3.02-10.43-4.3-20.16-3.64-30.17,.68-10.49,1.31-20.98,1.75-31.47,.88-21.07,3.98-41.81,9.44-62.17,1.08-4.01,3.18-7.74,4.42-10.67,40.56,6.78,76.78,21.42,109.34,42.11,5.61,23.57,11.02,45.79,16.13,68.08,1.1,4.79,1.24,9.82,1.58,14.76,.41,6.03,3.45,10.54,8.04,13.98,1.11,.82,3.36,.12,5.22,.12-.87-4.5-3.5-8.7,1.75-11.62,4.23,.07,8.41,5.44,13.42-.51-2.65-8.32-3.48-17.29-.4-26.42,.51-1.51-1.47-3.85-2.58-5.9l.16-.13c-2.36-10.85,1.98-20.93,4.3-31.03,10.67-46.48,22.27-92.75,33-139.22,3.68-15.95,9.65-30.69,19.47-43.61,8.11-10.68,15.52-22.15,28.61-28.11,17.46-7.95,34.54-16.71,51.93-24.81,11.72-5.46,23.69-10.39,35.84-15.69,7.84,4.78,15.2,9.27,22.28,13.59,4.03,9.71,7.8,18.81,11.51,27.75,9.33,6.43,16.71,15.19,22.15,26.3,1.09,2.22,2.15,4.47,3.31,6.66,10.48,19.73,19.58,39.93,22.15,62.48,.41,3.66,.82,7.6,2.46,10.77,1.81,3.5,2.37,8.74,9.01,9.06,.4-2.14,1.03-4.33,1.18-6.56,.76-10.94,.59-22.02,2.25-32.8-5.12-14.75-10.28-29.48-15.55-44.17Zm-392.22,285.19c5.65,2.28,11.25,4.68,18.05,7.52-2.87,4.94-5.47,9.4-8.67,14.89-16.06-9.1-19.49-12.77-26.06-27.13,6.91-2.92,11.36,2.57,16.68,4.72Zm87.64-300.27c-3.35-5.26-.68-7.13,2.92-8.69,3.91,3.89-.02,5.64-2.92,8.69Z"/>
  <path class="cls-1" d="M5568.53,851.35c4.63,4.31,9.12,8.49,14.05,13.07,2.86,7.62,5.86,15.75,8.96,23.85,9.51,24.85,19.08,49.67,28.59,74.52,2.19,5.71,5.43,11.23,3.53,17.76-10.26,1.1-13.13,.1-18.36-7.03-6.95-9.5-13.7-19.15-20.67-28.63-.94-1.28-2.7-1.95-4.3-3.06-4.19,9.79,5.77,18.01,1.06,28.14-7.83-3.44-14.59-9.01-19.31-15.28-6.21-8.26-12.43-18-14.12-27.88-4.8-27.94-16.3-53.19-27.65-78.62-7.29-16.33-13.71-33.1-24.76-47.57-2.43-3.18-3.9-8.09-3.7-12.1,.52-10.54-1.2-20.66-4.9-31.35,3.68,.68,5.89,1.1,8.13,1.51,2.54-7.07,3.16-15.3,1.87-24.7-.63-.46-2.79-1.75-4.62-3.4-13.74-12.37-16.55-28.4-13.89-45.51,5.49-35.31,19.12-67.83,35.75-99.17,13.65-25.72,30.05-49.71,47.06-73.28,5.45-7.56,10.66-15.12,13.93-24.01,1.4-3.83,4.21-7.63,7.37-10.25,18.05-15,35.77-30.61,56.64-41.62,21.96-11.59,44.92-20.68,69.87-23.98,11.58-1.53,22.96-4.63,34.54-6.02,20-2.39,40.01-5.53,60.4-2.26-.71-7.61-6.66-5.56-11.03-8.1,1.33-3.01,2.69-6.11,3.79-8.6,10.3-6.15,20.65-7.16,31.2-4.64,12.18,2.91,24.58,1.14,36.81,2.47,20.41,2.23,40.06,7.59,59.04,15.1,18.37,7.28,36.26,15.79,54.61,23.12,22.1,8.82,41.47,22.11,60.36,36.11,5.69,4.22,9.8,10.58,14.83,16.17,1.91-1.63,4.09-3.49,6.79-5.78,5.2,2.89,10.46,5.81,16.38,9.1,1.77,12.81,11.93,22.09,15.53,34.53,.57,1.95,3.31,3.39,5.24,4.8,2.37,1.73,4.95,3.19,7.57,4.85-1.12,2.48-1.66,4.26-2.64,5.76-5.96,9.17-5.8,18.41-1.5,28.29,3.45,7.91,5.9,16.25,9.09,25.25,3.62-.3,7.1-.59,10.53-.88,1.01,.79,2.13,1.41,2.91,2.33,6.99,8.19,11.25,17.83,13.93,28.09,5.78,22.11,10.27,44.31,12.68,67.24,4.36,41.51,1.61,82.95,2.44,124.41,.14,6.76-.95,13.56-1.77,20.31-1.36,11.12-.58,22.06,.52,33.23,1.51,15.33,1.05,30.89,.78,46.34-.07,3.86-2.66,7.68-4.61,12.93-5.13-4.64-9.09-8.23-12.81-11.6-7.72,2.52-4.76,14.16-14.55,13.7-.46,6.82-.92,13.52-1.51,22.17-3.7-2.45-6.44-3.58-8.2-5.57-2.82-3.17-5-6.91-7.89-11.05-12.46,11.2-24.84,22.26-37.12,33.42-3.04,2.76-5.76,5.88-7.18,10.87,6.88-3.61,13.75-7.22,20.22-10.61,4.24,1.29,5.21,3.67,4.53,7.23-1.87,9.89-5.5,18.03-13.74,25.15-11.65,10.05-21.84,21.93-31.81,33.73-17.27,20.44-36.78,38.44-57.58,55.13-1.76,1.42-3.89,2.39-6.15,3.75-1.02-5.43-1.86-9.88-2.91-15.48,5.65-17.64,19.7-31.35,30.72-47.81-4.83-8.81-6.8-18.25-5.61-28.34,.6-5.07,1.95-9.48,5.28-13.54,19.26-23.5,38.5-46.94,64.35-63.87,6.62-4.34,12.44-9.9,18.59-14.87,5.89,4.74,6.09,4.75,12.09,1.11,.48-1.12,1.42-2.27,1.37-3.36-1.15-24.49,3.3-49.72-9.87-74.24-2.33,2.75-4.55,4.54-5.71,6.86-7.48,14.98-15.56,29.55-27.23,41.77-1.18,1.23-3.04,1.81-5.23,3.06-5.56-7.17-8.59-13.98-7.65-23.72,1.14-11.79,4.47-22.81,7.45-34.02,5.31-19.96,6.28-34.3,2.98-53.73-2.75-1.63-5.85-3.48-9.41-5.6-1.38-17.02-15.01-25.8-26.27-36.08-4.95-4.52-11.02-7.94-16.89-11.32-26.19-15.06-51.33-31.88-79.49-43.55-21.65-8.97-42.12-20.55-61.64-33.67-3.33-2.24-6.52-6.3-11.31-3.47-2.58,2.58-.8,4.86,.38,6.73,13.28,20.96,28.61,40.41,44.28,59.6,3.52,4.32,7.01,8.7,10.93,12.64,8.73,8.76,17.71,17.26,26.61,25.84,4.88,4.7,10.03,9.14,14.63,14.09,5.11,5.5,10.08,10.77,18.08,11.96,2.3,.35,5.09,1.61,6.44,3.38,4.51,5.94,11.34,6.77,17.74,8.09-1.74,10.99-12.89,12.04-17.63,19.52-28.51,.37-54.37-6.25-76.14-26.54-29.94-27.9-58.33-57.33-86.18-87.23-19.38-20.81-36.48-43.67-51.06-68.34-8.45-14.3-17.36-28.38-28.93-40.66-9.41-9.99-15.94-21.99-17.36-37.71-12.47,6.67-22.12,14.93-32.46,22.13-10.61,7.39-21.51,14.36-33.18,22.11-19.77,46.49-43.32,92.21-59.42,141.26-12.47,38-18.27,76.52-16.41,116.33,.26,5.56,.54,11.13,.92,18.77v.02Zm546.53-162.07c.23-.53,.8-1.24,.63-1.57-.63-1.19-1.5-2.26-2.28-3.37-.29,.43-.92,1.14-.82,1.26,.92,1.15,1.96,2.2,2.97,3.28,.35,1.28,.69,2.57,.38,1.4,.79,.9-.04-.05-.88-1h0Zm-585.64,131.68c.76-8.79-1.14-15.99-5.71-21.6-5.58,9.16,1.21,14.32,5.71,21.6Z"/>
  <path class="cls-1" d="M4121.79,1640.07c-16.44,18.29-35.43,25.83-53.81,34.6-17.86,8.52-35.24,18.04-52.87,27.04-2.59,1.32-5.42,2.2-8.88,3.58-1.69-7.37-1-13.27,3.05-18.46,4.17-5.35,8.51-10.59,13.05-15.62,7.88-8.74,16-17.26,23.97-25.93,7.17-7.81,12.61-16.66,17-26.37,3.02-6.67,7.01-13.13,11.65-18.8,8.67-10.58,9.44-22.48,7.56-35.07-.36-2.4-2.48-4.7-2.36-6.97,.9-17.86,1.82-35.81,10.44-52.1,4.62-8.74,9.71-17.23,15.11-26.74-10.11-11.63-16.77-25.71-31.95-32.54-9.36-4.21-14.36-13.46-19.08-22.22-11.51-21.36-20.61-43.79-26.26-67.34-6.49-27.07-11.93-54.41-17.15-81.76-1.71-8.97-2.88-18.06-1.91-27.6,.83-8.13-2.35-16.63-3.53-25.01-.41-2.86-.76-5.97-.09-8.71,4.26-17.38,8.97-34.66,13.24-52.04,5.04-20.53,12.32-40.16,21.88-59.05,5.85-11.57,10.65-23.68,15.72-35.63,1.74-4.1,3.21-8.14,9.04-8.91,.91,.99,1.96,2.33,3.21,3.43,.79,.69,1.89,1.04,2.86,1.53,.94-.73,2.42-1.28,2.72-2.21,3.57-11.34,9.85-21.23,16.4-30.98,8.96-13.34,17.88-26.7,27.19-40.6,6.5-.4,12.76-1.08,18.38-6.14,8.7-7.82,19.01-13.81,28.05-21.28,14.14-11.68,30.97-18.06,47.42-25.17,7.91-3.42,16.08-5.01,25.23-2.75,8.84,2.19,18.31,1.86,30.09,2.85,17.47-6.07,38.16-8.54,59.14-10.59,14.18-1.39,28.24-2.36,42.45-2.38,15.18-.02,28.48,3.89,41.6,12.42,20.89,13.58,39.6,29.23,56.42,47.46,5,5.41,10.49,10.63,16.57,14.72,14.85,10,25.89,24.02,38.92,35.91,7.54,6.89,13.15,15.87,19.71,23.86,16.3,19.86,24.35,44.04,35,66.86,2.01,20.07,10.5,39.63,4.35,60.38-.95,3.2,.99,7.24,.1,10.48-.94,3.36-3.7,6.22-5.67,9.31,1.54,2.66,2.75,4.74,4.06,7-1.81,5.46-3.67,11.08-5.54,16.72,1.87,1.74,3.18,2.96,4.71,4.38,2.17,8.58-6.21,8.67-11.23,12.73-1.32,13.47-11.48,23.35-17.8,35.49-5.2-8.49-6.17-17.48-4.28-26.93,2.06-10.3,4.19-20.59,6.35-31.19-5.29-21.69-13.83-42.22-28.12-59.73-8.82-10.81-14.81-24.49-30.13-32.08,.78,4.37,1.19,7.15,1.79,9.89,3.44,15.66,7.44,31.22,10.16,47.01,1.3,7.55,3.64,15.98-3,22.93,3.98,10.74,13.94,15.06,24.35,20.96-3.84,2.44-6.48,4.12-9.45,6.01,3.73,9.97,11.16,17.42,17.91,24.66-1.36,4.01-3.68,3.8-6.26,3.19-12.37-2.9-22.98-8.98-32.27-17.56-14.11-13.04-26.63-27.54-38.79-42.37-6.27-7.65-12.74-15.17-18.53-23.18-4.67-6.47-8.76-13.42-12.56-20.46-13.13-24.32-28.27-47.02-49.24-65.51-5.96-5.25-10.79-11.77-16.15-17.71-2.84-3.15-5.7-6.29-9.27-10.23-2.04,3.64-4.63,6.2-4.76,8.89-.53,10.44-.37,20.93-.28,31.39,.13,16.1,.43,32.19,.59,48.29,.08,8.33-2.77,15.72-7.26,22.65-4.38,6.76-8.67,13.59-12.61,20.6-3.93,6.99-7.93,14.04-10.91,21.45-6.75,16.82-17.87,29.51-33.63,38.31-18.48,10.31-37.72,18.71-58.43,23.46-3,.69-5.99,1.44-9.74,2.35-4.15,7.14-8.32,14.59-12.77,21.86-1.57,2.57-3.43,5.28-5.84,6.96-6.89,4.82-8.7,11.62-8.86,19.4-.33,16.11-.08,32.27-1.31,48.32-1.42,18.45-1.83,37.09-6.71,55.14-.96,3.57-1.79,7.22-3.25,10.59-1.45,3.34-3.61,6.38-5.87,10.27-4.61-4.15-8.65-7.81-13.05-11.77-3.67-53.61-12.32-106.43-27.12-157.91-4.05-2.97-7.37-5.76-11.03-8.01-3.64-2.24-7.61-3.95-10.95-5.64-13.69,11.41-29.48,18.79-42.9,33.9-4.63,17.37-4.85,37.26,3.97,56.83,2.28,5.06,3.57,10.57,5.79,15.67,1.69,3.89,3.63,7.88,6.33,11.09,14.86,17.67,26.68,37.41,36.56,58.01,6.05,12.63,13.85,23.29,24.07,32.08,18.16,15.61,27.24,36.23,34.59,58.07-1.86,12.09,4.74,24.02,.19,36.36-2.05,5.57-1.9,11.95-2.61,16.95-6.51,4.78-10.26-.23-15.5-2.33-1.12,3.07-2.64,5.71-3.03,8.51-2.99,21.56-9.78,42.12-15.95,62.87-2.2,7.4-5.79,13.41-12.34,18.7-7.05-2.57-9.21-7.94-8.85-14.45,.44-7.95,1.54-15.87,2.82-28.39l-.02,.05Zm-31.56-84.1c-1.59,2.5-4.15,4.92,.38,9.71-.4-4.68-.63-7.4-.86-10.12,.16,.14,.32,.27,.48,.41h0Zm131.33-292.72c6.92-6.11,10.56-9.38,14.26-12.58,27.24-23.61,45.22-53.6,59.38-86.2,1.47-3.39,2.57-6.95,3.71-10.48,1.86-5.72,1.07-10.78-3.24-15.39-3.32-3.56-6.06-7.67-9.6-12.23-3.1,3.29-6.11,6.21-8.79,9.4-7.93,9.45-14.98,19.77-23.74,28.36-17.87,17.52-26.62,38.22-25.21,63.11,.39,6.92-.48,13.43-2.89,19.92-1.45,3.91-2.01,8.14-3.88,16.09h0Zm290.05-130.09c-2.15-9.01-4.97-9.38-10.78-6.38,3.67,2.17,5.9,3.49,10.78,6.38Z"/>
  <path class="cls-1" d="M3415.36,563.39c1.28,.51,2.57,1.03,3.95,1.58,.53-.84,1.02-1.72,1.47-2.62-1.81,.34-3.61,.69-5.42,1.03Z"/>
  <path class="cls-1" d="M3425.15,551.46c2.38-6.12,5.26-11.63,12.16-13.84,.38-1.28,.75-2.5,1.1-3.69-6.31,6.31-12.75,12.49-19.24,18.63,1.99-.37,3.98-.74,5.98-1.1Z"/>
  <path class="cls-1" d="M1760.72,2128.84c-3.8-6.2-7.75-12.31-11.35-18.62-2.72-4.77-4.99-9.8-8.11-16,1.9-7,3.96-15.25,6.44-23.38,1-3.28,3.54-4.94,7.54-3.06,.31,1.37,1.12,3.15,1.03,4.88-.89,16.62-1.14,33.14,4.01,49.3,.71,2.22,.04,4.88,.02,7.33l.43-.45h-.01Z"/>
  <path class="cls-1" d="M2132.97,369.07c.12-.41,.24-.82,.36-1.23l-.78,.81,.42,.42Z"/>
  <path class="cls-1" d="M7030.95,1917.06c.44,.92,.98,1.82,1.23,2.78,.06,.23-.85,.72-1.32,1.09l.48,.35c.04-1.5,.07-3.01,.11-4.51l-.5,.29Z"/>
  <path class="cls-1" d="M1760.29,2129.29c.14-.15,.29-.3,.43-.45l-.43,.45Z"/>
  <polygon class="cls-1" points="6904.85 1917.11 6904.22 1917.73 6905.2 1917.34 6904.85 1917.11"/>
</svg>