<?xml version="1.0" encoding="UTF-8"?>
<svg xmlns="http://www.w3.org/2000/svg" viewBox="0 0 7000 2076">
  <defs>
    <style>
      .cls-1 {
        stroke: #006382;
        stroke-miterlimit: 10;
        stroke-width: 50px;
      }

      .cls-1, .cls-2 {
        fill: #006382;
      }

      .cls-3 {
        fill: #006892;
      }
    </style>
  </defs>
  <g id="bg">
    <path class="cls-3" d="M7105.33-1.21H-664.34V2799.88H7114.7V115.66c-3.74-38.94-6.88-77.9-9.37-116.87Z"/>
  </g>
  <g id="cloud">
    <g>
      <path class="cls-2" d="M4965.6,821.77c-2.51,2.03-5.41,2.49-8.56,2.45-9.67-.13-19.34-.11-29.01-.18-5.84-.04-11.68-.15-17.51-.18-2.03,0-4.06,.19-6.09,.23-2.28,.05-4.56,.06-6.83,.02-1.01-.02-2.03-.37-3.03-.32-17.28,.77-34.56-.21-51.84-.06-16.79,.14-33.59,.07-50.38,.11-2.29,0-4.57,.19-6.86,.19-4.57,0-9.14-.12-13.71-.08-3.29,.03-6.57,.22-9.86,.38-1.01,.05-2.04,.44-3.01,.31-12.17-1.61-24.39-.63-36.58-.75-6.09-.06-12.19,.27-18.28,.26-46.85-.12-93.69-.33-140.54-.42-37.44-.07-74.89-.02-112.33-.02-33.1,0-66.2,0-99.31,0-21.14,0-42.27,0-63.41,0-66.97,0-133.94,0-200.91-.01-21.65,0-43.3,.03-64.94,0-23.42-.04-46.84-.22-70.27-.19-43.04,.04-86.07,.25-129.11,.27-45.59,.02-91.18-.13-136.78-.15-36.16-.02-72.33,0-108.49,.09-15.27,.03-30.55,.37-45.82,.36-17.82,0-35.65-.33-53.47-.35-37.95-.03-75.9,.12-113.85,.09-39.48-.02-78.95-.21-118.43-.24-31.58-.03-63.15,.08-94.73,.11-21.65,.02-43.3-.06-64.95,.04-11.67,.05-23.35,.47-35.02,.55-7.37,.06-14.75-.19-22.13-.31-.76-.01-1.54-.21-2.28-.11-4.3,.63-8.56,.38-12.89-.04-4.27-.41-8.61-.06-12.93-.06-7.63,0-15.27-.11-22.9-.02-3.55,.04-7.09,.6-10.65,.66-4.56,.08-9.13-.09-13.7-.15-6.21-4.57-13.2-2.3-19.79-1.86-15.96,1.07-31.88,2.72-47.81,4.2-9.59,.89-19.17,1.86-28.75,2.87-1.17,.12-2.29,.68-3.74,.23,1.03-.49,2.02-1.12,3.1-1.44,13.65-4.02,27.35-7.73,41.45-10.07,11.51-1.91,22.82-4.98,34.28-7.25,9.95-1.98,19.98-3.56,30.48-5.4,3.73-3.84,3.02-10.28,6.87-14.85,1.62-.66,3.59-1.24,5.34-2.23,1.81-1.02,2.68-2.62,2.68-4.97-.01-4.59,1.75-8.6,4.61-11.87,2.95-3.38,5.91-6.74,8.82-10.05,1.11,.18,2.09,.34,3.39,.56,1.53-2.8,3.08-5.64,4.83-8.85,2.84,.79,5.66,1.57,8.73,2.42,.78-1.12,1.62-2.33,2.47-3.55,1.43,.19,3.04,.9,4.24,.47,2.19-.79,3.11,1.6,4.89,1.42,1.47-.14,2.94-.28,4.79-.45,.06,1.25,.1,2.19,.16,3.6,.98,.47,2.29,1.1,3.52,1.69,1.31-.79,2.36-1.43,3.73-2.25,.77,1.73,1.53,3.44,2.39,5.38,5.04-.36,9.57,.91,13.8,3.61,3.41-.84,6.66-2.94,10.36-1.49,4.83,2.3,3.29,8.21,6.55,11.79,5.11,.14,9.68-2.31,14.53-3.59,4.65-1.23,9.34-2.32,14.44-3.58-.63-3.82-1.23-7.47-1.82-11.06,1-1.18,1.81-2.13,2.64-3.12,1.02-1.86-1.36-4.67,1.58-6.06,.89-3.64,2.79-7.07,2.2-11.25,3.22-2.65,4.33-7.23,8.23-9.48,1.13-3.08,4.11-4.24,6.48-5.92,1.74-1.24,3.52-2.97,6.21-1.97,.79,.29,2.1-.15,2.91-.67,3.74-2.39,8.25-1.82,12.21-3.32,1.11-.42,2.44-.26,3.68-.34,1.25-.08,2.62,.17,3.75-.25,3.41-1.26,6.8-1.82,9.95-.21,1.94-1.33,3.39-2.33,5.07-3.48,1.52,.43,3.17,1.24,4.84,1.28,1.72,.04,3.45-.68,5.66-1.18,3.96,1.81,8.38,2.91,12.46-1.04,3.67,5.34,8.88,4.84,14.24,4.67,.42-.72,1.25-1.7,1.61-2.82,1.76-5.51,5.74-9.48,9.24-13.8,1.48-1.83,2.96-3.43,5.55-3.61,.93-.07,1.91-.66,2.69-1.24,4.52-3.38,9.72-5.26,15.03-6.89,1.2-.37,2.37-.4,3.19-1.69,.48-.76,1.57-1.23,2.49-1.59,9.16-3.58,18.3-7.22,27.53-10.61,3.5-1.28,7.24-1.91,10.86-2.88,1.47-.39,2.91-.87,4.35-1.34,1.2-.39,2.35-.98,3.58-1.22,5.95-1.16,11.92-2.23,17.89-3.34-.82-3.63-1.04-4-3.28-5.59-2.67-1.9-5.38-3.77-8.03-5.69-3.48-2.52-5.24-6.69-8.74-9.22-.48-.35-.56-1.39-.66-2.13-.28-2.06-2.11-1.85-3.71-2.54-.76-1.87-2.39-3.98-2.27-5.99,.17-2.79-1.67-4.02-3.02-6.16,.34-1.73,.72-3.69,1.19-6.09-.55-.72-1.29-1.69-2.22-2.9,.44-1.48,.93-3.13,1.53-5.17-.46-.37-1.04-.84-1.99-1.61,.17-1.07,.27-2.5,.64-3.85,.32-1.16,1.35-2.22,1.36-3.34,.05-7.23,5.48-12.08,7.83-18.27,3.84-3.92,5.52-9.74,10.88-12.31,1.38-2.85,3.91-4.64,6.29-6.49,2.37-1.86,4.52-4.01,7.61-4.97,1.47-.46,2.4-2.99,3.82-3.25,4.1-.76,6.78-4.48,10.97-4.79,.5-.04,1.11-.03,1.48-.31,3.54-2.6,7.92-3.08,11.75-4.75,4.81-2.1,9.59-3.03,14.66-3.32,.97-.06,1.94-.28,2.55-.37,1.48-1.42,.9-2.71,.62-3.87-2.24-9.15-3.92-18.38-4.45-27.81-.14-2.52-.8-5.01-.96-7.53-.32-4.84-.13-9.61,1.22-14.36,.9-3.16,.86-6.58,1.71-9.75,2.36-8.83,5.5-17.36,10.53-25.09,.83-1.27,1.73-2.56,2.21-3.98,2.43-7.21,7.25-12.93,12.46-18.01,10.57-10.3,21.88-19.76,35.17-26.62,8.38-4.32,16.92-7.96,25.94-10.84,16.12-5.15,32.64-7.65,49.36-8.7,7.81-.49,15.67-.64,23.48-1.25,5.31-.42,10.61-1.19,15.93-1.33,11.99-.31,23.82,1.31,35.63,3.8,1.49-1.3-.15-2.69-.15-4.08,0-1.51-.28-3.04-.55-4.53-.27-1.5-.93-2.97-.97-4.47-.21-8.38-1.9-16.61-2.56-24.92-.79-9.87-.21-19.82,1.56-29.6,.99-5.45,1.13-11.15,4.04-16.14-.45-5.01,3.51-8.81,3.74-13.64,4.42-6.49,6.73-14.16,11.7-20.39,3.31-4.15,6.23-8.64,8.99-13.18,3.5-5.77,8.44-10.25,13.46-14.4,5.26-4.35,10.22-9.13,16.1-12.81,2.77-1.73,5.44-3.65,8.34-5.23,4.02-2.18,7.97-4.5,11.96-6.74,8.02-4.52,16.6-7.47,25.59-9.44,7.18-1.57,14.31-3.2,21.69-3.59,2.19-.12,4.44-2.09,6.47-1.81,3.55,.49,6.49-.67,8.56-1.55,3.77,0,6.52,0,9.28,0,2.54,0,5.08-.03,7.62,.02,.75,.01,1.53,.46,2.24,.35,7.48-1.22,14.57,.79,21.72,2.46,8.41,1.96,16.96,3.47,25.22,5.96,12.1,3.64,24.32,7.14,34.91,14.53,4.14,2.89,8.98,4.97,12.62,8.35,5.53,5.13,11.71,9.81,15.8,16.26,3.39,5.34,6.09,11.13,8.9,16.81,3.03,6.14,4.87,12.73,6.94,19.25,1.83,5.76,4.22,11.37,7.58,16.56,1.89,2.92,2.93,6.43,4.1,9.76,3.21,9.11,5.81,18.35,7.23,27.96,.76,5.14,.03,10.15-.03,15.18-.1,7.87-2.16,15.57-4.48,23.12-.43,1.41-1.41,2.65-2.09,3.89,.98,2.89,3.6,3.7,5.67,5.05,3.61,2.37,7.29,4.65,11.03,6.82,2.49,1.45,4.47,3.29,5.91,5.79,3.51,6.1,6.27,12.51,8.51,19.74,11.57,2.16,21.94-3.64,32.99-6.15,4.17-4.04,8.36-8.11,12.57-12.16,5.85-5.64,12.1-10.73,18.66-15.57,12.26-9.05,25.02-17.22,38.46-24.34,8.54-4.52,17.55-8,26.55-11.51,7.31-2.85,15.03-4.56,22-8.45,4.94-2.75,9.54-5.95,13.53-9.75,5.4-5.15,11.63-9.06,17.6-13.34,5.37-3.84,11.07-7.22,16.73-10.63,7.18-4.34,14.46-8.52,21.7-12.76,.65-.38,1.37-.67,2.09-.93,10.52-3.71,20.41-8.93,30.86-12.81,1.14-.42,2.19-1.11,3.32-1.7-1.4-3.82-2.84-7.3-3.92-10.88-1.03-3.41-1.61-6.94-2.52-10.39-1.57-5.96-2.17-11.99-1.71-18.15,.24-3.29,.18-6.61,.52-9.88,1.44-13.6,4.47-19.1,11.27-31.11,7.72-13.65,18.24-24.96,30.9-34.24,2.03-1.49,4.25-2.74,6.46-3.97,4.42-2.47,8.94-4.74,13.32-7.28,4.92-2.85,10.57-3.35,15.8-5.23,6.96-2.5,14.16-4.03,21.63-3.96,1.76,.02,3.54-.4,5.3-.65,12.22-1.77,24.28-.98,36.37,1.54,11.99,2.5,23.63,5.97,35.13,10.08,4.03,1.44,8.38,1.98,12.46,3.32,3.35,1.11,6.72,2.47,9.7,4.33,2.38,1.49,4.75,1.47,7.14,1.48,1.93,1.38,3.58,3.38,5.58,3.83,3.71,.84,6.44,3.18,9.15,5.29,3.78,2.95,6.97,6.66,10.29,10.17,.83,.88,1.23,2.2,1.73,3.35,.91,2.08,1.81,4.16,2.61,6.28,.71,1.87,1.68,3.77,1.82,5.71,.2,2.9,1.15,5.35,2.62,7.8,2.62,4.34,4.92,8.86,8.4,12.65,1.5,1.63,2.58,3.64,3.84,5.47,10.61-1.55,18.19-.62,30.46,2.85,3.9,1.1,7.85,1.81,11.54,3.78,3.2,1.7,6.13,3.6,8.69,6.1,2.91,2.83,5.88,5.63,8.55,8.68,1.48,1.69,2.61,3.78,3.55,5.85,4.06,8.92,5.69,18.25,5.64,28.12-.05,10.6-2.44,20.64-5.08,30.73-2.92,11.15-7.95,21.36-13.56,31.33-1.26,2.24-2.47,4.4-2.45,7.03,1.56,2.1,3.82,2.48,6.11,2.62,11.77,.7,22.87,4.21,33.86,8.06,5.48,1.92,11.34,3.49,16.08,6.65,5.06,3.38,10.52,6.07,15.44,9.68,10.7,7.84,20.18,16.92,28.6,27.52,1.64,.14,3.38,.43,5.13,.4,8.13-.11,16.25,.07,24.39-.53,5.23-.39,10.58,.73,15.87,1.21,1,.09,1.99,.55,2.99,.53,6.7-.12,12.96,1.9,19.28,3.75,3.38,.99,6.88,1.49,10.31,2.4,12.49,3.31,23.45,9.53,33.92,16.75,1.76,1.21,3.44,2.43,5.43,2.35,3.74-.14,7.63,.91,11.21-1.18,.83-.48,1.93-.68,2.91-.69,3.8-.04,7.61-.11,11.41,.12,10.96,.65,21.58,2.87,31.72,7.18,5.44,.5,9.58,4.34,14.8,5.68,3.24,.83,6.1,3.55,8.84,5.77,2.35,1.9,4.36,4.23,6.39,6.49,4.12,4.58,7.55,9.89,9.39,15.55,2.08,6.44,2.85,13.47,1.33,20.37-1.06,4.8-3.64,8.99-6.26,12.98-5.71,8.7-12.38,16.56-19.86,23.94-11.08,10.91-23.58,19.99-35.51,29.79-3.71,3.04-7.99,5.38-11.96,8.13-.97,.67-1.73,1.66-2.76,2.69,2,2.47,5.14,1.72,7.52,4.16,1.55,1.84,3.67,4.34,6.01,7.12,.7,3.38,1.48,7.11,2.19,10.53,2.89,5.22,9.47,6.7,11.38,12.87-1.86,1.19-3.74,2.39-5.65,3.6-3.56,6.62-7.12,13.26-10.31,19.18-4.24,2.75-7.8,5.12-11.43,7.39-2.36,1.48-4.87,2.72-7.2,4.25-8.05,5.27-16.71,9.51-24.79,14.73-1.7,1.1-3.48,2.13-5.32,2.98-7.4,3.41-14.19,7.87-21.2,11.97-7.67,4.49-15.54,8.65-23.25,13.09-3.25,1.87-7,3.19-9.09,7.22,.32,2.64,1.77,5.6,.23,8.56,1.75,2.97-1.35,4.91-2.1,7.76,7.08-.57,13.62-1.05,20.15-1.63,12.21-1.09,24.37-.37,36.57,.32,17.23,.96,34.52,1.65,52.12-1.75,.34,1.24,.93,2.35,.87,3.41-.06,.9-.68,1.98-1.39,2.6-4.58,4-8.46,8.69-13.3,12.49-6.85,5.37-14.02,10.07-21.82,13.87-1.34,.65-2.51,1.65-4.22,2.79,3.02,1.03,5.52,1.88,8.27,2.82-1.12,.69-1.96,1.2-3.26,2,4.01,1.33,7.68,2.61,11.4,3.74,1.19,.36,2.52,.5,3.77,.43,3.99-.22,7.59,1.12,10.88,3.06,2.32,1.37,4.66,1.91,7.24,1.91,5.59,0,11.17,.09,16.76,0,4.06-.07,4.7,.5,4.87,4.62,.06,1.46,.24,3.05,.86,4.34,.87,1.79,2.2,3.36,3.18,4.8,.07,3.35-1.67,4.96-4.3,5.87-3.09,1.08-6.18,2.14-9.79,3.39,.78,1.87,1.39,3.37,2,4.84,10.54,.29,20.68,.02,30.83-.34,4.54-.16,9.09,.22,13.58-.84,7.54,1.3,15.13,.73,22.72,.85,4.26,.06,8.59-1.63,12.82,.08,5.73-1.76,11.61,1.06,17.37-.56,1.14-.32,2.51,.11,3.77,.25,1.01,.11,2.06,.59,3,.42,6.61-1.2,13.25,.73,19.77-.07,7.11-.87,14.2-.42,21.29-.7,4.06-.16,8.13-.46,12.15,.69,1.19,.34,2.67,.62,3.77,.22,5.23-1.89,10.61-.67,15.9-1.04,1.76-.12,3.58,0,5.31,.34,3.03,.62,5.97,1.12,8.97-.2,.88-.39,2.04-.41,3.01-.26,6.06,.96,12.14,.07,18.05,.33-2.41,1.28-4.95,2.62-8.23,4.36,3.15,1.88,5.76,2.29,8.47,2.29,3,0,5.36,1.22,7.28,3.47,3.67,4.3,8.25,6.59,14.82,5.78,1.11,1.59,2.42,3.47,3.66,5.25,4.41-.9,8.17-.77,11.83,.45,2.25,.75,4.45,.71,6.74,0,2.18-.67,4.44-1.09,7,.11,1.57,4.2,2.48,8.55,.45,12.87,1.36,2.15,.77,4.86,3.06,6.19v3.06Zm-512.83-398.79c-1.44-1.02-2.14-1.79-3.01-2.09-6.69-2.3-13.39-4.57-20.14-6.69-.76-.24-1.82,.46-2.72,.72-1.64,6.42,1.55,11.49,3.07,16.84,5.58-.32,15.49-4.1,22.81-8.78Zm-116.61-186.19c-1.21,3.53-2.1,6.63-3.33,9.59-1.29,3.13-2.9,6.13-4.36,9.19,6.3-2.72,11.49-6.76,17.34-11.11-2.9-2.73-4.87-5.93-9.65-7.67Zm-799.14,544.51c-2.5-.2-3.97,.67-4.65,3.03,1.84,.86,3.57,.99,5.54-.48-.27-.79-.57-1.64-.89-2.56Zm-232.08-93.76c1.54,.9,2.12,.22,2.72-1.6-1.18,.7-1.89,1.11-2.72,1.6Zm10.37-1.28c-.19-.22-.36-.57-.49-.55-.87,.12-1.72,.32-2.57,.52-.04,.01-.05,.5,0,.51,.83,.19,1.67,.4,2.51,.46,.17,.01,.38-.62,.56-.93Z"/>
      <path class="cls-2" d="M2743.1-2.11c1.52,1.66,2.91,3.45,4.58,4.94,4.73,4.22,9.69,8.18,14.32,12.51,4.25,3.98,8.06,8.42,12.27,12.45,8.63,8.27,16.33,17.36,23.83,26.63,2.22,2.75,4.28,5.65,6.21,8.61,6.22,9.57,12.1,19.36,18.59,28.74,3.51,5.07,5.49,10.8,8.48,16.02,4.29,7.49,8.32,15.09,11.93,22.92,1.26,2.74,2.26,5.61,3.26,8.46,1.77,5.03,3.4,10.1,5.17,15.13,2.27,6.45,4.15,13,4.81,19.61,4.59,2.91,9.43,3.24,14.38,4.48,1.62-1.66,3.28-3.2,4.76-4.89,2.85-3.24,5.45-6.71,8.44-9.8,2.64-2.72,5.65-5.1,8.57-7.54,6.04-5.06,12.55-9.33,19.37-13.35,7.96-4.7,16.78-7.18,24.88-11.4,2.66-1.38,5.8-1.84,8.72-2.71,12.48-3.74,25.34-5.42,38.26-6.5,4-.34,8.14,.2,12.13,.85,7.24,1.18,14.62,2.04,21.37,5.09,5.3,2.39,10.34,5.36,15.43,8.18,5.77,3.2,10.23,8.09,15.33,12.16,4.95,3.97,9.83,8.08,14.34,12.54,7.28,7.21,11.41,16.04,12.16,26.35,.15,2.02,.23,4.04,.36,6.33,12.4,4.67,25.28,8.4,35.41,18.09,9.91,9.48,17.84,20.06,22.69,32.77,.56,.32,1,.81,1.43,.79,5.84-.14,11.64,.06,17.36,1.41,6.88-1.14,13.57,.29,20.33,1.3,4.74,.71,9.67,.19,14.19,2.31,.22,.1,.51,.13,.75,.1,9.14-1.38,17.53,2.29,26.24,3.81,1.96,.34,3.95,.48,6.12,.74,.49,1.82,.92,3.47,1.32,4.96,.66,.32,1.11,.72,1.54,.7,1.76-.1,3.56-.11,5.24-.56,2.13-.58,4.01-.24,6.42,.89,5.42,6.66,11.07,13.78,16.91,20.74,6.95,8.28,15.17,14.82,25.74,17.94,3.43,1.01,6.71,2.27,9.71,4.28,1.24,.83,2.75,1.37,4.21,1.76,2.69,.72,5.33,1.25,7.47,3.39,.97,.97,2.82,1.01,4.22,1.59,1.38,.57,2.71,1.25,4.04,1.94,1.57,.81,3.05,2.22,4.68,2.42,5.76,.7,10.36,3.99,15.37,6.36,2.07,.98,3.97,2.2,6.39,2.29,1.21,.05,2.46,.56,3.58,1.1,1.55,.75,3,1.72,4.53,2.62-1.3,5-4.63,6.78-9.12,6.83-4.84,.06-9.68-.01-14.52-.02-8.91-.02-17.82-.02-26.73-.05-8.13-.03-16.26-.13-24.39-.14-1.78,0-3.6,.02-5.31,.41-2.03,.46-3.95,.58-6.01,.13-1.72-.37-3.54-.37-5.32-.32-17.53,.43-35.06-.09-52.58-.03-14.74,.05-29.49,.08-44.23,.05-27.23-.05-54.47-.17-81.7-.21-8.9-.01-17.81,.22-26.71,.23-11.7,.02-23.41-.17-35.11-.05-7.11,.07-14.24,.97-21.32,.67-5.28-.22-10.6,.55-15.86-.48-1.48-.29-3.04-.19-4.57-.2-9.93-.09-19.88-.63-29.77-.08-7.39,.41-14.75-.36-22.08,.16-8.39,.59-16.73-.22-25.09-.07-8.14,.15-16.28-.13-24.42-.06-3.55,.03-7.09,.44-10.64,.69-1.01,.07-2.1,.41-3.03,.17-6-1.57-12.11,.08-18.13-.8-.75-.11-1.57-.27-2.27-.08-6.31,1.75-12.65-.18-18.96,.16-3.54,.19-7.09,.38-10.63,.51-1.76,.06-3.54,.14-5.28-.05-5.07-.56-10.12-.8-15.19,.08-1.5,.26-3.18,.74-4.53,.33-7.78-2.36-15.69-.82-23.51-.89-12.96-.11-25.93,.92-38.87,.5-8.13-.27-16.25-.43-24.37-.48-21.85-.12-43.71-.21-65.56-.24-10.17-.02-20.36,.47-30.51,.06-10.93-.44-21.82,.38-32.74,.16-10.94-.22-21.89,.16-32.84,.19-7.88,.02-15.76-.13-23.64-.15-1.52,0-3.17-.13-4.53,.39-6.39,2.48-12.72,5.09-19.01,7.81-2.08,.9-3.84,2.57-5.94,3.33-1.83,.66-3.95,.53-5.94,.74-.4,.87-.68,1.55-1.03,2.2-.34,.64-.74,1.24-1.23,2.07-2.2-.77-4.29-1.51-6.63-2.33-.06-.88-.13-1.81-.2-2.75-.4-.07-.9-.3-1.32-.2-2.43,.58-1.95,3.31-3.36,4.68-5.39-4.42-5.92-4.41-10.59,.97q-4.38-4.22-9.37-4.92c-1.93,.99-.7,2.67-.96,4.49-1.36,.96-2.98,2.1-4.34,3.07-6.02-1.57-10.87-4.14-14.46-8.75-.76-.98-1.59-1.96-2.16-3.05-2.14-4.1-2.1-4.12-6.58-7.7-25.68-1.29-51.79-.92-78.63-1.44-12.57,7.22-26.12,14-39.51,21.67-1.48-1.25-2.79-2.36-4.39-3.72-3.62,1-7.48,2.06-11.9,3.27,.29-1.63,.47-2.65,.72-4.12-5.23,1.54-10.26,3.02-15.35,4.52-1.91,2.83-.68,7.37-4.8,9.01-1.09-1.17-2.09-2.43-3.32-3.44-.35-.29-1.34,.2-2.03,.33-.62,2.92,2.57,3.68,2.94,5.95,.37,2.23,1.07,4.41,1.75,7.09-1.69,.03-3.15,.23-4.57,.05-7.22-.91-13.28-4.76-19.59-8.01-1.72-1.75-3.55-3.48-5.24-5.35-1.51-1.67-2.85-3.48-4.6-5.65-3.75-1.93-8.35-3.52-12.14-6.92,.1-2,.2-3.97,.32-6.21,.94,.07,1.87,.14,3.25,.24,1.35-1.43,2.88-3.06,4.64-4.93-.57-1.7-1.11-3.31-1.69-5.05-5.38-1.46-10.73-.72-16-1.03-2.02-.12-4.26,.63-6.05,0-4.39-1.55-8.65-.3-12.8,.35-3.39,.54-6.64,2.4-9.8,3.97-5.44,2.7-11.16,4.88-15.88,8.92-1.09,.93-2.79,1.16-4.22,1.68-1.91,.71-3.95,1.17-5.71,2.14-3.41,1.88-6.92,2.95-11.17,2.07,.3,4.7-1.82,6.89-6.06,7.48-1.67,.23-3.17,1.52-4.8,2.18-1.16,.47-2.41,.94-3.63,.97-1.17,.03-2.35-.52-4.08-.95,1.43-1.71,2.51-2.99,3.93-4.69-2.52-.86-4.94-1.22-6.62,.17-3.49,2.9-6.44,2.02-9.55-.35-.36-.28-.96-.25-1.6-.41-2.55,.5-4.28,2.32-6.26,4.77v7.52c-2.24,1.55-4.13,1.08-6.14,.49-9.3-2.75-15.56-9.14-20.05-16.16-4.31-2.97-7.84-5.41-11.13-7.68-1.66-5.83-4.96-10.28-8.14-15.29-1.78,0-3.53,.05-5.27-.01-4.3-.15-8.65-.85-12.88-.39-4.42,.48-8.6-.38-12.89-.72-2.27-.18-4.57,.05-6.86,.05-11.95,0-23.86-.66-35.78-1.41-3.24-.21-6.51-.09-9.78-.3-3.31-.21-6.78,.54-9.13,3.03-2.54,2.69-5.67,4.35-8.83,5.86-4.53,2.17-9.32,3.82-14.67,5.96-1.01,1.15-.65,4.68-4.79,4.44-.91-.86-2.16-2.03-3.42-3.22-2.76,.2-5.59,.09-8.27,.67-2.84,.62-4.93-.46-7.37-2.3-.48,1.05-.78,1.92-1.25,2.69-.38,.62-.97,1.1-1.67,1.88-.92-.2-1.86-.43-2.82-.62-.74-.15-1.48-.25-2.26-.38-3.14,1.26-4.74,3.59-5.38,7.36,1.89,.26,3.51,.48,5.55,.76,.42,1.66,.88,3.51,1.33,5.32-.6,.31-1.04,.72-1.48,.73-1.52,.02-3.05-.24-4.56-.14-9.97,.63-17.51-3.97-23.88-11.06-2.71-3.02-5.09-6.24-9.24-7.7-1.75-.62-3.2-2.5-4.43-4.08-2.75-3.56-5.18-7.37-8.79-10.12,.81-1.65,1.45-2.97,2.07-4.23-.57-.47-.92-.99-1.32-1.03-10.85-1.05-21.68-2.34-32.56-2.94-4.94-.27-9.44-1.56-14.05-2.98-3.37-1.04-6.9-1.59-10.17-2.31-5.09,1.92-4.7,8.73-10.07,10.32,1.05,.83,2,1.58,2.94,2.32-.21,2.07-.39,3.81-.56,5.52-.47,.27-.91,.77-1.29,.72-5.25-.67-10.43-1.13-15.21-4.18-2.6-1.66-5.1-3.07-7.02-5.56-3.32-4.3-7.63-7.2-12.72-9.31-6.56-2.71-12.86-6.02-19.25-9.13-.66-.32-1.17-.97-1.72-1.49-4.49-4.29-9.57-7.46-15.78-8.65-1.19-.23-2.26-1.02-3.34-1.52-.51-1.91-.95-3.59-1.47-5.52,3.49-1.7,3.86-4.98,4.12-8.48-.88-2.76-1.78-5.68-2.75-8.57-1.04-3.11-.71-6.06,1.12-8.75,1.43-2.1,2.96-4.14,4.61-6.07,3.8-4.43,7.6-8.85,11.57-13.12,4.47-4.81,9.12-9.46,13.7-14.17,.53-.55,1.32-.92,1.67-1.55,3.59-6.46,9.8-10.19,15.19-14.79,2.32-1.98,4.71-3.91,5.38-7.55-1.05-1.73-2.22-3.65-3.36-5.53,.07-2.77,2.23-5.41-.12-8.58-1.6-.07-3.55-.16-5.59-.25-.88-.79-1.8-1.63-2.95-2.67-1.26,.28-2.68,.59-4.51,.98,.48,1.45,.83,2.5,1.29,3.89-3.87,1.86-7.16-1.47-11-1.24-2.13,.35-4.35,1.37-5.41,3.45-1.36,2.67-3.72,3.98-6.14,5.4v8.78c-4.42,.96-8.18-.49-11.5-2.71-2.71-1.81-5.25-4.11-7.23-6.69-1.67-2.17-3.51-3.57-6.04-4.29-2.76-.79-5.14-2.2-7.11-4.63-.52-2.17-1.1-4.56-1.7-7.05,.49-.7,1.04-1.5,1.87-2.7-1.9-.2-3.46-.36-5.02-.53,.07-2.3,2.14-1.1,3.2-3.06,.92-2.73,1.01-6.58,1-10.34-.01-5.45,1.82-9.7,5.85-13.51,3.63-3.43,6.51-7.66,9.83-11.66-.93-1.36-1.63-2.38-2.43-3.55,3.63-3.83,6.17-8.4,7.31-13.73,.61-2.85,2.39-4.88,4.6-6.79,7.12-6.18,13.34-13.17,18.69-20.96,2.59-3.76,5.64-7.2,8.51-10.76,1.27-1.58,2.55-3.16,3.89-4.69,1.84-2.09,3.74-4.14,5.61-6.2,2.04-2.25,4.25-4.38,6.09-6.78,2.32-3.02,4.2-6.35,7.33-8.72,.94-.71,1.39-2.06,2.09-3.11,2.53-3.8,4.98-7.65,8.71-10.48,1.4-1.06,2.57-2.47,3.71-3.82,6.23-7.37,12.39-14.78,18.63-22.14,1.14-1.34,2.53-2.46,3.78-3.7,4.45-4.43,8.79-8.96,11.27-14.89h927.82Zm-868.6,288.14c1.38-1.12,2.79-2.18,4.1-3.35,1.51-1.35,2.88-2.85,4.39-4.18,1.33-1.17,2.76-2.21,4.18-3.27,1.41-1.06,3.02-1.92,4.24-3.17,1.21-1.24,1.92-2.95,3.07-4.27,1.32-1.52,2.88-2.83,4.32-4.26,1.12-1.11,2.76-1.87,3.24-4.69-2.33,1.11-3.91,1.7-5.32,2.56-9.04,5.55-17.31,12.26-26.74,17.26-3.03,1.61-5.46,4.36-8.15,6.61-.12,.1-.02,.49-.02,1.21,4.23,.44,8.41-.09,12.69-.45Zm163.62-5.99c5.36,1,9.63,.29,13.91,.1,4.81-.21,9.65-.59,14.43-.25,4.14,.29,7.91-.7,11.66-1.33,1.08-2.43,2.04-4.49,2.88-6.58,.13-.33-.28-.87-.59-1.7-2.94,1.01-5.88,2.17-8.91,3.02-3.15,.88-6.47,2.28-9.56,1.95-3.37-.35-6.46,.12-9.23,.84-1.73-.93-3.05-1.64-4.51-2.43-3.28,1.67-7.31,1.91-10.07,6.38Zm-126.24-26.98q-2.65-.3-4.57,2.24c2.08,1.32,3.08-.11,4.57-2.24Zm535.58,91.34c-.4-.19-.81-.39-1.21-.58-.01,.35-.16,.89,0,1.02,.28,.22,.76,.17,1.16,.24,.02-.23,.04-.45,.06-.68Z"/>
    </g>
    <g>
      <path class="cls-1" d="M5277.38,1670.29c-2.51,2.03-5.41,2.49-8.56,2.45-9.67-.13-19.34-.11-29.01-.18-5.84-.04-11.68-.15-17.51-.18-2.03,0-4.06,.19-6.09,.23-2.28,.05-4.56,.06-6.83,.02-1.01-.02-2.03-.37-3.03-.32-17.28,.77-34.56-.21-51.84-.06-16.79,.14-33.59,.07-50.38,.11-2.29,0-4.57,.19-6.86,.19-4.57,0-9.14-.12-13.71-.08-3.29,.03-6.57,.22-9.86,.38-1.01,.05-2.04,.44-3.01,.31-12.17-1.61-24.39-.63-36.58-.75-6.09-.06-12.19,.27-18.28,.26-46.85-.12-93.69-.33-140.54-.42-37.44-.07-74.89-.02-112.33-.02-33.1,0-66.2,0-99.31,0-21.14,0-42.27,0-63.41,0-66.97,0-133.94,0-200.91-.01-21.65,0-43.3,.03-64.94,0-23.42-.04-46.84-.22-70.27-.19-43.04,.04-86.07,.25-129.11,.27-45.59,.02-91.18-.13-136.78-.15-36.16-.02-72.33,0-108.49,.09-15.27,.03-30.55,.37-45.82,.36-17.82,0-35.65-.33-53.47-.35-37.95-.03-75.9,.12-113.85,.09-39.48-.02-78.95-.21-118.43-.24-31.58-.03-63.15,.08-94.73,.11-21.65,.02-43.3-.06-64.95,.04-11.67,.05-23.35,.47-35.02,.55-7.37,.06-14.75-.19-22.13-.31-.76-.01-1.54-.21-2.28-.11-4.3,.63-8.56,.38-12.89-.04-4.27-.41-8.61-.06-12.93-.06-7.63,0-15.27-.11-22.9-.02-3.55,.04-7.09,.6-10.65,.66-4.56,.08-9.13-.09-13.7-.15-6.21-4.57-13.2-2.3-19.79-1.86-15.96,1.07-31.88,2.72-47.81,4.2-9.59,.89-19.17,1.86-28.75,2.87-1.17,.12-2.29,.68-3.74,.23,1.03-.49,2.02-1.12,3.1-1.44,13.65-4.02,27.35-7.73,41.45-10.07,11.51-1.91,22.82-4.98,34.28-7.25,9.95-1.98,19.98-3.56,30.48-5.4,3.73-3.84,3.02-10.28,6.87-14.85,1.62-.66,3.59-1.24,5.34-2.23,1.81-1.02,2.68-2.62,2.68-4.97-.01-4.59,1.75-8.6,4.61-11.87,2.95-3.38,5.91-6.74,8.82-10.05,1.11,.18,2.09,.34,3.39,.56,1.53-2.8,3.08-5.64,4.83-8.85,2.84,.79,5.66,1.57,8.73,2.42,.78-1.12,1.62-2.33,2.47-3.55,1.43,.19,3.04,.9,4.24,.47,2.19-.79,3.11,1.6,4.89,1.42,1.47-.14,2.94-.28,4.79-.45,.06,1.25,.1,2.19,.16,3.6,.98,.47,2.29,1.1,3.52,1.69,1.31-.79,2.36-1.43,3.73-2.25,.77,1.73,1.53,3.44,2.39,5.38,5.04-.36,9.57,.91,13.8,3.61,3.41-.84,6.66-2.94,10.36-1.49,4.83,2.3,3.29,8.21,6.55,11.79,5.11,.14,9.68-2.31,14.53-3.59,4.65-1.23,9.34-2.32,14.44-3.58-.63-3.82-1.23-7.47-1.82-11.06,1-1.18,1.81-2.13,2.64-3.12,1.02-1.86-1.36-4.67,1.58-6.06,.89-3.64,2.79-7.07,2.2-11.25,3.22-2.65,4.33-7.23,8.23-9.48,1.13-3.08,4.11-4.24,6.48-5.92,1.74-1.24,3.52-2.97,6.21-1.97,.79,.29,2.1-.15,2.91-.67,3.74-2.39,8.25-1.82,12.21-3.32,1.11-.42,2.44-.26,3.68-.34,1.25-.08,2.62,.17,3.75-.25,3.41-1.26,6.8-1.82,9.95-.21,1.94-1.33,3.39-2.33,5.07-3.48,1.52,.43,3.17,1.24,4.84,1.28,1.72,.04,3.45-.68,5.66-1.18,3.96,1.81,8.38,2.91,12.46-1.04,3.67,5.34,8.88,4.84,14.24,4.67,.42-.72,1.25-1.7,1.61-2.82,1.76-5.51,5.74-9.48,9.24-13.8,1.48-1.83,2.96-3.43,5.55-3.61,.93-.07,1.91-.66,2.69-1.24,4.52-3.38,9.72-5.26,15.03-6.89,1.2-.37,2.37-.4,3.19-1.69,.48-.76,1.57-1.23,2.49-1.59,9.16-3.58,18.3-7.22,27.53-10.61,3.5-1.28,7.24-1.91,10.86-2.88,1.47-.39,2.91-.87,4.35-1.34,1.2-.39,2.35-.98,3.58-1.22,5.95-1.16,11.92-2.23,17.89-3.34-.82-3.63-1.04-4-3.28-5.59-2.67-1.9-5.38-3.77-8.03-5.69-3.48-2.52-5.24-6.69-8.74-9.22-.48-.35-.56-1.39-.66-2.13-.28-2.06-2.11-1.85-3.71-2.54-.76-1.87-2.39-3.98-2.27-5.99,.17-2.79-1.67-4.02-3.02-6.16,.34-1.73,.72-3.69,1.19-6.09-.55-.72-1.29-1.69-2.22-2.9,.44-1.48,.93-3.13,1.53-5.17-.46-.37-1.04-.84-1.99-1.61,.17-1.07,.27-2.5,.64-3.85,.32-1.16,1.35-2.22,1.36-3.34,.05-7.23,5.48-12.08,7.83-18.27,3.84-3.92,5.52-9.74,10.88-12.31,1.38-2.85,3.91-4.64,6.29-6.49,2.37-1.86,4.52-4.01,7.61-4.97,1.47-.46,2.4-2.99,3.82-3.25,4.1-.76,6.78-4.48,10.97-4.79,.5-.04,1.11-.03,1.48-.31,3.54-2.6,7.92-3.08,11.75-4.75,4.81-2.1,9.59-3.03,14.66-3.32,.97-.06,1.94-.28,2.55-.37,1.48-1.42,.9-2.71,.62-3.87-2.24-9.15-3.92-18.38-4.45-27.81-.14-2.52-.8-5.01-.96-7.53-.32-4.84-.13-9.61,1.22-14.36,.9-3.16,.86-6.58,1.71-9.75,2.36-8.83,5.5-17.36,10.53-25.09,.83-1.27,1.73-2.56,2.21-3.98,2.43-7.21,7.25-12.93,12.46-18.01,10.57-10.3,21.88-19.76,35.17-26.62,8.38-4.32,16.92-7.96,25.94-10.84,16.12-5.15,32.64-7.65,49.36-8.7,7.81-.49,15.67-.64,23.48-1.25,5.31-.42,10.61-1.19,15.93-1.33,11.99-.31,23.82,1.31,35.63,3.8,1.49-1.3-.15-2.69-.15-4.08,0-1.51-.28-3.04-.55-4.53-.27-1.5-.93-2.97-.97-4.47-.21-8.38-1.9-16.61-2.56-24.92-.79-9.87-.21-19.82,1.56-29.6,.99-5.45,1.13-11.15,4.04-16.14-.45-5.01,3.51-8.81,3.74-13.64,4.42-6.49,6.73-14.16,11.7-20.39,3.31-4.15,6.23-8.64,8.99-13.18,3.5-5.77,8.44-10.25,13.46-14.4,5.26-4.35,10.22-9.13,16.1-12.81,2.77-1.73,5.44-3.65,8.34-5.23,4.02-2.18,7.97-4.5,11.96-6.74,8.02-4.52,16.6-7.47,25.59-9.44,7.18-1.57,14.31-3.2,21.69-3.59,2.19-.12,4.44-2.09,6.47-1.81,3.55,.49,6.49-.67,8.56-1.55,3.77,0,6.52,0,9.28,0,2.54,0,5.08-.03,7.62,.02,.75,.01,1.53,.46,2.24,.35,7.48-1.22,14.57,.79,21.72,2.46,8.41,1.96,16.96,3.47,25.22,5.96,12.1,3.64,24.32,7.14,34.91,14.53,4.14,2.89,8.98,4.97,12.62,8.35,5.53,5.13,11.71,9.81,15.8,16.26,3.39,5.34,6.09,11.13,8.9,16.81,3.03,6.14,4.87,12.73,6.94,19.25,1.83,5.76,4.22,11.37,7.58,16.56,1.89,2.92,2.93,6.43,4.1,9.76,3.21,9.11,5.81,18.35,7.23,27.96,.76,5.14,.03,10.15-.03,15.18-.1,7.87-2.16,15.57-4.48,23.12-.43,1.41-1.41,2.65-2.09,3.89,.98,2.89,3.6,3.7,5.67,5.05,3.61,2.37,7.29,4.65,11.03,6.82,2.49,1.45,4.47,3.29,5.91,5.79,3.51,6.1,6.27,12.51,8.51,19.74,11.57,2.16,21.94-3.64,32.99-6.15,4.17-4.04,8.36-8.11,12.57-12.16,5.85-5.64,12.1-10.73,18.66-15.57,12.26-9.05,25.02-17.22,38.46-24.34,8.54-4.52,17.55-8,26.55-11.51,7.31-2.85,15.03-4.56,22-8.45,4.94-2.75,9.54-5.95,13.53-9.75,5.4-5.15,11.63-9.06,17.6-13.34,5.37-3.84,11.07-7.22,16.73-10.63,7.18-4.34,14.46-8.52,21.7-12.76,.65-.38,1.37-.67,2.09-.93,10.52-3.71,20.41-8.93,30.86-12.81,1.14-.42,2.19-1.11,3.32-1.7-1.4-3.82-2.84-7.3-3.92-10.88-1.03-3.41-1.61-6.94-2.52-10.39-1.57-5.96-2.17-11.99-1.71-18.15,.24-3.29,.18-6.61,.52-9.88,1.44-13.6,4.47-19.1,11.27-31.11,7.72-13.65,18.24-24.96,30.9-34.24,2.03-1.49,4.25-2.74,6.46-3.97,4.42-2.47,8.94-4.74,13.32-7.28,4.92-2.85,10.57-3.35,15.8-5.23,6.96-2.5,14.16-4.03,21.63-3.96,1.76,.02,3.54-.4,5.3-.65,12.22-1.77,24.28-.98,36.37,1.54,11.99,2.5,23.63,5.97,35.13,10.08,4.03,1.44,8.38,1.98,12.46,3.32,3.35,1.11,6.72,2.47,9.7,4.33,2.38,1.49,4.75,1.47,7.14,1.48,1.93,1.38,3.58,3.38,5.58,3.83,3.71,.84,6.44,3.18,9.15,5.29,3.78,2.95,6.97,6.66,10.29,10.17,.83,.88,1.23,2.2,1.73,3.35,.91,2.08,1.81,4.16,2.61,6.28,.71,1.87,1.68,3.77,1.82,5.71,.2,2.9,1.15,5.35,2.62,7.8,2.62,4.34,4.92,8.86,8.4,12.65,1.5,1.63,2.58,3.64,3.84,5.47,10.61-1.55,18.19-.62,30.46,2.85,3.9,1.1,7.85,1.81,11.54,3.78,3.2,1.7,6.13,3.6,8.69,6.1,2.91,2.83,5.88,5.63,8.55,8.68,1.48,1.69,2.61,3.78,3.55,5.85,4.06,8.92,5.69,18.25,5.64,28.12-.05,10.6-2.44,20.64-5.08,30.73-2.92,11.15-7.95,21.36-13.56,31.33-1.26,2.24-2.47,4.4-2.45,7.03,1.56,2.1,3.82,2.48,6.11,2.62,11.77,.7,22.87,4.21,33.86,8.06,5.48,1.92,11.34,3.49,16.08,6.65,5.06,3.38,10.52,6.07,15.44,9.68,10.7,7.84,20.18,16.92,28.6,27.52,1.64,.14,3.38,.43,5.13,.4,8.13-.11,16.25,.07,24.39-.53,5.23-.39,10.58,.73,15.87,1.21,1,.09,1.99,.55,2.99,.53,6.7-.12,12.96,1.9,19.28,3.75,3.38,.99,6.88,1.49,10.31,2.4,12.49,3.31,23.45,9.53,33.92,16.75,1.76,1.21,3.44,2.43,5.43,2.35,3.74-.14,7.63,.91,11.21-1.18,.83-.48,1.93-.68,2.91-.69,3.8-.04,7.61-.11,11.41,.12,10.96,.65,21.58,2.87,31.72,7.18,5.44,.5,9.58,4.34,14.8,5.68,3.24,.83,6.1,3.55,8.84,5.77,2.35,1.9,4.36,4.23,6.39,6.49,4.12,4.58,7.55,9.89,9.39,15.55,2.08,6.44,2.85,13.47,1.33,20.37-1.06,4.8-3.64,8.99-6.26,12.98-5.71,8.7-12.38,16.56-19.86,23.94-11.08,10.91-23.58,19.99-35.51,29.79-3.71,3.04-7.99,5.38-11.96,8.13-.97,.67-1.73,1.66-2.76,2.69,2,2.47,5.14,1.72,7.52,4.16,1.55,1.84,3.67,4.34,6.01,7.12,.7,3.38,1.48,7.11,2.19,10.53,2.89,5.22,9.47,6.7,11.38,12.87-1.86,1.19-3.74,2.39-5.65,3.6-3.56,6.62-7.12,13.26-10.31,19.18-4.24,2.75-7.8,5.12-11.43,7.39-2.36,1.48-4.87,2.72-7.2,4.25-8.05,5.27-16.71,9.51-24.79,14.73-1.7,1.1-3.48,2.13-5.32,2.98-7.4,3.41-14.19,7.87-21.2,11.97-7.67,4.49-15.54,8.65-23.25,13.09-3.25,1.87-7,3.19-9.09,7.22,.32,2.64,1.77,5.6,.23,8.56,1.75,2.97-1.35,4.91-2.1,7.76,7.08-.57,13.62-1.05,20.15-1.63,12.21-1.09,24.37-.37,36.57,.32,17.23,.96,34.52,1.65,52.12-1.75,.34,1.24,.93,2.35,.87,3.41-.06,.9-.68,1.98-1.39,2.6-4.58,4-8.46,8.69-13.3,12.49-6.85,5.37-14.02,10.07-21.82,13.87-1.34,.65-2.51,1.65-4.22,2.79,3.02,1.03,5.52,1.88,8.27,2.82-1.12,.69-1.96,1.2-3.26,2,4.01,1.33,7.68,2.61,11.4,3.74,1.19,.36,2.52,.5,3.77,.43,3.99-.22,7.59,1.12,10.88,3.06,2.32,1.37,4.66,1.91,7.24,1.91,5.59,0,11.17,.09,16.76,0,4.06-.07,4.7,.5,4.87,4.62,.06,1.46,.24,3.05,.86,4.34,.87,1.79,2.2,3.36,3.18,4.8,.07,3.35-1.67,4.96-4.3,5.87-3.09,1.08-6.18,2.14-9.79,3.39,.78,1.87,1.39,3.37,2,4.84,10.54,.29,20.68,.02,30.83-.34,4.54-.16,9.09,.22,13.58-.84,7.54,1.3,15.13,.73,22.72,.85,4.26,.06,8.59-1.63,12.82,.08,5.73-1.76,11.61,1.06,17.37-.56,1.14-.32,2.51,.11,3.77,.25,1.01,.11,2.06,.59,3,.42,6.61-1.2,13.25,.73,19.77-.07,7.11-.87,14.2-.42,21.29-.7,4.06-.16,8.13-.46,12.15,.69,1.19,.34,2.67,.62,3.77,.22,5.23-1.89,10.61-.67,15.9-1.04,1.76-.12,3.58,0,5.31,.34,3.03,.62,5.97,1.12,8.97-.2,.88-.39,2.04-.41,3.01-.26,6.06,.96,12.14,.07,18.05,.33-2.41,1.28-4.95,2.62-8.23,4.36,3.15,1.88,5.76,2.29,8.47,2.29,3,0,5.36,1.22,7.28,3.47,3.67,4.3,8.25,6.59,14.82,5.78,1.11,1.59,2.42,3.47,3.66,5.25,4.41-.9,8.17-.77,11.83,.45,2.25,.75,4.45,.71,6.74,0,2.18-.67,4.44-1.09,7,.11,1.57,4.2,2.48,8.55,.45,12.87,1.36,2.15,.77,4.86,3.06,6.19v3.06Zm-512.83-398.79c-1.44-1.02-2.14-1.79-3.01-2.09-6.69-2.3-13.39-4.57-20.14-6.69-.76-.24-1.82,.46-2.72,.72-1.64,6.42,1.55,11.49,3.07,16.84,5.58-.32,15.49-4.1,22.81-8.78Zm-116.61-186.19c-1.21,3.53-2.1,6.63-3.33,9.59-1.29,3.13-2.9,6.13-4.36,9.19,6.3-2.72,11.49-6.76,17.34-11.11-2.9-2.73-4.87-5.93-9.65-7.67Zm-799.14,544.51c-2.5-.2-3.97,.67-4.65,3.03,1.84,.86,3.57,.99,5.54-.48-.27-.79-.57-1.64-.89-2.56Zm-232.08-93.76c1.54,.9,2.12,.22,2.72-1.6-1.18,.7-1.89,1.11-2.72,1.6Zm10.37-1.28c-.19-.22-.36-.57-.49-.55-.87,.12-1.72,.32-2.57,.52-.04,.01-.05,.5,0,.51,.83,.19,1.67,.4,2.51,.46,.17,.01,.38-.62,.56-.93Z"/>
      <path class="cls-1" d="M3054.88,846.4c1.52,1.66,2.91,3.45,4.58,4.94,4.73,4.22,9.69,8.18,14.32,12.51,4.25,3.98,8.06,8.42,12.27,12.45,8.63,8.27,16.33,17.36,23.83,26.63,2.22,2.75,4.28,5.65,6.21,8.61,6.22,9.57,12.1,19.36,18.59,28.74,3.51,5.07,5.49,10.8,8.48,16.02,4.29,7.49,8.32,15.09,11.93,22.92,1.26,2.74,2.26,5.61,3.26,8.46,1.77,5.03,3.4,10.1,5.17,15.13,2.27,6.45,4.15,13,4.81,19.61,4.59,2.91,9.43,3.24,14.38,4.48,1.62-1.66,3.28-3.2,4.76-4.89,2.85-3.24,5.45-6.71,8.44-9.8,2.64-2.72,5.65-5.1,8.57-7.54,6.04-5.06,12.55-9.33,19.37-13.35,7.96-4.7,16.78-7.18,24.88-11.4,2.66-1.38,5.8-1.84,8.72-2.71,12.48-3.74,25.34-5.42,38.26-6.5,4-.34,8.14,.2,12.13,.85,7.24,1.18,14.62,2.04,21.37,5.09,5.3,2.39,10.34,5.36,15.43,8.18,5.77,3.2,10.23,8.09,15.33,12.16,4.95,3.97,9.83,8.08,14.34,12.54,7.28,7.21,11.41,16.04,12.16,26.35,.15,2.02,.23,4.04,.36,6.33,12.4,4.67,25.28,8.4,35.41,18.09,9.91,9.48,17.84,20.06,22.69,32.77,.56,.32,1,.81,1.43,.79,5.84-.14,11.64,.06,17.36,1.41,6.88-1.14,13.57,.29,20.33,1.3,4.74,.71,9.67,.19,14.19,2.31,.22,.1,.51,.13,.75,.1,9.14-1.38,17.53,2.29,26.24,3.81,1.96,.34,3.95,.48,6.12,.74,.49,1.82,.92,3.47,1.32,4.96,.66,.32,1.11,.72,1.54,.7,1.76-.1,3.56-.11,5.24-.56,2.13-.58,4.01-.24,6.42,.89,5.42,6.66,11.07,13.78,16.91,20.74,6.95,8.28,15.17,14.82,25.74,17.94,3.43,1.01,6.71,2.27,9.71,4.28,1.24,.83,2.75,1.37,4.21,1.76,2.69,.72,5.33,1.25,7.47,3.39,.97,.97,2.82,1.01,4.22,1.59,1.38,.57,2.71,1.25,4.04,1.94,1.57,.81,3.05,2.22,4.68,2.42,5.76,.7,10.36,3.99,15.37,6.36,2.07,.98,3.97,2.2,6.39,2.29,1.21,.05,2.46,.56,3.58,1.1,1.55,.75,3,1.72,4.53,2.62-1.3,5-4.63,6.78-9.12,6.83-4.84,.06-9.68-.01-14.52-.02-8.91-.02-17.82-.02-26.73-.05-8.13-.03-16.26-.13-24.39-.14-1.78,0-3.6,.02-5.31,.41-2.03,.46-3.95,.58-6.01,.13-1.72-.37-3.54-.37-5.32-.32-17.53,.43-35.06-.09-52.58-.03-14.74,.05-29.49,.08-44.23,.05-27.23-.05-54.47-.17-81.7-.21-8.9-.01-17.81,.22-26.71,.23-11.7,.02-23.41-.17-35.11-.05-7.11,.07-14.24,.97-21.32,.67-5.28-.22-10.6,.55-15.86-.48-1.48-.29-3.04-.19-4.57-.2-9.93-.09-19.88-.63-29.77-.08-7.39,.41-14.75-.36-22.08,.16-8.39,.59-16.73-.22-25.09-.07-8.14,.15-16.28-.13-24.42-.06-3.55,.03-7.09,.44-10.64,.69-1.01,.07-2.1,.41-3.03,.17-6-1.57-12.11,.08-18.13-.8-.75-.11-1.57-.27-2.27-.08-6.31,1.75-12.65-.18-18.96,.16-3.54,.19-7.09,.38-10.63,.51-1.76,.06-3.54,.14-5.28-.05-5.07-.56-10.12-.8-15.19,.08-1.5,.26-3.18,.74-4.53,.33-7.78-2.36-15.69-.82-23.51-.89-12.96-.11-25.93,.92-38.87,.5-8.13-.27-16.25-.43-24.37-.48-21.85-.12-43.71-.21-65.56-.24-10.17-.02-20.36,.47-30.51,.06-10.93-.44-21.82,.38-32.74,.16-10.94-.22-21.89,.16-32.84,.19-7.88,.02-15.76-.13-23.64-.15-1.52,0-3.17-.13-4.53,.39-6.39,2.48-12.72,5.09-19.01,7.81-2.08,.9-3.84,2.57-5.94,3.33-1.83,.66-3.95,.53-5.94,.74-.4,.87-.68,1.55-1.03,2.2-.34,.64-.74,1.24-1.23,2.07-2.2-.77-4.29-1.51-6.63-2.33-.06-.88-.13-1.81-.2-2.75-.4-.07-.9-.3-1.32-.2-2.43,.58-1.95,3.31-3.36,4.68-5.39-4.42-5.92-4.41-10.59,.97q-4.38-4.22-9.37-4.92c-1.93,.99-.7,2.67-.96,4.49-1.36,.96-2.98,2.1-4.34,3.07-6.02-1.57-10.87-4.14-14.46-8.75-.76-.98-1.59-1.96-2.16-3.05-2.14-4.1-2.1-4.12-6.58-7.7-25.68-1.29-51.79-.92-78.63-1.44-12.57,7.22-26.12,14-39.51,21.67-1.48-1.25-2.79-2.36-4.39-3.72-3.62,1-7.48,2.06-11.9,3.27,.29-1.63,.47-2.65,.72-4.12-5.23,1.54-10.26,3.02-15.35,4.52-1.91,2.83-.68,7.37-4.8,9.01-1.09-1.17-2.09-2.43-3.32-3.44-.35-.29-1.34,.2-2.03,.33-.62,2.92,2.57,3.68,2.94,5.95,.37,2.23,1.07,4.41,1.75,7.09-1.69,.03-3.15,.23-4.57,.05-7.22-.91-13.28-4.76-19.59-8.01-1.72-1.75-3.55-3.48-5.24-5.35-1.51-1.67-2.85-3.48-4.6-5.65-3.75-1.93-8.35-3.52-12.14-6.92,.1-2,.2-3.97,.32-6.21,.94,.07,1.87,.14,3.25,.24,1.35-1.43,2.88-3.06,4.64-4.93-.57-1.7-1.11-3.31-1.69-5.05-5.38-1.46-10.73-.72-16-1.03-2.02-.12-4.26,.63-6.05,0-4.39-1.55-8.65-.3-12.8,.35-3.39,.54-6.64,2.4-9.8,3.97-5.44,2.7-11.16,4.88-15.88,8.92-1.09,.93-2.79,1.16-4.22,1.68-1.91,.71-3.95,1.17-5.71,2.14-3.41,1.88-6.92,2.95-11.17,2.07,.3,4.7-1.82,6.89-6.06,7.48-1.67,.23-3.17,1.52-4.8,2.18-1.16,.47-2.41,.94-3.63,.97-1.17,.03-2.35-.52-4.08-.95,1.43-1.71,2.51-2.99,3.93-4.69-2.52-.86-4.94-1.22-6.62,.17-3.49,2.9-6.44,2.02-9.55-.35-.36-.28-.96-.25-1.6-.41-2.55,.5-4.28,2.32-6.26,4.77v7.52c-2.24,1.55-4.13,1.08-6.14,.49-9.3-2.75-15.56-9.14-20.05-16.16-4.31-2.97-7.84-5.41-11.13-7.68-1.66-5.83-4.96-10.28-8.14-15.29-1.78,0-3.53,.05-5.27-.01-4.3-.15-8.65-.85-12.88-.39-4.42,.48-8.6-.38-12.89-.72-2.27-.18-4.57,.05-6.86,.05-11.95,0-23.86-.66-35.78-1.41-3.24-.21-6.51-.09-9.78-.3-3.31-.21-6.78,.54-9.13,3.03-2.54,2.69-5.67,4.35-8.83,5.86-4.53,2.17-9.32,3.82-14.67,5.96-1.01,1.15-.65,4.68-4.79,4.44-.91-.86-2.16-2.03-3.42-3.22-2.76,.2-5.59,.09-8.27,.67-2.84,.62-4.93-.46-7.37-2.3-.48,1.05-.78,1.92-1.25,2.69-.38,.62-.97,1.1-1.67,1.88-.92-.2-1.86-.43-2.82-.62-.74-.15-1.48-.25-2.26-.38-3.14,1.26-4.74,3.59-5.38,7.36,1.89,.26,3.51,.48,5.55,.76,.42,1.66,.88,3.51,1.33,5.32-.6,.31-1.04,.72-1.48,.73-1.52,.02-3.05-.24-4.56-.14-9.97,.63-17.51-3.97-23.88-11.06-2.71-3.02-5.09-6.24-9.24-7.7-1.75-.62-3.2-2.5-4.43-4.08-2.75-3.56-5.18-7.37-8.79-10.12,.81-1.65,1.45-2.97,2.07-4.23-.57-.47-.92-.99-1.32-1.03-10.85-1.05-21.68-2.34-32.56-2.94-4.94-.27-9.44-1.56-14.05-2.98-3.37-1.04-6.9-1.59-10.17-2.31-5.09,1.92-4.7,8.73-10.07,10.32,1.05,.83,2,1.58,2.94,2.32-.21,2.07-.39,3.81-.56,5.52-.47,.27-.91,.77-1.29,.72-5.25-.67-10.43-1.13-15.21-4.18-2.6-1.66-5.1-3.07-7.02-5.56-3.32-4.3-7.63-7.2-12.72-9.31-6.56-2.71-12.86-6.02-19.25-9.13-.66-.32-1.17-.97-1.72-1.49-4.49-4.29-9.57-7.46-15.78-8.65-1.19-.23-2.26-1.02-3.34-1.52-.51-1.91-.95-3.59-1.47-5.52,3.49-1.7,3.86-4.98,4.12-8.48-.88-2.76-1.78-5.68-2.75-8.57-1.04-3.11-.71-6.06,1.12-8.75,1.43-2.1,2.96-4.14,4.61-6.07,3.8-4.43,7.6-8.85,11.57-13.12,4.47-4.81,9.12-9.46,13.7-14.17,.53-.55,1.32-.92,1.67-1.55,3.59-6.46,9.8-10.19,15.19-14.79,2.32-1.98,4.71-3.91,5.38-7.55-1.05-1.73-2.22-3.65-3.36-5.53,.07-2.77,2.23-5.41-.12-8.58-1.6-.07-3.55-.16-5.59-.25-.88-.79-1.8-1.63-2.95-2.67-1.26,.28-2.68,.59-4.51,.98,.48,1.45,.83,2.5,1.29,3.89-3.87,1.86-7.16-1.47-11-1.24-2.13,.35-4.35,1.37-5.41,3.45-1.36,2.67-3.72,3.98-6.14,5.4v8.78c-4.42,.96-8.18-.49-11.5-2.71-2.71-1.81-5.25-4.11-7.23-6.69-1.67-2.17-3.51-3.57-6.04-4.29-2.76-.79-5.14-2.2-7.11-4.63-.52-2.17-1.1-4.56-1.7-7.05,.49-.7,1.04-1.5,1.87-2.7-1.9-.2-3.46-.36-5.02-.53,.07-2.3,2.14-1.1,3.2-3.06,.92-2.73,1.01-6.58,1-10.34-.01-5.45,1.82-9.7,5.85-13.51,3.63-3.43,6.51-7.66,9.83-11.66-.93-1.36-1.63-2.38-2.43-3.55,3.63-3.83,6.17-8.4,7.31-13.73,.61-2.85,2.39-4.88,4.6-6.79,7.12-6.18,13.34-13.17,18.69-20.96,2.59-3.76,5.64-7.2,8.51-10.76,1.27-1.58,2.55-3.16,3.89-4.69,1.84-2.09,3.74-4.14,5.61-6.2,2.04-2.25,4.25-4.38,6.09-6.78,2.32-3.02,4.2-6.35,7.33-8.72,.94-.71,1.39-2.06,2.09-3.11,2.53-3.8,4.98-7.65,8.71-10.48,1.4-1.06,2.57-2.47,3.71-3.82,6.23-7.37,12.39-14.78,18.63-22.14,1.14-1.34,2.53-2.46,3.78-3.7,4.45-4.43,8.79-8.96,11.27-14.89h927.82Zm-868.6,288.14c1.38-1.12,2.79-2.18,4.1-3.35,1.51-1.35,2.88-2.85,4.39-4.18,1.33-1.17,2.76-2.21,4.18-3.27,1.41-1.06,3.02-1.92,4.24-3.17,1.21-1.24,1.92-2.95,3.07-4.27,1.32-1.52,2.88-2.83,4.32-4.26,1.12-1.11,2.76-1.87,3.24-4.69-2.33,1.11-3.91,1.7-5.32,2.56-9.04,5.55-17.31,12.26-26.74,17.26-3.03,1.61-5.46,4.36-8.15,6.61-.12,.1-.02,.49-.02,1.21,4.23,.44,8.41-.09,12.69-.45Zm163.62-5.99c5.36,1,9.63,.29,13.91,.1,4.81-.21,9.65-.59,14.43-.25,4.14,.29,7.91-.7,11.66-1.33,1.08-2.43,2.04-4.49,2.88-6.58,.13-.33-.28-.87-.59-1.7-2.94,1.01-5.88,2.17-8.91,3.02-3.15,.88-6.47,2.28-9.56,1.95-3.37-.35-6.46,.12-9.23,.84-1.73-.93-3.05-1.64-4.51-2.43-3.28,1.67-7.31,1.91-10.07,6.38Zm-126.24-26.98q-2.65-.3-4.57,2.24c2.08,1.32,3.08-.11,4.57-2.24Zm535.58,91.34c-.4-.19-.81-.39-1.21-.58-.01,.35-.16,.89,0,1.02,.28,.22,.76,.17,1.16,.24,.02-.23,.04-.45,.06-.68Z"/>
    </g>
    <path class="cls-2" d="M3055.94,842.63c-16.66-11.74-34.04-22.76-53.41-29.46-20.43-7.07-42.2-7.83-63.61-7.35-22.02,.49-43.92,1.65-65.82-1.49-21.61-3.1-42.78-8.65-64.27-12.41-10.93-1.92-21.96-3.42-33.05-3.98-10.13-.51-20.48-.21-29.69-5.09-8.68-4.6-16.21-11.26-24.21-16.9s-16.96-11.4-26-16.14c-18.63-9.75-38.45-15.33-59.44-16.68-21.8-1.39-43.57,1.14-65.28,2.75-5.49,.41-11.03,1.2-15.35-2.85-3.65-3.42-6.35-7.64-10.2-10.9-7.4-6.28-16.42-10.51-26.02-12.02-7.5-1.18-23.45-2.62-26.42,6.9-3.23,10.34,13.28,12.77,14.21,2.13,.18-2.06-1.27-4.12-2.95-5.14l-.5-.3c-6.57-3.98-12.56,6.31-6.01,10.28l.5,.3-2.95-5.14-.04,.42,1.74-4.21,3.5-.82,3.56,2.74-.76,4.89,.91-.23c.78,.06,2.1-.35,2.95-.43,2.02-.2,4.07-.21,6.1-.12,4.04,.19,8.05,1.07,11.86,2.44,7.97,2.87,13.71,8.06,19.12,14.38,5.84,6.82,12.43,10.16,21.53,9.94,9.82-.24,19.68-1.53,29.47-2.26,19.78-1.47,40.02-2.4,59.58,1.57,18.3,3.72,35.06,11.89,50.69,21.93,7.8,5.01,15.24,10.51,22.67,16.04,7.14,5.31,14.66,10.16,23.43,12.22,9.37,2.2,19.1,1.81,28.63,2.51,10.02,.73,19.95,2.26,29.83,4.1,19.31,3.6,38.4,8.37,57.83,11.3s39.53,3.11,59.55,2.5c22.33-.68,45.09-1.46,66.74,5,20.32,6.06,38.38,17.76,55.56,29.87,6.27,4.42,12.23-5.89,6.01-10.28h0Z"/>
    <path class="cls-2" d="M2493.85,720.34c3.61,22.15,10.4,42.88,18.19,63.85,3.92,10.54,5.87,20.54,6.12,31.77s1.56,21.88,4.83,32.51c2.25,7.3,13.75,4.19,11.48-3.17-3.27-10.63-4.18-21.05-4.47-32.1-.29-11.25-2.57-21.65-6.49-32.18-7.79-20.97-14.59-41.7-18.19-63.85-1.23-7.54-12.7-4.34-11.48,3.17h0Z"/>
    <path class="cls-2" d="M2529.95,849.74c68.25,.53,136.5,1.06,204.74,1.58,33.96,.26,68.03,1.25,101.97-.13,33.17-1.34,65.86-7.75,99.04-8.86,36.8-1.23,73.56,2.76,109.27,11.71,7.43,1.86,10.6-9.62,3.17-11.48-31.47-7.89-63.87-12.11-96.32-12.35-33.81-.24-66.82,5.97-100.43,8.28-33.82,2.32-67.84,1.3-101.71,1.04s-68.58-.53-102.87-.8c-38.95-.3-77.9-.6-116.85-.9-7.66-.06-7.67,11.85,0,11.91h0Z"/>
    <path class="cls-2" d="M2495.24,722.75c4.59,8.94,5.28,18.96,5.49,28.83,.23,10.87,.39,21.62,1.82,32.42,2.96,22.47,9.4,44.21,15.91,65.86,1.99,6.6,11.24,5.04,11.69-1.58,1.86-27.02-1.68-54.22-10.37-79.87-1.8-5.31-9.99-6-11.48,0-3.75,15.08-1.83,30.56,5.41,44.3,3.16,6,12.72,1.87,10.88-4.59-2.99-10.48-5.98-20.96-8.97-31.44-2.1-7.36-13.59-4.23-11.48,3.17,2.99,10.48,5.98,20.96,8.97,31.44l10.88-4.59c-5.73-10.88-7.18-23.21-4.21-35.13h-11.48c8.39,24.76,11.74,50.63,9.94,76.71l11.69-1.58c-6.72-22.33-13.67-44.94-16.15-68.22-2.2-20.63,1.55-42.62-8.26-61.73-3.5-6.82-13.78-.8-10.28,6.01h0Z"/>
    <path class="cls-2" d="M2491.44,722.16c-2.34,12.17,.28,23.94,4.74,35.31s10.42,22.59,11.45,34.96c.96,11.57-1.15,23.55,2.65,34.77,3.2,9.44,9.47,17.45,19.26,20.43,7.35,2.23,10.49-9.26,3.17-11.48-7.81-2.37-11.37-10.9-12.44-18.36-1.55-10.76,.27-21.68-1.62-32.45-3.51-20.05-19.78-38.92-15.72-60.02,1.44-7.49-10.03-10.69-11.48-3.17h0Z"/>
    <path class="cls-2" d="M2537.25,830.32c12.08,3.29,23.89,7.36,35.44,12.21l-9.95-4.2c9.23,3.95,18.55,8.04,26.68,14l-8.43-6.52c3.1,2.4,5.9,4.99,8.36,8.05l-6.52-8.43c1.37,1.86,2.5,3.75,3.45,5.85l-4.2-9.95c.64,1.69,1.09,3.32,1.38,5.1l-1.49-11.08c.17,1.86,.12,3.6-.13,5.45l1.49-11.08c-.12,.79-.34,1.55-.66,2.28l4.2-9.95-.59,1,6.52-8.43-.82,.82,8.43-6.52-1.14,.59,9.95-4.2-1.27,.28,11.08-1.49c-7.47,.33-15.4-.86-22.8-1.84l11.08,1.49c-8.14-1.16-16.11-2.91-23.75-5.97l9.95,4.2c-4.63-1.98-8.94-4.39-12.97-7.42l8.43,6.52c-5.64-4.52-9.93-10.13-14.44-15.72-6.35-7.88-13.87-14.66-22.67-19.82-15.37-9.02-38.1-6.99-50.5,6.52-4.89,5.32-8.49,11.51-10.72,18.39-3.65,11.27-.2,21.87,4.2,32.11l.73,1.7-4.2-9.95c3.28,8.05,5.5,16.32,6.7,24.92l-1.49-11.08c.45,3.68,.71,7.35,.8,11.06,.33,13.33,5.95,24.63,16.42,32.72,10.88,8.4,22.98,10.27,36.33,7.46,6.89-1.45,13.82-2.64,20.79-3.61l-11.08,1.49c22.89-3.03,45.98-3.58,69.05-3.16,21.68,.39,43.76,.47,65.29,3.24l-11.08-1.49c9.41,1.31,18.59,3.43,27.37,7.11l-9.95-4.2c3.05,1.36,5.99,2.88,8.87,4.59,14.02-23.99,28.04-47.98,42.07-71.96-48.01-20.45-94.69-43.89-139.77-70.17-9.35-5.45-21.67-7.08-32.11-4.2-9.67,2.66-20.14,10.14-24.9,19.15-10.54,19.96-5.17,45.29,14.95,57.02,45.08,26.28,91.77,49.72,139.77,70.17,4.78,3.05,9.95,4.69,15.49,4.95,5.54,1.24,11.08,.99,16.62-.74,9.67-2.66,20.14-10.14,24.9-19.15,10.63-20.12,5.05-45.08-14.95-57.02-33.01-19.68-72.83-19.23-110.03-20.33-38.03-1.13-76.08,.09-113.44,7.96l52.75,40.18c-.25-10.14-1.56-20.43-3.72-30.33s-6.2-19.06-10.2-28.38l-57.02,57.02c1.31,.77,2.54,1.57,3.77,2.47l-8.43-6.52c5.61,4.44,9.82,10.12,14.29,15.65,6.41,7.93,14.13,14.48,22.72,20.03,17.62,11.38,38.35,14.79,58.73,17.06,9.99,1.11,20.69,2.4,30.49-.5,21.58-6.39,35.72-28.01,33.93-50.33-1.33-16.65-7.69-30.22-18.85-42.59-6.57-7.28-15.16-13.32-23.76-18-19.75-10.75-41.6-18.9-63.28-24.81-10.45-2.85-22.75-1.28-32.11,4.2-8.64,5.06-16.89,14.97-19.15,24.9-5.01,21.98,6.6,45.13,29.11,51.26h0Z"/>
    <path class="cls-2" d="M2475.44,749.7c3.25,12.39,10.59,21.93,20.49,29.58,7.75,5.99,15.6,9.09,24.75,12.86l-9.95-4.2c3.09,1.32,5.93,2.84,8.61,4.87l-8.43-6.52c1.06,.91,1.97,1.81,2.89,2.87l-6.52-8.43c.79,1.11,1.36,2.1,1.89,3.35l-4.2-9.95c.29,.81,.46,1.65,.53,2.51l-1.49-11.08c.06,.86,.01,1.7-.14,2.55l1.49-11.08c-.14,.77-.38,1.51-.71,2.22l4.2-9.95c-.32,.7-.72,1.35-1.18,1.96l6.52-8.43c-.79,.94-1.57,1.7-2.51,2.49l8.43-6.52c-1.75,1.26-3.57,2.24-5.54,3.11l9.95-4.2c-2.44,.96-4.91,1.7-7.46,2.32,17.09,17.09,34.17,34.17,51.26,51.26l.21-1.03-4.2,9.95,.48-.86-6.52,8.43,.71-.71-8.43,6.52,.89-.57-9.95,4.2c1.14-.48,2.13-.74,3.34-.96l-11.08,1.49c8.94-.85,18.34-.01,27.32,.06,9.66,.08,19.32,.16,28.98,.23,10.63,.09,21.97-4.71,29.47-12.21,7.23-7.23,12.67-19.09,12.21-29.47-1.04-23.19-18.31-40.9-41.67-41.67-1.01,0-2.02-.07-3.03-.19l11.08,1.49c-2.55-.39-4.9-1.04-7.29-2l9.95,4.2c-1.86-.87-3.57-1.85-5.26-3.01l8.43,6.52c-2.04-1.58-3.79-3.28-5.41-5.28l6.52,8.43-.88-1.24c-11.99,20.9-23.99,41.8-35.98,62.7,23.88-2.88,48.01-5.18,72-2.09l-11.08-1.49c11.13,1.57,21.94,4.34,32.32,8.68l-9.95-4.2c11.2,4.88,21.5,11.33,31.21,18.72l-8.43-6.52c14.18,10.98,26.88,23.65,39.48,36.38,15.35,15.52,43.76,16.52,58.93,0,15.34-16.71,16.38-42.37,0-58.93-11.41-11.54-22.89-23.08-35.54-33.28-8.78-7.08-17.75-14.11-27.41-19.97s-19.16-9.88-29.21-13.83c-35.45-13.94-75.31-11.27-112.31-6.82-7.52,.02-14.53,1.92-21.03,5.69-6.26,3.7-11.25,8.69-14.95,14.95-7,11.96-8.44,30.25,0,42.07,6.79,9.51,13.92,17.83,24.46,23.47,10.68,5.72,21.31,8.48,33.39,8.88v-83.34c-13.66-.11-27.32-.22-40.97-.33-8.87-.07-18.35-.79-27,1.63-15.6,4.38-30.79,16.42-34.15,33.12-2.99,14.88-.35,29.47,10.72,40.54,10.75,10.75,25.97,14.26,40.54,10.72,24.82-6.04,48.19-25.27,48.07-52.89-.06-14.78-5.65-28.89-16.39-39.23-9.19-8.85-18.91-12.63-30.47-17.5l9.95,4.2c-2.86-1.25-5.59-2.6-8.16-4.39l8.43,6.52c-1.34-1.05-2.49-2.14-3.56-3.47l6.52,8.43c-.48-.66-.89-1.35-1.23-2.09l4.2,9.95c-.35-.76-.6-1.55-.77-2.37-2.64-10.06-10.21-19.67-19.15-24.9s-22.1-7.44-32.11-4.2c-21.69,7.02-35.04,28.67-29.11,51.26h0Z"/>
    <path class="cls-2" d="M2703.69,840.4l1.37,1.05-8.43-6.52c8.53,7.12,15.29,15.09,24.69,21.41,7.92,5.32,17.22,9.01,26.35,11.64,13.48,3.88,27.64,4.6,41.07,8.74,20.83,6.43,46.37-7.62,51.26-29.11,5.14-22.59-6.8-44.38-29.11-51.26-15.81-4.88-32.76-5.07-48.21-11.2l9.95,4.2c-3.73-1.59-7.2-3.49-10.49-5.87l8.43,6.52c-3.16-2.46-5.91-5.27-8.72-8.1-4.97-5.04-10.44-9.14-16.11-13.46-8-6.1-22.93-6.73-32.11-4.2-9.67,2.66-20.14,10.14-24.9,19.15-5.11,9.67-7.67,21.39-4.2,32.11l4.2,9.95c3.7,6.26,8.69,11.25,14.95,14.95h0Z"/>
    <path class="cls-2" d="M2749.66,857.76c13.5-1.4,26.97-.78,40.39,1.02l-11.08-1.49c29.22,4.14,57.39,13.38,86.46,18.29,17.74,2.99,35.52,5.06,53.52,4.38,15.97-.6,31.91-2.27,47.85-.35l-11.08-1.49c8.97,1.26,17.49,3.76,25.85,7.21l-9.95-4.2c12.57,5.39,24.24,12.49,35.84,19.68,17.7,10.97,41.46,5.19,53.76-10.73,12.23-15.83,12-40.47-3.26-54.72l-1-.94,6.52,8.43c-1.16-1.52-1.92-3.11-2.72-4.84-2.08-4.53-5.19-8.43-8.45-12.2-6.2-7.19-16.12-12.78-25.32-14.99-12.59-3.02-26.22-3.01-39.02-1.5-23.8,2.81-47.06,8.48-70.79,11.68l11.08-1.49c-34.3,4.48-68.93,5.3-103.48,4.4-17.18-.45-34.35-1.31-51.5-2.33-15.52-.92-31.21-1.42-46.64-3.46l11.08,1.49c-7.96-1.13-15.79-2.85-23.23-5.97l9.95,4.2c-3.71-1.65-7.17-3.62-10.41-6.06l8.43,6.52c-2.45-1.98-4.61-4.12-6.58-6.58l6.52,8.43c-.82-1.11-1.58-2.22-2.32-3.39-4.98,19.01-9.97,38.01-14.95,57.02,.88-.57,1.8-1.08,2.76-1.52l-9.95,4.2c2.44-1.03,4.83-1.67,7.44-2.07l-11.08,1.49c3.21-.32,6.33-.24,9.53,.1l-11.08-1.49c14.54,2.05,28.8,8.04,42.26,13.67l-9.95-4.2c9.72,4.14,19.23,8.72,28.53,13.74s21.32,7.17,32.11,4.2c9.67-2.66,20.14-10.14,24.9-19.15,10.26-19.42,5.53-45.95-14.95-57.02-18.7-10.1-38.4-18.67-58.49-25.61-24.27-8.39-50.88-12.2-74.1,1.69-18.85,11.27-27.06,37.76-14.95,57.02,13.79,21.94,36.48,35.61,61.75,40.25,22.46,4.12,45.52,4.83,68.26,6.14,44.85,2.59,89.97,3.95,134.75-.56,15.25-1.54,30.5-3.56,45.59-6.23,12.59-2.23,25.06-5.11,37.74-6.88l-11.08,1.49c9.29-1.2,18.62-1.78,27.97-.82l-11.08-1.49c1.91,.27,3.68,.66,5.5,1.33l-9.95-4.2c.85,.36,1.64,.82,2.37,1.39l-8.43-6.52c.73,.58,1.36,1.26,1.88,2.03l-6.52-8.43c3.9,6.47,6.27,12.47,12.17,17.98,16.83-21.82,33.67-43.63,50.5-65.45-10.59-6.56-21.22-13.14-32.6-18.27-8.33-3.76-16.84-7.52-25.66-10.04s-18.81-3.8-28.26-4.69c-13.06-1.23-26.19-.09-39.26,.56s-26.22,.29-39.33-1.46l11.08,1.49c-48.56-6.85-96.05-27.19-145.85-22.02-11.34,1.18-21.12,3.86-29.47,12.21-7.23,7.23-12.67,19.09-12.21,29.47s4.02,21.96,12.21,29.47c7.66,7.03,18.67,13.33,29.47,12.21h0Z"/>
    <path class="cls-2" d="M2764.74,782.32c-11.08-12.68-20.97-26.32-31.6-39.37-12.26-15.05-25.63-27.7-41.17-39.35-5.86-4.39-12.1-8.29-18.72-11.41-9.46-4.46-19.45-8.8-29.81-10.72-18.98-3.52-39.12-3.77-57.39,3.34-21.81,8.48-42.67,22.58-52.68,44.64l76.17,9.95c-.44-.89-.73-1.83-.88-2.81l1.49,11.08c-.14-.96-.16-1.92-.04-2.88l-1.49,11.08c.27-1.55,.65-2.84,1.22-4.3l-4.2,9.95c.94-1.94,2.03-3.67,3.3-5.4l-6.52,8.43c3.67-4.49,8.09-8.3,12.66-11.84l-8.43,6.52c6.76-5.08,14.02-9.28,21.78-12.64l-9.95,4.2c8.79-3.66,17.91-6.13,27.34-7.4l-11.08,1.49c8.4-1,16.78-1,25.18,.04l-11.08-1.49c8.46,1.2,16.63,3.44,24.55,6.65l-9.95-4.2c8.33,3.53,16.1,8.04,23.31,13.51l-8.43-6.52c6.73,5.26,12.76,11.22,18.07,17.91l-6.52-8.43c5.64,7.35,10.12,15.33,13.75,23.85l-4.2-9.95c6.52,15.91,9.95,32.75,13.26,49.56,25.39-10.7,50.78-21.41,76.17-32.11-6.94-10.06-14.63-18.52-25.35-24.69s-22.12-8.81-34.68-9.78c13.39,10.2,26.79,20.4,40.18,30.59-7-18.01-15.68-33.13-28.78-47.54-10.01-11-22.51-20.62-35.57-27.7-30.6-16.6-64.87-21.81-98.93-14.73l-9.95,4.2c-4.86,2.62-8.75,6.2-11.69,10.73-5.43,7.03-9.36,16.12-8.95,25.25,.82,18.37,12.35,35.18,30.59,40.18,12.78,3.51,25.29,7.85,37.5,12.99l-9.95-4.2c23.38,10,45.35,22.88,65.5,38.38l-8.43-6.52c11.57,9,21.53,19.5,32.58,29.03,16.22,13.97,36.39,20.23,56.94,11.56s36.58-34.24,27.98-57.13c-2.52-6.71-5.56-13.23-10.72-18.39-6.52-6.52-14.9-10.25-23.93-11.46-7.62-1.02-14.5-.15-21.59,2.84-8.95,3.78-14.1,9.24-19.93,17.05l-1,1.33,6.52-8.43c-2.46,3.07-5.13,5.76-8.18,8.25l8.43-6.52c-2.11,1.61-4.25,3.11-6.61,4.32l9.95-4.2-1.19,.39,11.08-1.49-1.18,.06,11.08,1.49-1.08-.42,18.39,10.72-.68-.76,10.72,18.39-.32-.96,1.49,11.08-.04-1.08-1.49,11.08c.24-1.62,.76-3.06,1.36-4.59l-4.2,9.95c1.48-3.47,3.34-6.67,5.61-9.69l-6.52,8.43c2.33-2.93,4.94-5.52,7.84-7.88l-8.43,6.52c4.03-3.11,8.38-5.6,13.06-7.61l-9.95,4.2c5.25-2.13,10.65-3.56,16.25-4.4l-11.08,1.49c6.1-.79,12.16-.85,18.27-.12l-11.08-1.49c6.9,.96,13.5,2.98,19.93,5.63l-9.95-4.2c9.51,4.11,18.22,9.58,26.44,15.86l-8.43-6.52c10.44,8.15,19.93,17.37,29.17,26.83,12.42,12.71,35.2,16.38,50.5,6.52,6.03-3.88,11.07-8.92,14.95-14.95,5.26-8.16,7.6-22.86,4.2-32.11-5.2-14.14-11.38-24.87-20.98-36.41-7.09-8.52-16.33-15.74-25.77-21.42s-19.92-10.11-30.57-12.38c-7-1.49-14.24-2.51-21.39-2.81s-14.81,1.06-22.17,2.06c10.7,25.39,21.41,50.78,32.11,76.17,5.71-2.66,11.42-5.32,17.14-7.98-14.02-23.99-28.04-47.98-42.07-71.96-1.58,.82-3.13,1.57-4.77,2.26l9.95-4.2c-1.08,.42-2.18,.74-3.32,.94l11.08-1.49c-1.13,.19-2.27,.21-3.41,.05l11.08,1.49-1.18-.29,9.95,4.2c-.79-.28-1.51-.67-2.17-1.17l8.43,6.52c-.66-.5-1.23-1.09-1.7-1.76l6.52,8.43-.6-1.03,4.2,9.95c-.34-.7-.52-1.44-.55-2.21l1.49,11.08,.11-1.12-1.49,11.08,.41-1.1c-13.39,10.2-26.79,20.4-40.18,30.59l1.62,.18-11.08-1.49c5.98,.83,11.7,2.38,17.29,4.67l-9.95-4.2c5.02,2.21,9.68,4.91,14.08,8.18l-8.43-6.52c.87,.66,1.71,1.34,2.54,2.05,16.83-21.82,33.67-43.63,50.5-65.45-29.4-19.24-69.9-24.47-103.05-12.47-10.37,3.75-19.19,9.38-24.9,19.15-5.23,8.93-7.44,22.1-4.2,32.11s9.51,19.81,19.15,24.9,21.65,7.99,32.11,4.2c5.59-2.02,11.28-3.4,17.16-4.2l-11.08,1.49c6.98-.8,13.91-.75,20.88,.13l-11.08-1.49c6.95,1.02,13.64,2.83,20.14,5.49l-9.95-4.2c4.45,1.93,8.68,4.2,12.74,6.85,8.41,5.5,22.58,7.28,32.11,4.2,8.78-2.84,15.98-7.6,21.65-14.93s9.36-16.12,8.95-25.25c-.47-10.44-3.82-22.52-12.21-29.47-9.76-8.08-18.51-13.99-30.03-18.85s-22.13-7-34.96-8.44l-11.08,1.49c-5.42,1.29-10.15,3.78-14.17,7.46-7.6,5.87-11.53,12.59-14.93,21.65-3.81,10.15-1.95,21.9,2.12,31.57s11.03,18.35,20.4,23.4c18.77,10.11,37.75,6.98,55.88-2.45,19.37-10.08,26.73-38.74,14.95-57.02-5.74-8.9-14.28-16.73-24.9-19.15l-11.08-1.49c-7.52,.02-14.53,1.92-21.03,5.69-5.71,2.66-11.42,5.32-17.14,7.98-8.58,3.99-17.09,15.87-19.15,24.9s-1.63,18.29,2.1,27.13c3.38,8.01,9.15,15.75,17.05,19.93l9.95,4.2c7.39,1.98,14.77,1.98,22.16,0l1.38-.19-11.08,1.49c5.1-.57,10.14-.52,15.24,.11l-11.08-1.49c6.01,.87,11.76,2.51,17.35,4.87l-9.95-4.2c5.13,2.29,9.9,5.09,14.39,8.45l-8.43-6.52c4.41,3.45,8.36,7.31,11.87,11.68l-6.52-8.43c3.41,4.44,6.21,9.18,8.4,14.33l-4.2-9.95c.35,.86,.69,1.73,1,2.61,23.22-13.51,46.43-27.03,69.65-40.54-13.84-14.17-28.47-27.48-44.89-38.64-18.45-12.54-39.32-19.79-61.4-22.04-40.06-4.08-82.05,18.1-97.81,55.47-4.49,10.64-6.92,22.34-3.09,33.76,7.09,21.14,26.53,33.94,48.66,30.97,20.68-2.78,35.56-18.3,47.42-34.2l-76.17-9.95,.43,1.15-1.49-11.08,.1,1.16,1.49-11.08c-.05,.8-.27,1.55-.65,2.25l4.2-9.95-.68,1.03,6.52-8.43c-.54,.68-1.18,1.25-1.9,1.73l8.43-6.52-1.15,.64,9.95-4.2c-.8,.37-1.63,.61-2.51,.7l11.08-1.49h-1.29c3.69,.5,7.39,.99,11.08,1.49-1.03-.11-2.03-.36-2.99-.75l9.95,4.2c-1.48-.69-2.69-1.43-4.01-2.39l8.43,6.52c-5.24-4.33-9.83-9.49-14.85-14.09s-10.34-9.13-15.75-13.41c-12.97-10.27-26.2-20.1-40.42-28.59-25.93-15.49-54.45-27.55-83.57-35.54v80.37c2.26-.47,4.53-.87,6.82-1.19l-11.08,1.49c8.25-1.04,16.49-.98,24.74,.08l-11.08-1.49c8.7,1.24,17.12,3.56,25.27,6.87l-9.95-4.2c8.55,3.61,16.53,8.22,23.92,13.82l-8.43-6.52c6.93,5.4,13.12,11.54,18.51,18.48l-6.52-8.43c4.73,6.27,8.66,13,11.74,20.22l-4.2-9.95c.36,.85,.7,1.71,1.03,2.58,3.4,8.74,7.33,15.77,14.93,21.65s15.47,8.19,25.25,8.95c1.01,.05,2.01,.16,3.01,.31l-11.08-1.49c2.52,.46,4.88,1.14,7.25,2.08l-9.95-4.2c2.33,1.06,4.46,2.29,6.55,3.77l-8.43-6.52c2.01,1.58,3.79,3.28,5.45,5.22l-6.52-8.43c.64,.78,1.23,1.6,1.78,2.45,5.96,8.64,14.22,16.72,24.9,19.15,9.32,2.12,18.29,1.63,27.13-2.1,8.01-3.38,15.75-9.15,19.93-17.05,5.46-10.33,6.46-20.62,4.2-32.11-4.66-23.68-10.33-46.69-21.56-68.29-11.14-21.42-28.76-39.08-48.78-52.29-20.33-13.42-44.16-20.26-68.28-22.06s-49.96,4.81-72.37,15.57c-12.12,5.82-23.34,14.18-33.13,23.31-5.82,5.43-11.22,11.83-14.91,18.88-4.1,7.84-5.42,12.42-6.5,20.49-.98,7.31-1.11,15.31,1.66,22.31s5.51,13.18,10.72,18.39c6.52,6.52,14.9,10.25,23.93,11.46,7.62,1.02,14.5,.15,21.59-2.84,7.63-3.22,16.37-9.21,19.93-17.05,1.51-3.33,3.33-6.39,5.53-9.3l-6.52,8.43c2.55-3.18,5.4-5.97,8.59-8.5l-8.43,6.52c4.04-3.03,8.36-5.46,13.01-7.43l-9.95,4.2c5.2-2.06,10.54-3.44,16.08-4.2l-11.08,1.49c5.55-.64,11.05-.63,16.6,.09l-11.08-1.49c6.96,1.06,13.62,3.01,20.12,5.72l-9.95-4.2c8.48,3.73,16.29,8.58,23.62,14.23l-8.43-6.52c24.93,19.68,41.69,47.04,62.38,70.72,6.74,7.72,19.51,12.21,29.47,12.21s22.43-4.54,29.47-12.21c7.29-7.94,12.7-18.37,12.21-29.47s-4.62-20.79-12.21-29.47h0Z"/>
  </g>
  <g id="hair-2" data-name="hair">
    <path class="cls-2" d="M2127.15,839.9c13.84-27.11,29.32-57.38,56.77-73.02,16.15-9.2,34.71-10.12,52.62-13.27s32.89-9.76,47.56-19.15,27.91-20.42,42.05-30.37c13.84-9.74,28.58-17.91,44.57-23.55,31.93-11.26,67-13.57,100.09-6.28,17.2,3.79,33.36,10.17,48.77,18.65,16.41,9.03,32.28,18.91,50.35,24.36,31.59,9.54,67.73,8.3,95.07,29,12.4,9.38,23.18,21.43,38.16,26.79s29.48,.44,42.19-7.62,24.78-19.21,40.43-21.05c18.14-2.14,36.06,6.13,51.22,15.21s29.76,20.01,46.34,27.02c8.37,3.54,16.92,5.81,25.95,6.77,9.78,1.04,19.65,.65,29.44,1.62,36.83,3.65,70.57,21.58,101.6,40.63,8.01,4.91,15.92,9.98,23.81,15.06,6.46,4.16,12.44-6.14,6.01-10.28-31.75-20.42-64.37-41.1-101-51.53-8.83-2.51-17.84-4.3-26.96-5.4-9.7-1.17-19.45-.97-29.19-1.68-18.9-1.38-35.08-10.33-50.77-20.3-29.4-18.69-64.12-40.76-99.03-21.93-13.11,7.07-24.37,18.87-39,22.85-15.93,4.33-29.04-6.39-40.44-16.04-12.83-10.87-25.67-19.75-41.8-25.05-16.55-5.43-33.92-7.58-50.92-11.1-18.49-3.82-34.91-10.36-51.34-19.63-15.8-8.91-31.42-17.61-48.76-23.23-32.98-10.68-68.88-11.92-102.65-4.3-16.59,3.75-32.74,9.79-47.7,17.88s-29.26,19.3-43.32,29.76-28.32,20.63-44.7,26.52c-17.86,6.41-37.1,6.19-55.26,11.29-32.28,9.07-53.35,36.2-69.17,64.17-3.94,6.96-7.62,14.06-11.26,21.18s6.79,12.84,10.28,6.01h0Z"/>
    <path class="cls-2" d="M2176.5,940.19c55.56-1.33,111.14-1.81,166.72-1.45,13.11,.49,25.35-2.24,36.7-8.2,11.81-3.84,22.03-10.41,30.65-19.69,9.29-8.63,15.85-18.85,19.69-30.65,5.96-11.35,8.7-23.58,8.2-36.7-1.13-8.44-2.27-16.88-3.4-25.32-4.53-16.14-12.69-30.15-24.5-42.03-18.7-17.17-41.49-27.73-67.35-27.9-55.58-.36-111.16,.12-166.72,1.45-24.79,.59-49.67,10.22-67.35,27.9-9.29,8.63-15.85,18.85-19.69,30.65-5.96,11.35-8.7,23.58-8.2,36.7l3.4,25.32c4.53,16.14,12.69,30.15,24.5,42.03,18.38,16.87,41.77,28.51,67.35,27.9h0Z"/>
    <path class="cls-2" d="M2192.29,915.8c10.35-.49,20.65,.03,30.92,1.38l-25.32-3.4c26.22,3.71,51.22,12.59,75.55,22.79-7.58-3.2-15.17-6.4-22.75-9.6,9.09,3.84,18.11,7.85,27.12,11.88,10.93,6.96,22.74,10.73,35.41,11.3,12.66,2.84,25.32,2.27,37.98-1.7,12.4-2.95,23.19-8.63,32.39-17.05,10.37-6.72,18.55-15.62,24.53-26.72,11.68-22.11,17.53-48.89,9.6-73.4l-9.6-22.75c-8.47-14.31-19.86-25.7-34.17-34.17-28.84-12.93-57.83-26.29-88.05-35.71-11.06-3.45-22.33-6.26-33.78-8.04-19.76-3.08-39.78-6.26-59.85-5.31-13.11-.49-25.35,2.24-36.7,8.2-11.81,3.84-22.03,10.41-30.65,19.69-9.29,8.63-15.85,18.85-19.69,30.65-5.96,11.35-8.7,23.58-8.2,36.7l3.4,25.32c4.53,16.14,12.69,30.15,24.5,42.03,18.13,16.64,42.01,29.09,67.35,27.9h0Z"/>
    <path class="cls-2" d="M2183.24,894.79c64.54,16.75,127.8,38.19,189.23,64.11-7.58-3.2-15.17-6.4-22.75-9.6,11,4.66,21.94,9.46,32.83,14.39,10.93,6.96,22.74,10.73,35.41,11.3,12.66,2.84,25.32,2.27,37.98-1.7,12.4-2.95,23.19-8.63,32.39-17.05,10.37-6.72,18.55-15.62,24.53-26.72,11.68-22.11,17.53-48.89,9.6-73.4l-9.6-22.75c-8.47-14.31-19.86-25.7-34.17-34.17-79.18-35.89-160.62-66.25-244.81-88.1-12.66-3.97-25.32-4.54-37.98-1.7-12.68,.57-24.48,4.34-35.41,11.3-11.1,5.99-20.01,14.16-26.72,24.53-8.42,9.2-14.1,20-17.05,32.39l-3.4,25.32c.05,17.19,4.39,33.22,13,48.07,13.35,20.7,32.54,37.44,56.92,43.77h0Z"/>
    <path class="cls-2" d="M2187.57,882.19c26.67,14.39,54.64,26.39,82.88,37.32l25.32,3.4,25.32-3.4,22.75-9.6c11.1-5.99,20.01-14.16,26.72-24.53,5.9-5.94,9.99-12.95,12.25-21.02,4.31-7.43,6.48-15.44,6.5-24.04,2.27-8.44,2.27-16.88,0-25.32-.57-12.68-4.34-24.48-11.3-35.41-4.2-9.77-11.92-18.12-18.98-25.78-3.41-3.7-8.77-7.17-12.21-9.83-4.2-3.24-8.41-7.12-13.21-9.67-10.93-6.96-22.74-10.73-35.41-11.3-12.66-2.84-25.32-2.27-37.98,1.7-12.4,2.95-23.19,8.63-32.39,17.05-10.37,6.72-18.55,15.62-24.53,26.72-11.68,22.11-17.53,48.89-9.6,73.4,7.47,23.07,21.75,45.24,43.77,56.92,1.27,.67,2.4,1.38,3.57,2.22-6.43-4.96-12.85-9.93-19.28-14.89,1.47,1.22,2.73,2.5,3.93,3.99l-14.89-19.28c1.1,1.57,1.97,3.13,2.73,4.89,35.86-46.64,71.71-93.28,107.57-139.92-5.3-2.05-10.56-4.18-15.8-6.38,7.58,3.2,15.17,6.4,22.75,9.6-15.1-6.43-29.88-13.54-44.33-21.34-22.22-11.99-48.73-16.4-73.4-9.6-12.4,2.95-23.19,8.63-32.39,17.05-10.37,6.72-18.55,15.62-24.53,26.72-11.68,22.11-17.53,48.89-9.6,73.4,7.5,23.17,21.77,45.05,43.77,56.92h0Z"/>
    <path class="cls-2" d="M2281.42,886.98c13.11,.49,25.35-2.24,36.7-8.2,11.81-3.84,22.03-10.41,30.65-19.69,9.29-8.63,15.85-18.85,19.69-30.65,5.96-11.35,8.7-23.58,8.2-36.7-1.13-8.44-2.27-16.88-3.4-25.32-4.53-16.14-12.69-30.15-24.5-42.03-18.64-17.11-41.54-27.9-67.35-27.9-13.11-.49-25.35,2.24-36.7,8.2-11.81,3.84-22.03,10.41-30.65,19.69-9.29,8.63-15.85,18.85-19.69,30.65-5.96,11.35-8.7,23.58-8.2,36.7l3.4,25.32c4.53,16.14,12.69,30.15,24.5,42.03,18.64,17.11,41.54,27.9,67.35,27.9h0Z"/>
    <path class="cls-2" d="M2292.92,875.44c26.97-.41,53.92,1.15,80.66,4.65l-25.32-3.4c17.82,2.4,35.5,5.64,53.01,9.74,24.65,5.76,51.24,3.36,73.4-9.6,11.1-5.99,20.01-14.16,26.72-24.53,8.42-9.2,14.1-20,17.05-32.39l3.4-25.32c-.05-17.19-4.39-33.22-13-48.07-13.16-20.41-32.62-38.09-56.92-43.77-29.85-6.98-60.3-11.31-90.75-14.64-22.66-2.48-45.45-3.5-68.24-3.15-13.11-.49-25.35,2.24-36.7,8.2-11.81,3.84-22.03,10.41-30.65,19.69-9.29,8.63-15.85,18.85-19.69,30.65-5.96,11.35-8.7,23.58-8.2,36.7l3.4,25.32c4.53,16.14,12.69,30.15,24.5,42.03,18.47,16.96,41.68,28.29,67.35,27.9h0Z"/>
    <path class="cls-2" d="M2300.82,855.73c8.94,2.86,17.72,6.11,26.36,9.76l-22.75-9.6c20.5,8.79,39.92,19.77,58,32.82,10.93,6.96,22.74,10.73,35.41,11.3,12.66,2.84,25.32,2.27,37.98-1.7,12.4-2.95,23.19-8.63,32.39-17.05,10.37-6.72,18.55-15.62,24.53-26.72,11.68-22.11,17.53-48.89,9.6-73.4l-9.6-22.75c-8.47-14.31-19.86-25.7-34.17-34.17-13.07-9.44-26.84-17.85-41.26-25.08-21.15-10.6-43.31-19.89-65.86-27.11-12.66-3.97-25.32-4.54-37.98-1.7-12.68,.57-24.48,4.34-35.41,11.3-11.1,5.99-20.01,14.16-26.72,24.53-8.42,9.2-14.1,20-17.05,32.39l-3.4,25.32c.05,17.19,4.39,33.22,13,48.07l14.89,19.28c11.88,11.8,25.89,19.97,42.03,24.5h0Z"/>
    <path class="cls-2" d="M2321.07,835.39c1.56,.62,3.11,1.25,4.65,1.9l-22.75-9.6c20.09,8.52,38.94,19.55,56.25,32.84-6.43-4.96-12.85-9.93-19.28-14.89,11.47,8.93,22.14,18.77,31.95,29.5,8.63,9.29,18.85,15.85,30.65,19.69,11.35,5.96,23.58,8.7,36.7,8.2,13.11,.49,25.35-2.24,36.7-8.2,11.81-3.84,22.03-10.41,30.65-19.69,16.66-18.15,29.03-41.98,27.9-67.35l-3.4-25.32c-4.53-16.14-12.69-30.15-24.5-42.03-18.25-19.95-39.88-36.97-62.04-52.31-22.57-15.62-47.41-26.25-72.84-36.43-12.66-3.97-25.32-4.54-37.98-1.7-12.68,.57-24.48,4.34-35.41,11.3-11.1,5.99-20.01,14.16-26.72,24.53-8.42,9.2-14.1,20-17.05,32.39l-3.4,25.32c.05,17.19,4.39,33.22,13,48.07l14.89,19.28c11.88,11.8,25.89,19.97,42.03,24.5h0Z"/>
    <path class="cls-2" d="M2351.01,818.52c33.4,6.91,67.25,10.36,101.02,14.88-8.44-1.13-16.88-2.27-25.32-3.4,8.12,1.16,16.06,2.82,23.68,5.94l-22.75-9.6c4.51,2,8.66,4.46,12.58,7.45l-19.28-14.89c5.36,4.3,9.97,9.27,14.19,14.68l-14.89-19.28c5.17,6.81,9.66,14.06,14.08,21.38,5.99,11.1,14.16,20.01,24.53,26.72,9.2,8.42,20,14.1,32.39,17.05,12.66,3.97,25.32,4.54,37.98,1.7,12.68-.57,24.48-4.34,35.41-11.3,20.34-13.11,38.24-32.64,43.77-56.92l3.4-25.32c-.05-17.19-4.39-33.22-13-48.07-17.72-29.33-38.74-57.11-68.93-74.63-15.05-8.74-32.53-15.53-49.91-18.2-19.11-2.94-38.31-4.78-57.45-7.34,8.44,1.13,16.88,2.27,25.32,3.4-15.48-2.12-30.88-4.76-46.18-7.92-12.66-3.97-25.32-4.54-37.98-1.7-12.68,.57-24.48,4.34-35.41,11.3-11.1,5.99-20.01,14.16-26.72,24.53-8.42,9.2-14.1,20-17.05,32.39-1.13,8.44-2.27,16.88-3.4,25.32,.05,17.19,4.39,33.22,13,48.07,12.95,20.09,32.72,38.77,56.92,43.77h0Z"/>
    <path class="cls-2" d="M2402.15,817.11c17.58-1.14,35.23-2.07,52.77,.09l-25.32-3.4c9.42,1.28,18.59,3.48,27.39,7.09l-22.75-9.6c11.74,5.08,21.45,13.13,32.26,19.79,11.7,7.22,24.78,12.42,37.75,16.78,5.96,2,12.08,3.43,17.94,5.74l-22.75-9.6c3,1.29,5.77,2.79,8.42,4.71l-19.28-14.89c1.94,1.56,3.62,3.25,5.16,5.21l-14.89-19.28c1.41,1.96,2.55,4,3.52,6.21l-9.6-22.75c1.04,2.66,1.72,5.32,2.15,8.14l-3.4-25.32c.44,3.75,.38,7.43-.1,11.17l3.4-25.32c-.61,3.82-1.63,7.48-3.06,11.08l9.6-22.75c-1.54,3.57-3.41,6.89-5.71,10.02l14.89-19.28c-2.55,3.27-5.46,6.04-8.72,8.59l19.28-14.89c-4.57,3.39-9.45,6.08-14.69,8.29l22.75-9.6c-8.3,3.31-16.96,5.26-25.78,6.53l25.32-3.4c-37.59,5.04-76.05,2.19-113.86,3.06-24.58,.57-48.88,2.28-70.73,15.27-27.82,16.54-43.82,44.23-50.14,75.07-5.33,26.01-8.76,53.15-7.23,79.77-.49,13.11,2.24,25.35,8.2,36.7,3.84,11.81,10.41,22.03,19.69,30.65,8.63,9.29,18.85,15.85,30.65,19.69,11.35,5.96,23.58,8.7,36.7,8.2,8.44-1.13,16.88-2.27,25.32-3.4,16.14-4.53,30.15-12.69,42.03-24.5,16.53-18.01,29.35-42.12,27.9-67.35-.76-13.22-.31-26.42,1.33-39.56l-3.4,25.32c1.32-9.83,2.6-20.64,6.4-29.86l-9.6,22.75c.38-.83,.86-1.58,1.46-2.27-4.96,6.43-9.93,12.85-14.89,19.28l1-.91-19.28,14.89,1.23-.71c-7.58,3.2-15.17,6.4-22.75,9.6,.88-.38,1.8-.63,2.76-.76l-25.32,3.4c11.34-1.24,23.03-.94,34.43-1.02s23.66-.01,35.48-.04c30.23-.08,59.56-1.77,89.5-6.42,17.36-2.7,32.15-9.2,48.39-16.51,4.23-1.9,8.23-4.1,12.03-6.77,8.65-6.09,20.12-13.65,27.64-22.42,7.37-8.6,15.32-17.57,20.58-27.78,4.31-8.38,7.83-17.49,11.23-26.26,.77-2,1.5-4,2.05-6.08,1.5-5.72,1.94-11.92,2.71-17.65s1.98-11.81,2.13-17.67c.04-1.65-.05-3.3-.18-4.94-.81-9.81-1.87-20.5-4.22-30.11s-7.09-18.59-11.08-27.31c-.84-1.84-1.73-3.54-2.82-5.24-11.71-18.17-23.16-29.57-41.34-41.31-5.73-3.7-12.22-5.92-18.48-8.56s-11.97-5.27-18.29-7.22c-5.52-1.7-11.08-3.14-16.41-5.38,7.58,3.2,15.17,6.4,22.75,9.6-10.3-4.67-19.03-11.8-28.51-17.83-7.84-4.99-16.14-8.26-24.73-11.89-8.77-3.7-17.17-7.47-26.42-9.66-29.96-7.1-60.02-7.69-90.45-5.72-13.11-.49-25.35,2.24-36.7,8.2-11.81,3.84-22.03,10.41-30.65,19.69-9.29,8.63-15.85,18.85-19.69,30.65-5.96,11.35-8.7,23.58-8.2,36.7,1.13,8.44,2.27,16.88,3.4,25.32,4.53,16.14,12.69,30.15,24.5,42.03,17.93,16.46,42.2,29.52,67.35,27.9h0Z"/>
    <path class="cls-2" d="M2433.81,707.1c-27.7-.93-55.8-1.93-83.46,.26-13.8,1.09-27.6,3.05-41.25,5.29-5.72,.94-11.4,2.18-16.95,3.86-12.81,3.89-25.29,9.39-37.26,15.24s-23.03,15.63-33.82,24.01c-9.29,8.63-15.85,18.85-19.69,30.65-5.96,11.35-8.7,23.58-8.2,36.7-.49,13.11,2.24,25.35,8.2,36.7,3.84,11.81,10.41,22.03,19.69,30.65,18.15,16.66,41.98,29.03,67.35,27.9,8.44-1.13,16.88-2.27,25.32-3.4,16.14-4.53,30.15-12.69,42.03-24.5l1.25-.97c-6.43,4.96-12.85,9.93-19.28,14.89,5.46-4.06,11.3-7.36,17.54-10.08-7.58,3.2-15.17,6.4-22.75,9.6,10.25-4.26,20.99-6.75,31.96-8.27-8.44,1.13-16.88,2.27-25.32,3.4,31.15-4.05,63.35-2.48,94.65-1.44,13.11,.49,25.35-2.24,36.7-8.2,11.81-3.84,22.03-10.41,30.65-19.69,9.29-8.63,15.85-18.85,19.69-30.65,5.96-11.35,8.7-23.58,8.2-36.7l-3.4-25.32c-4.53-16.14-12.69-30.15-24.5-42.03l-19.28-14.89c-14.86-8.62-30.88-12.95-48.07-13h0Z"/>
    <path class="cls-2" d="M2764.79,883.82c5.09,1.13,10.01,2.7,14.83,4.69l-22.75-9.6c7.68,3.34,14.77,7.65,21.41,12.74l-19.28-14.89c8.32,6.57,15.63,14.16,22.12,22.53l-14.89-19.28c13.53,17.88,22.97,38.23,31.68,58.78-3.2-7.58-6.4-15.17-9.6-22.75l.68,1.62c2.95,12.4,8.63,23.19,17.05,32.39,6.72,10.37,15.62,18.55,26.72,24.53,10.93,6.96,22.74,10.73,35.41,11.3,12.66,2.84,25.32,2.27,37.98-1.7,23.05-7.46,45.28-21.74,56.92-43.77l9.6-22.75c4.54-16.88,4.54-33.76,0-50.64-7.98-18.91-15.52-38.21-25.12-56.4s-22.08-34.63-35.29-50.47c-3.7-4.44-7.68-8.63-11.96-12.52-9.84-8.95-20.59-17.17-31.6-24.61-4.75-3.21-9.75-5.95-14.99-8.28-12.09-5.4-25.06-11.67-38.29-14.6-12.66-3.97-25.32-4.54-37.98-1.7-12.68,.57-24.48,4.34-35.41,11.3-11.1,5.99-20.01,14.16-26.72,24.53-8.42,9.2-14.1,20-17.05,32.39l-3.4,25.32c.05,17.19,4.39,33.22,13,48.07,13.06,20.26,32.66,38.4,56.92,43.77h0Z"/>
    <path class="cls-2" d="M2758.92,796.62c-7.08,42.49-17.79,84.28-32.01,124.94-3.97,12.66-4.54,25.32-1.7,37.98,.57,12.68,4.34,24.48,11.3,35.41,5.99,11.1,14.16,20.01,24.53,26.72,9.2,8.42,20,14.1,32.39,17.05,8.44,1.13,16.88,2.27,25.32,3.4,17.19-.05,33.22-4.39,48.07-13l19.28-14.89c11.8-11.88,19.97-25.89,24.5-42.03,14.22-40.66,24.93-82.45,32.01-124.94,3.97-12.66,4.54-25.32,1.7-37.98-.57-12.68-4.34-24.48-11.3-35.41-5.99-11.1-14.16-20.01-24.53-26.72-9.2-8.42-20-14.1-32.39-17.05-8.44-1.13-16.88-2.27-25.32-3.4-17.19,.05-33.22,4.39-48.07,13-6.43,4.96-12.85,9.93-19.28,14.89-11.8,11.88-19.97,25.89-24.5,42.03h0Z"/>
    <path class="cls-2" d="M2802.75,840.59v67.55c-.49,13.11,2.24,25.35,8.2,36.7,3.84,11.81,10.41,22.03,19.69,30.65,8.63,9.29,18.85,15.85,30.65,19.69,11.35,5.96,23.58,8.7,36.7,8.2,8.44-1.13,16.88-2.27,25.32-3.4,16.14-4.53,30.15-12.69,42.03-24.5,17.11-18.64,27.9-41.54,27.9-67.35v-67.55c.49-13.11-2.24-25.35-8.2-36.7-3.84-11.81-10.41-22.03-19.69-30.65-8.63-9.29-18.85-15.85-30.65-19.69-11.35-5.96-23.58-8.7-36.7-8.2-8.44,1.13-16.88,2.27-25.32,3.4-16.14,4.53-30.15,12.69-42.03,24.5-17.11,18.64-27.9,41.54-27.9,67.35h0Z"/>
    <path class="cls-2" d="M2844.81,840.63c-1.48,17.79-1.12,35.61,1.1,53.33-.49,13.11,2.24,25.35,8.2,36.7,3.84,11.81,10.41,22.03,19.69,30.65,8.63,9.29,18.85,15.85,30.65,19.69,11.35,5.96,23.58,8.7,36.7,8.2,8.44-1.13,16.88-2.27,25.32-3.4,16.14-4.53,30.15-12.69,42.03-24.5l14.89-19.28c8.62-14.86,12.95-30.88,13-48.07-2.22-17.71-2.59-35.53-1.1-53.33,.49-13.11-2.24-25.35-8.2-36.7-3.84-11.81-10.41-22.03-19.69-30.65-8.63-9.29-18.85-15.85-30.65-19.69-11.35-5.96-23.58-8.7-36.7-8.2-8.44,1.13-16.88,2.27-25.32,3.4-16.14,4.53-30.15,12.69-42.03,24.5l-14.89,19.28c-8.62,14.86-12.95,30.88-13,48.07h0Z"/>
    <path class="cls-2" d="M2938.55,936.75c7.29,3.87,14.17,8.34,20.71,13.37-6.43-4.96-12.85-9.93-19.28-14.89,11.77,9.24,22.06,20.05,31.26,31.84l-14.89-19.28c35.28,45.89,51.13,102.27,79.25,152.21,11.89,21.11,26.55,40.59,42.17,59.08l19.28,14.89,22.75,9.6,25.32,3.4c13.11,.49,25.35-2.24,36.7-8.2,8.07-2.26,15.07-6.35,21.02-12.25,7.16-4.23,12.85-9.93,17.09-17.09,5.9-5.94,9.99-12.95,12.25-21.02,5.96-11.35,8.7-23.58,8.2-36.7,.07-1.58,.07-3.1-.04-4.68-.57-8.55-2.09-18.43-3.58-26.87-1.2-6.83-4.03-12.31-6.81-18.9-2.35-5.56-4.54-12.35-8.14-17.55-4.9-7.06-10.62-14.71-16.29-21.16-1.04-1.18-2.08-2.31-3.23-3.39-18.07-17.08-42.22-27.9-67.35-27.9-13.11-.49-25.35,2.24-36.7,8.2-11.81,3.84-22.03,10.41-30.65,19.69-16.66,18.15-29.03,41.98-27.9,67.35l3.4,25.32c4.53,16.14,12.69,30.15,24.5,42.03,1.15,1.09,2.2,2.19,3.23,3.39l-14.89-19.28c1.94,2.52,3.48,5.13,4.74,8.05-3.2-7.58-6.4-15.17-9.6-22.75,.93,2.47,1.59,4.92,2.01,7.53-1.13-8.44-2.27-16.88-3.4-25.32,.23,2.1,.3,4.13,.21,6.23,54.2-22.45,108.4-44.9,162.6-67.35-2.2-2.6-4.33-5.24-6.42-7.93l14.89,19.28c-23.59-30.84-38.56-66.85-54.28-102.05-7.47-16.73-15.2-33.34-24.25-49.28-12.35-21.75-27.49-42.19-43.85-61.04-6.39-7.36-13.33-14.26-20.88-20.43-13.51-11.06-27.46-22.41-42.99-30.65-10.93-6.96-22.74-10.73-35.41-11.3-12.66-2.84-25.32-2.27-37.98,1.7-12.4,2.95-23.19,8.63-32.39,17.05-10.37,6.72-18.55,15.62-24.53,26.72-11.68,22.11-17.53,48.89-9.6,73.4,7.47,23.08,21.75,45.23,43.77,56.92h0Z"/>
    <path class="cls-2" d="M3143,952.21c-9.33-11.67-19.56-22.58-30.65-32.6-16.67-15.05-34.69-28.96-53.46-41.29-12.27-8.06-25.15-15.17-38.51-21.26-20.51-9.35-41.54-18.34-63.3-24.47-24.04-6.78-49.14-10.1-73.92-12.49-8.44,1.13-16.88,2.27-25.32,3.4-12.4,2.95-23.19,8.63-32.39,17.05-7.16,4.23-12.85,9.93-17.09,17.09-8.42,9.2-14.1,20-17.05,32.39l-3.4,25.32,3.4,25.32c2.95,12.4,8.63,23.19,17.05,32.39,6.72,10.37,15.62,18.55,26.72,24.53,56.4,29.9,112.27,60.76,167.6,92.59,29.58,17.01,66.59,17.3,96.15,0,14.31-8.47,25.7-19.86,34.17-34.17,8.62-14.86,12.95-30.88,13-48.07,1.21-28.73-12.64-57.57-32.75-77.47-4.7-4.65-10.23-8.66-15.44-12.72-16.28-12.69-32.44-25.27-49.96-36.2-28.24-17.62-58.67-30.9-89.53-43.23-58.82-23.51-122.13-34-184.99-39.24-32.54-2.71-65.23-3.17-97.86-2.19-17.19,.05-33.22,4.39-48.07,13-11.1,5.99-20.01,14.16-26.72,24.53-8.42,9.2-14.1,20-17.05,32.39-4.54,16.88-4.54,33.76,0,50.64,4.38,23.39,18.12,42.52,32.95,60.23,2.37,2.83,4.94,5.42,7.77,7.78,8.89,7.42,18.09,14.94,27.94,21.11,13.12,8.22,28.72,13.93,42.77,19.62,9.4,3.81,18.98,7.21,28.62,10.33,19.27,6.23,38.95,11.17,58.86,14.83,27.61,5.07,55.73,8.8,83.78,10.34,23.29,1.27,46.65,.75,69.87-1.47,17.19-.05,33.22-4.39,48.07-13,11.1-5.99,20.01-14.16,26.72-24.53,8.42-9.2,14.1-20,17.05-32.39,4.54-16.88,4.54-33.76,0-50.64-4-9.81-7.48-20.28-12.89-29.53-5.1-8.71-13.81-19.05-19.13-25.44-9.01-10.84-21.26-19.25-32.39-27.48s-22.62-14.11-34.67-19.81c-34.03-16.11-69.32-29.2-105.26-40.3-59.47-18.36-120.15-32.81-181.51-43.24-33.75-5.73-68.83-8.29-101.01-20.73-16.88,61.23-33.76,122.46-50.64,183.7,29.19,5.19,58.38,10.38,87.58,15.57,13.72,2.44,27.43,5.13,41.21,7.26,8.73,1.35,22.08,3.78,32.56,4.05s20.98-1.91,31-3.65,22.2-7.53,29.29-11.36c1.19-.64,2.3-1.3,3.43-2.05l19.28-14.89c.73-.56,1.4-1.18,2.02-1.85,9.29-8.63,15.85-18.85,19.69-30.65,5.96-11.35,8.7-23.58,8.2-36.7l-3.4-25.32c-4.53-16.14-12.69-30.15-24.5-42.03-19.36-19.9-45.74-32.53-72.82-37.53-14.8-2.74-29.67-5.11-44.58-7.22-36.8-5.2-73.77-10.09-110.91-12.06-64.44-3.4-131.15,4.82-188.4,36.32-5.84,3.21-11.46,6.81-16.81,10.78-10.96,8.14-23.93,16.65-33.24,27.27-14.96,17.07-25.14,33.44-31.3,55.57-1.59,5.72-2.49,11.62-4.6,17.19,3.2-7.58,6.4-15.17,9.6-22.75-.76,1.79-1.61,3.44-2.72,5.04l14.89-19.28c-.94,1.19-1.93,2.2-3.11,3.16l19.28-14.89c-1,.68-1.95,1.21-3.05,1.72-11.1,5.99-20.01,14.16-26.72,24.53-8.42,9.2-14.1,20-17.05,32.39-3.97,12.66-4.54,25.32-1.7,37.98,.57,12.68,4.34,24.48,11.3,35.41,13.11,20.34,32.64,38.24,56.92,43.77,8.44,1.13,16.88,2.27,25.32,3.4,17.19-.05,33.22-4.39,48.07-13,.72-.33,1.41-.69,2.11-1.08,5.72-3.21,15.24-11.21,20.22-15.53,4.25-3.69,7.01-8.19,10.56-12.8s6.99-8.19,9.45-13.07c4.23-8.37,8.18-17.72,11.13-26.64,2.28-6.88,3.06-14.16,5.83-20.9l-9.6,22.75c1.05-2.28,2.3-4.34,3.79-6.35l-14.89,19.28c3.61-4.48,7.96-8.16,12.47-11.71l-19.28,14.89c10.59-8.14,22.14-14.73,34.41-19.96-7.58,3.2-15.17,6.4-22.75,9.6,17.22-7.15,35.35-11.49,53.8-14.01l-25.32,3.4c49.4-6.44,100.1-.96,149.2,5.58-8.44-1.13-16.88-2.27-25.32-3.4,12.97,1.75,25.92,3.71,38.82,5.9,11.09,1.89,22.65,3.3,33.1,7.69l-22.75-9.6c2.8,1.29,5.38,2.77,7.85,4.62l-19.28-14.89c1.2,.99,2.28,2,3.37,3.11v-134.7c-.62,.68-1.29,1.29-2.02,1.85,6.43-4.96,12.85-9.93,19.28-14.89-1.12,.8-2.2,1.43-3.43,2.05l22.75-9.6c-2.14,.87-4.25,1.41-6.53,1.76,8.44-1.13,16.88-2.27,25.32-3.4-4.34,.45-8.61,.17-12.92-.4,8.44,1.13,16.88,2.27,25.32,3.4-21.27-3.16-42.42-7.47-63.59-11.24-21.73-3.86-43.46-7.73-65.2-11.59-12.66-3.97-25.32-4.54-37.98-1.7-12.68,.57-24.48,4.34-35.41,11.3-11.1,5.99-20.01,14.16-26.72,24.53-8.42,9.2-14.1,20-17.05,32.39l-3.4,25.32c.05,17.19,4.39,33.22,13,48.07,4.96,6.43,9.93,12.85,14.89,19.28,11.88,11.8,25.89,19.97,42.03,24.5,21.54,8.32,44.34,11.97,67.07,15.37s46.7,7.39,69.91,11.95c46.59,9.15,92.72,20.64,138.17,34.4,25.19,7.63,50.24,15.83,74.51,26.07-7.58-3.2-15.17-6.4-22.75-9.6,17.28,7.38,34.92,15.37,50.03,26.69l-19.28-14.89c4.83,3.74,9.25,7.84,13.11,12.58l-14.89-19.28c2.77,3.6,5.09,7.39,6.95,11.53l-9.6-22.75,.57,1.41c30.62-40.19,61.23-80.38,91.85-120.57-35.47,3.39-71.19,2.69-106.51-2,8.44,1.13,16.88,2.27,25.32,3.4-37.78-5.16-75.33-14.6-110.62-29.16l22.75,9.6c-8.88-3.75-17.44-8.14-25.16-13.94l19.28,14.89c-4.02-3.14-7.65-6.59-10.81-10.6l14.89,19.28c-2.15-2.9-3.94-5.94-5.37-9.26l9.6,22.75c-1-2.58-1.74-5.16-2.25-7.88-30.62,40.19-61.23,80.38-91.85,120.57,44.14-1.33,88.37,.06,132.17,5.92-8.44-1.13-16.88-2.27-25.32-3.4,45.71,6.26,90.65,17.47,133.24,35.34l-22.75-9.6c31.86,13.51,62.11,30.6,89.57,51.7l-19.28-14.89c5.97,4.63,12.52,9.24,17.5,14.95l-14.89-19.28c.92,1.23,1.61,2.33,2.25,3.73-3.2-7.58-6.4-15.17-9.6-22.75,.35,.88,.55,1.79,.6,2.73-1.13-8.44-2.27-16.88-3.4-25.32l-.06,1.43c47.77-27.42,95.55-54.83,143.32-82.25-55.33-31.83-111.21-62.69-167.6-92.59-16.02,59.17-32.05,118.33-48.07,177.5,3.65,.35,7.3,.77,10.93,1.25-8.44-1.13-16.88-2.27-25.32-3.4,24.44,3.38,48.27,10,71.01,19.54l-22.75-9.6c22.7,9.67,44.06,22.15,63.61,37.21l-19.28-14.89c17.39,13.54,33.15,28.99,46.92,46.21,8.63,9.29,18.85,15.85,30.65,19.69,11.35,5.96,23.58,8.7,36.7,8.2,13.11,.49,25.35-2.24,36.7-8.2,11.81-3.84,22.03-10.41,30.65-19.69,16.66-18.15,29.03-41.98,27.9-67.35l-3.4-25.32c-4.53-16.14-12.69-30.15-24.5-42.03h0Z"/>
    <path class="cls-2" d="M2097.9,815.88c-6.91,.04-13.75-.54-20.6-1.42l25.32,3.4c-13.56-1.85-27.06-4.14-40.63-5.97-13.14-1.77-26.26-3.89-39.56-2.84-11.58,.91-23.22,2.59-34.66,4.59-4.12,.72-8.19,1.69-12.19,2.89-15.1,4.53-29.9,10.91-43.8,18.32s-26.36,17.75-38.46,27.48c-6.4,5.14-12.37,10.76-17.77,16.95-16.14,18.49-30.86,38.43-40.8,60.94-11.26,25.5-20.75,50.27-25.13,77.81l-3.4,25.32c-.49,13.11,2.24,25.35,8.2,36.7,2.26,8.07,6.35,15.07,12.25,21.02,6.72,10.37,15.62,18.55,26.72,24.53,8.64,4.98,18,9.05,27.59,11.73,4.68,1.31,10.96,1.67,14.85,2.19,4.39,.59,10.57,1.85,15.67,1.97,12.48,.3,25.72-1.49,37.58-5.7s23.02-8.86,33.56-14.97c4.51-2.61,8.95-5.3,13.72-7.42l-22.75,9.6c2.92-1.19,5.84-2.12,8.96-2.62l-25.32,3.4c2.12-.21,4.15-.19,6.27,.06l-25.32-3.4c2.1,.36,4.06,.9,6.03,1.7l-22.75-9.6c1.49,.7,2.84,1.49,4.17,2.47-6.43-4.96-12.85-9.93-19.28-14.89,.92,.78,1.71,1.55,2.51,2.46l-14.89-19.28c.72,.97,1.27,1.88,1.81,2.96l-9.6-22.75c3.83,9.99-.07,8.03,10.55,26.18,8.47,14.31,19.86,25.7,34.17,34.17,8.1,3.59,16.27,7.02,24.49,10.3,4.64,1.85,9.31,3.65,13.99,5.39,9.36,3.49,18.81,6.78,28.31,9.86,18.72,6.06,37.7,11.31,56.87,15.74,46.21,10.67,93.79,17.2,141.13,19.9,13.11,.49,25.35-2.24,36.7-8.2,11.81-3.84,22.03-10.41,30.65-19.69l14.89-19.28c6.96-10.93,10.73-22.74,11.3-35.41,2.27-8.44,2.27-16.88,0-25.32-.57-12.68-4.34-24.48-11.3-35.41-13.39-20.78-32.53-37.28-56.92-43.77-51.5-13.7-103.81-24.2-156.61-31.43-12.66-3.97-25.32-4.54-37.98-1.7-12.68,.57-24.48,4.34-35.41,11.3-11.1,5.99-20.01,14.16-26.72,24.53-8.42,9.2-14.1,20-17.05,32.39l-3.4,25.32c.05,17.19,4.39,33.22,13,48.07l14.89,19.28c11.88,11.8,25.89,19.97,42.03,24.5,52.8,7.23,105.11,17.73,156.61,31.43,8.44-62.37,16.88-124.73,25.32-187.1-17.47-1-34.88-2.65-52.22-4.94l25.32,3.4c-56.38-7.61-111.67-22.12-164.5-43.25,22.18,22.18,44.35,44.35,66.53,66.53-.9-5.09-3.95-10.54-5.75-14.81-2.4-5.68-3.53-9.8-6.61-14.33l-14.89-19.28c-.49-.61-1.02-1.17-1.6-1.7-3.39-2.88-6.91-5.62-10.54-8.21-3.46-2.81-7-5.53-10.6-8.15-17.21-10.85-40.82-17.06-61.08-16.7-10.77,.19-21.83,1.53-32.2,4.54-5.39,1.57-11.06,4.39-15.95,6.46-5.25,2.22-10.7,4.26-15.79,6.91-6.28,3.26-12.1,7.31-18.63,10.1l22.75-9.6c-2.99,1.16-5.97,2.04-9.14,2.58,8.44-1.13,16.88-2.27,25.32-3.4-2.59,.31-5.04,.35-7.62,.03l25.32,3.4c-1.52-.3-2.87-.68-4.32-1.21l22.75,9.6c-.94-.39-1.84-.86-2.71-1.41,14.59,35.86,29.18,71.71,43.77,107.57,2.92-18.36,7.66-36.35,14.86-53.51l-9.6,22.75c5.54-12.88,12.41-25.06,20.88-36.24l-14.89,19.28c7.22-9.31,15.44-17.63,24.72-24.89-6.43,4.96-12.85,9.93-19.28,14.89,8.42-6.42,17.46-11.81,27.17-16.03l-22.75,9.6c9.21-3.86,18.75-6.54,28.65-7.88-8.44,1.13-16.88,2.27-25.32,3.4,10.57-1.26,21.05-.7,31.59,.66-8.44-1.13-16.88-2.27-25.32-3.4,24.52,3.36,49.06,9.24,73.89,9.09,13.11,.49,25.35-2.24,36.7-8.2,11.81-3.84,22.03-10.41,30.65-19.69,9.29-8.63,15.85-18.85,19.69-30.65,5.96-11.35,8.7-23.58,8.2-36.7l-3.4-25.32c-4.53-16.14-12.69-30.15-24.5-42.03-18.57-17.05-41.6-28.05-67.35-27.9h0Z"/>
    <path class="cls-2" d="M1938.1,1150.8c17.25-3.5,34.6-6.44,52.04-8.81l-25.32,3.4c70.46-9.41,141.98-9.34,212.43,.13l-25.32-3.4c34.26,4.69,68.18,11.57,101.55,20.65,12.66,3.97,25.32,4.54,37.98,1.7,12.68-.57,24.48-4.34,35.41-11.3,11.1-5.99,20.01-14.16,26.72-24.53,8.42-9.2,14.1-20,17.05-32.39l3.4-25.32c-.05-17.19-4.39-33.22-13-48.07-13.44-20.84-32.52-37.13-56.92-43.77-54.25-14.77-110.24-23.63-166.22-28.39-48.22-4.1-96.82-3.8-144.98,.94-35.33,3.47-70.66,8.42-105.46,15.49-12.4,2.95-23.19,8.63-32.39,17.05-10.37,6.72-18.55,15.62-24.53,26.72-6.96,10.93-10.73,22.74-11.3,35.41-2.84,12.66-2.27,25.32,1.7,37.98,7.46,23.05,21.74,45.28,43.77,56.92l22.75,9.6c16.88,4.54,33.76,4.54,50.64,0h0Z"/>
    <path class="cls-2" d="M1935.33,1148.81c26.9-17.06,53.95-34.11,83.38-46.53l-22.75,9.6c17.61-7.3,35.86-12.81,54.76-15.49-8.44,1.13-16.88,2.27-25.32,3.4,10.33-1.36,20.69-1.85,31.09-1.31,13.11,.49,25.35-2.24,36.7-8.2,11.81-3.84,22.03-10.41,30.65-19.69,9.29-8.63,15.85-18.85,19.69-30.65,5.96-11.35,8.7-23.58,8.2-36.7-1.13-8.44-2.27-16.88-3.4-25.32-4.53-16.14-12.69-30.15-24.5-42.03l-19.28-14.89c-14.86-8.62-30.88-12.95-48.07-13-7.94-.41-15.89-.28-23.81,.47-15.12,1.42-30.37,3.34-45.26,6.43-22.98,4.78-44.18,14.08-65.7,23.27-29.1,12.42-55.89,29.28-82.53,46.18-20.7,13.13-37.18,32.98-43.77,56.92-3.97,12.66-4.54,25.32-1.7,37.98,.57,12.68,4.34,24.48,11.3,35.41,13.11,20.34,32.64,38.24,56.92,43.77l25.32,3.4c17.19-.05,33.22-4.39,48.07-13h0Z"/>
    <path class="cls-2" d="M1907.56,1135.31c22.42-4.49,44.97-8.28,67.63-11.35l-25.32,3.4c18.78-2.51,37.61-4.53,56.5-6.07,13.11,.49,25.35-2.24,36.7-8.2,11.81-3.84,22.03-10.41,30.65-19.69,9.29-8.63,15.85-18.85,19.69-30.65,5.96-11.35,8.7-23.58,8.2-36.7l-3.4-25.32c-4.53-16.14-12.69-30.15-24.5-42.03-17.75-16.3-42.39-29.93-67.35-27.9-50.09,4.07-100.16,10.94-149.45,20.82-12.4,2.95-23.19,8.63-32.39,17.05-10.37,6.72-18.55,15.62-24.53,26.72-6.96,10.93-10.73,22.74-11.3,35.41-2.84,12.66-2.27,25.32,1.7,37.98,7.46,23.05,21.74,45.28,43.77,56.92l22.75,9.6c16.88,4.54,33.76,4.54,50.64,0h0Z"/>
    <path class="cls-2" d="M1890.95,1108.23h45.73c13.11,.49,25.35-2.24,36.7-8.2,11.81-3.84,22.03-10.41,30.65-19.69,9.29-8.63,15.85-18.85,19.69-30.65,5.96-11.35,8.7-23.58,8.2-36.7l-3.4-25.32c-4.53-16.14-12.69-30.15-24.5-42.03-18.64-17.11-41.54-27.9-67.35-27.9h-45.73c-13.11-.49-25.35,2.24-36.7,8.2-11.81,3.84-22.03,10.41-30.65,19.69-9.29,8.63-15.85,18.85-19.69,30.65-5.96,11.35-8.7,23.58-8.2,36.7l3.4,25.32c4.53,16.14,12.69,30.15,24.5,42.03,18.64,17.11,41.54,27.9,67.35,27.9h0Z"/>
    <path class="cls-2" d="M1912.73,1086.45h76.22c13.11,.49,25.35-2.24,36.7-8.2,11.81-3.84,22.03-10.41,30.65-19.69,9.29-8.63,15.85-18.85,19.69-30.65,5.96-11.35,8.7-23.58,8.2-36.7l-3.4-25.32c-4.53-16.14-12.69-30.15-24.5-42.03-18.64-17.11-41.54-27.9-67.35-27.9h-76.22c-13.11-.49-25.35,2.24-36.7,8.2-11.81,3.84-22.03,10.41-30.65,19.69-9.29,8.63-15.85,18.85-19.69,30.65-5.96,11.35-8.7,23.58-8.2,36.7l3.4,25.32c4.53,16.14,12.69,30.15,24.5,42.03,18.64,17.11,41.54,27.9,67.35,27.9h0Z"/>
    <path class="cls-2" d="M1912.73,1064.45c55.17,1.07,110.37,.73,165.52-1.02,24.9-.79,49.53-10.08,67.35-27.9,9.29-8.63,15.85-18.85,19.69-30.65,5.96-11.35,8.7-23.58,8.2-36.7l-3.4-25.32c-4.53-16.14-12.69-30.15-24.5-42.03-18.29-16.79-41.85-28.71-67.35-27.9-55.16,1.75-110.35,2.09-165.52,1.02-13.11-.49-25.35,2.24-36.7,8.2-11.81,3.84-22.03,10.41-30.65,19.69-9.29,8.63-15.85,18.85-19.69,30.65-5.96,11.35-8.7,23.58-8.2,36.7l3.4,25.32c4.53,16.14,12.69,30.15,24.5,42.03l19.28,14.89c14.86,8.62,30.88,12.95,48.07,13h0Z"/>
    <path class="cls-2" d="M1941.06,1144.93c58.08,3.36,116.12,7.46,174.1,12.3,13.11,.49,25.35-2.24,36.7-8.2,11.81-3.84,22.03-10.41,30.65-19.69,9.29-8.63,15.85-18.85,19.69-30.65,5.96-11.35,8.7-23.58,8.2-36.7l-3.4-25.32c-4.53-16.14-12.69-30.15-24.5-42.03-6.43-4.96-12.85-9.93-19.28-14.89-14.86-8.62-30.88-12.95-48.07-13-57.98-4.84-116.02-8.94-174.1-12.3-13.11-.49-25.35,2.24-36.7,8.2-11.81,3.84-22.03,10.41-30.65,19.69-9.29,8.63-15.85,18.85-19.69,30.65-5.96,11.35-8.7,23.58-8.2,36.7l3.4,25.32c4.53,16.14,12.69,30.15,24.5,42.03l19.28,14.89c14.86,8.62,30.88,12.95,48.07,13h0Z"/>
    <path class="cls-2" d="M1923.64,1146.62c42.48,1.46,84.86,5,126.99,10.6-8.44-1.13-16.88-2.27-25.32-3.4,14.26,1.92,28.48,4.06,42.67,6.43,12.66,3.97,25.32,4.54,37.98,1.7,12.68-.57,24.48-4.34,35.41-11.3,11.1-5.99,20.01-14.16,26.72-24.53,8.42-9.2,14.1-20,17.05-32.39,1.13-8.44,2.27-16.88,3.4-25.32-.05-17.19-4.39-33.22-13-48.07l-14.89-19.28c-11.88-11.8-25.89-19.97-42.03-24.5-64.48-10.78-129.63-18.19-194.98-20.44-13.11-.49-25.35,2.24-36.7,8.2-11.81,3.84-22.03,10.41-30.65,19.69-9.29,8.63-15.85,18.85-19.69,30.65-5.96,11.35-8.7,23.58-8.2,36.7l3.4,25.32c4.53,16.14,12.69,30.15,24.5,42.03l19.28,14.89c14.86,8.62,30.88,12.95,48.07,13h0Z"/>
    <path class="cls-2" d="M1932.33,1158.31h200.34c13.11,.49,25.35-2.24,36.7-8.2,11.81-3.84,22.03-10.41,30.65-19.69,9.29-8.63,15.85-18.85,19.69-30.65,5.96-11.35,8.7-23.58,8.2-36.7-1.13-8.44-2.27-16.88-3.4-25.32-4.53-16.14-12.69-30.15-24.5-42.03-18.64-17.11-41.54-27.9-67.35-27.9h-200.34c-13.11-.49-25.35,2.24-36.7,8.2-11.81,3.84-22.03,10.41-30.65,19.69-9.29,8.63-15.85,18.85-19.69,30.65-5.96,11.35-8.7,23.58-8.2,36.7l3.4,25.32c4.53,16.14,12.69,30.15,24.5,42.03,18.64,17.11,41.54,27.9,67.35,27.9h0Z"/>
    <path class="cls-2" d="M2022.49,1002.19c68.18,16.38,138.27,26.51,208.24,30.89,13.11,.49,25.35-2.24,36.7-8.2,11.81-3.84,22.03-10.41,30.65-19.69,9.29-8.63,15.85-18.85,19.69-30.65,5.96-11.35,8.7-23.58,8.2-36.7-1.13-8.44-2.27-16.88-3.4-25.32-4.53-16.14-12.69-30.15-24.5-42.03l-19.28-14.89c-14.86-8.62-30.88-12.95-48.07-13-25.3-1.58-50.53-4.06-75.66-7.41l25.32,3.4c-36.07-4.88-71.87-11.58-107.26-20.08-12.66-3.97-25.32-4.54-37.98-1.7-12.68,.57-24.48,4.34-35.41,11.3-11.1,5.99-20.01,14.16-26.72,24.53-8.42,9.2-14.1,20-17.05,32.39l-3.4,25.32c.05,17.19,4.39,33.22,13,48.07,13.21,20.48,32.6,37.93,56.92,43.77h0Z"/>
  </g>
</svg>