<?xml version="1.0" encoding="UTF-8"?>
<svg xmlns="http://www.w3.org/2000/svg" viewBox="0 0 7000 2076">
  <defs>
    <style>
      .cls-1 {
        stroke: #006382;
        stroke-miterlimit: 10;
        stroke-width: 50px;
      }

      .cls-1, .cls-2 {
        fill: #006382;
      }

      .cls-3 {
        fill: #006892;
      }
    </style>
  </defs>
  <g id="bg">
    <path class="cls-3" d="M7020.67-19.42H-9.79V5079.61H7029.15V193.33c-3.39-70.89-6.23-141.81-8.48-212.75Z"/>
  </g>
  <g id="cloud">
    <g>
      <path class="cls-2" d="M6310.63,1478.71c-4.56,3.7-9.85,4.54-15.58,4.46-17.6-.24-35.21-.21-52.81-.33-10.63-.07-21.25-.28-31.88-.32-3.7-.01-7.39,.35-11.09,.42-4.15,.09-8.3,.11-12.44,.03-1.84-.04-3.69-.67-5.51-.59-31.46,1.39-62.91-.39-94.36-.12-30.57,.26-61.14,.12-91.71,.2-4.16,.01-8.33,.35-12.49,.35-8.32,0-16.64-.22-24.95-.14-5.98,.06-11.97,.41-17.94,.7-1.84,.09-3.71,.8-5.49,.57-22.15-2.94-44.39-1.15-66.59-1.36-11.09-.1-22.18,.5-33.28,.47-85.28-.22-170.56-.6-255.83-.77-68.16-.13-136.33-.04-204.49-.05-60.26,0-120.51,0-180.77,.01-38.47,0-76.95,0-115.42,0-121.91,0-243.82-.02-365.73-.02-39.41,0-78.82,.06-118.22,0-42.64-.07-85.28-.39-127.91-.35-78.34,.08-156.68,.46-235.02,.49-83,.04-165.99-.24-248.98-.28-65.83-.03-131.66,.01-197.49,.16-27.8,.06-55.61,.67-83.41,.66-32.45-.01-64.9-.61-97.34-.63-69.08-.05-138.16,.21-207.24,.17-71.86-.05-143.72-.38-215.59-.43-57.48-.05-114.96,.15-172.44,.21-39.41,.04-78.82-.1-118.22,.07-21.25,.1-42.5,.85-63.75,1.01-13.42,.1-26.85-.34-40.28-.56-1.39-.02-2.81-.39-4.16-.19-7.83,1.14-15.58,.68-23.46-.08-7.77-.75-15.68-.1-23.53-.11-13.9-.01-27.79-.2-41.69-.03-6.46,.08-12.91,1.09-19.38,1.21-8.31,.15-16.62-.16-24.93-.28-11.3-8.32-24.03-4.19-36.03-3.38-29.05,1.94-58.04,4.96-87.04,7.65-17.45,1.62-34.89,3.39-52.33,5.23-2.13,.22-4.17,1.25-6.82,.41,1.88-.89,3.68-2.04,5.65-2.62,24.85-7.32,49.79-14.07,75.45-18.33,20.95-3.48,41.54-9.06,62.39-13.2,18.12-3.6,36.37-6.48,55.49-9.83,6.79-7,5.51-18.72,12.5-27.02,2.94-1.2,6.54-2.26,9.72-4.06,3.3-1.87,4.88-4.77,4.87-9.04-.02-8.36,3.19-15.66,8.39-21.61,5.37-6.14,10.76-12.27,16.05-18.3,2.02,.33,3.81,.63,6.18,1.01,2.78-5.09,5.61-10.27,8.8-16.1,5.18,1.44,10.31,2.86,15.89,4.41,1.42-2.04,2.95-4.24,4.49-6.46,2.6,.35,5.53,1.64,7.72,.86,3.99-1.43,5.65,2.91,8.9,2.59,2.67-.26,5.35-.5,8.72-.82,.1,2.28,.18,3.98,.29,6.55,1.79,.86,4.17,2,6.4,3.07,2.38-1.44,4.3-2.6,6.78-4.09,1.4,3.15,2.78,6.26,4.36,9.8,9.17-.66,17.42,1.65,25.13,6.57,6.22-1.54,12.13-5.36,18.87-2.7,8.79,4.18,5.99,14.95,11.93,21.46,9.31,.26,17.63-4.21,26.45-6.54,8.47-2.23,17-4.22,26.29-6.51-1.14-6.95-2.24-13.61-3.31-20.14,1.83-2.15,3.29-3.88,4.81-5.67,1.85-3.39-2.47-8.49,2.88-11.04,1.62-6.63,5.08-12.87,4-20.48,5.87-4.82,7.87-13.17,14.98-17.25,2.06-5.61,7.48-7.72,11.79-10.78,3.17-2.25,6.41-5.41,11.3-3.59,1.45,.54,3.83-.27,5.31-1.22,6.8-4.35,15.01-3.31,22.23-6.04,2.02-.76,4.45-.48,6.69-.62,2.28-.15,4.77,.3,6.82-.45,6.21-2.29,12.38-3.31,18.11-.38,3.53-2.43,6.17-4.24,9.22-6.34,2.77,.79,5.77,2.26,8.8,2.32,3.13,.07,6.29-1.24,10.31-2.14,7.21,3.29,15.26,5.3,22.69-1.89,6.68,9.71,16.16,8.82,25.93,8.5,.77-1.31,2.28-3.09,2.94-5.13,3.2-10.02,10.44-17.26,16.82-25.11,2.7-3.32,5.39-6.24,10.1-6.57,1.69-.12,3.48-1.2,4.9-2.26,8.24-6.14,17.7-9.57,27.37-12.54,2.18-.67,4.32-.74,5.81-3.07,.88-1.38,2.86-2.25,4.53-2.9,16.67-6.52,33.31-13.15,50.12-19.31,6.37-2.33,13.18-3.48,19.77-5.24,2.67-.71,5.3-1.59,7.93-2.45,2.18-.71,4.29-1.78,6.52-2.22,10.84-2.11,21.7-4.07,32.57-6.08-1.49-6.61-1.89-7.27-5.97-10.18-4.87-3.46-9.78-6.85-14.62-10.36-6.34-4.59-9.54-12.17-15.92-16.78-.88-.64-1.02-2.52-1.2-3.87-.51-3.74-3.84-3.37-6.76-4.62-1.39-3.4-4.36-7.25-4.13-10.9,.32-5.08-3.04-7.32-5.5-11.22,.61-3.14,1.31-6.72,2.16-11.08-1-1.31-2.35-3.08-4.04-5.29,.8-2.69,1.68-5.7,2.78-9.41-.83-.68-1.89-1.54-3.62-2.94,.3-1.95,.49-4.55,1.16-7.01,.57-2.1,2.46-4.05,2.47-6.07,.08-13.15,9.97-21.99,14.25-33.26,6.98-7.13,10.04-17.73,19.8-22.41,2.52-5.19,7.12-8.44,11.45-11.82,4.32-3.38,8.23-7.29,13.86-9.05,2.68-.84,4.37-5.44,6.95-5.92,7.45-1.38,12.34-8.16,19.97-8.71,.92-.07,2.02-.06,2.69-.56,6.44-4.74,14.43-5.6,21.4-8.64,8.75-3.82,17.45-5.51,26.69-6.04,1.77-.1,3.53-.51,4.64-.68,2.7-2.58,1.64-4.93,1.12-7.04-4.07-16.66-7.13-33.47-8.1-50.63-.26-4.59-1.45-9.12-1.76-13.7-.59-8.8-.24-17.5,2.23-26.15,1.64-5.74,1.56-11.97,3.11-17.75,4.3-16.07,10.02-31.61,19.17-45.68,1.5-2.31,3.15-4.67,4.02-7.24,4.42-13.13,13.21-23.55,22.68-32.78,19.24-18.75,39.83-35.97,64.02-48.45,15.25-7.87,30.8-14.48,47.22-19.73,29.34-9.37,59.42-13.93,89.85-15.83,14.21-.89,28.52-1.16,42.75-2.28,9.67-.76,19.32-2.16,29-2.41,21.83-.57,43.35,2.38,64.87,6.92,2.72-2.36-.27-4.9-.28-7.44,0-2.75-.51-5.53-.99-8.26-.49-2.73-1.7-5.41-1.76-8.13-.38-15.26-3.45-30.24-4.67-45.37-1.44-17.96-.38-36.08,2.84-53.88,1.8-9.92,2.06-20.3,7.36-29.37-.81-9.12,6.39-16.04,6.8-24.83,8.05-11.82,12.26-25.78,21.3-37.12,6.02-7.55,11.34-15.72,16.36-23.99,6.37-10.5,15.36-18.65,24.51-26.22,9.58-7.92,18.6-16.62,29.31-23.33,5.04-3.15,9.91-6.65,15.18-9.51,7.32-3.97,14.51-8.18,21.77-12.27,14.6-8.23,30.21-13.6,46.58-17.18,13.07-2.86,26.05-5.82,39.49-6.53,3.99-.21,8.08-3.81,11.78-3.3,6.46,.89,11.81-1.22,15.59-2.83,6.86,0,11.87,0,16.89,0,4.63,0,9.25-.05,13.88,.04,1.37,.03,2.79,.85,4.07,.64,13.62-2.23,26.53,1.44,39.53,4.48,15.31,3.58,30.87,6.33,45.9,10.85,22.02,6.63,44.27,12.99,63.54,26.46,7.54,5.27,16.34,9.04,22.98,15.21,10.06,9.34,21.32,17.86,28.76,29.59,6.17,9.72,11.09,20.26,16.2,30.61,5.52,11.18,8.86,23.17,12.63,35.04,3.33,10.49,7.68,20.7,13.8,30.14,3.44,5.31,5.33,11.71,7.47,17.78,5.84,16.58,10.58,33.4,13.17,50.91,1.38,9.35,.06,18.48-.06,27.64-.18,14.33-3.94,28.35-8.16,42.08-.79,2.56-2.56,4.82-3.8,7.07,1.78,5.26,6.56,6.73,10.33,9.2,6.57,4.32,13.27,8.46,20.08,12.41,4.54,2.63,8.14,5.99,10.76,10.54,6.39,11.1,11.41,22.77,15.49,35.94,21.06,3.94,39.95-6.62,60.05-11.19,7.6-7.35,15.22-14.76,22.87-22.14,10.64-10.26,22.02-19.53,33.96-28.34,22.32-16.47,45.55-31.35,70.01-44.31,15.54-8.24,31.95-14.57,48.34-20.95,13.31-5.19,27.35-8.31,40.05-15.39,8.99-5.01,17.37-10.83,24.63-17.76,9.82-9.37,21.16-16.5,32.04-24.28,9.77-6.99,20.16-13.13,30.45-19.36,13.07-7.9,26.32-15.52,39.51-23.22,1.19-.7,2.49-1.23,3.8-1.69,19.15-6.75,37.15-16.26,56.17-23.31,2.08-.77,3.98-2.02,6.05-3.1-2.54-6.96-5.17-13.29-7.14-19.81-1.87-6.2-2.93-12.64-4.58-18.91-2.86-10.85-3.95-21.83-3.12-33.04,.44-5.99,.32-12.03,.95-17.99,2.62-24.75,8.13-34.77,20.51-56.64,14.06-24.84,33.2-45.44,56.24-62.32,3.7-2.71,7.74-4.98,11.75-7.23,8.04-4.49,16.28-8.64,24.24-13.26,8.95-5.2,19.25-6.1,28.76-9.52,12.67-4.55,25.77-7.33,39.38-7.21,3.21,.03,6.44-.73,9.65-1.19,22.25-3.23,44.19-1.78,66.21,2.8,21.82,4.54,43.01,10.87,63.95,18.36,7.34,2.63,15.26,3.6,22.68,6.05,6.11,2.01,12.23,4.5,17.66,7.89,4.33,2.71,8.65,2.67,12.99,2.7,3.51,2.52,6.51,6.15,10.15,6.97,6.76,1.52,11.73,5.78,16.66,9.63,6.88,5.36,12.69,12.13,18.72,18.51,1.51,1.6,2.23,4,3.15,6.1,1.66,3.78,3.3,7.58,4.76,11.44,1.29,3.41,3.06,6.87,3.3,10.39,.37,5.28,2.09,9.74,4.77,14.2,4.76,7.9,8.95,16.13,15.29,23.02,2.72,2.96,4.69,6.62,7,9.96,19.31-2.82,33.12-1.13,55.45,5.18,7.1,2.01,14.29,3.3,21.01,6.88,5.82,3.1,11.15,6.56,15.82,11.1,5.3,5.16,10.7,10.24,15.56,15.8,2.7,3.08,4.75,6.89,6.46,10.65,7.39,16.24,10.36,33.22,10.27,51.19-.1,19.29-4.44,37.57-9.25,55.94-5.31,20.29-14.48,38.89-24.68,57.03-2.29,4.08-4.5,8-4.46,12.8,2.84,3.81,6.96,4.52,11.12,4.76,21.42,1.27,41.62,7.66,61.64,14.68,9.98,3.5,20.65,6.34,29.26,12.1,9.21,6.15,19.15,11.05,28.11,17.62,19.49,14.28,36.73,30.81,52.06,50.1,2.98,.25,6.16,.78,9.34,.74,14.8-.21,29.58,.13,44.4-.97,9.53-.71,19.26,1.33,28.9,2.21,1.83,.17,3.63,1,5.43,.97,12.2-.22,23.59,3.45,35.09,6.82,6.15,1.8,12.52,2.71,18.76,4.37,22.73,6.03,42.69,17.35,61.75,30.49,3.2,2.2,6.27,4.42,9.88,4.28,6.81-.26,13.9,1.66,20.41-2.15,1.51-.88,3.52-1.23,5.3-1.25,6.92-.07,13.86-.2,20.76,.22,19.94,1.19,39.28,5.23,57.74,13.08,9.9,.91,17.44,7.89,26.94,10.33,5.9,1.51,11.1,6.46,16.1,10.5,4.27,3.46,7.94,7.7,11.64,11.81,7.5,8.34,13.75,18,17.09,28.3,3.79,11.72,5.18,24.52,2.42,37.09-1.92,8.75-6.62,16.37-11.39,23.63-10.39,15.83-22.53,30.15-36.16,43.57-20.16,19.86-42.92,36.39-64.65,54.23-6.75,5.54-14.55,9.8-21.77,14.79-1.77,1.22-3.14,3.03-5.03,4.89,3.64,4.5,9.36,3.13,13.69,7.58,2.82,3.35,6.67,7.91,10.95,12.97,1.28,6.16,2.69,12.94,3.98,19.17,5.27,9.51,17.25,12.2,20.72,23.43-3.39,2.16-6.81,4.34-10.28,6.55-6.47,12.05-12.97,24.13-18.76,34.91-7.72,5.01-14.2,9.32-20.8,13.46-4.3,2.7-8.87,4.96-13.11,7.73-14.65,9.6-30.42,17.31-45.13,26.82-3.1,2.01-6.33,3.88-9.68,5.42-13.46,6.21-25.83,14.33-38.58,21.79-13.97,8.18-28.29,15.75-42.32,23.84-5.91,3.4-12.74,5.8-16.55,13.14,.58,4.8,3.22,10.19,.42,15.58,3.19,5.41-2.47,8.94-3.83,14.12,12.88-1.04,24.79-1.91,36.69-2.97,22.22-1.98,44.36-.67,66.58,.58,31.37,1.75,62.83,2.99,94.88-3.18,.63,2.25,1.7,4.27,1.58,6.21-.1,1.65-1.23,3.61-2.52,4.74-8.34,7.28-15.41,15.83-24.22,22.74-12.46,9.78-25.52,18.33-39.72,25.26-2.44,1.19-4.58,3-7.68,5.08,5.5,1.87,10.05,3.42,15.06,5.13-2.04,1.25-3.56,2.18-5.93,3.63,7.3,2.42,13.98,4.76,20.75,6.81,2.18,.66,4.59,.91,6.87,.79,7.27-.39,13.82,2.04,19.8,5.56,4.23,2.49,8.47,3.48,13.19,3.48,10.17,0,20.34,.17,30.51,0,7.4-.13,8.56,.91,8.87,8.41,.11,2.67,.44,5.55,1.57,7.89,1.58,3.26,4,6.12,5.78,8.74,.12,6.1-3.05,9.03-7.82,10.69-5.63,1.96-11.26,3.9-17.82,6.17,1.41,3.41,2.54,6.13,3.65,8.81,19.2,.52,37.64,.04,56.12-.61,8.27-.29,16.55,.39,24.71-1.53,13.73,2.37,27.55,1.33,41.36,1.54,7.76,.12,15.63-2.96,23.34,.15,10.43-3.2,21.13,1.94,31.62-1.02,2.08-.59,4.57,.21,6.86,.46,1.83,.2,3.75,1.07,5.46,.76,12.03-2.18,24.12,1.33,35.98-.12,12.95-1.58,25.84-.76,38.75-1.27,7.39-.29,14.8-.83,22.11,1.25,2.17,.62,4.87,1.12,6.86,.4,9.51-3.43,19.31-1.22,28.94-1.89,3.2-.22,6.52-.02,9.66,.63,5.52,1.13,10.87,2.04,16.33-.37,1.6-.7,3.71-.74,5.48-.46,11.03,1.74,22.1,.12,32.86,.61-4.39,2.33-9.01,4.77-14.98,7.93,5.74,3.43,10.49,4.17,15.41,4.17,5.46,0,9.75,2.22,13.25,6.32,6.69,7.83,15.01,12,26.98,10.53,2.02,2.9,4.4,6.32,6.66,9.56,8.02-1.65,14.86-1.4,21.54,.83,4.1,1.37,8.11,1.29,12.27,0,3.96-1.23,8.08-1.99,12.75,.21,2.85,7.64,4.51,15.57,.82,23.42,2.47,3.91,1.4,8.84,5.57,11.27v5.57Zm-933.54-725.95c-2.62-1.85-3.9-3.25-5.49-3.8-12.18-4.2-24.38-8.31-36.66-12.18-1.39-.44-3.31,.84-4.96,1.31-2.98,11.69,2.81,20.91,5.58,30.65,10.15-.58,28.19-7.46,41.53-15.98Zm-212.27-338.93c-2.2,6.42-3.83,12.06-6.06,17.46-2.35,5.7-5.27,11.16-7.94,16.73,11.47-4.96,20.91-12.3,31.56-20.22-5.28-4.97-8.86-10.8-17.56-13.97Zm-1454.74,991.21c-4.55-.36-7.23,1.21-8.47,5.52,3.35,1.57,6.5,1.81,10.08-.87-.5-1.44-1.04-2.98-1.62-4.65Zm-422.46-170.67c2.8,1.64,3.86,.4,4.95-2.92-2.16,1.27-3.44,2.03-4.95,2.92Zm18.87-2.33c-.34-.4-.66-1.04-.89-1-1.57,.23-3.13,.58-4.68,.96-.08,.02-.08,.9-.02,.92,1.51,.35,3.04,.73,4.57,.83,.31,.02,.68-1.12,1.02-1.7Z"/>
      <path class="cls-2" d="M2264.85-21.07c2.76,3.01,5.3,6.28,8.33,8.99,8.6,7.69,17.65,14.9,26.07,22.78,7.74,7.24,14.67,15.33,22.33,22.66,15.72,15.05,29.73,31.6,43.38,48.48,4.05,5,7.8,10.28,11.3,15.68,11.32,17.42,22.03,35.24,33.84,52.31,6.38,9.22,9.99,19.66,15.43,29.15,7.82,13.64,15.15,27.47,21.71,41.73,2.3,4.99,4.11,10.22,5.94,15.41,3.22,9.15,6.19,18.39,9.42,27.53,4.14,11.74,7.55,23.66,8.75,35.71,8.36,5.3,17.17,5.89,26.17,8.15,2.95-3.01,5.96-5.82,8.67-8.9,5.19-5.89,9.91-12.22,15.37-17.84,4.81-4.95,10.28-9.28,15.59-13.72,10.99-9.2,22.84-16.98,35.25-24.31,14.49-8.55,30.55-13.07,45.29-20.75,4.84-2.52,10.56-3.35,15.88-4.94,22.72-6.82,46.12-9.86,69.64-11.84,7.27-.61,14.81,.37,22.08,1.55,13.17,2.14,26.62,3.72,38.9,9.26,9.64,4.35,18.82,9.76,28.09,14.9,10.51,5.82,18.63,14.72,27.9,22.14,9.02,7.22,17.9,14.71,26.1,22.83,13.24,13.12,20.77,29.2,22.14,47.96,.27,3.68,.43,7.36,.66,11.53,22.57,8.51,46.02,15.29,64.46,32.92,18.04,17.25,32.48,36.51,41.31,59.65,1.01,.59,1.82,1.47,2.6,1.45,10.63-.26,21.19,.12,31.6,2.56,12.53-2.08,24.7,.53,37.01,2.37,8.63,1.3,17.6,.35,25.83,4.21,.4,.19,.93,.24,1.37,.17,16.63-2.51,31.91,4.17,47.77,6.94,3.56,.62,7.18,.88,11.14,1.35,.88,3.31,1.68,6.31,2.41,9.03,1.21,.58,2.03,1.32,2.81,1.28,3.2-.18,6.49-.2,9.54-1.02,3.87-1.05,7.3-.43,11.69,1.62,9.86,12.12,20.15,25.09,30.79,37.76,12.65,15.07,27.62,26.97,46.85,32.66,6.24,1.85,12.22,4.14,17.68,7.79,2.26,1.51,5,2.49,7.66,3.21,4.89,1.31,9.7,2.28,13.6,6.17,1.76,1.76,5.13,1.84,7.68,2.9,2.51,1.04,4.93,2.28,7.35,3.53,2.86,1.48,5.54,4.04,8.51,4.4,10.48,1.28,18.87,7.26,27.98,11.57,3.77,1.78,7.23,4,11.63,4.18,2.2,.09,4.48,1.02,6.52,2.01,2.83,1.37,5.46,3.14,8.25,4.77-2.37,9.1-8.43,12.33-16.6,12.44-8.81,.12-17.62-.03-26.42-.05-16.22-.03-32.43-.03-48.65-.1-14.8-.06-29.6-.23-44.4-.25-3.23,0-6.55,.04-9.67,.74-3.7,.84-7.18,1.06-10.94,.24-3.12-.68-6.45-.67-9.68-.59-31.91,.78-63.81-.16-95.72-.05-26.84,.1-53.67,.14-80.51,.09-49.58-.09-99.15-.31-148.73-.38-16.21-.02-32.42,.39-48.62,.42-21.31,.04-42.62-.3-63.92-.1-12.94,.12-25.91,1.76-38.81,1.22-9.62-.41-19.29,1.01-28.87-.87-2.69-.53-5.54-.34-8.32-.37-18.07-.16-36.19-1.14-54.2-.14-13.46,.75-26.85-.65-40.19,.29-15.27,1.07-30.45-.41-45.67-.12-14.81,.28-29.64-.23-44.45-.11-6.46,.05-12.91,.81-19.36,1.25-1.85,.13-3.82,.74-5.52,.3-10.91-2.85-22.05,.15-32.99-1.46-1.36-.2-2.86-.49-4.14-.14-11.49,3.18-23.02-.33-34.52,.29-6.45,.35-12.9,.69-19.36,.92-3.2,.12-6.45,.25-9.62-.1-9.23-1.02-18.43-1.46-27.65,.14-2.73,.47-5.78,1.35-8.25,.6-14.16-4.3-28.56-1.49-42.8-1.62-23.58-.21-47.21,1.68-70.76,.9-14.79-.49-29.58-.79-44.37-.87-39.78-.23-79.56-.37-119.34-.44-18.52-.03-37.06,.86-55.54,.11-19.9-.8-39.73,.68-59.6,.28-19.92-.4-39.86,.29-59.79,.34-14.35,.04-28.69-.23-43.04-.27-2.76,0-5.77-.24-8.24,.71-11.63,4.51-23.16,9.26-34.61,14.22-3.78,1.64-6.98,4.69-10.82,6.06-3.34,1.2-7.2,.96-10.81,1.35-.73,1.58-1.24,2.82-1.87,4.01-.61,1.16-1.34,2.27-2.23,3.76-4.01-1.41-7.81-2.75-12.08-4.25-.12-1.61-.24-3.3-.36-5.01-.73-.13-1.64-.55-2.4-.37-4.43,1.06-3.56,6.03-6.11,8.51-9.81-8.05-10.79-8.04-19.28,1.76q-7.98-7.69-17.05-8.96c-3.52,1.8-1.27,4.87-1.75,8.18-2.48,1.75-5.42,3.82-7.9,5.58-10.95-2.86-19.8-7.54-26.33-15.93-1.39-1.79-2.89-3.56-3.92-5.55-3.89-7.47-3.83-7.5-11.98-14.02-46.75-2.35-94.28-1.67-143.14-2.62-22.89,13.15-47.55,25.48-71.93,39.45-2.69-2.28-5.07-4.29-7.99-6.76-6.6,1.81-13.62,3.74-21.67,5.95,.52-2.96,.85-4.83,1.32-7.5-9.51,2.8-18.68,5.51-27.95,8.24-3.48,5.15-1.23,13.41-8.73,16.4-1.98-2.12-3.81-4.43-6.04-6.25-.64-.52-2.43,.36-3.7,.6-1.12,5.31,4.67,6.7,5.35,10.83,.67,4.07,1.95,8.03,3.18,12.9-3.07,.05-5.74,.42-8.32,.09-13.15-1.65-24.17-8.67-35.66-14.58-3.14-3.18-6.47-6.34-9.53-9.73-2.74-3.04-5.19-6.34-8.37-10.28-6.82-3.51-15.21-6.41-22.1-12.59,.19-3.64,.37-7.23,.58-11.31,1.71,.13,3.41,.26,5.92,.45,2.46-2.61,5.25-5.58,8.45-8.97-1.03-3.09-2.02-6.03-3.08-9.2-9.79-2.66-19.53-1.31-29.12-1.87-3.68-.22-7.76,1.16-11.02,0-8-2.82-15.75-.55-23.3,.65-6.18,.98-12.08,4.37-17.84,7.22-9.9,4.91-20.32,8.88-28.92,16.24-1.98,1.7-5.08,2.1-7.67,3.06-3.47,1.29-7.19,2.12-10.39,3.89-6.2,3.42-12.59,5.36-20.33,3.77,.54,8.56-3.3,12.53-11.03,13.61-3.04,.42-5.77,2.76-8.75,3.97-2.11,.86-4.39,1.72-6.61,1.77-2.12,.05-4.27-.94-7.43-1.72,2.6-3.11,4.56-5.44,7.16-8.54-4.58-1.57-8.98-2.22-12.04,.32-6.36,5.28-11.72,3.67-17.39-.64-.66-.51-1.74-.46-2.91-.74-4.65,.91-7.8,4.23-11.39,8.69v13.69c-4.08,2.82-7.52,1.97-11.18,.89-16.93-5-28.32-16.64-36.51-29.41-7.85-5.41-14.27-9.84-20.26-13.98-3.03-10.61-9.03-18.72-14.81-27.83-3.23,0-6.42,.09-9.6-.02-7.83-.27-15.75-1.55-23.45-.71-8.05,.87-15.66-.69-23.47-1.31-4.13-.33-8.32,.08-12.49,.08-21.75,0-43.44-1.19-65.14-2.58-5.89-.38-11.85-.16-17.8-.55-6.02-.39-12.34,.98-16.62,5.52-4.63,4.91-10.33,7.92-16.08,10.67-8.25,3.95-16.97,6.95-26.7,10.84-1.84,2.09-1.17,8.53-8.72,8.09-1.66-1.56-3.94-3.7-6.23-5.86-5.03,.36-10.18,.16-15.05,1.22-5.17,1.13-8.98-.84-13.41-4.19-.87,1.91-1.42,3.5-2.28,4.9-.69,1.12-1.76,2.01-3.05,3.42-1.67-.37-3.39-.78-5.13-1.13-1.34-.27-2.7-.45-4.11-.69-5.71,2.3-8.63,6.54-9.79,13.4,3.44,.47,6.38,.87,10.11,1.38,.76,3.03,1.6,6.39,2.42,9.69-1.1,.57-1.9,1.32-2.7,1.33-2.76,.04-5.55-.43-8.3-.26-18.15,1.14-31.88-7.22-43.46-20.13-4.93-5.49-9.27-11.36-16.82-14.02-3.18-1.12-5.83-4.55-8.06-7.43-5.01-6.48-9.43-13.42-16-18.42,1.47-3.01,2.65-5.4,3.77-7.7-1.05-.85-1.68-1.8-2.39-1.87-19.75-1.91-39.47-4.26-59.27-5.34-8.99-.49-17.19-2.83-25.58-5.42-6.14-1.89-12.56-2.89-18.51-4.21-9.27,3.49-8.55,15.9-18.34,18.79,1.91,1.5,3.64,2.87,5.34,4.22-.38,3.78-.71,6.94-1.02,10.04-.85,.5-1.67,1.4-2.36,1.31-9.56-1.23-18.99-2.07-27.69-7.62-4.73-3.02-9.29-5.59-12.78-10.12-6.04-7.84-13.89-13.12-23.15-16.94-11.93-4.93-23.42-10.96-35.05-16.61-1.2-.58-2.12-1.76-3.12-2.71-8.17-7.81-17.41-13.58-28.72-15.75-2.16-.41-4.12-1.85-6.08-2.77-.92-3.47-1.74-6.53-2.67-10.04,6.36-3.09,7.03-9.07,7.49-15.44-1.61-5.03-3.24-10.34-5-15.6-1.9-5.66-1.3-11.03,2.03-15.93,2.6-3.82,5.39-7.54,8.4-11.05,6.91-8.06,13.84-16.1,21.06-23.88,8.14-8.76,16.6-17.22,24.94-25.8,.97-.99,2.4-1.68,3.04-2.83,6.53-11.75,17.84-18.56,27.65-26.92,4.23-3.61,8.58-7.13,9.8-13.75-1.91-3.14-4.04-6.64-6.12-10.06,.12-5.04,4.06-9.85-.21-15.61-2.91-.13-6.46-.29-10.17-.46-1.6-1.45-3.27-2.96-5.37-4.86-2.3,.5-4.88,1.07-8.21,1.79,.88,2.64,1.51,4.55,2.35,7.08-7.05,3.39-13.03-2.67-20.03-2.26-3.87,.63-7.92,2.49-9.85,6.28-2.47,4.86-6.77,7.24-11.17,9.82v15.98c-8.04,1.74-14.89-.89-20.93-4.93-4.93-3.3-9.55-7.49-13.16-12.17-3.04-3.95-6.39-6.5-10.99-7.82-5.02-1.44-9.35-4-12.94-8.44-.96-3.95-2.01-8.3-3.1-12.83,.89-1.28,1.9-2.74,3.4-4.91-3.45-.36-6.29-.66-9.13-.96,.14-4.19,3.89-2.01,5.82-5.56,1.68-4.98,1.83-11.97,1.82-18.83-.02-9.92,3.31-17.66,10.64-24.59,6.61-6.25,11.85-13.94,17.89-21.23-1.7-2.48-2.97-4.34-4.43-6.47,6.61-6.98,11.23-15.3,13.31-25,1.11-5.18,4.35-8.87,8.37-12.36,12.95-11.24,24.28-23.98,34.03-38.16,4.71-6.84,10.27-13.1,15.48-19.59,2.31-2.88,4.65-5.76,7.08-8.53,3.35-3.81,6.8-7.53,10.21-11.29,3.72-4.1,7.73-7.97,11.09-12.34,4.22-5.49,7.65-11.56,13.35-15.88,1.71-1.3,2.54-3.76,3.8-5.66,4.6-6.92,9.06-13.92,15.86-19.07,2.55-1.93,4.67-4.49,6.76-6.96,11.33-13.41,22.56-26.91,33.92-40.3,2.07-2.44,4.6-4.47,6.87-6.74,8.11-8.07,15.99-16.31,20.52-27.1h1688.99ZM683.67,503.45c2.52-2.05,5.09-3.97,7.47-6.1,2.74-2.45,5.23-5.19,8-7.61,2.42-2.12,5.03-4.02,7.61-5.96,2.57-1.93,5.5-3.5,7.72-5.76,2.2-2.25,3.5-5.37,5.58-7.77,2.4-2.77,5.25-5.16,7.86-7.75,2.04-2.02,5.03-3.41,5.89-8.53-4.23,2.02-7.11,3.09-9.69,4.66-16.46,10.1-31.52,22.32-48.67,31.41-5.52,2.93-9.95,7.93-14.83,12.03-.23,.19-.03,.89-.03,2.2,7.7,.79,15.31-.17,23.1-.82Zm297.85-10.9c9.76,1.82,17.53,.52,25.32,.18,8.75-.39,17.56-1.07,26.26-.46,7.53,.53,14.4-1.27,21.23-2.42,1.97-4.43,3.72-8.17,5.25-11.99,.24-.59-.52-1.58-1.08-3.1-5.35,1.84-10.7,3.96-16.22,5.5-5.74,1.61-11.78,4.14-17.41,3.55-6.14-.64-11.75,.22-16.8,1.53-3.16-1.7-5.54-2.98-8.22-4.42-5.98,3.03-13.31,3.48-18.33,11.62Zm-229.81-49.11q-4.82-.55-8.31,4.08c3.79,2.4,5.61-.2,8.31-4.08Zm974.96,166.28c-.74-.35-1.47-.7-2.21-1.05-.02,.64-.3,1.63,0,1.86,.51,.39,1.39,.32,2.11,.44,.03-.41,.07-.82,.1-1.24Z"/>
    </g>
    <g>
      <path class="cls-1" d="M6878.2,3023.32c-4.56,3.7-9.85,4.54-15.58,4.46-17.6-.24-35.21-.21-52.81-.33-10.63-.07-21.25-.28-31.88-.32-3.7-.01-7.39,.35-11.09,.42-4.15,.09-8.3,.11-12.44,.03-1.84-.04-3.69-.67-5.51-.59-31.46,1.39-62.91-.39-94.36-.12-30.57,.26-61.14,.12-91.71,.2-4.16,.01-8.33,.35-12.49,.35-8.32,0-16.64-.22-24.95-.14-5.98,.06-11.97,.41-17.94,.7-1.84,.09-3.71,.8-5.49,.57-22.15-2.94-44.39-1.15-66.59-1.36-11.09-.1-22.18,.5-33.28,.47-85.28-.22-170.56-.6-255.83-.77-68.16-.13-136.33-.04-204.49-.05-60.26,0-120.51,0-180.77,.01-38.47,0-76.95,0-115.42,0-121.91,0-243.82-.02-365.73-.02-39.41,0-78.82,.06-118.22,0-42.64-.07-85.28-.39-127.91-.35-78.34,.08-156.68,.46-235.02,.49-83,.04-165.99-.24-248.98-.28-65.83-.03-131.66,.01-197.49,.16-27.8,.06-55.61,.67-83.41,.66-32.45-.01-64.9-.61-97.34-.63-69.08-.05-138.16,.21-207.24,.17-71.86-.05-143.72-.38-215.59-.43-57.48-.05-114.96,.15-172.44,.21-39.41,.04-78.82-.1-118.22,.07-21.25,.1-42.5,.85-63.75,1.01-13.42,.1-26.85-.34-40.28-.56-1.39-.02-2.81-.39-4.16-.19-7.83,1.14-15.58,.68-23.46-.08-7.77-.75-15.68-.1-23.53-.11-13.9-.01-27.79-.2-41.69-.03-6.46,.08-12.91,1.09-19.38,1.21-8.31,.15-16.62-.16-24.93-.28-11.3-8.32-24.03-4.19-36.03-3.38-29.05,1.94-58.04,4.96-87.04,7.65-17.45,1.62-34.89,3.39-52.33,5.23-2.13,.22-4.17,1.25-6.82,.41,1.88-.89,3.68-2.04,5.65-2.62,24.85-7.32,49.79-14.07,75.45-18.33,20.95-3.48,41.54-9.06,62.39-13.2,18.12-3.6,36.37-6.48,55.49-9.83,6.79-7,5.51-18.72,12.5-27.02,2.94-1.2,6.54-2.26,9.72-4.06,3.3-1.87,4.88-4.77,4.87-9.04-.02-8.36,3.19-15.66,8.39-21.61,5.37-6.14,10.76-12.27,16.05-18.3,2.02,.33,3.81,.63,6.18,1.01,2.78-5.09,5.61-10.27,8.8-16.1,5.18,1.44,10.31,2.86,15.89,4.41,1.42-2.04,2.95-4.24,4.49-6.46,2.6,.35,5.53,1.64,7.72,.86,3.99-1.43,5.65,2.91,8.9,2.59,2.67-.26,5.35-.5,8.72-.82,.1,2.28,.18,3.98,.29,6.55,1.79,.86,4.17,2,6.4,3.07,2.38-1.44,4.3-2.6,6.78-4.09,1.4,3.15,2.78,6.26,4.36,9.8,9.17-.66,17.42,1.65,25.13,6.57,6.22-1.54,12.13-5.36,18.87-2.7,8.79,4.18,5.99,14.95,11.93,21.46,9.31,.26,17.63-4.21,26.45-6.54,8.47-2.23,17-4.22,26.29-6.51-1.14-6.95-2.24-13.61-3.31-20.14,1.83-2.15,3.29-3.88,4.81-5.67,1.85-3.39-2.47-8.49,2.88-11.04,1.62-6.63,5.08-12.87,4-20.48,5.87-4.82,7.87-13.17,14.98-17.25,2.06-5.61,7.48-7.72,11.79-10.78,3.17-2.25,6.41-5.41,11.3-3.59,1.45,.54,3.83-.27,5.31-1.22,6.8-4.35,15.01-3.31,22.23-6.04,2.02-.76,4.45-.48,6.69-.62,2.28-.15,4.77,.3,6.82-.45,6.21-2.29,12.38-3.31,18.11-.38,3.53-2.43,6.17-4.24,9.22-6.34,2.77,.79,5.77,2.26,8.8,2.32,3.13,.07,6.29-1.24,10.31-2.14,7.21,3.29,15.26,5.3,22.69-1.89,6.68,9.71,16.16,8.82,25.93,8.5,.77-1.31,2.28-3.09,2.94-5.13,3.2-10.02,10.44-17.26,16.82-25.11,2.7-3.32,5.39-6.24,10.1-6.57,1.69-.12,3.48-1.2,4.9-2.26,8.24-6.14,17.7-9.57,27.37-12.54,2.18-.67,4.32-.74,5.81-3.07,.88-1.38,2.86-2.25,4.53-2.9,16.67-6.52,33.31-13.15,50.12-19.31,6.37-2.33,13.18-3.48,19.77-5.24,2.67-.71,5.3-1.59,7.93-2.45,2.18-.71,4.29-1.78,6.52-2.22,10.84-2.11,21.7-4.07,32.57-6.08-1.49-6.61-1.89-7.27-5.97-10.18-4.87-3.46-9.78-6.85-14.62-10.36-6.34-4.59-9.54-12.17-15.92-16.78-.88-.64-1.02-2.52-1.2-3.87-.51-3.74-3.84-3.37-6.76-4.62-1.39-3.4-4.36-7.25-4.13-10.9,.32-5.08-3.04-7.32-5.5-11.22,.61-3.14,1.31-6.72,2.16-11.08-1-1.31-2.35-3.08-4.04-5.29,.8-2.69,1.68-5.7,2.78-9.41-.83-.68-1.89-1.54-3.62-2.94,.3-1.95,.49-4.55,1.16-7.01,.57-2.1,2.46-4.05,2.47-6.07,.08-13.15,9.97-21.99,14.25-33.26,6.98-7.13,10.04-17.73,19.8-22.41,2.52-5.19,7.12-8.44,11.45-11.82,4.32-3.38,8.23-7.29,13.86-9.05,2.68-.84,4.37-5.44,6.95-5.92,7.45-1.38,12.34-8.16,19.97-8.71,.92-.07,2.02-.06,2.69-.56,6.44-4.74,14.43-5.6,21.4-8.64,8.75-3.82,17.45-5.51,26.69-6.04,1.77-.1,3.53-.51,4.64-.68,2.7-2.58,1.64-4.93,1.12-7.04-4.07-16.66-7.13-33.47-8.1-50.63-.26-4.59-1.45-9.12-1.76-13.7-.59-8.8-.24-17.5,2.23-26.15,1.64-5.74,1.56-11.97,3.11-17.75,4.3-16.07,10.02-31.61,19.17-45.68,1.5-2.31,3.15-4.67,4.02-7.24,4.42-13.13,13.21-23.55,22.68-32.78,19.24-18.75,39.83-35.97,64.02-48.45,15.25-7.87,30.8-14.48,47.22-19.73,29.34-9.37,59.42-13.93,89.85-15.83,14.21-.89,28.52-1.16,42.75-2.28,9.67-.76,19.32-2.16,29-2.41,21.83-.57,43.35,2.38,64.87,6.92,2.72-2.36-.27-4.9-.28-7.44,0-2.75-.51-5.53-.99-8.26-.49-2.73-1.7-5.41-1.76-8.13-.38-15.26-3.45-30.24-4.67-45.37-1.44-17.96-.38-36.08,2.84-53.88,1.8-9.92,2.06-20.3,7.36-29.37-.81-9.12,6.39-16.04,6.8-24.83,8.05-11.82,12.26-25.78,21.3-37.12,6.02-7.55,11.34-15.72,16.36-23.99,6.37-10.5,15.36-18.65,24.51-26.22,9.58-7.92,18.6-16.62,29.31-23.33,5.04-3.15,9.91-6.65,15.18-9.51,7.32-3.97,14.51-8.18,21.77-12.27,14.6-8.23,30.21-13.6,46.58-17.18,13.07-2.86,26.05-5.82,39.49-6.53,3.99-.21,8.08-3.81,11.78-3.3,6.46,.89,11.81-1.22,15.59-2.83,6.86,0,11.87,0,16.89,0,4.63,0,9.25-.05,13.88,.04,1.37,.03,2.79,.85,4.07,.64,13.62-2.23,26.53,1.44,39.53,4.48,15.31,3.58,30.87,6.33,45.9,10.85,22.02,6.63,44.27,12.99,63.54,26.46,7.54,5.27,16.34,9.04,22.98,15.21,10.06,9.34,21.32,17.86,28.76,29.59,6.17,9.72,11.09,20.26,16.2,30.61,5.52,11.18,8.86,23.17,12.63,35.04,3.33,10.49,7.68,20.7,13.8,30.14,3.44,5.31,5.33,11.71,7.47,17.78,5.84,16.58,10.58,33.4,13.17,50.91,1.38,9.35,.06,18.48-.06,27.64-.18,14.33-3.94,28.35-8.16,42.08-.79,2.56-2.56,4.82-3.8,7.07,1.78,5.26,6.56,6.73,10.33,9.2,6.57,4.32,13.27,8.46,20.08,12.41,4.54,2.63,8.14,5.99,10.76,10.54,6.39,11.1,11.41,22.77,15.49,35.94,21.06,3.94,39.95-6.62,60.05-11.19,7.6-7.35,15.22-14.76,22.87-22.14,10.64-10.26,22.02-19.53,33.96-28.34,22.32-16.47,45.55-31.35,70.01-44.31,15.54-8.24,31.95-14.57,48.34-20.95,13.31-5.19,27.35-8.31,40.05-15.39,8.99-5.01,17.37-10.83,24.63-17.76,9.82-9.37,21.16-16.5,32.04-24.28,9.77-6.99,20.16-13.13,30.45-19.36,13.07-7.9,26.32-15.52,39.51-23.22,1.19-.7,2.49-1.23,3.8-1.69,19.15-6.75,37.15-16.26,56.17-23.31,2.08-.77,3.98-2.02,6.05-3.1-2.54-6.96-5.17-13.29-7.14-19.81-1.87-6.2-2.93-12.64-4.58-18.91-2.86-10.85-3.95-21.83-3.12-33.04,.44-5.99,.32-12.03,.95-17.99,2.62-24.75,8.13-34.77,20.51-56.64,14.06-24.84,33.2-45.44,56.24-62.32,3.7-2.71,7.74-4.98,11.75-7.23,8.04-4.49,16.28-8.64,24.24-13.26,8.95-5.2,19.25-6.1,28.76-9.52,12.67-4.55,25.77-7.33,39.38-7.21,3.21,.03,6.44-.73,9.65-1.19,22.25-3.23,44.19-1.78,66.21,2.8,21.82,4.54,43.01,10.87,63.95,18.36,7.34,2.63,15.26,3.6,22.68,6.05,6.11,2.01,12.23,4.5,17.66,7.89,4.33,2.71,8.65,2.67,12.99,2.7,3.51,2.52,6.51,6.15,10.15,6.97,6.76,1.52,11.73,5.78,16.66,9.63,6.88,5.36,12.69,12.13,18.72,18.51,1.51,1.6,2.23,4,3.15,6.1,1.66,3.78,3.3,7.58,4.76,11.44,1.29,3.41,3.06,6.87,3.3,10.39,.37,5.28,2.09,9.74,4.77,14.2,4.76,7.9,8.95,16.13,15.29,23.02,2.72,2.96,4.69,6.62,7,9.96,19.31-2.82,33.12-1.13,55.45,5.18,7.1,2.01,14.29,3.3,21.01,6.88,5.82,3.1,11.15,6.56,15.82,11.1,5.3,5.16,10.7,10.24,15.56,15.8,2.7,3.08,4.75,6.89,6.46,10.65,7.39,16.24,10.36,33.22,10.27,51.19-.1,19.29-4.44,37.57-9.25,55.94-5.31,20.29-14.48,38.89-24.68,57.03-2.29,4.08-4.5,8-4.46,12.8,2.84,3.81,6.96,4.52,11.12,4.76,21.42,1.27,41.62,7.66,61.64,14.68,9.98,3.5,20.65,6.34,29.26,12.1,9.21,6.15,19.15,11.05,28.11,17.62,19.49,14.28,36.73,30.81,52.06,50.1,2.98,.25,6.16,.78,9.34,.74,14.8-.21,29.58,.13,44.4-.97,9.53-.71,19.26,1.33,28.9,2.21,1.83,.17,3.63,1,5.43,.97,12.2-.22,23.59,3.45,35.09,6.82,6.15,1.8,12.52,2.71,18.76,4.37,22.73,6.03,42.69,17.35,61.75,30.49,3.2,2.2,6.27,4.42,9.88,4.28,6.81-.26,13.9,1.66,20.41-2.15,1.51-.88,3.52-1.23,5.3-1.25,6.92-.07,13.86-.2,20.76,.22,19.94,1.19,39.28,5.23,57.74,13.08,9.9,.91,17.44,7.89,26.94,10.33,5.9,1.51,11.1,6.46,16.1,10.5,4.27,3.46,7.94,7.7,11.64,11.81,7.5,8.34,13.75,18,17.09,28.3,3.79,11.72,5.18,24.52,2.42,37.09-1.92,8.75-6.62,16.37-11.39,23.63-10.39,15.83-22.53,30.15-36.16,43.57-20.16,19.86-42.92,36.39-64.65,54.23-6.75,5.54-14.55,9.8-21.77,14.79-1.77,1.22-3.14,3.03-5.03,4.89,3.64,4.5,9.36,3.13,13.69,7.58,2.82,3.35,6.67,7.91,10.95,12.97,1.28,6.16,2.69,12.94,3.98,19.17,5.27,9.51,17.25,12.2,20.72,23.43-3.39,2.16-6.81,4.34-10.28,6.55-6.47,12.05-12.97,24.13-18.76,34.91-7.72,5.01-14.2,9.32-20.8,13.46-4.3,2.7-8.87,4.96-13.11,7.73-14.65,9.6-30.42,17.31-45.13,26.82-3.1,2.01-6.33,3.88-9.68,5.42-13.46,6.21-25.83,14.33-38.58,21.79-13.97,8.18-28.29,15.75-42.32,23.84-5.91,3.4-12.74,5.8-16.55,13.14,.58,4.8,3.22,10.19,.42,15.58,3.19,5.41-2.47,8.94-3.83,14.12,12.88-1.04,24.79-1.91,36.69-2.97,22.22-1.98,44.36-.67,66.58,.58,31.37,1.75,62.83,2.99,94.88-3.18,.63,2.25,1.7,4.27,1.58,6.21-.1,1.65-1.23,3.61-2.52,4.74-8.34,7.28-15.41,15.83-24.22,22.74-12.46,9.78-25.52,18.33-39.72,25.26-2.44,1.19-4.58,3-7.68,5.08,5.5,1.87,10.05,3.42,15.06,5.13-2.04,1.25-3.56,2.18-5.93,3.63,7.3,2.42,13.98,4.76,20.75,6.81,2.18,.66,4.59,.91,6.87,.79,7.27-.39,13.82,2.04,19.8,5.56,4.23,2.49,8.47,3.48,13.19,3.48,10.17,0,20.34,.17,30.51,0,7.4-.13,8.56,.91,8.87,8.41,.11,2.67,.44,5.55,1.57,7.89,1.58,3.26,4,6.12,5.78,8.74,.12,6.1-3.05,9.03-7.82,10.69-5.63,1.96-11.26,3.9-17.82,6.17,1.41,3.41,2.54,6.13,3.65,8.81,19.2,.52,37.64,.04,56.12-.61,8.27-.29,16.55,.39,24.71-1.53,13.73,2.37,27.55,1.33,41.36,1.54,7.76,.12,15.63-2.96,23.34,.15,10.43-3.2,21.13,1.94,31.62-1.02,2.08-.59,4.57,.21,6.86,.46,1.83,.2,3.75,1.07,5.46,.76,12.03-2.18,24.12,1.33,35.98-.12,12.95-1.58,25.84-.76,38.75-1.27,7.39-.29,14.8-.83,22.11,1.25,2.17,.62,4.87,1.12,6.86,.4,9.51-3.43,19.31-1.22,28.94-1.89,3.2-.22,6.52-.02,9.66,.63,5.52,1.13,10.87,2.04,16.33-.37,1.6-.7,3.71-.74,5.48-.46,11.03,1.74,22.1,.12,32.86,.61-4.39,2.33-9.01,4.77-14.98,7.93,5.74,3.43,10.49,4.17,15.41,4.17,5.46,0,9.75,2.22,13.25,6.32,6.69,7.83,15.01,12,26.98,10.53,2.02,2.9,4.4,6.32,6.66,9.56,8.02-1.65,14.86-1.4,21.54,.83,4.1,1.37,8.11,1.29,12.27,0,3.96-1.23,8.08-1.99,12.75,.21,2.85,7.64,4.51,15.57,.82,23.42,2.47,3.91,1.4,8.84,5.57,11.27v5.57Zm-933.54-725.95c-2.62-1.85-3.9-3.25-5.49-3.8-12.18-4.2-24.38-8.31-36.66-12.18-1.39-.44-3.31,.84-4.96,1.31-2.98,11.69,2.81,20.91,5.58,30.65,10.15-.58,28.19-7.46,41.53-15.98Zm-212.27-338.93c-2.2,6.42-3.83,12.06-6.06,17.46-2.35,5.7-5.27,11.16-7.94,16.73,11.47-4.96,20.91-12.3,31.56-20.22-5.28-4.97-8.86-10.8-17.56-13.97Zm-1454.74,991.21c-4.55-.36-7.23,1.21-8.47,5.52,3.35,1.57,6.5,1.81,10.08-.87-.5-1.44-1.04-2.98-1.62-4.65Zm-422.46-170.67c2.8,1.64,3.86,.4,4.95-2.92-2.16,1.27-3.44,2.03-4.95,2.92Zm18.87-2.33c-.34-.4-.66-1.04-.89-1-1.57,.23-3.13,.58-4.68,.96-.08,.02-.08,.9-.02,.92,1.51,.35,3.04,.73,4.57,.83,.31,.02,.68-1.12,1.02-1.7Z"/>
      <path class="cls-1" d="M2832.41,1523.55c2.76,3.01,5.3,6.28,8.33,8.99,8.6,7.69,17.65,14.9,26.07,22.78,7.74,7.24,14.67,15.33,22.33,22.66,15.72,15.05,29.73,31.6,43.38,48.48,4.05,5,7.8,10.28,11.3,15.68,11.32,17.42,22.03,35.24,33.84,52.31,6.38,9.22,9.99,19.66,15.43,29.15,7.82,13.64,15.15,27.47,21.71,41.73,2.3,4.99,4.11,10.22,5.94,15.41,3.22,9.15,6.19,18.39,9.42,27.53,4.14,11.74,7.55,23.66,8.75,35.71,8.36,5.3,17.17,5.89,26.17,8.15,2.95-3.01,5.96-5.82,8.67-8.9,5.19-5.89,9.91-12.22,15.37-17.84,4.81-4.95,10.28-9.28,15.59-13.72,10.99-9.2,22.84-16.98,35.25-24.31,14.49-8.55,30.55-13.07,45.29-20.75,4.84-2.52,10.56-3.35,15.88-4.94,22.72-6.82,46.12-9.86,69.64-11.84,7.27-.61,14.81,.37,22.08,1.55,13.17,2.14,26.62,3.72,38.9,9.26,9.64,4.35,18.82,9.76,28.09,14.9,10.51,5.82,18.63,14.72,27.9,22.14,9.02,7.22,17.9,14.71,26.1,22.83,13.24,13.12,20.77,29.2,22.14,47.96,.27,3.68,.43,7.36,.66,11.53,22.57,8.51,46.02,15.29,64.46,32.92,18.04,17.25,32.48,36.51,41.31,59.65,1.01,.59,1.82,1.47,2.6,1.45,10.63-.26,21.19,.12,31.6,2.56,12.53-2.08,24.7,.53,37.01,2.37,8.63,1.3,17.6,.35,25.83,4.21,.4,.19,.93,.24,1.37,.17,16.63-2.51,31.91,4.17,47.77,6.94,3.56,.62,7.18,.88,11.14,1.35,.88,3.31,1.68,6.31,2.41,9.03,1.21,.58,2.03,1.32,2.81,1.28,3.2-.18,6.49-.2,9.54-1.02,3.87-1.05,7.3-.43,11.69,1.62,9.86,12.12,20.15,25.09,30.79,37.76,12.65,15.07,27.62,26.97,46.85,32.66,6.24,1.85,12.22,4.14,17.68,7.79,2.26,1.51,5,2.49,7.66,3.21,4.89,1.31,9.7,2.28,13.6,6.17,1.76,1.76,5.13,1.84,7.68,2.9,2.51,1.04,4.93,2.28,7.35,3.53,2.86,1.48,5.54,4.04,8.51,4.4,10.48,1.28,18.87,7.26,27.98,11.57,3.77,1.78,7.23,4,11.63,4.18,2.2,.09,4.48,1.02,6.52,2.01,2.83,1.37,5.46,3.14,8.25,4.77-2.37,9.1-8.43,12.33-16.6,12.44-8.81,.12-17.62-.03-26.42-.05-16.22-.03-32.43-.03-48.65-.1-14.8-.06-29.6-.23-44.4-.25-3.23,0-6.55,.04-9.67,.74-3.7,.84-7.18,1.06-10.94,.24-3.12-.68-6.45-.67-9.68-.59-31.91,.78-63.81-.16-95.72-.05-26.84,.1-53.67,.14-80.51,.09-49.58-.09-99.15-.31-148.73-.38-16.21-.02-32.42,.39-48.62,.42-21.31,.04-42.62-.3-63.92-.1-12.94,.12-25.91,1.76-38.81,1.22-9.62-.41-19.29,1.01-28.87-.87-2.69-.53-5.54-.34-8.32-.37-18.07-.16-36.19-1.14-54.2-.14-13.46,.75-26.85-.65-40.19,.29-15.27,1.07-30.45-.41-45.67-.12-14.81,.28-29.64-.23-44.45-.11-6.46,.05-12.91,.81-19.36,1.25-1.85,.13-3.82,.74-5.52,.3-10.91-2.85-22.05,.15-32.99-1.46-1.36-.2-2.86-.49-4.14-.14-11.49,3.18-23.02-.33-34.52,.29-6.45,.35-12.9,.69-19.36,.92-3.2,.12-6.45,.25-9.62-.1-9.23-1.02-18.43-1.46-27.65,.14-2.73,.47-5.78,1.35-8.25,.6-14.16-4.3-28.56-1.49-42.8-1.62-23.58-.21-47.21,1.68-70.76,.9-14.79-.49-29.58-.79-44.37-.87-39.78-.23-79.56-.37-119.34-.44-18.52-.03-37.06,.86-55.54,.11-19.9-.8-39.73,.68-59.6,.28-19.92-.4-39.86,.29-59.79,.34-14.35,.04-28.69-.23-43.04-.27-2.76,0-5.77-.24-8.24,.71-11.63,4.51-23.16,9.26-34.61,14.22-3.78,1.64-6.98,4.69-10.82,6.06-3.34,1.2-7.2,.96-10.81,1.35-.73,1.58-1.24,2.82-1.87,4.01-.61,1.16-1.34,2.27-2.23,3.76-4.01-1.41-7.81-2.75-12.08-4.25-.12-1.61-.24-3.3-.36-5.01-.73-.13-1.64-.55-2.4-.37-4.43,1.06-3.56,6.03-6.11,8.51-9.81-8.05-10.79-8.04-19.28,1.76q-7.98-7.69-17.05-8.96c-3.52,1.8-1.27,4.87-1.75,8.18-2.48,1.75-5.42,3.82-7.9,5.58-10.95-2.86-19.8-7.54-26.33-15.93-1.39-1.79-2.89-3.56-3.92-5.55-3.89-7.47-3.83-7.5-11.98-14.02-46.75-2.35-94.28-1.67-143.14-2.62-22.89,13.15-47.55,25.48-71.93,39.45-2.69-2.28-5.07-4.29-7.99-6.76-6.6,1.81-13.62,3.74-21.67,5.95,.52-2.96,.85-4.83,1.32-7.5-9.51,2.8-18.68,5.51-27.95,8.24-3.48,5.15-1.23,13.41-8.73,16.4-1.98-2.12-3.81-4.43-6.04-6.25-.64-.52-2.43,.36-3.7,.6-1.12,5.31,4.67,6.7,5.35,10.83,.67,4.07,1.95,8.03,3.18,12.9-3.07,.05-5.74,.42-8.32,.09-13.15-1.65-24.17-8.67-35.66-14.58-3.14-3.18-6.47-6.34-9.53-9.73-2.74-3.04-5.19-6.34-8.37-10.28-6.82-3.51-15.21-6.41-22.1-12.59,.19-3.64,.37-7.23,.58-11.31,1.71,.13,3.41,.26,5.92,.45,2.46-2.61,5.25-5.58,8.45-8.97-1.03-3.09-2.02-6.03-3.08-9.2-9.79-2.66-19.53-1.31-29.12-1.87-3.68-.22-7.76,1.16-11.02,0-8-2.82-15.75-.55-23.3,.65-6.18,.98-12.08,4.37-17.84,7.22-9.9,4.91-20.32,8.88-28.92,16.24-1.98,1.7-5.08,2.1-7.67,3.06-3.47,1.29-7.19,2.12-10.39,3.89-6.2,3.42-12.59,5.36-20.33,3.77,.54,8.56-3.3,12.53-11.03,13.61-3.04,.42-5.77,2.76-8.75,3.97-2.11,.86-4.39,1.72-6.61,1.77-2.12,.05-4.27-.94-7.43-1.72,2.6-3.11,4.56-5.44,7.16-8.54-4.58-1.57-8.98-2.22-12.04,.32-6.36,5.28-11.72,3.67-17.39-.64-.66-.51-1.74-.46-2.91-.74-4.65,.91-7.8,4.23-11.39,8.69v13.69c-4.08,2.82-7.52,1.97-11.18,.89-16.93-5-28.32-16.64-36.51-29.41-7.85-5.41-14.27-9.84-20.26-13.98-3.03-10.61-9.03-18.72-14.81-27.83-3.23,0-6.42,.09-9.6-.02-7.83-.27-15.75-1.55-23.45-.71-8.05,.87-15.66-.69-23.47-1.31-4.13-.33-8.32,.08-12.49,.08-21.75,0-43.44-1.19-65.14-2.58-5.89-.38-11.85-.16-17.8-.55-6.02-.39-12.34,.98-16.62,5.52-4.63,4.91-10.33,7.92-16.08,10.67-8.25,3.95-16.97,6.95-26.7,10.84-1.84,2.09-1.17,8.53-8.72,8.09-1.66-1.56-3.94-3.7-6.23-5.86-5.03,.36-10.18,.16-15.05,1.22-5.17,1.13-8.98-.84-13.41-4.19-.87,1.91-1.42,3.5-2.28,4.9-.69,1.12-1.76,2.01-3.05,3.42-1.67-.37-3.39-.78-5.13-1.13-1.34-.27-2.7-.45-4.11-.69-5.71,2.3-8.63,6.54-9.79,13.4,3.44,.47,6.38,.87,10.11,1.38,.76,3.03,1.6,6.39,2.42,9.69-1.1,.57-1.9,1.32-2.7,1.33-2.76,.04-5.55-.43-8.3-.26-18.15,1.14-31.88-7.22-43.46-20.13-4.93-5.49-9.27-11.36-16.82-14.02-3.18-1.12-5.83-4.55-8.06-7.43-5.01-6.48-9.43-13.42-16-18.42,1.47-3.01,2.65-5.4,3.77-7.7-1.05-.85-1.68-1.8-2.39-1.87-19.75-1.91-39.47-4.26-59.27-5.34-8.99-.49-17.19-2.83-25.58-5.42-6.14-1.89-12.56-2.89-18.51-4.21-9.27,3.49-8.55,15.9-18.34,18.79,1.91,1.5,3.64,2.87,5.34,4.22-.38,3.78-.71,6.94-1.02,10.04-.85,.5-1.67,1.4-2.36,1.31-9.56-1.23-18.99-2.07-27.69-7.62-4.73-3.02-9.29-5.59-12.78-10.12-6.04-7.84-13.89-13.12-23.15-16.94-11.93-4.93-23.42-10.96-35.05-16.61-1.2-.58-2.12-1.76-3.12-2.71-8.17-7.81-17.41-13.58-28.72-15.75-2.16-.41-4.12-1.85-6.08-2.77-.92-3.47-1.74-6.53-2.67-10.04,6.36-3.09,7.03-9.07,7.49-15.44-1.61-5.03-3.24-10.34-5-15.6-1.9-5.66-1.3-11.03,2.03-15.93,2.6-3.82,5.39-7.54,8.4-11.05,6.91-8.06,13.84-16.1,21.06-23.88,8.14-8.76,16.6-17.22,24.94-25.8,.97-.99,2.4-1.68,3.04-2.83,6.53-11.75,17.84-18.56,27.65-26.92,4.23-3.61,8.58-7.13,9.8-13.75-1.91-3.14-4.04-6.64-6.12-10.06,.12-5.04,4.06-9.85-.21-15.61-2.91-.13-6.46-.29-10.17-.46-1.6-1.45-3.27-2.96-5.37-4.86-2.3,.5-4.88,1.07-8.21,1.79,.88,2.64,1.51,4.55,2.35,7.08-7.05,3.39-13.03-2.67-20.03-2.26-3.87,.63-7.92,2.49-9.85,6.28-2.47,4.86-6.77,7.24-11.17,9.82v15.98c-8.04,1.74-14.89-.89-20.93-4.93-4.93-3.3-9.55-7.49-13.16-12.17-3.04-3.95-6.39-6.5-10.99-7.82-5.02-1.44-9.35-4-12.94-8.44-.96-3.95-2.01-8.3-3.1-12.83,.89-1.28,1.9-2.74,3.4-4.91-3.45-.36-6.29-.66-9.13-.96,.14-4.19,3.89-2.01,5.82-5.56,1.68-4.98,1.83-11.97,1.82-18.83-.02-9.92,3.31-17.66,10.64-24.59,6.61-6.25,11.85-13.94,17.89-21.23-1.7-2.48-2.97-4.34-4.43-6.47,6.61-6.98,11.23-15.3,13.31-25,1.11-5.18,4.35-8.87,8.37-12.36,12.95-11.24,24.28-23.98,34.03-38.16,4.71-6.84,10.27-13.1,15.48-19.59,2.31-2.88,4.65-5.76,7.08-8.53,3.35-3.81,6.8-7.53,10.21-11.29,3.72-4.1,7.73-7.97,11.09-12.34,4.22-5.49,7.65-11.56,13.35-15.88,1.71-1.3,2.54-3.76,3.8-5.66,4.6-6.92,9.06-13.92,15.86-19.07,2.55-1.93,4.67-4.49,6.76-6.96,11.33-13.41,22.56-26.91,33.92-40.3,2.07-2.44,4.6-4.47,6.87-6.74,8.11-8.07,15.99-16.31,20.52-27.1h1688.99Zm-1581.18,524.52c2.52-2.05,5.09-3.97,7.47-6.1,2.74-2.45,5.23-5.19,8-7.61,2.42-2.12,5.03-4.02,7.61-5.96,2.57-1.93,5.5-3.5,7.72-5.76,2.2-2.25,3.5-5.37,5.58-7.77,2.4-2.77,5.25-5.16,7.86-7.75,2.04-2.02,5.03-3.41,5.89-8.53-4.23,2.02-7.11,3.09-9.69,4.66-16.46,10.1-31.52,22.32-48.67,31.41-5.52,2.93-9.95,7.93-14.83,12.03-.23,.19-.03,.89-.03,2.2,7.7,.79,15.31-.17,23.1-.82Zm297.85-10.9c9.76,1.82,17.53,.52,25.32,.18,8.75-.39,17.56-1.07,26.26-.46,7.53,.53,14.4-1.27,21.23-2.42,1.97-4.43,3.72-8.17,5.25-11.99,.24-.59-.52-1.58-1.08-3.1-5.35,1.84-10.7,3.96-16.22,5.5-5.74,1.61-11.78,4.14-17.41,3.55-6.14-.64-11.75,.22-16.8,1.53-3.16-1.7-5.54-2.98-8.22-4.42-5.98,3.03-13.31,3.48-18.33,11.62Zm-229.81-49.11q-4.82-.55-8.31,4.08c3.79,2.4,5.61-.2,8.31-4.08Zm974.96,166.28c-.74-.35-1.47-.7-2.21-1.05-.02,.64-.3,1.63,0,1.86,.51,.39,1.39,.32,2.11,.44,.03-.41,.07-.82,.1-1.24Z"/>
    </g>
    <path class="cls-2" d="M2831.88,1520.89c-29.93-21.13-61.21-41.05-96.02-53.12s-75.07-14.06-113.22-13.25c-39.01,.83-77.84,2.99-116.69-2.07-39.1-5.09-77.36-15.04-116.09-22.19-18.86-3.48-37.88-6.34-57.01-7.74s-38.39,.02-56.36-6.52c-16.61-6.05-30.41-18.52-44.51-28.78s-29.85-20.89-45.68-29.88c-32.58-18.49-67.44-30.48-104.8-34.21-38.93-3.89-78.08-.02-116.91,3.12-9.3,.75-18.97,2.21-28.31,1.54s-14.69-5.46-20.32-12.02c-10.7-12.47-21.94-22.74-37.26-29.27s-30.87-8.76-46.72-6.72c-6.47,.83-14.85,2.23-17.32,9.34s4.32,13.31,11.19,10.09c5.12-2.41,7.49-10.29,1.15-13.01-6.97-2.98-13.04,7.27-6.01,10.28l-.22-3.93c-1.25-5.86,.41-5.57,4.98,.86,.51-.05,.88-.65,1.46-.69,1.57-.11,3.25-.78,4.83-1.02,3.78-.56,7.62-.76,11.44-.73,7.45,.06,14.79,1.21,21.93,3.33,14.1,4.18,26.8,12.21,36.52,23.26,5,5.69,9.47,11.85,15.76,16.23s14.27,6,22.05,6.02c18.07,.05,36.38-2.66,54.39-4.02,36.24-2.73,73.2-4.48,109.11,2.4,33.72,6.47,64.78,21.12,93.63,39.42,14.12,8.96,27.67,18.75,41.05,28.78,13.47,10.1,27.39,19.77,44.04,23.66s34.58,3.15,51.82,4.46c18.4,1.4,36.64,4.21,54.77,7.6,35.83,6.69,71.26,15.59,107.35,20.88,36.2,5.31,72.19,5.04,108.66,3.93,35.81-1.08,72.24-2.06,107.35,6.27s64.03,24.53,92.6,43.37c7.2,4.74,14.29,9.65,21.34,14.62,6.27,4.43,12.23-5.89,6.01-10.28h0Z"/>
    <path class="cls-2" d="M1815.84,1292.76c3.24,20.07,7.63,39.94,13.28,59.47s12.63,37.46,19.58,56.03c3.33,8.91,6.44,17.94,8.54,27.23,2.28,10.07,2.78,20.22,3,30.51,.44,20.49,2.53,40.36,8.67,60,2.28,7.29,13.78,4.18,11.48-3.17-6.26-20.03-7.76-39.86-8.33-60.7-.54-19.98-4.9-38.37-11.88-57.04s-14.07-36.96-19.58-56.03-10.04-39.4-13.28-59.47c-1.22-7.54-12.69-4.34-11.48,3.17h0Z"/>
    <path class="cls-2" d="M1876.84,1524.74c124.26,.96,248.53,1.92,372.79,2.89,61.49,.48,123.15,2.24,184.61-.19,60.94-2.41,120.99-14.21,181.93-16.19,67.14-2.18,134.37,5.11,199.5,21.51,7.43,1.87,10.6-9.61,3.17-11.48-58.06-14.63-117.91-22.2-177.79-22.32-30.29-.06-60.48,1.97-90.56,5.47-30.84,3.58-61.56,7.91-92.56,9.89-61.33,3.92-122.98,2.07-184.38,1.59-62.46-.48-124.93-.97-187.39-1.45-69.77-.54-139.55-1.08-209.32-1.62-7.66-.06-7.67,11.85,0,11.91h0Z"/>
    <path class="cls-2" d="M1817.88,1296c13.54,25.79,9.96,56.15,11.24,84.23,1.46,32.11,7.88,63.79,16.07,94.8,4.75,17.95,10.09,35.74,15.44,53.52,1.99,6.61,11.23,5.04,11.69-1.58,3.45-48.7-2.94-97.89-18.7-144.1-1.82-5.33-9.94-5.98-11.48,0-6.65,25.9-3.28,53.33,9.36,76.88,3.2,5.96,12.73,1.88,10.88-4.59-5.44-19.08-10.89-38.15-16.33-57.23-2.1-7.36-13.59-4.23-11.48,3.17,5.44,19.08,10.89,38.15,16.33,57.23l10.88-4.59c-11.13-20.72-14.01-44.94-8.16-67.71h-11.48c15.46,45.32,21.66,93.17,18.28,140.94l11.69-1.58c-9.49-31.53-18.99-63.15-25.09-95.55-3.03-16.07-5.16-32.31-5.95-48.65-.71-14.63-.23-29.29-1.16-43.91-1.05-16.43-4.03-32.59-11.74-47.29-3.56-6.79-13.84-.78-10.28,6.01h0Z"/>
    <path class="cls-2" d="M1811.45,1298.69c-7.03,34.46,11.34,64.83,22.53,96.07,2.86,7.97,5.28,16.17,6.47,24.57,1.24,8.8,1.1,17.75,1.04,26.61-.11,15.51-.06,31.31,5.95,45.87,5.59,13.55,15.47,25.17,29.95,29.29,7.38,2.1,10.53-9.38,3.17-11.48-27.61-7.86-27.26-43.87-27.14-66.53,.09-15.88-1.26-31.18-6.19-46.35s-11.63-28.63-17.05-43.1c-6.16-16.44-10.83-34.21-7.24-51.78,1.53-7.48-9.95-10.68-11.48-3.17h0Z"/>
    <path class="cls-2" d="M1899.22,1461.31c21.66,5.86,42.87,13.15,63.56,21.82l-9.95-4.2c17.3,7.33,35.01,14.96,50.1,26.34l-8.43-6.52c5.35,4.15,10.26,8.71,14.48,14.03l-6.52-8.43c2.47,3.27,4.58,6.69,6.25,10.43l-4.2-9.95c1.18,2.88,2.03,5.75,2.56,8.82l-1.49-11.08c.42,3.17,.45,6.22,.1,9.4l1.49-11.08c-.29,1.94-.7,3.72-1.41,5.55l4.2-9.95c-.39,.87-.89,1.66-1.52,2.37l6.52-8.43-1.04,.95,8.43-6.52-1.35,.79,9.95-4.2c-.97,.42-1.98,.68-3.03,.79l11.08-1.49c-6.71,.43-13.69-.56-20.37-1.1s-13.56-1.25-20.32-2.14l11.08,1.49c-15.32-2.1-30.46-5.36-44.79-11.29l9.95,4.2c-7.88-3.38-15.32-7.53-22.19-12.68l8.43,6.52c-10.34-8.02-18.23-18.2-26.34-28.35-9.89-12.37-21.09-23.59-34.98-31.53-15.49-8.86-38-7.1-50.5,6.52-4.89,5.32-8.49,11.51-10.72,18.39-3.63,11.23-.23,21.92,4.2,32.11,.49,1.11,.96,2.22,1.43,3.33l-4.2-9.95c5.76,14.02,9.73,28.6,11.9,43.59l-1.49-11.08c.97,7.2,1.52,14.41,1.67,21.67,.27,13.31,5.98,24.66,16.42,32.72s22.99,10.29,36.33,7.46c12.53-2.66,25.15-4.83,37.85-6.57l-11.08,1.49c64.87-8.68,130.5-6.12,195.69-3.5,16.55,.67,33.1,1.54,49.52,3.73l-11.08-1.49c16.19,2.26,32.13,5.87,47.29,12.07l-9.95-4.2c6.22,2.63,12.21,5.66,17.99,9.15,14.02-23.99,28.04-47.98,42.07-71.96-68.16-29.01-134.9-61.33-199.88-96.89-18.33-10.03-36.51-20.32-54.56-30.85-9.35-5.45-21.67-7.08-32.11-4.2-9.67,2.66-20.14,10.14-24.9,19.15-10.55,19.96-5.17,45.28,14.95,57.02,63.98,37.33,129.77,71.55,197.11,102.42,18.99,8.71,38.11,17.14,57.33,25.32,4.78,3.05,9.95,4.69,15.49,4.95,5.54,1.24,11.08,.99,16.62-.74,9.67-2.66,20.14-10.14,24.9-19.15,10.68-20.21,4.99-44.97-14.95-57.02-43.08-26.02-94.09-29.01-143.08-30.92-48.77-1.9-97.68-3.66-146.43-.4-30.49,2.04-61.04,5.9-90.94,12.24,17.58,13.39,35.17,26.79,52.75,40.18-.31-15.44-2.26-31.05-5.55-46.13s-8.96-29.31-15.13-43.5l-57.02,57.02c2.61,1.49,5.07,3.13,7.46,4.94l-8.43-6.52c9.91,7.87,17.39,18.05,25.27,27.83,9.67,12,20.6,22.03,33.53,30.6,26.11,17.32,57.28,23.11,87.76,26.75,14.96,1.78,32.31,4.74,47.09,1.16,18.16-4.4,32.37-18.63,36.97-36.75,3.03-11.93,2.69-23.71,.17-35.66-6.63-31.45-34.91-55.34-62.2-69.32-32.89-16.85-67.98-30.27-103.64-39.93-10.46-2.83-22.74-1.28-32.11,4.2-8.64,5.06-16.89,14.97-19.15,24.9-5,21.95,6.59,45.16,29.11,51.26h0Z"/>
    <path class="cls-2" d="M1810.58,1338.42c4.07,17.18,15.73,29.72,29.68,39.65,9.01,6.41,19.99,10.05,30.07,14.27l-9.95-4.2c4.83,2.11,9.41,4.58,13.65,7.73l-8.43-6.52c2.17,1.73,4.13,3.56,5.91,5.69l-6.52-8.43c1.33,1.76,2.41,3.54,3.29,5.56l-4.2-9.95c.44,1.24,.77,2.41,1.03,3.7l-1.49-11.08c.22,1.77,.25,3.44,.07,5.22l1.49-11.08c-.27,1.61-.67,3.08-1.26,4.6l4.2-9.95c-.67,1.43-1.44,2.73-2.37,4.01l6.52-8.43c-1.28,1.58-2.67,2.95-4.23,4.25l8.43-6.52c-3.11,2.38-6.48,4.2-10.06,5.76l9.95-4.2c-4.51,1.85-9.15,3.24-13.9,4.37,17.58,13.39,35.17,26.79,52.75,40.18l.15-1.09-1.49,11.08,.31-.99-4.2,9.95c.26-.63,.62-1.2,1.08-1.7l-6.52,8.43,.73-.72-8.43,6.52c.92-.69,1.77-1.18,2.81-1.67l-9.95,4.2c1.52-.57,3.03-.96,4.63-1.24l-11.08,1.49c7.99-1.04,16.4-.24,24.44-.18,8.51,.07,17.03,.14,25.54,.21,17.68,.14,35.37,.28,53.05,.43,10.63,.09,21.97-4.71,29.47-12.21,7.23-7.23,12.67-19.09,12.21-29.47-1.03-22.94-18.31-41.22-41.67-41.67-2.03-.04-4.02-.18-6.04-.42l11.08,1.49c-4.03-.61-7.87-1.65-11.67-3.12l9.95,4.2c-4.23-1.79-8.12-4.03-11.78-6.78l8.43,6.52c-3.18-2.55-6-5.35-8.54-8.54l6.52,8.43c-.62-.8-1.21-1.62-1.77-2.46-11.99,20.9-23.99,41.8-35.98,62.7,43.34-5.23,87.28-9.53,130.8-3.84l-11.08-1.49c20.09,2.76,39.71,7.73,58.43,15.56l-9.95-4.2c21.07,9.02,40.44,21.24,58.56,35.2l-8.43-6.52c25.4,19.75,48.18,42.54,70.77,65.38,15.35,15.52,43.76,16.52,58.93,0s16.38-42.37,0-58.93c-33.95-34.32-69.05-68.97-110.96-93.56-46.62-27.35-99.59-37.92-153.24-37.5-28.06,.22-56,3.19-83.83,6.55-7.52,.02-14.53,1.92-21.03,5.69-6.26,3.7-11.25,8.69-14.95,14.95-7.08,12.1-8.31,30.09,0,42.07s18.8,23.28,32.25,30.48c13.62,7.3,28.06,11.19,43.54,11.49v-83.34c-23.58-.19-47.15-.38-70.73-.57-10.46-.08-21.27-.96-31.69,.03-10.51,1-19.53,2.57-28.66,8.37-6.62,4.21-12.69,10.01-16.71,16.79-4.55,7.68-5.47,15.39-6.62,24.01-1.67,12.52,7.15,25.56,16.42,32.72,10.67,8.25,23.17,10.6,36.33,7.46,10.97-2.62,22.57-6.49,31.9-12.85,17.71-12.08,29.03-28.55,30.52-50.31,1.19-17.39-7.13-35.66-19.84-47.39-12.07-11.13-24.79-16.52-39.71-22.78l9.95,4.2c-5.87-2.51-11.61-5.26-16.69-9.18l8.43,6.52c-1.67-1.38-3.18-2.84-4.58-4.48l6.52,8.43c-1.3-1.69-2.35-3.42-3.23-5.36l4.2,9.95c-.47-1.24-.83-2.42-1.13-3.71-5.02-21.23-30.39-35.86-51.26-29.11-22.13,7.16-34.49,28.52-29.11,51.26h0Z"/>
    <path class="cls-2" d="M2210.37,1483.1l1.37,1.02-8.43-6.52c5.41,4.26,10.18,9.17,15,14.08,6.9,7.03,14.13,13.16,22.14,18.99,12.43,9.06,27.44,15.08,42.15,19.28,24.44,6.97,50.13,8.2,74.42,15.81,20.81,6.52,46.38-7.69,51.26-29.11,5.16-22.66-6.83-44.28-29.11-51.26-28.85-9.04-59.95-9.06-88.1-20.53l9.95,4.2c-7.05-2.99-13.64-6.66-19.74-11.29l8.43,6.52c-5.36-4.24-10.1-9.13-14.88-14-7-7.14-14.34-13.14-22.4-19.16s-22.82-6.76-32.11-4.2-20.14,10.14-24.9,19.15c-5.11,9.67-7.67,21.39-4.2,32.11l4.2,9.95c3.7,6.26,8.69,11.25,14.95,14.95h0Z"/>
    <path class="cls-2" d="M2276.79,1510.03c23.99-2.56,48.06-1.5,71.94,1.65l-11.08-1.49c41.59,5.66,82.01,17.21,122.89,26.33,23.67,5.28,47.5,9.43,71.61,12.14,21.48,2.41,42.89,2.38,64.45,1.26,25.45-1.32,50.98-3.28,76.36,.02l-11.08-1.49c16,2.26,31.37,6.83,46.27,13.04l-9.95-4.2c22.87,9.73,44.07,22.73,65.15,35.79,17.7,10.97,41.46,5.19,53.76-10.73s12.56-41.17-3.26-54.72c-1.05-.9-1.88-1.77-2.75-2.84l6.52,8.43c-1.81-2.63-3.03-5.48-4.33-8.38-2.6-5.84-6.05-10.73-10.43-15.56-8.58-9.47-21.02-16.02-33.59-18.15-20.38-3.47-40.77-3.12-61.22-.59-38.87,4.82-76.92,14.27-115.73,19.53l11.08-1.49c-97.95,13.05-197.04,9.3-295.37,3.24-24.3-1.5-48.81-2.33-72.96-5.57l11.08,1.49c-14.42-2.01-28.71-5.09-42.17-10.76l9.95,4.2c-6.56-2.86-12.77-6.31-18.51-10.6l8.43,6.52c-4.57-3.54-8.66-7.5-12.29-12l6.52,8.43c-1.67-2.16-3.21-4.39-4.64-6.71-4.98,19.01-9.97,38.01-14.95,57.02,2.25-1.39,4.54-2.58,6.98-3.61l-9.95,4.2c3.42-1.3,6.85-2.19,10.46-2.78l-11.08,1.49c6.38-.85,12.69-.67,19.07,.11l-11.08-1.49c12.68,1.78,24.87,5.73,36.96,9.83,13.25,4.5,26.32,9.5,39.23,14.92l-9.95-4.2c17.76,7.53,35.13,15.89,52.09,25.08,9.7,5.26,21.34,7.17,32.11,4.2,9.67-2.66,20.14-10.14,24.9-19.15,5.11-9.67,7.67-21.39,4.2-32.11-3.28-10.15-9.53-19.69-19.15-24.9-31-16.8-63.56-31.07-96.86-42.68-35.32-12.31-75.78-22.08-109.99-.87-18.79,11.65-27.04,37.41-14.95,57.02,20.41,33.11,55.88,51.2,93.31,57.79,38.34,6.75,77.82,7.67,116.62,9.88,80.59,4.6,161.66,6.94,242.12-1.14,25.59-2.57,51.15-6,76.47-10.55,22.43-4.03,44.65-9.18,67.24-12.23l-11.08,1.49c16.73-2.16,33.76-3.27,50.56-1.35l-11.08-1.49c3.46,.48,6.73,1.19,9.97,2.52l-9.95-4.2c1.33,.65,2.49,1.32,3.7,2.16l-8.43-6.52c1.13,.93,2.06,1.84,3.01,2.96l-6.52-8.43c2.29,3.17,3.67,6.73,5.29,10.26,2.82,6.11,7.12,12.16,12.21,16.52,16.83-21.82,33.67-43.63,50.5-65.45-31.91-19.78-65.01-39.52-101.65-49.13-39.54-10.37-79.43-6.31-119.64-4.84-20.37,.74-40.58-.24-60.79-2.92l11.08,1.49c-68.23-9.31-133.48-33.08-202.3-39.25-18.42-1.65-36.94-1.75-55.34,.22-11.36,1.21-21.1,3.84-29.47,12.21-7.23,7.23-12.67,19.09-12.21,29.47s4.02,21.96,12.21,29.47c7.64,7.02,18.68,13.36,29.47,12.21h0Z"/>
    <path class="cls-2" d="M2280.07,1431.08c-20.18-23.03-38.13-47.85-57.45-71.58s-41.42-46.18-66.55-65.21c-23.26-17.61-50.84-31.74-79.56-37.59s-59.58-5.43-87.27,5.18c-32.06,12.28-62.29,33.73-76.66,66.03h71.96l-.62-1.42,4.2,9.95c-.49-1.47-.83-2.8-1.07-4.33l1.49,11.08c-.12-1.51-.12-2.89-.01-4.4l-1.49,11.08c.36-2.56,1.01-4.91,1.93-7.32l-4.2,9.95c1.75-3.99,4.02-7.57,6.68-11.02l-6.52,8.43c6.32-7.75,14.04-14.38,21.91-20.51l-8.43,6.52c12.52-9.58,26.13-17.48,40.62-23.7l-9.95,4.2c15.52-6.5,31.73-10.95,48.39-13.24l-11.08,1.49c15.64-2.01,31.37-2.09,47.01-.07l-11.08-1.49c15.55,2.14,30.66,6.31,45.17,12.31l-9.95-4.2c14.93,6.32,28.93,14.46,41.82,24.29l-8.43-6.52c12.41,9.61,23.55,20.63,33.24,32.99l-6.52-8.43c10.03,13.02,18.04,27.24,24.48,42.34l-4.2-9.95c12.16,29.14,18.4,60.16,24.47,91.01,25.39-10.7,50.78-21.41,76.17-32.11-8.95-13.3-19.87-24.63-33.88-32.69-14.33-8.24-29.51-12.06-45.88-13.12,13.39,10.2,26.79,20.4,40.18,30.59-4.18-10.86-8.75-21.69-14.47-31.85s-12.66-19.34-19.83-28.51c-12.43-15.9-27.18-28.71-43.25-40.82s-33.93-20.85-52.59-28.47-38.21-11.49-58.37-14.01c-22.21-2.78-44.82-.87-66.67,3.75l-9.95,4.2c-4.86,2.62-8.75,6.2-11.69,10.73-5.43,7.03-9.36,16.12-8.95,25.25,.82,18.36,12.35,35.2,30.59,40.18,23.07,6.3,45.68,14.13,67.72,23.42l-9.95-4.2c42.51,18.07,82.58,41.48,119.19,69.64l-8.43-6.52c19.78,15.32,37.75,32.24,55.75,49.56s39.61,27.14,63.71,20.5c13.25-3.65,26.23-13.21,33.03-25.27,4.2-7.46,7.53-16.77,7.3-25.48-.27-10.56-2.41-16.22-6.63-25.67-5.79-12.98-22.56-20.64-35.98-20.64-7.52,.02-14.53,1.92-21.03,5.69-6.26,3.7-11.25,8.69-14.95,14.95-.64,.89-1.3,1.78-1.98,2.64l6.52-8.43c-4.48,5.64-9.51,10.66-15.15,15.15l8.43-6.52c-3.84,2.94-7.86,5.89-12.32,7.82l9.95-4.2-1.46,.43,11.08-1.49-1.44,.16,11.08,1.49-1.38-.19,9.95,4.2-1.28-.62,8.43,6.52-.85-.81,6.52,8.43-.58-.98,4.2,9.95-.34-1.11,1.49,11.08c-.15-.81-.19-1.63-.1-2.46l-1.49,11.08c.42-3,1.51-5.77,2.65-8.57l-4.2,9.95c2.66-6.22,6.05-11.99,10.16-17.36l-6.52,8.43c4.43-5.59,9.49-10.53,15.11-14.92l-8.43,6.52c6.82-5.17,14.21-9.38,22.06-12.78l-9.95,4.2c10.14-4.24,20.73-7.03,31.62-8.49l-11.08,1.49c10.98-1.36,22.02-1.35,32.99,.1l-11.08-1.49c11.93,1.71,23.46,5.25,34.59,9.83l-9.95-4.2c17.71,7.49,33.96,17.74,49.17,29.45l-8.43-6.52c18.88,14.71,36.02,31.44,52.71,48.55,12.41,12.72,35.21,16.38,50.5,6.52,6.03-3.88,11.07-8.92,14.95-14.95,5.29-8.2,7.56-22.82,4.2-32.11-7.14-19.73-16.7-36.06-30.16-52.11-10.88-12.98-24.77-24.03-39.23-32.72s-30.95-15.57-47.54-19.1c-9.97-2.12-20.25-3.54-30.44-3.91s-20.39,1.1-30.61,2.55c10.7,25.39,21.41,50.78,32.11,76.17,10.4-4.84,20.79-9.68,31.19-14.53-14.02-23.99-28.04-47.98-42.07-71.96-2.55,1.34-5.11,2.62-7.76,3.76l9.95-4.2c-2.68,1.04-5.3,1.81-8.15,2.23l11.08-1.49c-1.74,.12-3.28,.1-5.02-.08l11.08,1.49c-.87-.13-1.71-.36-2.53-.67l9.95,4.2c-1.27-.55-2.33-1.14-3.47-1.92l8.43,6.52c-1.06-.87-1.93-1.72-2.82-2.77l6.52,8.43c-.77-1.1-1.34-2.09-1.87-3.32l4.2,9.95c-.29-.77-.47-1.56-.56-2.38l1.49,11.08c-.09-.81-.06-1.61,.08-2.41l-1.49,11.08,.31-1.19-4.2,9.95,.51-1.17-35.98,20.64c1.1,.11,2.2,.23,3.3,.37l-11.08-1.49c10.46,1.42,20.59,4.14,30.36,8.13l-9.95-4.2c9.72,4.13,18.79,9.39,27.16,15.81l-8.43-6.52c1.3,1.03,2.59,2.07,3.86,3.14,16.83-21.82,33.67-43.63,50.5-65.45-25.11-16.61-53.45-24.82-83.01-28.43-11.43-1.4-23.01-1.45-34.45-.14-15,1.72-29.58,4.1-43.78,9.31-10.38,3.81-19.16,9.33-24.9,19.15-5.23,8.93-7.44,22.1-4.2,32.11,3.26,10.08,9.51,19.81,19.15,24.9s21.69,8.03,32.11,4.2c9.57-3.52,19.42-5.97,29.52-7.42l-11.08,1.49c13.32-1.76,26.71-1.73,40.02,.05l-11.08-1.49c12.76,1.84,25.15,5.24,37.04,10.23l-9.95-4.2c7.88,3.41,15.39,7.46,22.56,12.2,8.36,5.53,22.63,7.27,32.11,4.2,8.78-2.84,15.98-7.6,21.65-14.93s9.36-16.12,8.95-25.25c-.47-10.48-3.84-22.46-12.21-29.47-12.19-10.21-24.82-19.2-39.46-25.47-8.43-3.61-16.78-7.18-25.67-9.49-9.48-2.47-19.31-3.67-29.02-4.7-12.93-1.37-30.73,8.64-35.98,20.64-3.73,8.53-6.61,14.89-6.64,24.59s2.4,16.48,6.3,24.62c4.39,9.16,13.04,17.58,21.9,22.43,13.3,7.28,27.13,7.95,41.7,5.35,8.79-1.56,17.18-5.93,25.04-10.07,19.33-10.16,26.77-38.69,14.95-57.02-5.74-8.9-14.28-16.73-24.9-19.15l-11.08-1.49c-7.52,.02-14.53,1.92-21.03,5.69-10.4,4.84-20.79,9.68-31.19,14.53-8.58,3.99-17.09,15.87-19.15,24.9s-1.63,18.29,2.1,27.13c3.38,8.01,9.15,15.75,17.05,19.93l9.95,4.2c7.39,1.98,14.77,1.98,22.16,0l1.39-.2-11.08,1.49c9.75-1.25,19.52-1.18,29.26,.11l-11.08-1.49c10.19,1.47,20.06,4.21,29.59,8.12l-9.95-4.2c9.94,4.21,19.24,9.6,27.85,16.11l-8.43-6.52c8.14,6.31,15.46,13.49,21.84,21.58l-6.52-8.43c5.99,7.78,10.96,16.18,14.79,25.22l-4.2-9.95c.71,1.73,1.38,3.48,2.02,5.24,23.22-13.51,46.43-27.03,69.65-40.54-22.11-22.66-45.19-44.15-71.12-62.45-11.38-8.03-23.43-15.16-36.19-20.78-14.93-6.57-30.04-12.65-46.25-15.13-28.84-4.42-58.84-3.51-86.26,7.46-8.1,3.24-16.27,6.58-23.82,11-7.25,4.25-13.91,9.51-20.41,14.8-10.67,8.7-19.97,20.2-26.52,32.26-5.32,9.79-9.41,19.94-10.89,30.94-3.74,27.86,17.42,53.66,46.19,53.29,17.94-.23,32.09-10.78,45.26-21.56,8.8-7.21,15.64-16.05,22.35-25.2h-71.96l.51,1.15-4.2-9.95,.32,1.16-1.49-11.08c.15,.77,.18,1.55,.11,2.33l1.49-11.08c-.08,.78-.26,1.54-.53,2.28l4.2-9.95c-.51,1.18-1.06,2.13-1.8,3.18l6.52-8.43c-.87,1.01-1.72,1.84-2.75,2.69l8.43-6.52c-1.12,.78-2.18,1.38-3.41,1.96l9.95-4.2c-1.28,.47-2.43,.78-3.78,1.01l11.08-1.49c-.86,.1-1.72,.11-2.58,.03l11.08,1.49c-2.02-.29-3.85-.77-5.75-1.49l9.95,4.2c-2.32-1.05-4.4-2.32-6.46-3.81l8.43,6.52c-7.38-5.76-13.65-12.97-20.43-19.4s-14.3-13.2-21.71-19.49c-16.88-14.34-34.54-27.89-52.82-40.39-34.55-23.63-71.64-42.45-110.35-58.27-20.07-8.2-40.64-15.14-61.56-20.86v80.37c4.07-.86,8.16-1.58,12.28-2.15l-11.08,1.49c15.08-1.97,30.28-1.85,45.36,.15l-11.08-1.49c16.01,2.25,31.59,6.59,46.52,12.78l-9.95-4.2c15.35,6.5,29.77,14.87,43.01,25l-8.43-6.52c12.39,9.62,23.54,20.65,33.17,33.05l-6.52-8.43c8.68,11.36,15.93,23.65,21.53,36.82l-4.2-9.95c.71,1.71,1.4,3.43,2.06,5.15,3.36,8.75,7.34,15.78,14.93,21.65s15.53,8.31,25.25,8.95c1.5,.1,2.98,.24,4.47,.42l-11.08-1.49c4.97,.75,9.71,2.08,14.36,4l-9.95-4.2c4.6,2.04,8.84,4.56,12.84,7.61l-8.43-6.52c3.52,2.84,6.66,5.97,9.49,9.49l-6.52-8.43c.91,1.2,1.77,2.4,2.61,3.65,5.81,8.64,14.34,16.74,24.9,19.15,9.32,2.12,18.29,1.63,27.13-2.1,8.01-3.38,15.75-9.15,19.93-17.05,5.46-10.33,6.46-20.62,4.2-32.11-7.82-39.76-16.73-79.08-35.41-115.41-17.37-33.77-44.4-61.86-75.78-82.91-31.94-21.42-69.39-33.21-107.55-36.2-39.14-3.07-78.25,6.33-113.52,22.88-19.29,9.05-37.04,21.64-52.84,35.89-9.05,8.16-17.93,17.64-23.52,28.53-5.24,10.2-8.3,19.75-8.95,31.22s2.88,20.82,7.39,31.18c5.65,13,22.66,20.64,35.98,20.64s30.21-7.66,35.98-20.64c2.58-5.8,5.76-11.2,9.57-16.28l-6.52,8.43c4.68-6.04,10.06-11.37,16.08-16.08l-8.43,6.52c6.89-5.24,14.35-9.52,22.28-12.97l-9.95,4.2c9.39-3.94,19.17-6.6,29.25-8.07l-11.08,1.49c10.09-1.34,20.22-1.45,30.33-.22l-11.08-1.49c12.78,1.72,25.14,5.26,37.04,10.2l-9.95-4.2c15.53,6.63,29.86,15.48,43.24,25.75l-8.43-6.52c45.86,35.73,76.36,86.03,114.26,129.28,6.76,7.72,19.49,12.21,29.47,12.21s22.43-4.54,29.47-12.21,12.7-18.37,12.21-29.47-4.61-20.8-12.21-29.47h0Z"/>
  </g>
  <g id="hair-2" data-name="hair">
    <path class="cls-2" d="M1139.37,1509.25c25.56-50.09,54.32-105.75,105-134.62,29.86-17.01,63.85-18.88,96.96-24.67,31.05-5.43,59.18-17.54,85.65-34.49,26.14-16.74,50.09-36.58,75.41-54.48,25.68-18.15,53.03-33.33,82.73-43.86,59.02-20.92,123.9-25.09,185.08-11.68,31.38,6.88,61.04,18.5,89.18,33.93,29.64,16.26,58.23,34.27,90.81,44.22,59.27,18.1,126.34,15.66,177.3,55.3,21.17,16.47,40.26,37.33,66.11,46.52,25.84,9.19,51.01,.49,73.14-13.6,24.48-15.59,47.17-36.19,77.34-38.98,33.52-3.11,66.29,11.77,94.34,28.62,27.9,16.76,54.14,36.53,84.33,49.15,14.66,6.13,29.79,10.09,45.61,11.68,17.31,1.73,34.75,1.11,52.07,2.8,68.65,6.69,131.3,39.84,189.11,75.4,14.17,8.72,28.19,17.69,42.18,26.69,6.46,4.16,12.44-6.14,6.01-10.28-57.17-36.77-115.89-74.13-181.82-93.05-15.75-4.52-31.8-7.82-48.06-9.84-17.66-2.19-35.41-1.86-53.13-3.1-35.66-2.48-66.11-18.98-95.72-37.81-51.46-32.71-113.04-72.83-174.48-40.11-24.43,13.01-45.21,34.81-72.37,42.31-30.57,8.45-55.64-10.76-77.68-29.41-22.89-19.37-45.6-35.5-74.38-45.05s-61.78-13.94-92.77-20.31c-15.98-3.29-31.87-7.2-47.19-12.85-16.72-6.18-32.46-14.71-47.96-23.45-28.57-16.11-56.78-31.86-88.13-41.99-58.96-19.04-123.22-21.36-183.59-7.72-30.61,6.91-60.36,18.05-87.86,33.18-27.65,15.22-52.41,34.89-77.66,53.66s-52.19,37.72-82.42,48.42c-32.56,11.53-67.63,11.11-100.69,20.53-56.99,16.24-94.13,64.65-122.09,114.06-7.23,12.77-14,25.8-20.66,38.87-3.48,6.81,6.79,12.84,10.28,6.01h0Z"/>
    <path class="cls-2" d="M1233.42,1616.14c78.85-1.89,157.73-2.85,236.6-2.86,22.3,0,44.6,.07,66.89,.22,13.11,.49,25.35-2.24,36.7-8.2,11.81-3.84,22.03-10.41,30.65-19.69,9.29-8.63,15.85-18.85,19.69-30.65,5.96-11.35,8.7-23.58,8.2-36.7l-3.4-25.32c-4.53-16.14-12.69-30.15-24.5-42.03-18.71-17.17-41.49-27.73-67.35-27.9-78.87-.52-157.75-.11-236.62,1.26-22.29,.39-44.59,.85-66.88,1.38-24.79,.59-49.67,10.21-67.35,27.9-9.29,8.63-15.85,18.85-19.69,30.65-5.96,11.35-8.7,23.58-8.2,36.7,1.13,8.44,2.27,16.88,3.4,25.32,4.53,16.14,12.69,30.15,24.5,42.03,18.38,16.87,41.77,28.51,67.35,27.9h0Z"/>
    <path class="cls-2" d="M1262.18,1571.73c18.91-.94,37.78,.03,56.53,2.55-8.44-1.13-16.88-2.27-25.32-3.4,48.28,6.75,94.37,23.36,139.1,42.21l-22.75-9.6c15.95,6.75,31.77,13.79,47.57,20.87,10.93,6.96,22.74,10.73,35.41,11.3,12.66,2.84,25.32,2.27,37.98-1.7,12.4-2.95,23.19-8.63,32.39-17.05,10.37-6.72,18.55-15.62,24.53-26.72,11.68-22.11,17.53-48.89,9.6-73.4l-9.6-22.75c-8.47-14.31-19.86-25.7-34.17-34.17-37.71-16.91-75.57-33.8-114.43-47.92-15.91-5.78-32.04-11-48.41-15.32-23.72-6.25-47.58-9.63-71.89-12.85-18.76-2.49-37.62-3.49-56.53-2.55-13.11-.49-25.35,2.24-36.7,8.2-11.81,3.84-22.03,10.41-30.65,19.69-9.29,8.63-15.85,18.85-19.69,30.65-5.96,11.35-8.7,23.58-8.2,36.7l3.4,25.32c4.53,16.14,12.69,30.15,24.5,42.03,18.1,16.61,42.04,29.16,67.35,27.9h0Z"/>
    <path class="cls-2" d="M1266.47,1536.27c91.33,23.67,181.3,52.5,269.35,86.38,24.82,9.55,49.48,19.51,73.98,29.84-7.58-3.2-15.17-6.4-22.75-9.6,20.41,8.63,40.71,17.52,60.89,26.68,10.93,6.96,22.74,10.73,35.41,11.3,12.66,2.84,25.32,2.27,37.98-1.7,12.4-2.95,23.19-8.63,32.39-17.05,10.37-6.72,18.55-15.62,24.53-26.72,11.68-22.11,17.53-48.89,9.6-73.4l-9.6-22.75c-8.47-14.31-19.86-25.7-34.17-34.17-108.98-49.45-220.87-92.53-335.51-126.95-30.32-9.1-60.82-17.61-91.46-25.55-12.66-3.97-25.32-4.54-37.98-1.7-12.68,.57-24.48,4.34-35.41,11.3-11.1,5.99-20.01,14.16-26.72,24.53-8.42,9.2-14.1,20-17.05,32.39-1.13,8.44-2.27,16.88-3.4,25.32,.05,17.19,4.39,33.22,13,48.07,13.34,20.7,32.55,37.45,56.92,43.77h0Z"/>
    <path class="cls-2" d="M1293.02,1521.23c42.6,23.03,87.04,42.63,132.2,60.06,16.88,4.54,33.76,4.54,50.64,0,16.14-4.53,30.15-12.69,42.03-24.5,11.8-11.88,19.97-25.89,24.5-42.03,4.54-16.88,4.54-33.76,0-50.64-3.92-9.51-7.15-19.88-12.57-28.7s-12.02-16.89-18.85-24.62c-8.53-9.66-19.5-17.94-30.97-23.81-10.93-6.96-22.74-10.73-35.41-11.3-12.66-2.84-25.32-2.27-37.98,1.7-12.4,2.95-23.19,8.63-32.39,17.05-10.37,6.72-18.55,15.62-24.53,26.72-11.68,22.11-17.53,48.89-9.6,73.4,7.4,22.86,21.7,45.63,43.77,56.92,2.22,1.13,4.28,2.41,6.28,3.88l-19.28-14.89c2.74,2.18,5.12,4.57,7.29,7.32l-14.89-19.28c1.76,2.42,3.23,4.92,4.48,7.64l-9.6-22.75,.56,1.37,117.17-117.17c-9.38-3.62-18.7-7.38-27.96-11.28l22.75,9.6c-27.77-11.76-54.96-24.83-81.49-39.17-22.2-12-48.75-16.39-73.4-9.6-12.4,2.95-23.19,8.63-32.39,17.05-10.37,6.72-18.55,15.62-24.53,26.72-11.68,22.11-17.53,48.89-9.6,73.4,7.5,23.18,21.77,45.03,43.77,56.92h0Z"/>
    <path class="cls-2" d="M1424.42,1519.27c13.11,.49,25.35-2.24,36.7-8.2,11.81-3.84,22.03-10.41,30.65-19.69,9.29-8.63,15.85-18.85,19.69-30.65,5.96-11.35,8.7-23.58,8.2-36.7-1.13-8.44-2.27-16.88-3.4-25.32-4.53-16.14-12.69-30.15-24.5-42.03-18.64-17.11-41.54-27.9-67.35-27.9-13.11-.49-25.35,2.24-36.7,8.2-11.81,3.84-22.03,10.41-30.65,19.69-9.29,8.63-15.85,18.85-19.69,30.65-5.96,11.35-8.7,23.58-8.2,36.7l3.4,25.32c4.53,16.14,12.69,30.15,24.5,42.03,18.64,17.11,41.54,27.9,67.35,27.9h0Z"/>
    <path class="cls-2" d="M1445.35,1498.27c49.6-.79,99.2,2.12,148.37,8.68l-25.32-3.4c31.92,4.32,63.6,10.16,94.96,17.52,24.63,5.78,51.26,3.35,73.4-9.6,11.1-5.99,20.01-14.16,26.72-24.53,8.42-9.2,14.1-20,17.05-32.39l3.4-25.32c-.05-17.19-4.39-33.22-13-48.07-13.16-20.42-32.61-38.07-56.92-43.77-47.8-11.22-96.42-18.65-145.21-23.95-40.98-4.45-82.22-6.31-123.44-5.65-13.11-.49-25.35,2.24-36.7,8.2-11.81,3.84-22.03,10.41-30.65,19.69-9.29,8.63-15.85,18.85-19.69,30.65-5.96,11.35-8.7,23.58-8.2,36.7l3.4,25.32c4.53,16.14,12.69,30.15,24.5,42.03,18.46,16.95,41.69,28.31,67.35,27.9h0Z"/>
    <path class="cls-2" d="M1480.51,1465.18c15.85,5.05,31.44,10.8,46.78,17.24l-22.75-9.6c37.75,16.02,73.58,36.22,106.8,60.27,10.93,6.96,22.74,10.73,35.41,11.3,12.66,2.84,25.32,2.27,37.98-1.7,12.4-2.95,23.19-8.63,32.39-17.05,10.37-6.72,18.55-15.62,24.53-26.72,11.68-22.11,17.53-48.89,9.6-73.4l-9.6-22.75c-8.47-14.31-19.86-25.7-34.17-34.17-23.57-17.06-48.46-32.26-74.47-45.33-32.72-16.44-66.95-30.67-101.86-41.78-12.66-3.97-25.32-4.54-37.98-1.7-12.68,.57-24.48,4.34-35.41,11.3-11.1,5.99-20.01,14.16-26.72,24.53-8.42,9.2-14.1,20-17.05,32.39l-3.4,25.32c.05,17.19,4.39,33.22,13,48.07l14.89,19.28c11.88,11.8,25.89,19.97,42.03,24.5h0Z"/>
    <path class="cls-2" d="M1517.37,1428.16c3.11,1.24,6.2,2.5,9.28,3.8-7.58-3.2-15.17-6.4-22.75-9.6,35.95,15.26,69.81,35.06,100.79,58.84l-19.28-14.89c21.18,16.38,40.9,34.52,58.94,54.3,8.63,9.29,18.85,15.85,30.65,19.69,11.35,5.96,23.58,8.7,36.7,8.2,13.11,.49,25.35-2.24,36.7-8.2,11.81-3.84,22.03-10.41,30.65-19.69,16.66-18.15,29.03-41.98,27.9-67.35l-3.4-25.32c-4.53-16.14-12.69-30.15-24.5-42.03-28.73-31.5-62.11-58.78-97.12-83s-73.96-42.51-113.93-58.44c-12.66-3.97-25.32-4.54-37.98-1.7-12.68,.57-24.48,4.34-35.41,11.3-11.1,5.99-20.01,14.16-26.72,24.53-8.42,9.2-14.1,20-17.05,32.39l-3.4,25.32c.05,17.19,4.39,33.22,13,48.07l14.89,19.28c11.88,11.8,25.89,19.97,42.03,24.5h0Z"/>
    <path class="cls-2" d="M1571.87,1397.44c23.37,4.85,46.86,9.04,70.47,12.51,30.41,4.47,60.94,7.59,91.4,11.62-8.44-1.13-16.88-2.27-25.32-3.4,14.89,2.04,29.63,4.96,43.59,10.66l-22.75-9.6c8.51,3.63,16.37,8.27,23.7,13.91l-19.28-14.89c9.46,7.5,17.64,16.29,25.08,25.77l-14.89-19.28c9.75,12.63,18.11,26.2,26.35,39.84,5.99,11.1,14.16,20.01,24.53,26.72,9.2,8.42,20,14.1,32.39,17.05,12.66,3.97,25.32,4.54,37.98,1.7,12.68-.57,24.48-4.34,35.41-11.3,20.34-13.11,38.24-32.64,43.77-56.92l3.4-25.32c-.05-17.19-4.39-33.22-13-48.07-25.22-41.77-54.21-82.55-97.21-107.69-22.33-13.05-47.7-21.67-73.25-25.52-27.27-4.11-54.69-6.66-82.02-10.31l25.32,3.4c-28.51-3.86-56.87-8.71-85.04-14.56-12.66-3.97-25.32-4.54-37.98-1.7-12.68,.57-24.48,4.34-35.41,11.3-11.1,5.99-20.01,14.16-26.72,24.53-8.42,9.2-14.1,20-17.05,32.39l-3.4,25.32c.05,17.19,4.39,33.22,13,48.07,12.96,20.1,32.72,38.75,56.92,43.77h0Z"/>
    <path class="cls-2" d="M1644.19,1392.09c32.22-2.09,64.66-3.88,96.8,.26-8.44-1.13-16.88-2.27-25.32-3.4,16.85,2.29,33.34,6.26,49.07,12.79l-22.75-9.6c21.42,9.15,39.12,23.91,58.78,36.05,4.81,2.97,9.74,5.74,14.86,8.14,11.86,5.55,24.05,10.9,36.54,14.97,10.48,3.41,21.23,5.93,31.46,10.07l-22.75-9.6c5.4,2.29,10.47,5.01,15.18,8.52l-19.28-14.89c3.26,2.57,6.16,5.44,8.77,8.67-4.96-6.43-9.93-12.85-14.89-19.28,2.7,3.53,4.91,7.29,6.71,11.36l-9.6-22.75c2.04,4.89,3.39,9.93,4.18,15.16-1.13-8.44-2.27-16.88-3.4-25.32,.88,6.66,.82,13.31-.02,19.98,1.13-8.44,2.27-16.88,3.4-25.32-1.04,7.26-2.97,14.28-5.73,21.08l9.6-22.75c-2.88,6.78-6.52,13.12-11,18.97l14.89-19.28c-4.31,5.44-9.22,10.1-14.68,14.38l19.28-14.89c-7.84,5.96-16.34,10.78-25.36,14.7,7.58-3.2,15.17-6.4,22.75-9.6-16.05,6.76-33.07,10.54-50.28,12.89l25.32-3.4c-51.21,6.73-103.59,4.85-155.11,4.89-26.45,.02-52.98,0-79.4,1.48-22.04,1.23-41.25,4.85-60.63,16.14-25.45,14.82-41.24,39.5-49.86,66.96-3.71,11.82-5.99,24.31-8.03,36.51-6.14,36.75-10.08,73.68-7.85,110.93-.49,13.11,2.24,25.35,8.2,36.7,3.84,11.81,10.41,22.03,19.69,30.65,8.63,9.29,18.85,15.85,30.65,19.69,11.35,5.96,23.58,8.7,36.7,8.2l25.32-3.4c16.14-4.53,30.15-12.69,42.03-24.5,16.51-17.99,29.41-42.15,27.9-67.35s-.56-49.65,2.73-74.28l-3.4,25.32c2.33-16.78,4.82-34.76,10.74-50.71-3.2,7.58-6.4,15.17-9.6,22.75,.81-1.87,1.71-3.51,2.94-5.14l-14.89,19.28c.63-.76,1.35-1.43,2.14-2.02l-19.28,14.89c.88-.64,1.82-1.16,2.84-1.55l-22.75,9.6c1.6-.54,3.08-.9,4.75-1.18l-25.32,3.4c20.56-2.32,41.84-1.66,62.52-1.81s41.7-.03,62.56-.07c20.84-.04,41.69-.25,62.52-1.04,26.54-1.01,52.46-3.71,78.79-7.47,16.43-2.34,32.61-6.02,47.98-12.37s29.92-11.62,43.17-20.52c9.51-6.39,18.55-13.65,27.38-20.91,2.85-2.34,5.58-4.84,8.09-7.55,9.76-10.54,19.16-22.26,26.11-34.95,3.43-6.25,5.97-13.02,8.73-19.56,2.95-6.98,6.14-13.85,8.19-21.15,.87-3.1,1.53-6.23,2.06-9.41,1.9-11.4,3.91-23.16,4.33-34.78,.1-2.91,.04-5.83-.21-8.73-.98-11.44-2.23-23.19-4.83-34.41-1.71-7.37-5.05-14.18-7.98-21.13s-5.29-13.72-9.38-19.8c-14.01-20.85-27.69-34.88-48.98-48.52-10.08-6.45-23.82-11.33-34.01-15.38-4.48-1.78-9.01-3.34-13.62-4.73-9.31-2.82-18.73-5.26-27.75-8.98,7.58,3.2,15.17,6.4,22.75,9.6-14.39-6.2-27.14-15.25-39.96-24.14-6.31-4.38-12.66-8.71-19.28-12.61-13.41-7.89-28.27-13.66-42.59-19.43-14.44-5.82-29.57-9.59-44.97-11.79-23.73-3.39-46.95-6.3-70.9-6.26-17.94,.02-35.86,1.09-53.76,2.26-13.11-.49-25.35,2.24-36.7,8.2-11.81,3.84-22.03,10.41-30.65,19.69-9.29,8.63-15.85,18.85-19.69,30.65-5.96,11.35-8.7,23.58-8.2,36.7l3.4,25.32c4.53,16.14,12.69,30.15,24.5,42.03,17.93,16.46,42.2,29.53,67.35,27.9h0Z"/>
    <path class="cls-2" d="M1701.83,1348.1c-40.17-1.36-80.44-2.04-120.62-1.06-16.87,.41-33.73,1.37-50.47,3.52-24.4,3.13-48.89,5.94-72.28,13.89-15.96,5.42-31.78,11.97-46.71,19.79s-28.39,18.94-41.92,29.54c-9.29,8.63-15.85,18.85-19.69,30.65-5.96,11.35-8.7,23.58-8.2,36.7-.49,13.11,2.24,25.35,8.2,36.7,3.84,11.81,10.41,22.03,19.69,30.65,18.15,16.66,41.98,29.03,67.35,27.9,8.44-1.13,16.88-2.27,25.32-3.4,16.14-4.53,30.15-12.69,42.03-24.5l1.27-.99-19.28,14.89c10.11-7.73,21.1-14.01,32.78-19.05-7.58,3.2-15.17,6.4-22.75,9.6,18.75-7.89,38.59-12.44,58.71-15.17-8.44,1.13-16.88,2.27-25.32,3.4,26.05-3.41,52.33-3.84,78.57-3.95,31.12-.14,62.23,.34,93.33,1.39,13.11,.49,25.35-2.24,36.7-8.2,11.81-3.84,22.03-10.41,30.65-19.69,9.29-8.63,15.85-18.85,19.69-30.65,5.96-11.35,8.7-23.58,8.2-36.7l-3.4-25.32c-4.53-16.14-12.69-30.15-24.5-42.03l-19.28-14.89c-14.86-8.62-30.88-12.95-48.07-13h0Z"/>
    <path class="cls-2" d="M2325.11,1516.31c9.26,2.01,18.25,4.88,26.99,8.54l-22.75-9.6c13.58,5.85,26.21,13.46,37.96,22.41l-19.28-14.89c15.19,11.76,28.6,25.52,40.4,40.66l-14.89-19.28c25.45,33.1,42.93,71.18,59.09,109.44-3.2-7.58-6.4-15.17-9.6-22.75l.69,1.64c2.95,12.4,8.63,23.19,17.05,32.39,6.72,10.37,15.62,18.55,26.72,24.53,10.93,6.96,22.74,10.73,35.41,11.3,12.66,2.84,25.32,2.27,37.98-1.7,23.05-7.46,45.28-21.74,56.92-43.77l9.6-22.75c4.54-16.88,4.54-33.76,0-50.64-17-40.34-33.44-81.44-57.95-117.96-13.72-20.45-28.92-40.54-46.4-57.96-5.64-5.62-11.58-10.94-17.82-15.89-12.09-9.59-24.23-19.51-37.41-27.65-14.44-8.92-30.15-15.06-45.82-21.51-8.52-3.51-17.26-6.28-26.27-8.24-12.66-3.97-25.32-4.54-37.98-1.7-12.68,.57-24.48,4.34-35.41,11.3-11.1,5.99-20.01,14.16-26.72,24.53-8.42,9.2-14.1,20-17.05,32.39-1.13,8.44-2.27,16.88-3.4,25.32,.05,17.19,4.39,33.22,13,48.07,13.03,20.21,32.68,38.52,56.92,43.77h0Z"/>
    <path class="cls-2" d="M2369.01,1453.7c-12.84,77.33-32.35,153.46-58.27,227.44-3.97,12.66-4.54,25.32-1.7,37.98,.57,12.68,4.34,24.48,11.3,35.41,5.99,11.1,14.16,20.01,24.53,26.72,9.2,8.42,20,14.1,32.39,17.05,8.44,1.13,16.88,2.27,25.32,3.4,17.19-.05,33.22-4.39,48.07-13l19.28-14.89c11.8-11.88,19.97-25.89,24.5-42.03,25.92-73.98,45.42-150.11,58.27-227.44,3.97-12.66,4.54-25.32,1.7-37.98-.57-12.68-4.34-24.48-11.3-35.41-5.99-11.1-14.16-20.01-24.53-26.72-9.2-8.42-20-14.1-32.39-17.05l-25.32-3.4c-17.19,.05-33.22,4.39-48.07,13l-19.28,14.89c-11.8,11.88-19.97,25.89-24.5,42.03h0Z"/>
    <path class="cls-2" d="M2451.58,1512.97v122.97c-.49,13.11,2.24,25.35,8.2,36.7,3.84,11.81,10.41,22.03,19.69,30.65,8.63,9.29,18.85,15.85,30.65,19.69,11.35,5.96,23.58,8.7,36.7,8.2l25.32-3.4c16.14-4.53,30.15-12.69,42.03-24.5,17.11-18.64,27.9-41.54,27.9-67.35v-122.97c.49-13.11-2.24-25.35-8.2-36.7-3.84-11.81-10.41-22.03-19.69-30.65-8.63-9.29-18.85-15.85-30.65-19.69-11.35-5.96-23.58-8.7-36.7-8.2l-25.32,3.4c-16.14,4.53-30.15,12.69-42.03,24.5-17.11,18.64-27.9,41.54-27.9,67.35h0Z"/>
    <path class="cls-2" d="M2528.15,1513.03c-2.76,32.35-2.08,64.86,2.01,97.07-.49,13.11,2.24,25.35,8.2,36.7,3.84,11.81,10.41,22.03,19.69,30.65,8.63,9.29,18.85,15.85,30.65,19.69,11.35,5.96,23.58,8.7,36.7,8.2l25.32-3.4c16.14-4.53,30.15-12.69,42.03-24.5l14.89-19.28c8.62-14.86,12.95-30.88,13-48.07-4.09-32.21-4.77-64.72-2.01-97.07,.49-13.11-2.24-25.35-8.2-36.7-3.84-11.81-10.41-22.03-19.69-30.65-8.63-9.29-18.85-15.85-30.65-19.69-11.35-5.96-23.58-8.7-36.7-8.2l-25.32,3.4c-16.14,4.53-30.15,12.69-42.03,24.5l-14.89,19.28c-8.62,14.86-12.95,30.88-13,48.07h0Z"/>
    <path class="cls-2" d="M2660.08,1620.54c12.86,6.78,25.05,14.66,36.6,23.48l-19.28-14.89c22.19,17.16,41.55,37.53,58.69,59.69-4.96-6.43-9.93-12.85-14.89-19.28,63.75,83.1,92.48,185.24,143.28,275.65,18.46,32.86,40.48,63.53,64.86,92.27,6.43,4.96,12.85,9.93,19.28,14.89,7.58,3.2,15.17,6.4,22.75,9.6,8.44,1.13,16.88,2.27,25.32,3.4,13.11,.49,25.35-2.24,36.7-8.2,8.07-2.26,15.07-6.35,21.02-12.25,7.16-4.23,12.85-9.93,17.09-17.09,5.9-5.94,9.99-12.95,12.25-21.02,5.96-11.35,8.7-23.58,8.2-36.7,.71-12.46-1.94-25.91-3.93-37.69-.78-4.63-2.08-9.04-3.81-13.4-4.34-10.93-8.38-23.05-15.16-32.95-5.55-8.13-11.77-16.16-18.16-23.61-1.69-1.97-3.47-3.81-5.38-5.57-8.63-9.29-18.85-15.85-30.65-19.69-11.35-5.96-23.58-8.7-36.7-8.2-13.11-.49-25.35,2.24-36.7,8.2-11.81,3.84-22.03,10.41-30.65,19.69-16.66,18.15-29.03,41.98-27.9,67.35l3.4,25.32c4.53,16.14,12.69,30.15,24.5,42.03,2.29,2.12,4.39,4.36,6.36,6.78-4.96-6.43-9.93-12.85-14.89-19.28,3.18,4.14,5.76,8.54,7.85,13.33-3.2-7.58-6.4-15.17-9.6-22.75,1.96,4.84,3.29,9.77,4.03,14.93-1.13-8.44-2.27-16.88-3.4-25.32,.41,3.63,.52,7.19,.31,10.83,54.2-22.45,108.4-44.9,162.6-67.35-4.05-4.78-7.99-9.65-11.83-14.6,4.96,6.43,9.93,12.85,14.89,19.28-42.56-55.51-69.64-120.48-97.93-183.9-13.5-30.26-27.41-60.36-43.68-89.25-19.46-34.55-42.59-67.17-68.55-97.15-11.68-13.49-24.37-26.12-38.18-37.42-19.7-16.13-39.97-31.75-62.54-43.66-10.93-6.96-22.74-10.73-35.41-11.3-12.66-2.84-25.32-2.27-37.98,1.7-12.4,2.95-23.19,8.63-32.39,17.05-10.37,6.72-18.55,15.62-24.53,26.72-11.68,22.11-17.53,48.89-9.6,73.4,7.46,23.04,21.74,45.3,43.77,56.92h0Z"/>
    <path class="cls-2" d="M2937.57,1771.41c-38.31-47.98-85.87-88.46-137.07-122.14-22.74-14.96-46.65-28.13-71.44-39.36-31.28-14.16-63.21-27.13-96.31-36.4-36.83-10.32-74.91-16.06-112.93-19.7l-25.32,3.4c-12.4,2.95-23.19,8.63-32.39,17.05-7.16,4.23-12.85,9.93-17.09,17.09-8.42,9.2-14.1,20-17.05,32.39-3.81,16.75-3.81,33.9,0,50.64,2.95,12.4,8.63,23.19,17.05,32.39,6.72,10.37,15.62,18.55,26.72,24.53,79.98,42.39,159.4,85.85,238.21,130.4,22.35,12.63,44.65,25.35,66.9,38.15,29.58,17.02,66.59,17.3,96.15,0,14.31-8.47,25.7-19.86,34.17-34.17,8.62-14.86,12.95-30.88,13-48.07,.09-1.39,.04-2.57-.02-3.98-.24-5.63-2.19-20.95-3.6-26.28-2.35-8.87-6.82-19.36-11.26-27.38-4.81-8.68-11.92-16.94-18.36-24.39-1.86-2.15-3.85-4.14-5.97-6.03-14.14-12.63-29.66-24.05-44.65-35.56-18.37-14.11-37.38-27.34-57.06-39.57-45.84-28.49-94.81-50.93-144.9-70.84-100.19-39.82-207.33-59.08-314.43-68.01-59.24-4.94-118.74-5.78-178.14-3.98-17.19,.05-33.22,4.39-48.07,13-11.1,5.99-20.01,14.16-26.72,24.53-8.42,9.2-14.1,20-17.05,32.39-4.54,16.88-4.54,33.76,0,50.64,5.27,28.89,21.58,53.1,39.89,75.16,13.61,16.39,31.79,29.58,49.75,40.74s39.57,19.79,59.83,27.97c16.56,6.68,33.43,12.65,50.42,18.15,77.87,25.22,160.05,39.05,241.72,43.3,41.63,2.17,83.37,1.19,124.85-2.79,17.19-.05,33.22-4.39,48.07-13,11.1-5.99,20.01-14.16,26.72-24.53,8.42-9.2,14.1-20,17.05-32.39,4.54-16.88,4.54-33.76,0-50.64-4.84-11.99-9.32-24.58-15.98-35.77s-15.25-21.47-23.18-31.04c-11.88-14.34-27.15-25.29-41.93-36.41-19.6-14.74-41.62-25.97-63.72-36.42-56.43-26.68-115.2-47.65-174.8-65.99-108.45-33.38-219.09-59.62-330.97-78.5-60.53-10.21-123.41-14.87-181.08-37.26-16.88,61.23-33.76,122.46-50.64,183.7,52.64,9.36,105.27,18.72,157.91,28.07,25.19,4.48,50.34,9.52,75.64,13.35,12.17,1.84,25.63,4.2,38.31,4.68s25.53-1.9,37.09-3.87c23.6-4.02,46.9-17.81,63.5-34.75s28.97-43.38,27.9-67.35c-1.14-25.56-9.92-48.62-27.9-67.35-8.69-9.06-19.27-16.85-29.75-23.65s-23.92-11.53-35.93-16.26c-10.41-4.09-21.43-6.3-32.4-8.32-26.92-4.95-53.95-9.3-81.05-13.12-59.8-8.44-119.89-15.87-180.22-19.11-103.43-5.56-211.55,4.57-303.86,55.04-10.59,5.79-20.8,12.27-30.51,19.43-15.62,11.52-33.04,23.39-45.8,38.41-8.72,10.26-18.12,21.2-23.66,33.7-5.12,11.56-10.45,23.09-13.61,35.36-2.56,9.92-4.22,20.09-8.11,29.62,3.2-7.58,6.4-15.17,9.6-22.75-1.3,2.93-2.78,5.66-4.65,8.27l14.89-19.28c-1.63,2.06-3.37,3.82-5.42,5.46l19.28-14.89c-1.8,1.26-3.62,2.28-5.62,3.18-11.1,5.99-20.01,14.16-26.72,24.53-8.42,9.2-14.1,20-17.05,32.39-3.97,12.66-4.54,25.32-1.7,37.98,.57,12.68,4.34,24.48,11.3,35.41,13.11,20.34,32.64,38.24,56.92,43.77l25.32,3.4c17.19-.05,33.22-4.39,48.07-13,19.06-8.58,33.75-26.01,45.21-42.81,1.5-2.2,2.82-4.39,3.99-6.78,4.64-9.51,8.98-19.62,12.29-29.72,3.96-12.1,5.4-24.86,10.09-36.75l-9.6,22.75c1.95-4.57,4.39-8.67,7.36-12.66l-14.89,19.28c6.56-8.21,14.55-14.93,22.79-21.39l-19.28,14.89c19.15-14.75,40.11-26.71,62.34-36.17l-22.75,9.6c31.1-12.98,63.92-20.89,97.26-25.47-8.44,1.13-16.88,2.27-25.32,3.4,90.03-11.96,182.58-1.94,272.07,9.98l-25.32-3.4c23.57,3.17,47.09,6.72,70.53,10.7,20.25,3.44,41.47,5.95,60.54,13.97-7.58-3.2-15.17-6.4-22.75-9.6,5.16,2.33,9.96,5.06,14.49,8.47l-19.28-14.89c2.2,1.8,4.24,3.68,6.21,5.72v-134.7c-1.35,1.38-2.69,2.59-4.21,3.78,6.43-4.96,12.85-9.93,19.28-14.89-2.05,1.42-4.13,2.58-6.4,3.62,7.58-3.2,15.17-6.4,22.75-9.6-3.54,1.39-7.09,2.28-10.86,2.85l25.32-3.4c-7.96,.92-15.85,.39-23.77-.67,8.44,1.13,16.88,2.27,25.32,3.4-38.72-5.67-77.23-13.6-115.76-20.45s-79.18-14.08-118.77-21.12c-12.66-3.97-25.32-4.54-37.98-1.7-12.68,.57-24.48,4.34-35.41,11.3-19.76,11.56-38.6,34.22-43.77,56.92-5.55,24.38-4.35,51.75,9.6,73.4l14.89,19.28c11.88,11.8,25.89,19.97,42.03,24.5,38.91,15.1,80.18,21.71,121.26,27.85,42.86,6.41,85.58,13.52,128.1,21.87,84.7,16.64,168.58,37.51,251.2,62.52,45.69,13.83,91.14,28.68,135.17,47.22l-22.75-9.6c31.78,13.5,64.39,28.19,92.09,49.1l-19.28-14.89c8.84,6.84,16.95,14.39,23.94,23.12l-14.89-19.28c5.07,6.59,9.29,13.59,12.6,21.23l-9.6-22.75,.78,1.94c30.62-40.19,61.23-80.38,91.85-120.57-64.4,6.19-129.29,4.92-193.42-3.58,8.44,1.13,16.88,2.27,25.32,3.4-69.45-9.42-138.94-26.68-203.64-53.91l22.75,9.6c-15.7-6.73-30.9-14.62-44.51-25.01l19.28,14.89c-6.95-5.46-13.29-11.48-18.79-18.42l14.89,19.28c-4.09-5.4-7.49-11.1-10.15-17.34l9.6,22.75c-1.85-4.67-3.2-9.4-4.1-14.35-30.62,40.19-61.23,80.38-91.85,120.57,79.77-2.42,159.73,.05,238.9,10.55l-25.32-3.4c83.94,11.33,166.57,31.87,244.74,64.76l-22.75-9.6c57.91,24.56,112.92,55.68,162.81,94.09-6.43-4.96-12.85-9.93-19.28-14.89,11.11,8.61,23.91,17.21,32.63,28.35-4.96-6.43-9.93-12.85-14.89-19.28,1.19,1.74,2.13,3.36,3,5.27l-9.6-22.75c.49,1.22,.84,2.48,1.03,3.78-1.13-8.44-2.27-16.88-3.4-25.32,.19,1.32,.2,2.65,.02,3.98,47.77-27.42,95.55-54.83,143.32-82.25-78.47-45.14-157.53-89.23-237.19-132.23-22.59-12.19-45.23-24.3-67.91-36.32-16.02,59.17-32.05,118.33-48.07,177.5,6.5,.62,12.99,1.36,19.47,2.22-8.44-1.13-16.88-2.27-25.32-3.4,44.64,6.1,88.2,18.18,129.73,35.64-7.58-3.2-15.17-6.4-22.75-9.6,41.46,17.64,80.5,40.47,116.16,68.01l-19.28-14.89c31.52,24.55,60.11,52.6,85.04,83.83,8.63,9.29,18.85,15.85,30.65,19.69,11.35,5.96,23.58,8.7,36.7,8.2,23.36,0,51.27-10.38,67.35-27.9,16.66-18.15,29.03-41.98,27.9-67.35l-3.4-25.32c-4.53-16.14-12.69-30.15-24.5-42.03h0Z"/>
    <path class="cls-2" d="M1090.34,1546.13c-12.62,.13-25.16-.96-37.66-2.6l25.32,3.4c-21.13-2.86-42.13-6.59-63.27-9.43-20.37-2.74-40.68-5.41-61.28-3.84-15.2,1.16-30.44,3.24-45.42,6.07-6.89,1.3-13.71,3-20.42,5.04-21,6.4-41.61,15.2-60.94,25.58-19.49,10.47-36.79,24.13-54.06,37.88-11.31,9.01-21.82,19.03-31.36,29.9-25.37,28.89-47.39,60.78-62.7,96.11-9.97,23-19.52,45.92-26.33,70.05-4.86,17.23-8.55,34.76-11.33,52.44l-3.4,25.32c-.49,13.11,2.24,25.35,8.2,36.7,2.26,8.07,6.35,15.07,12.25,21.02,6.72,10.37,15.62,18.55,26.72,24.53,20.02,12.05,43.8,18.08,67.08,18.27,12.16,.1,24.4-2.12,36.29-4.53,3.96-.8,7.84-1.99,11.62-3.44,15.16-5.81,29.42-11.96,43.3-20.08,7.51-4.39,14.97-8.85,22.95-12.35-7.58,3.2-15.17,6.4-22.75,9.6,5.4-2.25,10.93-4.06,16.74-4.87-8.44,1.13-16.88,2.27-25.32,3.4,3.42-.36,6.78-.35,10.19,.02-8.44-1.13-16.88-2.27-25.32-3.4,3.83,.52,7.51,1.46,11.11,2.87-7.58-3.2-15.17-6.4-22.75-9.6,3.06,1.32,5.88,2.91,8.53,4.93-6.43-4.96-12.85-9.93-19.28-14.89,1.86,1.53,3.5,3.18,4.99,5.08-4.96-6.43-9.93-12.85-14.89-19.28,1.16,1.62,2.11,3.27,2.92,5.09l-9.6-22.75c4.13,10.73,2.23,13.34,11.15,28.59l14.89,19.28c6.43,4.96,12.85,9.93,19.28,14.89,5.81,3.75,17.75,7.62,26.23,10.99,6.66,2.65,13.35,5.25,20.06,7.78,12.83,4.85,25.74,9.49,38.73,13.91,26.27,8.94,52.83,17.01,79.64,24.18,60.82,16.27,122.46,26.9,184.83,35.13,30.91,4.08,61.97,6.97,93.1,8.73,13.11,.49,25.35-2.24,36.7-8.2,11.81-3.84,22.03-10.41,30.65-19.69l14.89-19.28c6.96-10.93,10.73-22.74,11.3-35.41,2.27-8.44,2.27-16.88,0-25.32-.57-12.68-4.34-24.48-11.3-35.41-13.4-20.78-32.53-37.27-56.92-43.77-72.97-19.44-146.86-35.37-221.37-47.64-21.2-3.49-42.44-6.67-63.72-9.58-12.66-3.97-25.32-4.54-37.98-1.7-12.68,.57-24.48,4.34-35.41,11.3-11.1,5.99-20.01,14.16-26.72,24.53-8.42,9.2-14.1,20-17.05,32.39-1.13,8.44-2.27,16.88-3.4,25.32,.05,17.19,4.39,33.22,13,48.07l14.89,19.28c11.88,11.8,25.89,19.97,42.03,24.5,74.82,10.22,149.13,24.03,222.6,41.47,20.9,4.96,41.73,10.22,62.49,15.75,8.44-62.37,16.88-124.73,25.32-187.1-32.38-1.83-64.67-4.91-96.81-9.23,8.44,1.13,16.88,2.27,25.32,3.4-79.41-10.78-157.76-29.09-233.67-54.81-21.56-7.3-42.9-15.22-64.03-23.68l66.53,66.53c-.95-6.11-3.96-11.54-6.35-17.21s-4.22-11.37-7.72-16.47c-4.84-7.06-10.66-14.73-16.39-21.1-.67-.74-1.39-1.42-2.11-2.09-6.09-5.66-13.94-11.14-20.65-16.06-.99-.73-1.95-1.45-2.99-2.1-19.85-12.4-48.4-20.02-71.76-18.97-28.37,1.27-51.97,9.17-76.99,22.51-10.8,5.75-20.93,12.74-32.21,17.55,7.58-3.2,15.17-6.4,22.75-9.6-6.01,2.44-12.15,4.24-18.59,5.11,8.44-1.13,16.88-2.27,25.32-3.4-3.65,.38-7.21,.44-10.87,.09,8.44,1.13,16.88,2.27,25.32,3.4-3.6-.49-6.93-1.37-10.28-2.77,7.58,3.2,15.17,6.4,22.75,9.6-1.42-.68-2.76-1.4-4.11-2.21,14.59,35.86,29.18,71.71,43.77,107.57,5.21-33.11,13.76-65.67,26.72-96.61-3.2,7.58-6.4,15.17-9.6,22.75,10.17-23.94,22.95-46.65,38.77-67.32l-14.89,19.28c13.04-16.82,28.01-31.92,44.84-44.96l-19.28,14.89c15.44-11.8,32.17-21.73,50.06-29.34-7.58,3.2-15.17,6.4-22.75,9.6,15.88-6.62,32.42-11.32,49.46-13.73l-25.32,3.4c19.87-2.64,39.67-1.63,59.49,.98-8.44-1.13-16.88-2.27-25.32-3.4,37.69,5.12,75.4,14.12,113.59,13.73,13.11,.49,25.35-2.24,36.7-8.2,11.81-3.84,22.03-10.41,30.65-19.69,9.29-8.63,15.85-18.85,19.69-30.65,5.96-11.35,8.7-23.58,8.2-36.7-1.13-8.44-2.27-16.88-3.4-25.32-4.53-16.14-12.69-30.15-24.5-42.03-18.53-17.01-41.64-28.16-67.35-27.9h0Z"/>
    <path class="cls-2" d="M778.68,2002.32c31.39-6.4,62.99-11.74,94.74-16.04-8.44,1.13-16.88,2.27-25.32,3.4,99.63-13.36,200.6-16.34,300.84-8.8,28.19,2.12,56.31,5.08,84.33,8.83-8.44-1.13-16.88-2.27-25.32-3.4,62.89,8.5,125.17,21.1,186.39,37.81,12.66,3.97,25.32,4.54,37.98,1.7,12.68-.57,24.48-4.34,35.41-11.3,11.1-5.99,20.01-14.16,26.72-24.53,8.42-9.2,14.1-20,17.05-32.39l3.4-25.32c-.05-17.19-4.39-33.22-13-48.07-13.44-20.85-32.52-37.11-56.92-43.77-92.39-25.21-187.49-40.95-282.89-48.99-87.63-7.38-175.94-6.79-263.45,1.86-57.18,5.65-114.28,13.87-170.59,25.34-12.4,2.95-23.19,8.63-32.39,17.05-10.37,6.72-18.55,15.62-24.53,26.72-6.96,10.93-10.73,22.74-11.3,35.41-2.84,12.66-2.27,25.32,1.7,37.98,7.46,23.05,21.74,45.28,43.77,56.92,7.58,3.2,15.17,6.4,22.75,9.6,16.88,4.54,33.76,4.54,50.64,0h0Z"/>
    <path class="cls-2" d="M754.97,2006.57c48.63-30.85,97.56-61.77,150.75-84.28-7.58,3.2-15.17,6.4-22.75,9.6,32.65-13.67,66.69-23.99,101.82-28.79-8.44,1.13-16.88,2.27-25.32,3.4,18.41-2.4,36.94-3.25,55.49-2.24,13.11,.49,25.35-2.24,36.7-8.2,11.81-3.84,22.03-10.41,30.65-19.69,9.29-8.63,15.85-18.85,19.69-30.65,5.96-11.35,8.7-23.58,8.2-36.7-1.13-8.44-2.27-16.88-3.4-25.32-4.53-16.14-12.69-30.15-24.5-42.03l-19.28-14.89c-14.86-8.62-30.88-12.95-48.07-13-29.92-1.64-59.55,2.14-89.07,6.85-21.45,3.42-42.54,8.93-63.09,15.95-48.87,16.69-95.59,39.63-139.99,65.87-21.6,12.77-42.79,26.2-63.98,39.64-20.7,13.13-37.18,32.98-43.77,56.92-3.97,12.66-4.54,25.32-1.7,37.98,.57,12.68,4.34,24.48,11.3,35.41,13.11,20.34,32.64,38.24,56.92,43.77,8.44,1.13,16.88,2.27,25.32,3.4,17.19-.05,33.22-4.39,48.07-13h0Z"/>
    <path class="cls-2" d="M723.09,1974.12c41.17-8.27,82.59-15.21,124.21-20.81-8.44,1.13-16.88,2.27-25.32,3.4,33.82-4.52,67.74-8.15,101.75-10.9,13.11,.49,25.35-2.24,36.7-8.2,11.81-3.84,22.03-10.41,30.65-19.69,9.29-8.63,15.85-18.85,19.69-30.65,5.96-11.35,8.7-23.58,8.2-36.7l-3.4-25.32c-4.53-16.14-12.69-30.15-24.5-42.03-17.76-16.3-42.39-29.92-67.35-27.9-84.27,6.81-168.38,18.46-251.27,35.12-12.4,2.95-23.19,8.63-32.39,17.05-10.37,6.72-18.55,15.62-24.53,26.72-6.96,10.93-10.73,22.74-11.3,35.41-2.84,12.66-2.27,25.32,1.7,37.98,7.46,23.05,21.74,45.28,43.77,56.92,7.58,3.2,15.17,6.4,22.75,9.6,16.88,4.54,33.76,4.54,50.64,0h0Z"/>
    <path class="cls-2" d="M713.63,1922.02h83.25c13.11,.49,25.35-2.24,36.7-8.2,11.81-3.84,22.03-10.41,30.65-19.69,9.29-8.63,15.85-18.85,19.69-30.65,5.96-11.35,8.7-23.58,8.2-36.7l-3.4-25.32c-4.53-16.14-12.69-30.15-24.5-42.03-18.64-17.11-41.54-27.9-67.35-27.9h-83.25c-13.11-.49-25.35,2.24-36.7,8.2-11.81,3.84-22.03,10.41-30.65,19.69-9.29,8.63-15.85,18.85-19.69,30.65-5.96,11.35-8.7,23.58-8.2,36.7,1.13,8.44,2.27,16.88,3.4,25.32,4.53,16.14,12.69,30.15,24.5,42.03,18.64,17.11,41.54,27.9,67.35,27.9h0Z"/>
    <path class="cls-2" d="M753.27,1882.38h138.74c13.11,.49,25.35-2.24,36.7-8.2,11.81-3.84,22.03-10.41,30.65-19.69,9.29-8.63,15.85-18.85,19.69-30.65,5.96-11.35,8.7-23.58,8.2-36.7-1.13-8.44-2.27-16.88-3.4-25.32-4.53-16.14-12.69-30.15-24.5-42.03-18.64-17.11-41.54-27.9-67.35-27.9h-138.74c-13.11-.49-25.35,2.24-36.7,8.2-11.81,3.84-22.03,10.41-30.65,19.69-9.29,8.63-15.85,18.85-19.69,30.65-5.96,11.35-8.7,23.58-8.2,36.7,1.13,8.44,2.27,16.88,3.4,25.32,4.53,16.14,12.69,30.15,24.5,42.03,18.64,17.11,41.54,27.9,67.35,27.9h0Z"/>
    <path class="cls-2" d="M753.27,1842.34c78.15,1.53,156.33,1.5,234.48-.1,22.28-.46,44.56-1.05,66.83-1.76,24.91-.79,49.53-10.08,67.35-27.9,9.29-8.63,15.85-18.85,19.69-30.65,5.96-11.35,8.7-23.58,8.2-36.7-1.13-8.44-2.27-16.88-3.4-25.32-4.53-16.14-12.69-30.15-24.5-42.03-18.29-16.79-41.85-28.71-67.35-27.9-78.13,2.49-156.3,3.44-234.47,2.79-22.29-.18-44.57-.5-66.85-.93-13.11-.49-25.35,2.24-36.7,8.2-11.81,3.84-22.03,10.41-30.65,19.69-9.29,8.63-15.85,18.85-19.69,30.65-5.96,11.35-8.7,23.58-8.2,36.7,1.13,8.44,2.27,16.88,3.4,25.32,4.53,16.14,12.69,30.15,24.5,42.03,6.43,4.96,12.85,9.93,19.28,14.89,14.86,8.62,30.88,12.95,48.07,13h0Z"/>
    <path class="cls-2" d="M804.83,1988.84c82.27,4.76,164.5,10.33,246.66,16.73,23.43,1.82,46.85,3.72,70.27,5.67,13.11,.49,25.35-2.24,36.7-8.2,11.81-3.84,22.03-10.41,30.65-19.69,9.29-8.63,15.85-18.85,19.69-30.65,5.96-11.35,8.7-23.58,8.2-36.7l-3.4-25.32c-4.53-16.14-12.69-30.15-24.5-42.03-6.43-4.96-12.85-9.93-19.28-14.89-14.86-8.62-30.88-12.95-48.07-13-82.12-6.86-164.32-12.91-246.56-18.13-23.45-1.49-46.91-2.91-70.37-4.27-13.11-.49-25.35,2.24-36.7,8.2-11.81,3.84-22.03,10.41-30.65,19.69-9.29,8.63-15.85,18.85-19.69,30.65-5.96,11.35-8.7,23.58-8.2,36.7,1.13,8.44,2.27,16.88,3.4,25.32,4.53,16.14,12.69,30.15,24.5,42.03,6.43,4.96,12.85,9.93,19.28,14.89,14.86,8.62,30.88,12.95,48.07,13h0Z"/>
    <path class="cls-2" d="M773.14,1991.92c77.95,2.66,155.74,9.18,233.04,19.55-8.44-1.13-16.88-2.27-25.32-3.4,25.33,3.42,50.6,7.24,75.81,11.46,12.66,3.97,25.32,4.54,37.98,1.7,12.68-.57,24.48-4.34,35.41-11.3,11.1-5.99,20.01-14.16,26.72-24.53,8.42-9.2,14.1-20,17.05-32.39,1.13-8.44,2.27-16.88,3.4-25.32-.05-17.19-4.39-33.22-13-48.07l-14.89-19.28c-11.88-11.8-25.89-19.97-42.03-24.5-87.85-14.73-176.53-25.47-265.44-31.09-22.89-1.45-45.8-2.55-68.73-3.33-13.11-.49-25.35,2.24-36.7,8.2-11.81,3.84-22.03,10.41-30.65,19.69-9.29,8.63-15.85,18.85-19.69,30.65-5.96,11.35-8.7,23.58-8.2,36.7,1.13,8.44,2.27,16.88,3.4,25.32,4.53,16.14,12.69,30.15,24.5,42.03,6.43,4.96,12.85,9.93,19.28,14.89,14.86,8.62,30.88,12.95,48.07,13h0Z"/>
    <path class="cls-2" d="M788.94,2013.2h364.7c13.11,.49,25.35-2.24,36.7-8.2,11.81-3.84,22.03-10.41,30.65-19.69,9.29-8.63,15.85-18.85,19.69-30.65,5.96-11.35,8.7-23.58,8.2-36.7-1.13-8.44-2.27-16.88-3.4-25.32-4.53-16.14-12.69-30.15-24.5-42.03-18.64-17.11-41.54-27.9-67.35-27.9h-364.7c-13.11-.49-25.35,2.24-36.7,8.2-11.81,3.84-22.03,10.41-30.65,19.69-9.29,8.63-15.85,18.85-19.69,30.65-5.96,11.35-8.7,23.58-8.2,36.7,1.13,8.44,2.27,16.88,3.4,25.32,4.53,16.14,12.69,30.15,24.5,42.03,18.64,17.11,41.54,27.9,67.35,27.9h0Z"/>
    <path class="cls-2" d="M973.84,1731.8c93.22,22.43,188.15,37.73,283.53,47.36,24.88,2.51,49.82,4.53,74.78,6.08,13.11,.49,25.35-2.24,36.7-8.2,11.81-3.84,22.03-10.41,30.65-19.69,9.29-8.63,15.85-18.85,19.69-30.65,5.96-11.35,8.7-23.58,8.2-36.7l-3.4-25.32c-4.53-16.14-12.69-30.15-24.5-42.03l-19.28-14.89c-14.86-8.62-30.88-12.95-48.07-13-46.04-2.86-91.96-7.36-137.68-13.48l25.32,3.4c-65.68-8.85-130.87-21.05-195.3-36.56-12.66-3.97-25.32-4.54-37.98-1.7-12.68,.57-24.48,4.34-35.41,11.3-11.1,5.99-20.01,14.16-26.72,24.53-8.42,9.2-14.1,20-17.05,32.39-1.13,8.44-2.27,16.88-3.4,25.32,.05,17.19,4.39,33.22,13,48.07,13.21,20.49,32.59,37.92,56.92,43.77h0Z"/>
  </g>
</svg>