<?xml version="1.0" encoding="utf-8"?>
<!-- Generator: Adobe Illustrator 27.0.0, SVG Export Plug-In . SVG Version: 6.00 Build 0)  -->
<svg version="1.1" id="Layer_1" xmlns="http://www.w3.org/2000/svg" xmlns:xlink="http://www.w3.org/1999/xlink" x="0px" y="0px"
	 viewBox="0 0 7000 2076" style="enable-background:new 0 0 7000 2076;" xml:space="preserve">
<style type="text/css">
	.st0{fill:#FFC550;}
	.st1{fill:#5E400B;}
</style>
<g id="Layer_2_00000072969800635088373520000005370866983035879862_">
</g>
<g id="Layer_3">
	<path class="st0" d="M3581.5,985.6c-0.1-2.5-0.1-4.9-0.4-7.4c-0.3-2.6-1.4-5.1-1.6-7.8c-0.6-12.3-2.2-24.6-3.7-36.9
		c-0.1-1.1-0.6-2.2-1.3-3.1c0.1-2.8,0-5.8-0.6-8.5c0.8-2.5,0-5.5-2.9-6.9c-0.7-0.3-1.3-0.5-1.9-0.5c-4-2.3-9.9-2.1-14-1.8
		c-0.9,0.1-1.6,0.3-2.3,0.7c-2.1-0.5-4.3-0.9-6.4-1.4c-6.8-1.5-13.6-2.9-20.4-4.4c-13.9-3-27.8-6.1-41.7-9.2
		c-27.8-6.2-55.6-12.4-83.3-18.6c-2.2-0.5-4,0.4-5.1,1.8c-4.1-0.5-7.7-2.9-11.8-3.7c-5.4-1.2-11-1.2-16.5-2.5
		c-10.5-2.4-20.4-6.4-30.3-10.5c-2.5-1-4.4,0.1-5.4,2c-30.7-8.7-61.4-17.5-92.2-26.2c-1.7-0.5-3.1-0.1-4.1,0.7
		c-0.4-0.1-0.8-0.2-1.3-0.2c-2.1-0.1-4.3-0.3-6.4-0.6c-1.7-1-3.5-2.2-4.2-2.5c-3.1-1.2-6.3-1.5-9.6-1.7c-0.8,0-1.5,0.1-2.2,0.4
		c-1.7-0.6-3.5-1.2-5.2-1.9c-1.5-0.6-2.7-0.5-3.7,0.1c-1.4-0.8-2.8-1.6-4.1-2.4c-5.5-3.5-10.5,5.2-5,8.6c0.2,0.1,0.5,0.3,0.7,0.4
		c5.2,49.3,10.5,98.6,15.7,147.9c-0.6,0.8-1,1.8-1,2.9c-0.1,1.7-0.2,3.4-0.3,5.2c-0.1,1.7-0.4,3.6,0,5.3c0.3,1.2,0.9,2.2,1.7,3
		c0.6,2,2.4,3.6,4.7,3.6h3.1c1,0,2-0.4,2.9-0.9c13.8,3.6,29.3,3,43.3,3.8c17.7,1,35.5,2.1,53.2,3.1c35.4,1.9,70.9,3,106.4,1.4
		c0.9,0,1.6-0.3,2.2-0.6c0.3,0,0.6,0.1,1,0.1c49.5-1.7,99-3.4,148.5-5.1c2-0.1,3.9-1.3,4.6-3.1c1.1-0.8,1.8-2.1,1.7-3.8
		C3582,998,3581.7,991.8,3581.5,985.6z M3273.1,888.9c-0.1-0.1-0.2-0.2-0.3-0.3c1.5,0.6,3.1,1.2,4.6,1.8
		C3276,890,3274.6,889.4,3273.1,888.9z M3482.9,976.7c1,0,2,0.1,3.1,0.1c0,0.1,0,0.2,0,0.3C3485,976.9,3483.9,976.8,3482.9,976.7z
		 M3550.4,968.6c0-0.7-0.1-1.4-0.2-2c0.4,0.8,0.8,1.7,1.1,2.6C3551,969,3550.7,968.8,3550.4,968.6z"/>
	<g>
		<g>
			<path class="st1" d="M3255.5,961.4l-10.9-61.9l6.9,1l5.1,30.5c1.4,8.3,2.6,15.7,3.2,22.8h0.1c1.9-6.8,4.6-14.1,7.4-21.6l10.4-28
				l6.4,0.9l-21.8,56.9L3255.5,961.4z"/>
			<path class="st1" d="M3312.4,945.1c-1.3,15-9.8,20.9-17.5,20.3c-8.8-0.7-14.9-9.5-13.8-22.8c1.2-14,9.1-21.3,18-20.2
				C3308.1,923.6,3313.5,932.8,3312.4,945.1z M3287.2,943c-0.8,9.1,2.8,16.3,8.5,16.8c5.5,0.5,10.2-5.8,11-15
				c0.6-6.9-1.3-15.9-8.2-16.7C3291.6,927.2,3287.8,935.1,3287.2,943z"/>
			<path class="st1" d="M3328.7,915.5l-0.9,11.4l7.7,1l-0.5,5.5l-7.7-0.9l-1.8,21.5c-0.4,4.9,0.4,7.8,3.4,8.1c1.4,0.1,2.5,0,3.2-0.2
				l-0.2,5.4c-1.1,0.5-2.8,0.8-4.9,0.6c-2.5-0.2-4.5-1.4-5.7-3.5c-1.4-2.3-1.7-5.9-1.3-10.6l1.8-21.9l-4.7-0.6l0.5-5.6l4.7,0.6
				l0.8-9.6L3328.7,915.5z"/>
			<path class="st1" d="M3342.3,949.8c-0.7,9.6,3.5,14,8.7,14.4c3.7,0.3,5.9-0.4,7.9-1.3l0.5,5.1c-1.9,1-5,2-9.5,1.7
				c-8.8-0.7-13.5-9.1-12.6-21c1-11.9,6.9-20.6,15.2-19.5c9.1,1.1,10.6,12.4,10.1,19.4c-0.1,1.4-0.3,2.5-0.4,3.2L3342.3,949.8z
				 M3357.8,946.3c0.4-4.4-0.4-11.5-6.2-12.2c-5.2-0.6-8.1,5.7-8.9,10.6L3357.8,946.3z"/>
			<path class="st1" d="M3369.2,944c0.4-4.5,0.6-8.3,0.7-11.9l4.3,0.5l-0.4,7.4h0.2c1.6-4.9,4.8-7.7,8-7.3c0.5,0.1,0.9,0.2,1.3,0.4
				l-0.5,6.4c-0.5-0.2-1-0.3-1.6-0.4c-3.4-0.4-6.1,3-7.2,8c-0.2,0.9-0.4,2-0.5,3.2l-1.6,20.1l-4.9-0.4L3369.2,944z"/>
			<path class="st1" d="M3400.6,921.4l18.5,2.6l-0.4,5.4l-14-1.9l-1.3,16.8l13,1.5l-0.4,5.3l-13-1.4l-1.8,23l-4.6-0.4L3400.6,921.4z
				"/>
			<path class="st1" d="M3423.5,957.9c-0.6,8.7,2.9,12.7,7.1,13c3,0.3,4.9-0.4,6.6-1.3l0.4,4.6c-1.6,0.9-4.2,1.9-7.9,1.6
				c-7.3-0.6-11.1-8.1-10.3-18.9c0.8-10.8,5.8-18.7,12.6-17.9c7.6,0.9,8.8,11.2,8.3,17.6c-0.1,1.3-0.3,2.3-0.4,2.9L3423.5,957.9z
				 M3436.3,954.5c0.4-4-0.3-10.5-5.1-11c-4.3-0.5-6.7,5.3-7.4,9.7L3436.3,954.5z"/>
			<path class="st1" d="M3443.8,969.7c1.1,1.3,3.2,2.8,5.2,3c2.9,0.2,4.5-1.9,4.7-4.7c0.2-3-0.8-4.7-3.6-6.7
				c-3.9-2.6-5.5-6.2-5.2-10.4c0.4-5.6,3.7-9.8,8.5-9.2c2.2,0.3,4.1,1.5,5.2,2.8l-1.3,4.4c-0.8-0.9-2.3-2.3-4.4-2.5
				c-2.4-0.3-3.9,1.7-4.1,4.3c-0.2,2.8,1,4.3,3.8,6.3c3.7,2.7,5.4,5.8,5,10.9c-0.5,6-3.8,10-9.1,9.6c-2.5-0.2-4.7-1.3-6.2-2.9
				L3443.8,969.7z"/>
			<path class="st1" d="M3470,934.8l-0.7,9.6l5.5,0.7l-0.3,4.6l-5.5-0.6l-1.4,18.1c-0.3,4.2,0.3,6.6,2.4,6.8c1,0.1,1.8-0.1,2.3-0.2
				l-0.2,4.6c-0.8,0.4-2,0.7-3.5,0.6c-1.8-0.1-3.2-1.2-4-2.9c-1-1.9-1.1-4.9-0.8-8.9l1.4-18.4l-3.3-0.4l0.4-4.7l3.3,0.4l0.6-8.1
				L3470,934.8z"/>
			<path class="st1" d="M3476.5,978.7l2.5-33.1l3.7,0.5l-2.5,33L3476.5,978.7z M3483.8,936.9c-0.1,2-1.2,3.6-2.6,3.4
				c-1.3-0.2-2.1-1.9-2-4c0.2-2.1,1.3-3.6,2.6-3.4C3483.2,933,3484,934.8,3483.8,936.9z"/>
			<path class="st1" d="M3490.3,947l2.5,18.7c0.4,3,0.8,5.7,1,8.5h0.1c0.7-2.6,1.4-5.3,2.3-8.1l5.2-17.7l3.7,0.5l-10.1,31.4
				l-3.4-0.3l-5.2-33.4L3490.3,947z"/>
			<path class="st1" d="M3516.3,981.8v-4h-0.1c-1.2,2.4-3.4,4.4-6.1,4.2c-3.9-0.3-5.5-5-5.2-9.6c0.6-7.7,5-11.5,12.2-10.6v-0.6
				c0.2-2.6,0.1-7.3-3.7-7.8c-1.8-0.2-3.7,0.5-5.1,1.8l-0.5-3.9c1.7-1.5,4.1-2.3,6.4-2.1c5.7,0.7,6.6,7.4,6.1,13.7l-0.9,11.7
				c-0.2,2.7-0.3,5.4-0.2,7.5L3516.3,981.8z M3516.9,965.8c-3.7-0.5-8,0.2-8.5,6.3c-0.3,3.7,1.1,5.6,2.8,5.8
				c2.5,0.2,4.2-2.3,4.9-4.9c0.2-0.6,0.3-1.2,0.3-1.8L3516.9,965.8z"/>
			<path class="st1" d="M3527.7,937l3.3,0.5l-3.3,45.3l-3.3-0.3L3527.7,937z"/>
		</g>
	</g>
</g>
<image style="overflow:visible;" width="1600" height="1253" xlink:href="../../../../../Layer 1.png"  transform="matrix(2.2058 0 0 2.2058 1766.3693 -364.2562)">
</image>
</svg>
