<?xml version="1.0" encoding="utf-8"?>
<!-- Generator: Adobe Illustrator 27.0.0, SVG Export Plug-In . SVG Version: 6.00 Build 0)  -->
<svg version="1.1" id="Layer_1" xmlns="http://www.w3.org/2000/svg" xmlns:xlink="http://www.w3.org/1999/xlink" x="0px" y="0px"
	 viewBox="0 0 7000 2076" style="enable-background:new 0 0 7000 2076;" xml:space="preserve">
<style type="text/css">
	.st0{fill:#C0EEF9;}
	.st1{fill:#82DCE8;}
	.st2{fill:#00273C;}
</style>
<g id="bg-2">
	<path class="st0" d="M5280,485.1H1763.6v1027.1h3520.7V528C5282.6,513.7,5281.2,499.4,5280,485.1L5280,485.1L5280,485.1z"/>
	<path class="st0" d="M6991.6,0H3.2v2076H7000V86.6C6996.6,57.8,6993.8,28.9,6991.6,0z"/>
</g>
<g id="cloud">
	<g>
		<path class="st1" d="M4923.8,1234.6c-2.3,1.8-4.9,2.3-7.8,2.2c-8.8-0.1-17.6-0.1-26.4-0.2c-5.3,0-10.6-0.1-15.9-0.2
			c-1.9,0-3.7,0.2-5.5,0.2c-2.1,0-4.1,0.1-6.2,0c-0.9,0-1.8-0.3-2.8-0.3c-15.7,0.7-31.4-0.2-47.2-0.1c-15.3,0.1-30.6,0.1-45.8,0.1
			c-2.1,0-4.2,0.2-6.2,0.2c-4.2,0-8.3-0.1-12.5-0.1c-3,0-6,0.2-9,0.3c-0.9,0-1.9,0.4-2.7,0.3c-11.1-1.5-22.2-0.6-33.3-0.7
			c-5.5-0.1-11.1,0.2-16.6,0.2c-42.6-0.1-85.2-0.3-127.9-0.4c-34.1-0.1-68.1,0-102.2,0h-148c-60.9,0-121.9,0-182.8,0
			c-19.7,0-39.4,0-59.1,0c-21.3,0-42.6-0.2-63.9-0.2c-39.1,0-78.3,0.2-117.5,0.2c-41.5,0-83-0.1-124.4-0.1c-32.9,0-65.8,0-98.7,0.1
			c-13.9,0-27.8,0.3-41.7,0.3c-16.2,0-32.4-0.3-48.6-0.3c-34.5,0-69.1,0.1-103.6,0.1c-35.9,0-71.8-0.2-107.7-0.2
			c-28.7,0-57.5,0.1-86.2,0.1c-19.7,0-39.4-0.1-59.1,0c-10.6,0.1-21.2,0.4-31.9,0.5c-6.7,0.1-13.4-0.2-20.1-0.3
			c-0.7,0-1.4-0.2-2.1-0.1c-3.9,0.6-7.8,0.3-11.7,0c-3.9-0.4-7.8-0.1-11.8-0.1c-6.9,0-13.9-0.1-20.8,0c-3.2,0-6.4,0.5-9.7,0.6
			c-4.1,0.1-8.3-0.1-12.5-0.1c-5.6-4.2-12-2.1-18-1.7c-14.5,1-29,2.5-43.5,3.8c-8.7,0.8-17.4,1.7-26.1,2.6c-1.1,0.1-2.1,0.6-3.4,0.2
			c0.9-0.4,1.8-1,2.8-1.3c12.4-3.7,24.9-7,37.7-9.2c10.5-1.7,20.8-4.5,31.2-6.6c9.1-1.8,18.2-3.2,27.7-4.9c3.4-3.5,2.8-9.4,6.2-13.5
			c1.5-0.6,3.3-1.1,4.9-2c1.6-0.9,2.4-2.4,2.4-4.5c0-4.2,1.6-7.8,4.2-10.8c2.7-3.1,5.4-6.1,8-9.2c1,0.2,1.9,0.3,3.1,0.5
			c1.4-2.5,2.8-5.1,4.4-8.1c2.6,0.7,5.1,1.4,7.9,2.2c0.7-1,1.5-2.1,2.2-3.2c1.3,0.2,2.8,0.8,3.9,0.4c2-0.7,2.8,1.4,4.4,1.3
			c1.3-0.1,2.7-0.2,4.4-0.4c0.1,1.1,0.1,2,0.1,3.3c0.9,0.4,2.1,1,3.2,1.5c1.2-0.7,2.1-1.3,3.4-2.1c0.7,1.6,1.4,3.1,2.2,4.9
			c4.6-0.3,8.7,0.8,12.6,3.3c3.1-0.8,6.1-2.7,9.4-1.3c4.4,2.1,3,7.5,6,10.7c4.6,0.1,8.8-2.1,13.2-3.3c4.2-1.1,8.5-2.1,13.1-3.2
			c-0.6-3.5-1.1-6.8-1.7-10.1c0.9-1.1,1.6-1.9,2.4-2.8c0.9-1.7-1.2-4.2,1.4-5.5c0.8-3.3,2.5-6.4,2-10.2c2.9-2.4,3.9-6.6,7.5-8.6
			c1-2.8,3.7-3.9,5.9-5.4c1.6-1.1,3.2-2.7,5.6-1.8c0.7,0.3,1.9-0.1,2.6-0.6c3.4-2.2,7.5-1.7,11.1-3c1-0.4,2.2-0.2,3.3-0.3
			c1.1-0.1,2.4,0.2,3.4-0.2c3.1-1.1,6.2-1.7,9.1-0.2c1.8-1.2,3.1-2.1,4.6-3.2c1.4,0.4,2.9,1.1,4.4,1.2c1.6,0,3.1-0.6,5.1-1.1
			c3.6,1.6,7.6,2.7,11.3-0.9c3.3,4.8,8.1,4.4,13,4.2c0.4-0.7,1.1-1.5,1.5-2.6c1.6-5,5.2-8.6,8.4-12.6c1.4-1.7,2.7-3.1,5.1-3.3
			c0.8-0.1,1.7-0.6,2.4-1.1c4.1-3.1,8.9-4.8,13.7-6.3c1.1-0.3,2.2-0.4,2.9-1.5c0.4-0.7,1.4-1.1,2.3-1.4c8.3-3.3,16.6-6.6,25.1-9.7
			c3.2-1.2,6.6-1.7,9.9-2.6c1.3-0.4,2.6-0.8,4-1.2c1.1-0.4,2.1-0.9,3.3-1.1c5.4-1.1,10.9-2,16.3-3c-0.8-3.3-0.9-3.6-3-5.1
			c-2.4-1.7-4.9-3.4-7.3-5.2c-3.2-2.3-4.8-6.1-8-8.4c-0.4-0.3-0.5-1.3-0.6-1.9c-0.3-1.9-1.9-1.7-3.4-2.3c-0.7-1.7-2.2-3.6-2.1-5.4
			c0.2-2.5-1.5-3.7-2.8-5.6c0.3-1.6,0.7-3.4,1.1-5.5c-0.5-0.7-1.2-1.5-2-2.6c0.4-1.3,0.8-2.8,1.4-4.7c-0.4-0.3-0.9-0.8-1.8-1.5
			c0.1-1,0.2-2.3,0.6-3.5c0.3-1.1,1.2-2,1.2-3c0-6.6,5-11,7.1-16.6c3.5-3.6,5-8.9,9.9-11.2c1.3-2.6,3.6-4.2,5.7-5.9s4.1-3.7,6.9-4.5
			c1.3-0.4,2.2-2.7,3.5-3c3.7-0.7,6.2-4.1,10-4.3c0.5,0,1,0,1.4-0.3c3.2-2.4,7.2-2.8,10.7-4.3c4.4-1.9,8.7-2.8,13.3-3
			c0.9,0,1.8-0.3,2.3-0.3c1.4-1.3,0.8-2.5,0.6-3.5c-2-8.3-3.6-16.7-4.1-25.3c-0.1-2.3-0.7-4.6-0.9-6.8c-0.3-4.4-0.1-8.8,1.1-13.1
			c0.8-2.9,0.8-6,1.6-8.9c2.1-8,5-15.8,9.6-22.8c0.8-1.2,1.6-2.3,2-3.6c2.2-6.6,6.6-11.8,11.3-16.4c9.6-9.4,19.9-18,32-24.2
			c7.6-3.9,15.4-7.2,23.6-9.9c14.7-4.7,29.7-7,44.9-7.9c7.1-0.4,14.2-0.6,21.4-1.1c4.8-0.4,9.7-1.1,14.5-1.2
			c10.9-0.3,21.7,1.2,32.4,3.5c1.4-1.2-0.1-2.5-0.1-3.7c0-1.4-0.2-2.8-0.5-4.1c-0.2-1.4-0.9-2.7-0.9-4.1c-0.2-7.6-1.7-15.1-2.3-22.7
			c-0.7-9-0.2-18,1.4-26.9c0.9-5,1-10.2,3.7-14.7c-0.4-4.6,3.2-8,3.4-12.4c4-5.9,6.1-12.9,10.6-18.5c3-3.8,5.7-7.9,8.2-12
			c3.2-5.2,7.7-9.3,12.2-13.1c4.8-4,9.3-8.3,14.6-11.7c2.5-1.6,4.9-3.3,7.6-4.8c3.7-2,7.2-4.1,10.9-6.1c7.3-4.1,15.1-6.8,23.3-8.6
			c6.5-1.4,13-2.9,19.7-3.3c2-0.1,4-1.9,5.9-1.7c3.2,0.5,5.9-0.6,7.8-1.4h8.4c2.3,0,4.6,0,6.9,0c0.7,0,1.4,0.4,2,0.3
			c6.8-1.1,13.3,0.7,19.8,2.2c7.6,1.8,15.4,3.2,22.9,5.4c11,3.3,22.1,6.5,31.8,13.2c3.8,2.6,8.2,4.5,11.5,7.6
			c5,4.7,10.6,8.9,14.4,14.8c3.1,4.9,5.5,10.1,8.1,15.3c2.8,5.6,4.4,11.6,6.3,17.5c1.7,5.2,3.8,10.3,6.9,15.1
			c1.7,2.7,2.7,5.8,3.7,8.9c2.9,8.3,5.3,16.7,6.6,25.4c0.7,4.7,0,9.2,0,13.8c-0.1,7.2-2,14.2-4.1,21c-0.4,1.3-1.3,2.4-1.9,3.5
			c0.9,2.6,3.3,3.4,5.2,4.6c3.3,2.2,6.6,4.2,10,6.2c2.3,1.3,4.1,3,5.4,5.3c3.2,5.5,5.7,11.4,7.7,18c10.5,2,20-3.3,30-5.6
			c3.8-3.7,7.6-7.4,11.4-11.1c5.3-5.1,11-9.8,17-14.2c11.1-8.2,22.8-15.7,35-22.1c7.8-4.1,16-7.3,24.2-10.5c6.6-2.6,13.7-4.2,20-7.7
			c4.5-2.5,8.7-5.4,12.3-8.9c4.9-4.7,10.6-8.2,16-12.1c4.9-3.5,10.1-6.6,15.2-9.7c6.5-4,13.1-7.8,19.7-11.6c0.6-0.3,1.2-0.6,1.9-0.8
			c9.6-3.4,18.6-8.1,28.1-11.7c1-0.4,2-1,3-1.5c-1.3-3.5-2.6-6.6-3.6-9.9c-0.9-3.1-1.5-6.3-2.3-9.5c-1.4-5.4-2-10.9-1.6-16.5
			c0.2-3,0.2-6,0.5-9c1.3-12.4,4.1-17.4,10.2-28.3c7-12.4,16.6-22.7,28.1-31.2c1.9-1.3,3.9-2.5,5.9-3.6c4-2.2,8.1-4.3,12.1-6.6
			c4.5-2.6,9.6-3,14.4-4.8c6.3-2.3,12.9-3.7,19.7-3.6c1.6,0,3.2-0.4,4.8-0.6c11.1-1.6,22.1-0.9,33.1,1.4c10.9,2.3,21.5,5.4,32,9.2
			c3.7,1.3,7.6,1.8,11.3,3c3,1,6.1,2.2,8.8,3.9c2.2,1.3,4.3,1.3,6.5,1.3c1.8,1.3,3.2,3.1,5.1,3.5c3.4,0.8,5.9,2.9,8.3,4.8
			c3.4,2.7,6.3,6.1,9.4,9.2c0.8,0.8,1.1,2,1.6,3c0.8,1.9,1.6,3.8,2.4,5.7c0.6,1.7,1.5,3.4,1.6,5.2c0.2,2.6,1,4.9,2.4,7.1
			c2.4,4,4.5,8.1,7.6,11.5c1.4,1.5,2.3,3.3,3.5,5c9.6-1.4,16.5-0.6,27.7,2.6c3.5,1,7.1,1.7,10.5,3.4c2.9,1.5,5.6,3.3,7.9,5.5
			c2.6,2.6,5.4,5.1,7.8,7.9c1.4,1.5,2.4,3.4,3.2,5.3c3.7,8.1,5.2,16.6,5.1,25.6c0,9.6-2.2,18.8-4.6,28c-2.7,10.1-7.2,19.4-12.3,28.5
			c-1.1,2-2.2,4-2.2,6.4c1.4,1.9,3.5,2.3,5.6,2.4c10.7,0.6,20.8,3.8,30.8,7.3c5,1.8,10.3,3.2,14.6,6c4.6,3.1,9.6,5.5,14,8.8
			c9.7,7.1,18.4,15.4,26,25c1.5,0.1,3.1,0.4,4.7,0.4c7.4-0.1,14.8,0.1,22.2-0.5c4.8-0.3,9.6,0.7,14.4,1.1c0.9,0.1,1.8,0.5,2.7,0.5
			c6.1-0.1,11.8,1.7,17.5,3.4c3.1,0.9,6.3,1.4,9.4,2.2c11.4,3,21.3,8.7,30.9,15.2c1.6,1.1,3.1,2.2,4.9,2.1c3.4-0.1,6.9,0.8,10.2-1.1
			c0.8-0.4,1.8-0.6,2.6-0.6c3.5,0,6.9-0.1,10.4,0.1c10,0.6,19.6,2.6,28.9,6.5c5,0.5,8.7,4,13.5,5.2c3,0.8,5.5,3.2,8,5.2
			c2.1,1.7,4,3.8,5.8,5.9c3.8,4.2,6.9,9,8.5,14.2c1.9,5.9,2.6,12.2,1.2,18.5c-1,4.4-3.3,8.2-5.7,11.8c-5.2,7.9-11.3,15.1-18.1,21.8
			c-10.1,9.9-21.5,18.2-32.3,27.1c-3.4,2.8-7.3,4.9-10.9,7.4c-0.9,0.6-1.6,1.5-2.5,2.4c1.8,2.2,4.7,1.6,6.8,3.8
			c1.4,1.7,3.3,4,5.5,6.5c0.6,3.1,1.3,6.5,2,9.6c2.6,4.8,8.6,6.1,10.4,11.7c-1.7,1.1-3.4,2.2-5.1,3.3c-3.2,6-6.5,12.1-9.4,17.4
			c-3.9,2.5-7.1,4.7-10.4,6.7c-2.1,1.3-4.4,2.5-6.5,3.9c-7.3,4.8-15.2,8.7-22.5,13.4c-1.5,1-3.2,1.9-4.8,2.7
			c-6.7,3.1-12.9,7.2-19.3,10.9c-7,4.1-14.1,7.9-21.1,11.9c-3,1.7-6.4,2.9-8.3,6.6c0.3,2.4,1.6,5.1,0.2,7.8c1.6,2.7-1.2,4.5-1.9,7.1
			c6.4-0.5,12.4-0.9,18.3-1.5c11.1-1,22.2-0.3,33.3,0.3c15.7,0.9,31.4,1.5,47.4-1.6c0.3,1.1,0.9,2.1,0.8,3.1c0,0.8-0.6,1.8-1.3,2.4
			c-4.2,3.6-7.7,7.9-12.1,11.4c-6.2,4.9-12.8,9.2-19.9,12.6c-1.2,0.6-2.3,1.5-3.8,2.5c2.8,0.9,5,1.7,7.5,2.6c-1,0.6-1.8,1.1-3,1.8
			c3.6,1.2,7,2.4,10.4,3.4c1.1,0.3,2.3,0.5,3.4,0.4c3.6-0.2,6.9,1,9.9,2.8c2.1,1.2,4.2,1.7,6.6,1.7c5.1,0,10.2,0.1,15.2,0
			c3.7-0.1,4.3,0.4,4.4,4.2c0,1.3,0.2,2.8,0.8,3.9c0.8,1.6,2,3.1,2.9,4.4c0.1,3.1-1.5,4.5-3.9,5.3c-2.8,1-5.6,1.9-8.9,3.1
			c0.7,1.7,1.3,3.1,1.8,4.4c9.6,0.3,18.8,0,28-0.3c4.1-0.2,8.3,0.2,12.4-0.8c6.9,1.2,13.8,0.7,20.7,0.8c3.9,0.1,7.8-1.5,11.7,0.1
			c5.2-1.6,10.6,1,15.8-0.5c1-0.3,2.3,0.1,3.4,0.2c0.9,0.1,1.9,0.5,2.7,0.4c6-1.1,12,0.7,18-0.1c6.5-0.8,12.9-0.4,19.4-0.6
			c3.7-0.2,7.4-0.4,11,0.6c1.1,0.3,2.4,0.6,3.4,0.2c4.8-1.7,9.6-0.6,14.5-0.9c1.6-0.1,3.3,0,4.8,0.3c2.8,0.6,5.4,1,8.2-0.2
			c0.8-0.3,1.9-0.4,2.7-0.2c5.5,0.9,11,0.1,16.4,0.3c-2.2,1.2-4.5,2.4-7.5,4c2.9,1.7,5.2,2.1,7.7,2.1c2.7,0,4.9,1.1,6.6,3.2
			c3.3,3.9,7.5,6,13.5,5.3c1,1.4,2.2,3.2,3.3,4.8c4-0.8,7.4-0.7,10.8,0.4c2,0.7,4,0.7,6.1,0c2-0.6,4-1,6.4,0.1
			c1.4,3.8,2.2,7.8,0.4,11.7c1.2,1.9,0.7,4.4,2.8,5.6v2.8L4923.8,1234.6L4923.8,1234.6z M4457.2,871.8c-1.3-0.9-2-1.6-2.7-1.9
			c-6.1-2.1-12.2-4.2-18.3-6.1c-0.7-0.2-1.6,0.4-2.5,0.7c-1.5,5.8,1.4,10.5,2.8,15.3C4441.5,879.5,4450.6,876.1,4457.2,871.8
			L4457.2,871.8L4457.2,871.8z M4351.1,702.5c-1.1,3.2-1.9,6-3,8.7c-1.2,2.8-2.6,5.6-4,8.4c5.7-2.5,10.5-6.2,15.8-10.1
			C4357.3,706.9,4355.5,704,4351.1,702.5L4351.1,702.5L4351.1,702.5z M3624.1,1197.8c-2.3-0.2-3.6,0.6-4.2,2.8
			c1.7,0.8,3.2,0.9,5-0.4C3624.6,1199.4,3624.4,1198.7,3624.1,1197.8L3624.1,1197.8L3624.1,1197.8z M3412.9,1112.5
			c1.4,0.8,1.9,0.2,2.5-1.5C3414.3,1111.7,3413.7,1112.1,3412.9,1112.5z M3422.4,1111.4c-0.2-0.2-0.3-0.5-0.4-0.5
			c-0.8,0.1-1.6,0.3-2.3,0.5c0,0,0,0.4,0,0.5c0.8,0.2,1.5,0.4,2.3,0.4C3422,1112.2,3422.2,1111.7,3422.4,1111.4L3422.4,1111.4z"/>
		<path class="st1" d="M2901.8,485.1c1.4,1.5,2.6,3.1,4.2,4.5c4.3,3.8,8.8,7.5,13,11.4c3.9,3.6,7.3,7.7,11.2,11.3
			c7.9,7.5,14.9,15.8,21.7,24.2c2,2.5,3.9,5.1,5.6,7.8c5.7,8.7,11,17.6,16.9,26.2c3.2,4.6,5,9.8,7.7,14.6
			c3.9,6.8,7.6,13.7,10.9,20.8c1.1,2.5,2.1,5.1,3,7.7c1.6,4.6,3.1,9.2,4.7,13.8c2.1,5.9,3.8,11.8,4.4,17.8c4.2,2.7,8.6,2.9,13.1,4.1
			c1.5-1.5,3-2.9,4.3-4.5c2.6-3,4.9-6.1,7.7-8.9c2.4-2.5,5.1-4.6,7.8-6.9c5.5-4.6,11.4-8.5,17.6-12.2c7.2-4.3,15.3-6.5,22.6-10.4
			c2.4-1.3,5.3-1.7,7.9-2.5c11.4-3.4,23.1-4.9,34.8-5.9c3.6-0.3,7.4,0.2,11,0.8c6.6,1.1,13.3,1.9,19.4,4.6c4.8,2.2,9.4,4.9,14,7.5
			c5.2,2.9,9.3,7.4,13.9,11.1c4.5,3.6,8.9,7.3,13,11.4c6.6,6.6,10.4,14.6,11.1,24c0.1,1.8,0.2,3.7,0.3,5.8
			c11.3,4.2,23,7.6,32.2,16.5c9,8.6,16.2,18.2,20.6,29.8c0.5,0.3,0.9,0.7,1.3,0.7c5.3-0.1,10.6,0.1,15.8,1.3
			c6.3-1,12.3,0.3,18.5,1.2c4.3,0.7,8.8,0.2,12.9,2.1c0.2,0.1,0.5,0.1,0.7,0.1c8.3-1.2,15.9,2.1,23.9,3.5c1.8,0.3,3.6,0.4,5.6,0.7
			c0.4,1.7,0.8,3.2,1.2,4.5c0.6,0.3,1,0.7,1.4,0.6c1.6-0.1,3.2-0.1,4.8-0.5c1.9-0.5,3.6-0.2,5.8,0.8c4.9,6.1,10.1,12.5,15.4,18.9
			c6.3,7.5,13.8,13.5,23.4,16.3c3.1,0.9,6.1,2.1,8.8,3.9c1.1,0.8,2.5,1.2,3.8,1.6c2.4,0.7,4.9,1.1,6.8,3.1c0.9,0.9,2.6,0.9,3.8,1.5
			c1.2,0.5,2.5,1.1,3.7,1.8c1.4,0.7,2.8,2,4.3,2.2c5.2,0.6,9.4,3.6,14,5.8c1.9,0.9,3.6,2,5.8,2.1c1.1,0,2.2,0.5,3.3,1
			c1.4,0.7,2.7,1.6,4.1,2.4c-1.2,4.5-4.2,6.2-8.3,6.2c-4.4,0.1-8.8,0-13.2,0c-8.1,0-16.2,0-24.3,0c-7.4,0-14.8-0.1-22.2-0.1
			c-1.6,0-3.3,0-4.8,0.4c-1.9,0.4-3.6,0.5-5.5,0.1c-1.6-0.3-3.2-0.3-4.8-0.3c-15.9,0.4-31.9-0.1-47.8,0c-13.4,0-26.8,0.1-40.2,0
			c-24.8,0-49.6-0.2-74.3-0.2c-8.1,0-16.2,0.2-24.3,0.2c-10.6,0-21.3-0.2-31.9,0c-6.5,0.1-12.9,0.9-19.4,0.6
			c-4.8-0.2-9.6,0.5-14.4-0.4c-1.4-0.3-2.8-0.2-4.2-0.2c-9-0.1-18.1-0.6-27.1-0.1c-6.7,0.4-13.4-0.3-20.1,0.1
			c-7.6,0.5-15.2-0.2-22.8-0.1c-7.4,0.1-14.8-0.1-22.2-0.1c-3.2,0-6.4,0.4-9.7,0.6c-0.9,0.1-1.9,0.4-2.8,0.2
			c-5.4-1.4-11,0.1-16.5-0.7c-0.7-0.1-1.4-0.2-2.1-0.1c-5.7,1.6-11.5-0.2-17.2,0.1c-3.2,0.2-6.4,0.3-9.7,0.5c-1.6,0.1-3.2,0.1-4.8,0
			c-4.6-0.5-9.2-0.7-13.8,0.1c-1.4,0.2-2.9,0.7-4.1,0.3c-7.1-2.2-14.3-0.8-21.4-0.8c-11.8-0.1-23.6,0.8-35.4,0.5
			c-7.4-0.2-14.8-0.4-22.2-0.4c-19.9-0.1-39.8-0.2-59.6-0.2c-9.2,0-18.5,0.4-27.8,0.1c-9.9-0.4-19.9,0.3-29.8,0.1
			c-9.9-0.2-19.9,0.1-29.9,0.2c-7.2,0-14.3-0.1-21.5-0.1c-1.4,0-2.9-0.1-4.1,0.4c-5.8,2.2-11.6,4.6-17.3,7.1c-1.9,0.8-3.5,2.3-5.4,3
			c-1.7,0.6-3.6,0.5-5.4,0.7c-0.4,0.8-0.6,1.4-0.9,2c-0.3,0.6-0.7,1.1-1.1,1.9c-2-0.7-3.9-1.4-6-2.1c-0.1-0.8-0.1-1.7-0.2-2.5
			c-0.4-0.1-0.8-0.3-1.2-0.2c-2.2,0.5-1.8,3-3.1,4.2c-4.9-4-5.4-4-9.6,0.9c-2.7-2.6-5.5-4-8.5-4.5c-1.8,0.9-0.6,2.4-0.9,4.1
			c-1.2,0.9-2.7,1.9-3.9,2.8c-5.5-1.4-9.9-3.8-13.2-8c-0.7-0.9-1.4-1.8-2-2.8c-1.9-3.7-1.9-3.8-6-7c-23.4-1.2-47.1-0.8-71.5-1.3
			c-11.4,6.6-23.8,12.7-35.9,19.7c-1.3-1.1-2.5-2.2-4-3.4c-3.3,0.9-6.8,1.9-10.8,3c0.3-1.5,0.4-2.4,0.7-3.8c-4.8,1.4-9.3,2.8-14,4.1
			c-1.7,2.6-0.6,6.7-4.4,8.2c-1-1.1-1.9-2.2-3-3.1c-0.3-0.3-1.2,0.2-1.9,0.3c-0.6,2.7,2.3,3.3,2.7,5.4c0.3,2,1,4,1.6,6.5
			c-1.5,0-2.9,0.2-4.2,0c-6.6-0.8-12.1-4.3-17.8-7.3c-1.6-1.6-3.2-3.2-4.8-4.9c-1.4-1.5-2.6-3.2-4.2-5.1c-3.4-1.8-7.6-3.2-11-6.3
			c0.1-1.8,0.2-3.6,0.3-5.7c0.9,0.1,1.7,0.1,3,0.2c1.2-1.3,2.6-2.8,4.2-4.5c-0.5-1.5-1-3-1.5-4.6c-4.9-1.3-9.8-0.7-14.6-0.9
			c-1.8-0.1-3.9,0.6-5.5,0c-4-1.4-7.9-0.3-11.6,0.3c-3.1,0.5-6,2.2-8.9,3.6c-4.9,2.5-10.2,4.4-14.4,8.1c-1,0.8-2.5,1-3.8,1.5
			c-1.7,0.6-3.6,1.1-5.2,1.9c-3.1,1.7-6.3,2.7-10.2,1.9c0.3,4.3-1.6,6.3-5.5,6.8c-1.5,0.2-2.9,1.4-4.4,2c-1.1,0.4-2.2,0.9-3.3,0.9
			c-1.1,0-2.1-0.5-3.7-0.9c1.3-1.5,2.3-2.7,3.6-4.3c-2.3-0.8-4.5-1.1-6,0.2c-3.2,2.6-5.9,1.8-8.7-0.3c-0.3-0.2-0.9-0.2-1.4-0.4
			c-2.3,0.5-3.9,2.1-5.7,4.3v6.8c-2,1.4-3.8,1-5.6,0.4c-8.5-2.5-14.1-8.3-18.2-14.7c-3.9-2.7-7.1-4.9-10.1-7
			c-1.5-5.3-4.5-9.3-7.4-13.9c-1.6,0-3.2,0-4.8,0c-3.9-0.1-7.9-0.8-11.7-0.4c-4,0.4-7.8-0.3-11.7-0.7c-2.1-0.2-4.2,0-6.2,0
			c-10.9,0-21.7-0.6-32.6-1.3c-2.9-0.2-5.9-0.1-8.9-0.3c-3-0.2-6.2,0.5-8.3,2.8c-2.3,2.5-5.2,4-8,5.3c-4.1,2-8.5,3.5-13.3,5.4
			c-0.9,1-0.6,4.3-4.4,4c-0.8-0.8-2-1.8-3.1-2.9c-2.5,0.2-5.1,0.1-7.5,0.6c-2.6,0.6-4.5-0.4-6.7-2.1c-0.4,1-0.7,1.8-1.1,2.5
			c-0.4,0.6-0.9,1-1.5,1.7c-0.8-0.2-1.7-0.4-2.6-0.6c-0.7-0.1-1.4-0.2-2.1-0.3c-2.9,1.2-4.3,3.3-4.9,6.7c1.7,0.2,3.2,0.4,5.1,0.7
			c0.4,1.5,0.8,3.2,1.2,4.8c-0.6,0.3-0.9,0.7-1.4,0.7c-1.4,0-2.8-0.2-4.1-0.1c-9.1,0.6-15.9-3.6-21.7-10.1c-2.5-2.8-4.6-5.7-8.4-7
			c-1.6-0.6-2.9-2.3-4-3.7c-2.5-3.2-4.7-6.7-8-9.2c0.7-1.5,1.3-2.7,1.9-3.8c-0.5-0.4-0.8-0.9-1.2-0.9c-9.9-1-19.7-2.1-29.6-2.7
			c-4.5-0.2-8.6-1.4-12.8-2.7c-3.1-1-6.3-1.4-9.2-2.1c-4.6,1.8-4.3,8-9.2,9.4c0.9,0.8,1.8,1.4,2.7,2.1c-0.2,1.9-0.3,3.5-0.5,5
			c-0.4,0.2-0.8,0.7-1.2,0.7c-4.8-0.6-9.5-1-13.8-3.8c-2.4-1.5-4.6-2.8-6.4-5.1c-3-3.9-6.9-6.5-11.6-8.5c-6-2.5-11.7-5.5-17.5-8.3
			c-0.6-0.3-1.1-0.9-1.6-1.4c-4.1-3.9-8.7-6.8-14.3-7.9c-1.1-0.2-2.1-0.9-3-1.4c-0.5-1.7-0.9-3.3-1.3-5c3.2-1.5,3.5-4.5,3.8-7.7
			c-0.8-2.5-1.6-5.2-2.5-7.8c-0.9-2.8-0.7-5.5,1-8c1.3-1.9,2.7-3.8,4.2-5.5c3.4-4,6.9-8,10.5-11.9c4.1-4.4,8.3-8.6,12.5-12.9
			c0.5-0.5,1.2-0.8,1.5-1.4c3.3-5.9,8.9-9.3,13.8-13.5c2.1-1.8,4.3-3.6,4.9-6.9c-1-1.6-2-3.3-3.1-5c0.1-2.5,2-4.9-0.1-7.8
			c-1.5-0.1-3.2-0.2-5.1-0.2c-0.8-0.7-1.6-1.5-2.7-2.4c-1.2,0.2-2.4,0.5-4.1,0.9c0.4,1.3,0.8,2.3,1.2,3.5c-3.5,1.7-6.5-1.3-10-1.1
			c-1.9,0.3-4,1.2-4.9,3.1c-1.2,2.4-3.4,3.6-5.6,4.9v8c-4,0.9-7.4-0.5-10.5-2.5c-2.5-1.7-4.8-3.7-6.6-6.1c-1.5-2-3.2-3.2-5.5-3.9
			c-2.5-0.7-4.7-2-6.5-4.2c-0.5-2-1-4.2-1.6-6.4c0.4-0.6,0.9-1.4,1.7-2.5c-1.7-0.2-3.2-0.3-4.6-0.5c0.1-2.1,1.9-1,2.9-2.8
			c0.8-2.5,0.9-6,0.9-9.4c0-5,1.7-8.8,5.3-12.3c3.3-3.1,5.9-7,8.9-10.6c-0.8-1.2-1.5-2.2-2.2-3.2c3.3-3.5,5.6-7.7,6.7-12.5
			c0.6-2.6,2.2-4.4,4.2-6.2c6.5-5.6,12.1-12,17-19.1c2.3-3.4,5.1-6.5,7.7-9.8c1.2-1.4,2.3-2.9,3.5-4.3c1.7-1.9,3.4-3.8,5.1-5.6
			c1.9-2,3.9-4,5.5-6.2c2.1-2.7,3.8-5.8,6.7-7.9c0.9-0.7,1.3-1.9,1.9-2.8c2.3-3.5,4.5-7,7.9-9.5c1.3-1,2.3-2.2,3.4-3.5
			c5.7-6.7,11.3-13.5,16.9-20.1c1-1.2,2.3-2.2,3.4-3.4c4.1-4,8-8.1,10.2-13.5L2901.8,485.1L2901.8,485.1L2901.8,485.1z
			 M2111.6,747.2c1.3-1,2.5-2,3.7-3c1.4-1.2,2.6-2.6,4-3.8c1.2-1.1,2.5-2,3.8-3s2.8-1.8,3.9-2.9c1.1-1.1,1.8-2.7,2.8-3.9
			c1.2-1.4,2.6-2.6,3.9-3.9c1-1,2.5-1.7,2.9-4.3c-2.1,1-3.6,1.5-4.8,2.3c-8.2,5-15.8,11.2-24.3,15.7c-2.8,1.5-5,4-7.4,6
			c-0.1,0.1,0,0.4,0,1.1C2103.9,748.1,2107.7,747.6,2111.6,747.2L2111.6,747.2L2111.6,747.2z M2260.4,741.8
			c4.9,0.9,8.8,0.3,12.6,0.1c4.4-0.2,8.8-0.5,13.1-0.2c3.8,0.3,7.2-0.6,10.6-1.2c1-2.2,1.9-4.1,2.6-6c0.1-0.3-0.3-0.8-0.5-1.5
			c-2.7,0.9-5.4,2-8.1,2.8c-2.9,0.8-5.9,2.1-8.7,1.8c-3.1-0.3-5.9,0.1-8.4,0.8c-1.6-0.8-2.8-1.5-4.1-2.2
			C2266.6,737.5,2262.9,737.7,2260.4,741.8L2260.4,741.8L2260.4,741.8z M2145.6,717.2c-1.6-0.2-3,0.5-4.1,2
			C2143.3,720.4,2144.2,719.1,2145.6,717.2z M2632.9,800.3c-0.4-0.2-0.7-0.3-1.1-0.5c0,0.3-0.1,0.8,0,0.9c0.3,0.2,0.7,0.2,1.1,0.2
			C2632.8,800.7,2632.8,800.5,2632.9,800.3L2632.9,800.3L2632.9,800.3z"/>
	</g>
	<path class="st1" d="M2674.5,1142.5c3.3,20.4,9.7,39.4,16.8,58.7c3.5,9.4,5.1,18.4,5.3,28.4s1.4,19.8,4.4,29.5
		c2.2,7.3,13.7,4.2,11.5-3.2c-3-9.6-3.8-19.1-4-29.1s-2.2-19.4-5.7-28.8c-7.1-19.3-13.4-38.3-16.8-58.7
		C2684.8,1131.8,2673.3,1135,2674.5,1142.5L2674.5,1142.5L2674.5,1142.5z"/>
	<path class="st1" d="M2675.9,1144.8c4.3,8.4,4.8,17.8,4.9,27c0.2,9.8,0.4,19.5,1.8,29.3c2.7,20.2,8.5,39.8,14.4,59.2
		c2,6.6,11.2,5.1,11.7-1.6c1.7-24.6-1.5-49.4-9.4-72.8c-1.8-5.3-10-6-11.5,0c-3.4,13.9-1.7,28.1,5,40.7c3.1,6,12.7,1.9,10.9-4.6
		c-2.7-9.5-5.4-19.1-8.2-28.6c-2.1-7.4-13.6-4.2-11.5,3.2c2.7,9.5,5.4,19.1,8.2,28.6l10.9-4.6c-5.1-9.8-6.4-20.8-3.8-31.5h-11.5
		c7.6,22.5,10.6,45.9,9,69.7l11.7-1.6c-6.1-20.2-12.4-40.7-14.7-61.8c-2-18.9,1.4-39-7.6-56.6
		C2682.6,1132,2672.4,1138,2675.9,1144.8L2675.9,1144.8L2675.9,1144.8L2675.9,1144.8z"/>
	<path class="st1" d="M2672.3,1143.9c-2.1,11.2,0.2,21.9,4.3,32.3s9.8,21.2,10.5,32.9c0.6,10.4-1,21.2,2.6,31.2
		c3.1,8.6,8.8,15.6,17.7,18.4c7.3,2.3,10.5-9.2,3.2-11.5s-10.2-10.2-11-17.1c-1.2-9.3,0.2-18.8-1.3-28.1c-3-18.4-18.1-35.7-14.4-55
		C2685.2,1139.6,2673.8,1136.4,2672.3,1143.9L2672.3,1143.9L2672.3,1143.9z"/>
	<path class="st1" d="M2713.5,1246.1c10.6,2.9,21,6.4,31.2,10.7l-9.9-4.2c9,3.8,18.2,7.8,26,13.7l-8.4-6.5c2.6,2.1,4.9,4.3,7,6.9
		l-6.5-8.4c1.1,1.5,2,2.9,2.8,4.5l-4.2-9.9c0.7,1.6,1.2,3.2,1.5,4.9l-1.5-11.1c0.2,1.8,0.2,3.5-0.1,5.3l1.5-11.1l-0.3,1.4l4.2-9.9
		l-0.6,1.3l6.5-8.4l-0.9,1l8.4-6.5l-1.4,0.7l21-5.7c-6.5,0.8-13.8-0.6-20.3-1.4l11.1,1.5c-8.2-1.1-16.2-2.8-23.9-6l9.9,4.2
		c-3.7-1.7-7.1-3.6-10.4-6l8.4,6.5c-5.2-4.1-9.2-9.3-13.4-14.5c-6-7.5-13.2-13.8-21.5-18.7c-15.3-9.1-38.1-7-50.5,6.5
		c-4.9,5.3-8.5,11.5-10.7,18.4c-3.6,11.3-0.2,21.9,4.2,32.1l0.7,1.6l-4.2-9.9c2.9,7.1,4.9,14.5,6,22.1l-1.5-11.1
		c0.4,3.5,0.7,7,0.8,10.6c0.3,13.3,5.9,24.6,16.4,32.7s23,10.3,36.3,7.5c6.3-1.3,12.6-2.4,18.9-3.3l-11.1,1.5
		c20.7-2.7,41.5-3.2,62.4-2.9c19.7,0.3,39.8,0.4,59.3,2.9l-11.1-1.5c8.4,1.2,16.6,3,24.5,6.2l-9.9-4.2c3.1,1.3,6.1,2.8,9,4.6
		c14-24,28-48,42.1-72c-43.7-18.6-86.1-39.9-127.2-63.8c-9.4-5.4-21.7-7.1-32.1-4.2c-9.7,2.7-20.1,10.1-24.9,19.2
		c-10.5,19.9-5.2,45.3,14.9,57c41,23.9,83.5,45.2,127.2,63.8c4.8,3.1,9.9,4.7,15.5,4.9c5.5,1.2,11.1,1,16.6-0.7
		c9.7-2.7,20.1-10.1,24.9-19.2c10.6-20.1,5.1-45.1-14.9-57c-30.7-18.3-67.6-18-102.3-19s-69.7,0.2-103.9,7.4l52.8,40.2
		c-0.2-9.6-1.5-19.2-3.5-28.6s-5.9-17.9-9.7-26.7l-57,57c1.3,0.8,2.5,1.6,3.7,2.5l-8.4-6.5c5.1,4.2,9,9.4,13.1,14.5
		c5.9,7.3,13.2,13.3,21.1,18.4c16.9,10.8,36.6,14,56.1,16.1c13.2,1.4,25,1.5,37.5-4.8c21-10.5,26.7-35.5,22.5-56.8
		s-21.6-37.6-39.6-47.2s-38.1-17.3-58-22.7c-10.4-2.8-22.8-1.3-32.1,4.2c-8.6,5.1-16.9,15-19.1,24.9
		C2679.4,1216.8,2691,1239.9,2713.5,1246.1L2713.5,1246.1L2713.5,1246.1L2713.5,1246.1z"/>
	<path class="st1" d="M2746.4,1137.6c-17.1-6.2-36-9.2-54.2-9.1c-7.9,0-15.6,0.9-23,4c-9.8,4.1-17.3,10.3-22.6,19.7
		c-4.9,8.7-4.9,16.4-8,25.2l4.2-9.9c-0.5,1.2-1.1,2.3-1.9,3.4l6.5-8.4c-0.5,0.7-1.2,1.3-1.9,1.8l8.4-6.5c-0.8,0.6-1.6,1-2.5,1.4
		l9.9-4.2c-7.6,2.7-16.1,3.4-24,4.9c-11.8,2.3-22.5,10.3-28.7,20.5c-5.4,8.9-5.9,17.2-6.5,27.2l1.5-11.1c-0.1,1-0.4,1.9-0.8,2.8
		l4.2-9.9c-0.4,0.9-0.9,1.7-1.6,2.5l6.5-8.4l-1,1l8.4-6.5l-1.2,0.9c-9,6.8-16,13.6-19.1,24.9c-2.8,10-1.5,23.3,4.2,32.1
		s14.3,16.7,24.9,19.2s23.3,2.4,32.1-4.2c9.3-6.9,16.2-13.5,20.8-24.3c3.1-7.4,4.5-14.8,4.4-22.9l-1.5,11.1l0.2-1.2l-4.2,9.9l0.6-1
		l-14.9,14.9l0.8-0.6l-9.9,4.2c5.1-1.9,11.2-2.3,16.6-3.3c8-1.5,15.8-3.5,22.8-7.9c11.5-7.3,19.4-18.4,23.3-31.3
		c1.3-4.4,1.6-9.1,3.1-13.5l-4.2,9.9c0.2-0.7,0.6-1.3,1-1.9l-6.5,8.4l0.8-0.7l-8.4,6.5l1-0.5l-9.9,4.2l1.1-0.2l-11.1,1.5
		c7.8-0.6,15.8,0,23.5,1l-11.1-1.5c8.7,1.3,17.1,3.4,25.4,6.4c9.7,3.5,23.5,0.8,32.1-4.2s16.9-15,19.1-24.9
		c2.4-10.7,1.9-22.6-4.2-32.1S2757,1141.4,2746.4,1137.6L2746.4,1137.6L2746.4,1137.6z"/>
	<path class="st1" d="M2627.2,1268.3c16,0.2,32.1,0.5,48.1,0.8c21.8,0.3,42.7-19.4,41.7-41.7s-18.3-41.3-41.7-41.7
		c-16-0.2-32.1-0.5-48.1-0.8c-21.8-0.3-42.7,19.4-41.7,41.7S2603.8,1267.9,2627.2,1268.3L2627.2,1268.3z"/>
	<path class="st1" d="M2678,1281.1c5.2-1.8,10.5-3.7,15.7-5.7c4.9-1.9,9.9-4.3,15.1-5.2l-11.1,1.5c13.1-0.9,26.6,0.3,39.8,0.5
		s26.9,0.5,40.4,0.7c21.8,0.4,42.7-19.4,41.7-41.7c-1-22.9-18.3-41.2-41.7-41.7c-19.4-0.3-38.8-0.7-58.2-1.1
		c-12.1-0.2-24.8-1.3-36.6,2.1c-9.2,2.7-18.2,6.9-27.3,10.1c-10.3,3.6-19.2,9.5-24.9,19.2c-5.2,8.9-7.4,22.1-4.2,32.1
		s9.5,19.8,19.1,24.9S2667.5,1284.8,2678,1281.1L2678,1281.1L2678,1281.1z"/>
	<path class="st1" d="M2029.2,580.6c-0.7-2.8-1.3-5.5-1.7-8.3l1.5,11.1c-0.7-5.5-0.7-11,0-16.6l-1.5,11.1c0.9-6.4,2.6-12.6,5-18.6
		l-4.2,10c3.2-7.5,7.3-14.3,12.2-20.8l-6.5,8.4c5.4-6.9,11.6-13.1,18.5-18.5l-8.4,6.5c7.4-5.7,15.3-10.5,23.9-14.2l-9.9,4.2
		c10.4-4.4,21.3-7,32.4-8.5l-11.1,1.5c18.4-2.4,36.8-1.6,55.1,0.8l-11.1-1.5c19.2,2.6,38.1,6.8,56.9,11.1
		c14.7,3.4,29.7,0.1,40.5-10.7s14.1-25.9,10.7-40.5c-0.8-3.5-1.5-7-2-10.6l1.5,11.1c-1.5-11.1-1.4-22.2,0.1-33.2l-1.5,11.1
		c1.7-12,5-23.5,9.7-34.6l-4.2,10c5-11.6,11.4-22.4,19.1-32.4l-6.5,8.4c7.5-9.6,16-18.2,25.5-25.7l-8.4,6.5
		c9.2-7.1,19.1-13,29.8-17.6l-9.9,4.2c9.5-3.9,19.4-6.7,29.5-8.2l-11.1,1.5c12.6-1.7,25.3-1.5,37.9,0.1l-11.1-1.5
		c16.9,2.4,33.2,7.3,48.9,13.9l-9.9-4.2c16.1,6.8,31.4,15.2,46.3,24.4s28.8,19.6,43.4,29c25,16.1,55.9,16,80.9,0
		c16.4-10.5,30.4-24.9,45.8-36.8l-8.4,6.5c21.3-16.4,44.2-30.9,69.1-41.4l-9.9,4.2c15.7-6.5,32-11.3,48.9-13.7l-11.1,1.5
		c14.3-1.9,28.7-2,43-0.1l-11.1-1.5c16.2,2.2,31.8,6.8,46.9,13.1l-9.9-4.2c24.6,10.4,47.1,24.9,68.2,41.2l-8.4-6.5
		c27.8,21.6,52.9,46.6,74.6,74.5l-6.5-8.4c19.5,25.3,36,52.8,48.6,82.2l-4.2-10c10.6,25.2,18.2,51.5,22,78.7l-1.5-11.1
		c2.7,20,3.3,40.2,1.6,60.3c-0.9,10.1,5.3,22.5,12.2,29.5s19.1,12.7,29.5,12.2s22-4,29.5-12.2s11.2-17.9,12.2-29.5
		c8.3-98.6-35-194.3-98.4-267.7c-14.4-16.7-30.2-32.3-47.1-46.5c-20.5-17.3-42.2-33.6-65.7-46.6c-23.1-12.8-48.5-23.5-74.6-28.2
		c-29.9-5.3-59.1-4.7-88.7,2.3c-28.4,6.8-55.9,19.5-80.6,34.9c-14.1,8.7-27.2,18.7-40.3,28.9c-10.5,8.2-20.2,17.4-30.7,25.5l8.4-6.5
		c-4.3,3.2-8.8,6.1-13.8,8.2l9.9-4.2c-2.4,0.9-4.8,1.6-7.4,2l11.1-1.5c-2.6,0.3-5.1,0.3-7.7,0l11.1,1.5c-2.8-0.5-5.4-1.3-8-2.4
		l9.9,4.2c-7.2-3.4-13.5-8.4-20.1-12.9c-6.9-4.8-14-9.6-21.1-14.1c-14-9-28.4-17.5-43.4-24.8c-34.2-16.5-71.9-28.6-110.4-26.4
		c-32,1.9-63.6,12.1-89.3,31.6c-25.3,19.2-47.1,43.2-60,72.6c-4.1,9.4-8.2,18.9-10.9,28.9s-4.1,20.4-5.3,30.7
		c-2,17.3-0.2,35.3,3.7,52.2l51.3-51.3c-47.2-10.8-95-20-143.2-10.4c-20,4-39.8,12.3-56.1,24.5c-18.2,13.6-34.8,29.9-44.8,50.7
		c-12.2,25.3-16.7,52.5-9.6,80.1c2.6,10,10.2,19.7,19.2,24.9s22.1,7.4,32.1,4.2C2021.9,624.9,2035.1,603.3,2029.2,580.6
		L2029.2,580.6L2029.2,580.6z"/>
	<path class="st1" d="M2885.9,481.7c-9.1-19.5-26.6-34.6-41.7-49.5c-14.8-14.6-29.5-29.3-44.3-43.9s-29-28.8-43.6-43.2
		c-9-9-17.8-18.8-28.6-25.7c-8.2-5.1-18.4-8.2-28.1-8.4c-14.3-0.2-26.3,6-37,15c-8.4,7-16,15.1-23.9,22.6
		c-8.4,8-16.9,16.1-25.3,24.1c-12.1,11.5-14.9,30.5-8.6,45.5s21.4,25.6,38.1,25.6c13.7,0,27.3,1,40.9,2.8l-11.1-1.5
		c26.6,3.7,52.4,10.8,77.2,21.2l-9.9-4.2c23.6,10,45.9,22.9,66.3,38.4l9.9-76.2l-1.8,0.3l11.1-1.5c-4.7,0.6-9.3,0.6-14,0l11.1,1.5
		c-15.6-2.4-29.6-9.8-44.2-15.4s-29.3-9.8-44.4-12.9c-33.6-6.9-68.1-9.4-102.2-5.5l-11.1,1.5c-5.4,1.3-10.1,3.8-14.2,7.5
		c-6.9,5.3-12.9,12.9-14.9,21.6c-1.7,7.3-1.7,14.8,0,22.2c2.4,10.8,10.5,18.9,19.1,24.9c5,3.5,9.9,7.1,14.7,10.8l-8.4-6.5
		c26.3,20.4,49.9,44,70.2,70.3l-6.5-8.4c12.1,15.8,23.1,32.5,32.7,50c15.7-20.4,31.4-40.8,47.1-61.2
		c-79.2-29.8-158.3-59.6-237.5-89.4c-22.4-8.5-44.9-16.9-67.3-25.4c-9.2-3.5-24-1-32.1,4.2s-13.4,11.4-17.1,19.9s-4.9,18.3-2.1,27.1
		c3.5,10.9,9.9,18.3,19.1,24.9c46.7,33.5,93.4,67,140.1,100.4c10.6,7.6,25.8,6.9,37.1,2.1c11.7-4.9,20.9-14.4,24.1-27
		c9.4-36.7,17-73.9,9-111.6c-1.6-7.7-4.4-14.9-7.5-22.2s-6.4-14.6-11.1-21.1c-12.5-17.1-29.1-34.2-50.5-39.5
		c-23.5-5.8-47.9,5.6-57.3,28c-4.3,10.3-5.4,21.4-5.6,32.5c-0.2,10,0.9,20.4,3.1,30.1c2.1,9.1,5.9,18.5,11.4,26.1
		c7.6,10.5,16.1,19.2,27.5,25.8c8.2,4.8,17.3,8.2,26.3,11.1c15.2,4.8,30.7,8.6,46.1,12.7c36.9,10.1,73.9,20.1,110.8,30.2
		c10.4,2.8,22.8,1.3,32.1-4.2c8.6-5.1,16.9-15,19.1-24.9c5-22-6.6-45.1-29.1-51.3c-28.6-7.8-57.2-15.6-85.7-23.4
		c-14.1-3.9-28.3-7.7-42.4-11.5c-12.6-3.4-25.5-6.3-37.5-11.2l9.9,4.2c-4.7-2-9.1-4.4-13.2-7.5l8.4,6.5c-2.4-1.9-4.5-4-6.4-6.4
		l6.5,8.4c-2.2-2.9-3.9-6-5.4-9.4l4.2,10c-1.5-3.9-2.5-7.9-3.1-12l1.5,11.1c-1.2-8.8-1.1-18,0-26.8l-1.5,11.1c0.3-1.5,0.6-2.7,1.2-4
		l-4.2,10l0.7-1.2l-6.5,8.4c0.5-0.8,1.1-1.4,1.9-1.9l-8.4,6.5l1.3-0.6l-9.9,4.2l1.4-0.3l-11.1,1.5c1-0.1,1.9-0.1,2.9,0.1l-11.1-1.5
		c1,0.2,2,0.5,2.9,0.9l-9.9-4.2c3.6,1.6,6.9,3.8,10.1,6.2l-8.4-6.5c4.2,3.4,7.9,7.2,11.3,11.4l-6.5-8.4c4.2,5.5,7.6,11.5,10.4,17.9
		l-4.2-10c3.3,7.9,5.4,16.1,6.6,24.6l-1.5-11.1c1.6,12.2,1.1,24.5-0.5,36.6l1.5-11.1c-2.1,15.4-5.9,30.4-9.7,45.4
		c20.4-8.3,40.8-16.6,61.2-24.9c-46.7-33.5-93.4-67-140.1-100.4c-10.7,25.4-21.4,50.8-32.1,76.2c79.2,29.8,158.3,59.6,237.5,89.4
		c22.4,8.5,44.9,16.9,67.3,25.3l11.1,1.5l11.1-1.5c8.8-2.4,16.1-7.8,21.6-14.9c10.3-13.4,11.4-31.4,3.3-46.3
		c-32.2-58.5-78.1-107.9-132.6-146.1c-7,25.9-14,51.8-21,77.6c23.5-2.7,47.1-2.5,70.6,0.6l-11.1-1.5c22.2,3,44,8.4,64.9,16.4
		c10.2,3.9,20,8.7,30.4,12c17.1,5.6,34.1,6.1,51.7,3l9.9-4.2l8.4-6.5c6.5-6.5,10.2-14.9,11.5-23.9c1-7.6,0.1-14.5-2.8-21.6
		c-3.8-9-9.3-14-17.1-19.9c-58.2-44.3-132.4-67.9-205.4-68c9.8,23.7,19.6,47.4,29.5,71.1c8.4-8,16.9-16.1,25.3-24.1
		s15.8-16.2,24.5-23.1l-8.4,6.5c0.8-0.6,1.6-1.1,2.6-1.5l-9.9,4.2c0.9-0.4,1.9-0.7,2.9-0.8l-11.1,1.5c1-0.1,2,0,2.9,0.2l-11.1-1.5
		c1,0.2,1.9,0.5,2.9,0.9l-9.9-4.2c1.4,0.7,2.7,1.5,4,2.5l-8.4-6.5c6,4.8,11.3,10.7,16.8,16.1s11.2,11.2,16.9,16.7
		c11.5,11.4,22.9,22.8,34.4,34.2c11.2,11.2,22.5,22.3,33.7,33.5s22.5,21.1,32.1,33.1l-6.5-8.4c3.1,4,5.8,8.2,7.9,12.9
		c4.1,9,15.8,16.6,24.9,19.2c10,2.8,23.3,1.5,32.1-4.2c8.9-5.7,16.7-14.3,19.1-24.9l1.5-11.1
		C2891.6,495.2,2889.7,488.2,2885.9,481.7L2885.9,481.7L2885.9,481.7L2885.9,481.7z"/>
	<path class="st1" d="M2644.9,399.3c-72.2-6.5-144.4,3.1-216.7,1.1c-18.4-0.5-36.8-1.8-55-4.3l11.1,1.5
		c-28.7-3.9-56.9-10.7-83.6-21.9l9.9,4.2c-8.5-3.6-16.8-7.7-24.9-12.2c-11.8-6.6-24.8-7.3-37.1-2.1c-11,4.7-21.9,14.6-24.1,27
		s-5.8,24.4-10.6,36l4.2-10c-5.6,13.2-12.7,25.5-21.2,37c25.4,10.7,50.8,21.4,76.2,32.1c0.3-0.8,0.6-1.6,0.9-2.4l-4.2,10
		c1.4-3.1,3.1-5.9,5.1-8.6l-6.5,8.4c2.4-2.9,5-5.5,7.9-7.8l-8.4,6.5c4.1-3.1,8.6-5.5,13.3-7.6l-9.9,4.2c8.8-3.6,18-5.7,27.4-7
		l-11.1,1.5c11.6-1.5,23.5-2,35.1-0.6l-11.1-1.5c5.3,0.8,10.4,2,15.3,4l-9.9-4.2c3.6,1.6,6.9,3.5,10,5.9l-8.4-6.5
		c2.3,1.9,4.3,3.9,6.2,6.2l-6.5-8.4c1.8,2.3,3.2,4.7,4.4,7.3l-4.2-10c0.9,2.2,1.5,4.4,1.9,6.8l-1.5-11.1c0.3,2.4,0.3,4.6,0,7
		l1.5-11.1c-0.4,1.9-0.9,3.6-1.6,5.3l4.2-10c-0.8,1.7-1.7,3.3-2.8,4.9l6.5-8.4c-1.4,1.9-3,3.5-4.8,5l8.4-6.5c-1.5,1.1-3,2-4.7,2.8
		l9.9-4.2c-1.7,0.7-3.3,1.1-5.1,1.4l11.1-1.5c-1.4,0.1-2.6,0.1-4,0l11.1,1.5l-1.4-0.2c8.3,6.4,16.6,12.8,24.9,19.1c-1-2-2-4-2.9-6
		l4.2,10c-2.9-7.1-4.9-14.4-6.1-22l1.5,11.1c-1.6-11.6-1.2-23.2,0.3-34.8l-1.5,11.1c1.4-9.9,3.5-19.7,6-29.4s4.8-19,8.4-28l-4.2,10
		c0.4-0.8,0.8-1.6,1.4-2.3l-6.5,8.4l0.9-0.9l-8.4,6.5l1.1-0.6l-9.9,4.2l1.6-0.3l-11.1,1.5l1.7,0.2l-11.1-1.5l1.7,0.5l-9.9-4.2
		c29.4,12.6,57.4,29.3,83.7,47.5c8.5,5.9,22.5,6.9,32.1,4.2s20.1-10.1,24.9-19.1c5.1-9.7,7.7-21.4,4.2-32.1s-9.8-18.4-19.1-24.9
		c-15-10.4-30.5-20.1-46.4-28.9c-7.9-4.3-15.8-8.5-23.9-12.4c-4.1-2-8.3-4-12.6-5.9c-8-3.5-14.4-6.5-23.5-6.6s-16.6,1.8-24.4,5.8
		c-15.7,8.1-21.5,24.4-26.2,40.1c-2.5,8.2-4.8,16.5-6.8,24.9c-4.4,19-7.8,39.1-6.6,58.7c0.7,10.9,2.1,22.2,5.3,32.7
		c2,6.6,4.8,12.9,7.6,19.2c5.6,12.4,15.8,21,28.8,24.6c19.6,5.5,39.5-2.3,54.4-14.8c9.6-8,17-20.7,19.8-32.9
		c3.8-16.9,0.9-33.2-6.9-48.5c-6.1-11.8-16.2-20.8-26.9-28.3c-5.3-3.7-11.6-6-17.6-8.4c-4.4-1.7-8.9-3-13.6-3.7
		c-11.8-1.9-23.2-2.8-35.1-2.2c-21.9,1.1-41.9,5.2-61.9,14.1c-9.2,4.1-17.7,10.1-25,17c-10.1,9.6-16.1,21.1-21,33.9
		c-3.4,9.2-1,24,4.2,32.1s11.4,13.5,19.9,17s18.3,5,27.1,2.1l9.9-4.2c6.3-3.7,11.2-8.7,14.9-15c18-24.1,30.6-53.4,36-83
		c-20.4,8.3-40.8,16.6-61.2,24.9c47.6,26.7,100.8,38.2,154.8,42.5c51.6,4.1,103.3,0.3,154.9-1.3c30.5-0.9,61.1-1,91.5,1.8
		c10.1,0.9,22.6-5.3,29.5-12.2c7.2-7.2,12.7-19.1,12.2-29.5s-4-22-12.2-29.5C2665.8,403.6,2656.4,400.3,2644.9,399.3L2644.9,399.3
		L2644.9,399.3z"/>
	<path class="st1" d="M2134.4,769.7c6.3-1.7,12.7-3,19.2-3.8l-11.1,1.5c13-1.6,26.1-1.5,39.1,0.2l-11.1-1.5
		c13,1.9,25.6,5.3,37.7,10.4l-9.9-4.2c9.9,4.2,19.1,9.5,27.8,15.7c11.7,8.2,22.8,14.8,36.4,19.8c9.7,3.5,23.5,0.8,32.1-4.2
		s16.9-15,19.1-24.9c2.4-10.7,1.9-22.6-4.2-32.1s-14.2-15.3-24.9-19.2c-1.1-0.4-2.1-0.8-3.1-1.2l9.9,4.2c-12.8-5.5-23.2-15-35.1-22
		c-14.1-8.2-29.6-14.6-45.3-18.9c-32.2-8.6-66.7-8.7-98.9-0.1c-10.1,2.7-19.6,10.2-24.9,19.2s-7.4,22.1-4.2,32.1
		C2090.1,762.2,2111.8,775.8,2134.4,769.7L2134.4,769.7L2134.4,769.7z"/>
</g>
<g id="b1">
	<path class="st2" d="M5282.4,433.7c0.3,11.1,0.5,22.1,0.9,33.2v-33.2C5282.9,433.7,5282.6,433.7,5282.4,433.7L5282.4,433.7
		L5282.4,433.7z"/>
</g>
</svg>
