<?xml version="1.0" encoding="UTF-8"?>
<svg id="Layer_1" data-name="Layer 1" xmlns="http://www.w3.org/2000/svg" xmlns:xlink="http://www.w3.org/1999/xlink" viewBox="0 0 7000 2076">
  <defs>
    <style>
      .cls-1 {
        fill: #ffc550;
      }

      .cls-2 {
        fill: #5e400b;
      }
    </style>
  </defs>
  <g id="Layer_3" data-name="Layer 3">
    <path class="cls-1" d="M3581.5,985.6c-.1-2.5-.1-4.9-.4-7.4-.3-2.6-1.4-5.1-1.6-7.8-.6-12.3-2.2-24.6-3.7-36.9-.1-1.1-.6-2.2-1.3-3.1,.1-2.8,0-5.8-.6-8.5,.8-2.5,0-5.5-2.9-6.9-.7-.3-1.3-.5-1.9-.5-4-2.3-9.9-2.1-14-1.8-.9,.1-1.6,.3-2.3,.7-2.1-.5-4.3-.9-6.4-1.4-6.8-1.5-13.6-2.9-20.4-4.4-13.9-3-27.8-6.1-41.7-9.2-27.8-6.2-55.6-12.4-83.3-18.6-2.2-.5-4,.4-5.1,1.8-4.1-.5-7.7-2.9-11.8-3.7-5.4-1.2-11-1.2-16.5-2.5-10.5-2.4-20.4-6.4-30.3-10.5-2.5-1-4.4,.1-5.4,2-30.7-8.7-61.4-17.5-92.2-26.2-1.7-.5-3.1-.1-4.1,.7-.4-.1-.8-.2-1.3-.2-2.1-.1-4.3-.3-6.4-.6-1.7-1-3.5-2.2-4.2-2.5-3.1-1.2-6.3-1.5-9.6-1.7-.8,0-1.5,.1-2.2,.4-1.7-.6-3.5-1.2-5.2-1.9-1.5-.6-2.7-.5-3.7,.1-1.4-.8-2.8-1.6-4.1-2.4-5.5-3.5-10.5,5.2-5,8.6,.2,.1,.5,.3,.7,.4,5.2,49.3,10.5,98.6,15.7,147.9-.6,.8-1,1.8-1,2.9-.1,1.7-.2,3.4-.3,5.2-.1,1.7-.4,3.6,0,5.3,.3,1.2,.9,2.2,1.7,3,.6,2,2.4,3.6,4.7,3.6h3.1c1,0,2-.4,2.9-.9,13.8,3.6,29.3,3,43.3,3.8,17.7,1,35.5,2.1,53.2,3.1,35.4,1.9,70.9,3,106.4,1.4,.9,0,1.6-.3,2.2-.6,.3,0,.6,.1,1,.1,49.5-1.7,99-3.4,148.5-5.1,2-.1,3.9-1.3,4.6-3.1,1.1-.8,1.8-2.1,1.7-3.8-.3-6.4-.6-12.6-.8-18.8Zm-308.4-96.7c-.1-.1-.2-.2-.3-.3,1.5,.6,3.1,1.2,4.6,1.8-1.4-.4-2.8-1-4.3-1.5Zm209.8,87.8c1,0,2,.1,3.1,.1v.3c-1-.2-2.1-.3-3.1-.4Zm67.5-8.1c0-.7-.1-1.4-.2-2,.4,.8,.8,1.7,1.1,2.6-.3-.2-.6-.4-.9-.6Z"/>
    <g>
      <path class="cls-2" d="M3255.5,961.4l-10.9-61.9,6.9,1,5.1,30.5c1.4,8.3,2.6,15.7,3.2,22.8h.1c1.9-6.8,4.6-14.1,7.4-21.6l10.4-28,6.4,.9-21.8,56.9-6.8-.6Z"/>
      <path class="cls-2" d="M3312.4,945.1c-1.3,15-9.8,20.9-17.5,20.3-8.8-.7-14.9-9.5-13.8-22.8,1.2-14,9.1-21.3,18-20.2,9,1.2,14.4,10.4,13.3,22.7Zm-25.2-2.1c-.8,9.1,2.8,16.3,8.5,16.8,5.5,.5,10.2-5.8,11-15,.6-6.9-1.3-15.9-8.2-16.7-6.9-.9-10.7,7-11.3,14.9Z"/>
      <path class="cls-2" d="M3328.7,915.5l-.9,11.4,7.7,1-.5,5.5-7.7-.9-1.8,21.5c-.4,4.9,.4,7.8,3.4,8.1,1.4,.1,2.5,0,3.2-.2l-.2,5.4c-1.1,.5-2.8,.8-4.9,.6-2.5-.2-4.5-1.4-5.7-3.5-1.4-2.3-1.7-5.9-1.3-10.6l1.8-21.9-4.7-.6,.5-5.6,4.7,.6,.8-9.6,5.6-1.2Z"/>
      <path class="cls-2" d="M3342.3,949.8c-.7,9.6,3.5,14,8.7,14.4,3.7,.3,5.9-.4,7.9-1.3l.5,5.1c-1.9,1-5,2-9.5,1.7-8.8-.7-13.5-9.1-12.6-21,1-11.9,6.9-20.6,15.2-19.5,9.1,1.1,10.6,12.4,10.1,19.4-.1,1.4-.3,2.5-.4,3.2l-19.9-2Zm15.5-3.5c.4-4.4-.4-11.5-6.2-12.2-5.2-.6-8.1,5.7-8.9,10.6l15.1,1.6Z"/>
      <path class="cls-2" d="M3369.2,944c.4-4.5,.6-8.3,.7-11.9l4.3,.5-.4,7.4h.2c1.6-4.9,4.8-7.7,8-7.3,.5,.1,.9,.2,1.3,.4l-.5,6.4c-.5-.2-1-.3-1.6-.4-3.4-.4-6.1,3-7.2,8-.2,.9-.4,2-.5,3.2l-1.6,20.1-4.9-.4,2.2-26Z"/>
      <path class="cls-2" d="M3400.6,921.4l18.5,2.6-.4,5.4-14-1.9-1.3,16.8,13,1.5-.4,5.3-13-1.4-1.8,23-4.6-.4,4-50.9Z"/>
      <path class="cls-2" d="M3423.5,957.9c-.6,8.7,2.9,12.7,7.1,13,3,.3,4.9-.4,6.6-1.3l.4,4.6c-1.6,.9-4.2,1.9-7.9,1.6-7.3-.6-11.1-8.1-10.3-18.9,.8-10.8,5.8-18.7,12.6-17.9,7.6,.9,8.8,11.2,8.3,17.6-.1,1.3-.3,2.3-.4,2.9l-16.4-1.6Zm12.8-3.4c.4-4-.3-10.5-5.1-11-4.3-.5-6.7,5.3-7.4,9.7l12.5,1.3Z"/>
      <path class="cls-2" d="M3443.8,969.7c1.1,1.3,3.2,2.8,5.2,3,2.9,.2,4.5-1.9,4.7-4.7,.2-3-.8-4.7-3.6-6.7-3.9-2.6-5.5-6.2-5.2-10.4,.4-5.6,3.7-9.8,8.5-9.2,2.2,.3,4.1,1.5,5.2,2.8l-1.3,4.4c-.8-.9-2.3-2.3-4.4-2.5-2.4-.3-3.9,1.7-4.1,4.3-.2,2.8,1,4.3,3.8,6.3,3.7,2.7,5.4,5.8,5,10.9-.5,6-3.8,10-9.1,9.6-2.5-.2-4.7-1.3-6.2-2.9l1.5-4.9Z"/>
      <path class="cls-2" d="M3470,934.8l-.7,9.6,5.5,.7-.3,4.6-5.5-.6-1.4,18.1c-.3,4.2,.3,6.6,2.4,6.8,1,.1,1.8-.1,2.3-.2l-.2,4.6c-.8,.4-2,.7-3.5,.6-1.8-.1-3.2-1.2-4-2.9-1-1.9-1.1-4.9-.8-8.9l1.4-18.4-3.3-.4,.4-4.7,3.3,.4,.6-8.1,3.8-1.2Z"/>
      <path class="cls-2" d="M3476.5,978.7l2.5-33.1,3.7,.5-2.5,33-3.7-.4Zm7.3-41.8c-.1,2-1.2,3.6-2.6,3.4-1.3-.2-2.1-1.9-2-4,.2-2.1,1.3-3.6,2.6-3.4,1.4,.1,2.2,1.9,2,4Z"/>
      <path class="cls-2" d="M3490.3,947l2.5,18.7c.4,3,.8,5.7,1,8.5h.1c.7-2.6,1.4-5.3,2.3-8.1l5.2-17.7,3.7,.5-10.1,31.4-3.4-.3-5.2-33.4,3.9,.4Z"/>
      <path class="cls-2" d="M3516.3,981.8v-4h-.1c-1.2,2.4-3.4,4.4-6.1,4.2-3.9-.3-5.5-5-5.2-9.6,.6-7.7,5-11.5,12.2-10.6v-.6c.2-2.6,.1-7.3-3.7-7.8-1.8-.2-3.7,.5-5.1,1.8l-.5-3.9c1.7-1.5,4.1-2.3,6.4-2.1,5.7,.7,6.6,7.4,6.1,13.7l-.9,11.7c-.2,2.7-.3,5.4-.2,7.5l-2.9-.3Zm.6-16c-3.7-.5-8,.2-8.5,6.3-.3,3.7,1.1,5.6,2.8,5.8,2.5,.2,4.2-2.3,4.9-4.9,.2-.6,.3-1.2,.3-1.8l.5-5.4Z"/>
      <path class="cls-2" d="M3527.7,937l3.3,.5-3.3,45.3-3.3-.3,3.3-45.5Z"/>
    </g>
  </g>
  <image width="1600" height="1253" transform="translate(1763.07 -678.83) scale(2.21)" xlink:href="../../../../../Layer 1.png"/>
</svg>